<svg width="20" height="20" viewBox="0 0 20 20" fill="none" xmlns="http://www.w3.org/2000/svg">
<rect width="20" height="20" rx="10" fill="#090910"/>
<path d="M18.2307 6.19289C17.9003 4.90152 17.3006 4.40203 16.1746 4.21929C15.5382 4.12183 12.4417 4 9.98164 4C7.5216 4 4.4496 4.13401 3.81317 4.23147C2.68719 4.40203 2.07523 4.90152 1.75702 6.19289C1.64687 6.61929 1.5 8.99492 1.5 9.90863V10.1036C1.5 11.0051 1.64687 13.3807 1.75702 13.8193C2.07523 15.1107 2.68719 15.6102 3.80094 15.7807C4.43737 15.8782 7.53384 16 9.99388 16C12.4539 16 15.5382 15.8782 16.1868 15.7807C17.3006 15.598 17.9125 15.1107 18.243 13.8193C18.3531 13.3807 18.5 11.0173 18.5 10.1036V9.90863C18.5 9.00711 18.3531 6.63147 18.243 6.19289H18.2307ZM7.9622 12.1746V7.83756L12.0378 9.95736L7.9622 12.1746Z" fill="white"/>
</svg>
