<svg width="20" height="20" viewBox="0 0 20 20" fill="none" xmlns="http://www.w3.org/2000/svg">
<rect width="20" height="20" rx="10" fill="#090910"/>
<path d="M13.3625 1.92773H6.56571C4.00552 1.92773 1.92822 4.00504 1.92822 6.56522V13.362C1.92822 15.9222 4.00552 17.9995 6.56571 17.9995H13.3625C15.9227 17.9995 18 15.9222 18 13.362V6.56522C18 4.00504 15.9227 1.92773 13.3625 1.92773ZM16.524 13.4804C16.524 15.1842 15.1482 16.56 13.4445 16.56H6.48371C4.77996 16.56 3.4042 15.1751 3.4042 13.4804V6.52877C3.4042 4.82502 4.78907 3.44927 6.48371 3.44927H13.4354C15.1391 3.44927 16.5149 4.82502 16.5149 6.52877V13.4804H16.524Z" fill="white"/>
<path d="M9.96433 5.83594C7.65925 5.83594 5.7915 7.70369 5.7915 10.0088C5.7915 12.3138 7.65925 14.1816 9.96433 14.1816C12.2694 14.1816 14.1372 12.3138 14.1372 10.0088C14.1372 7.70369 12.2694 5.83594 9.96433 5.83594ZM9.96433 12.7147C8.47013 12.7147 7.25837 11.503 7.25837 10.0088C7.25837 8.51456 8.47013 7.3028 9.96433 7.3028C11.4585 7.3028 12.6703 8.51456 12.6703 10.0088C12.6703 11.503 11.4585 12.7147 9.96433 12.7147Z" fill="white"/>
<path d="M14.2733 4.70605C13.7358 4.70605 13.2985 5.14338 13.2985 5.68093C13.2985 6.21848 13.7358 6.6558 14.2733 6.6558C14.8109 6.6558 15.2482 6.21848 15.2482 5.68093C15.2482 5.14338 14.8109 4.70605 14.2733 4.70605Z" fill="white"/>
</svg>
