<svg width="390" height="94" viewBox="0 0 390 94" fill="none" xmlns="http://www.w3.org/2000/svg">
<mask id="mask0_406_2673" style="mask-type:luminance" maskUnits="userSpaceOnUse" x="343" y="46" width="24" height="34">
<path d="M343.881 79.3121H354.642L366.407 46.1152H355.614L343.881 79.3121Z" fill="white"/>
</mask>
<g mask="url(#mask0_406_2673)">
<path d="M329.606 71.005L349.497 36.292L380.65 54.4224L360.76 89.1038L329.606 71.005Z" fill="white"/>
</g>
<path d="M366.594 15.8877L361.292 30.5436L379.018 79.3124H389.999L366.594 15.8877Z" fill="white"/>
<mask id="mask1_406_2673" style="mask-type:luminance" maskUnits="userSpaceOnUse" x="326" y="14" width="35" height="66">
<path d="M349.844 14.6875L326.91 79.3125H337.702L360.605 14.6875H349.844Z" fill="white"/>
</mask>
<g mask="url(#mask1_406_2673)">
<path d="M299.113 63.1405L335.349 0L388.401 30.828L352.196 94L299.113 63.1405Z" fill="white"/>
</g>
<path d="M265.48 32.0918C253.338 32.0918 246.719 40.5568 246.719 50.9802V79.2813H256.288V49.8116C256.288 44.6946 260.429 40.5569 265.48 40.5569C270.562 40.5569 274.39 44.7262 274.39 49.8116V79.2813H284.241V50.9802C284.241 40.5568 275.833 32.0918 265.48 32.0918Z" fill="white"/>
<path d="M9.9453 49.9691H42.1656V41.0303H9.9453V23.5H44.6754V14.5928H0V79.3125H45.4284V70.3421H9.9453V49.9691Z" fill="white"/>
<path d="M63.8444 14.5928H54.307V79.3125H63.8444V14.5928Z" fill="white"/>
<path d="M228.114 34.6818C224.883 33.0393 221.401 32.1865 217.636 32.1865C213.432 32.1865 209.698 33.1657 206.404 35.0924C203.141 37.0192 200.537 39.7672 198.686 43.3048C196.804 46.8424 195.863 50.9802 195.863 55.6865C195.863 60.456 196.773 65.1623 198.592 68.7C200.412 72.2376 202.953 74.9856 206.247 76.9123C209.51 78.8391 213.338 79.8182 217.73 79.8182C222.718 79.8182 226.922 78.618 230.373 76.2806C233.824 73.9117 236.303 70.5635 237.809 66.1731L238.373 63.8989H229.495H228.805C226.954 69.2369 223.408 71.7638 217.855 71.7638C214.342 71.7638 211.11 70.7215 208.945 68.4473C206.749 66.1415 205.4 63.3619 205.118 59.1926H238.468C238.624 57.9607 238.719 56.7289 238.719 55.497C238.719 50.6012 237.746 45.5474 235.832 42.1993C233.918 38.8196 231.346 36.3243 228.114 34.6818ZM205.055 51.8646C205.683 47.7584 207.659 44.8209 209.667 42.8942C211.675 40.999 214.31 40.0199 217.573 40.0199C220.867 40.0199 223.503 40.9674 225.479 42.8942C227.456 44.8209 229.495 47.8848 229.84 51.8646H205.055Z" fill="white"/>
<path d="M309.622 69.6785C308.461 69.6785 307.52 68.7941 307.52 67.6886V40.493H318.783V32.2807H307.52V19.2988H297.951V32.2807H290.735V40.493H297.951V67.6886C297.951 74.1006 303.19 79.3123 309.591 79.3123H319.599V69.6785H309.622Z" fill="white"/>
<path d="M168.819 32.0918C163.266 32.0918 158.246 34.5555 154.827 38.4406C151.376 34.5555 146.387 32.0918 140.834 32.0918C128.505 32.0918 122.073 40.5568 122.073 50.9802V79.2813H131.924V49.8116C131.924 44.6946 135.752 40.5569 140.834 40.5569C145.917 40.5569 150.027 44.7262 150.027 49.8116V79.2813H150.058H159.595H159.627V49.8116C159.627 44.6946 163.768 40.5569 168.819 40.5569C173.902 40.5569 177.729 44.7262 177.729 49.8116V79.2813H187.58V50.9802C187.612 40.5568 179.172 32.0918 168.819 32.0918Z" fill="white"/>
<path d="M104.316 34.6818C101.084 33.0393 97.602 32.1865 93.8372 32.1865C89.6332 32.1865 85.8998 33.1657 82.6056 35.0924C79.3428 37.0192 76.7388 39.7672 74.8878 43.3048C73.0054 46.8424 72.0642 50.9802 72.0642 55.6865C72.0642 60.456 72.974 65.1623 74.7937 68.7C76.6133 72.2376 79.1545 74.9856 82.4487 76.9123C85.7115 78.8391 89.5391 79.8182 93.9313 79.8182C98.9196 79.8182 103.124 78.618 106.575 76.2806C110.026 73.9117 112.504 70.5635 114.01 66.1731L114.575 63.8989H105.696H105.006C103.155 69.2369 99.6098 71.7638 94.0568 71.7638C90.543 71.7638 87.3116 70.7215 85.1468 68.4473C82.9507 66.1415 81.6016 63.3619 81.3193 59.1926H114.669C114.826 57.9607 114.92 56.7289 114.92 55.497C114.92 50.6012 113.947 45.5474 112.034 42.1993C110.088 38.8196 107.516 36.3243 104.316 34.6818ZM81.2565 51.8646C81.884 47.7584 83.8605 44.8209 85.8684 42.8942C87.8763 40.999 90.5116 40.0199 93.7744 40.0199C97.0686 40.0199 99.704 40.9674 101.68 42.8942C103.626 44.8209 105.696 47.8848 106.041 51.8646H81.2565Z" fill="white"/>
</svg>
