<svg width="141" height="34" viewBox="0 0 141 34" fill="none" xmlns="http://www.w3.org/2000/svg">
<mask id="mask0_406_2709" style="mask-type:luminance" maskUnits="userSpaceOnUse" x="124" y="16" width="9" height="13">
<path d="M124.326 28.6874H128.217L132.47 16.6801H128.568L124.326 28.6874Z" fill="white"/>
</mask>
<g mask="url(#mask0_406_2709)">
<path d="M119.165 25.6827L126.357 13.127L137.62 19.6847L130.428 32.2291L119.165 25.6827Z" fill="url(#paint0_linear_406_2709)"/>
</g>
<path d="M132.538 5.74658L130.621 11.0477L137.03 28.6874H141L132.538 5.74658Z" fill="white"/>
<mask id="mask1_406_2709" style="mask-type:luminance" maskUnits="userSpaceOnUse" x="118" y="5" width="13" height="24">
<path d="M126.482 5.3125L118.19 28.6875H122.092L130.372 5.3125H126.482Z" fill="white"/>
</mask>
<g mask="url(#mask1_406_2709)">
<path d="M108.141 22.838L121.242 0L140.422 11.1505L127.333 34L108.141 22.838Z" fill="url(#paint1_linear_406_2709)"/>
</g>
<path d="M95.9812 11.6075C91.5916 11.6075 89.1983 14.6694 89.1983 18.4395V28.6761H92.6578V18.0168C92.6578 16.166 94.155 14.6694 95.9812 14.6694C97.8187 14.6694 99.2025 16.1774 99.2025 18.0168V28.6761H102.764V18.4395C102.764 14.6694 99.7242 11.6075 95.9812 11.6075Z" fill="white"/>
<path d="M3.59561 18.0739H15.2445V14.8407H3.59561V8.49997H16.1519V5.2782H0V28.6875H16.4241V25.4429H3.59561V18.0739Z" fill="white"/>
<path d="M23.0822 5.2782H19.6341V28.6875H23.0822V5.2782Z" fill="white"/>
<path d="M82.4721 12.5443C81.3038 11.9502 80.0448 11.6417 78.6837 11.6417C77.1638 11.6417 75.814 11.9959 74.623 12.6928C73.4434 13.3897 72.502 14.3837 71.8328 15.6632C71.1522 16.9428 70.8119 18.4394 70.8119 20.1417C70.8119 21.8669 71.1409 23.5691 71.7987 24.8487C72.4566 26.1283 73.3753 27.1222 74.5663 27.8191C75.746 28.5161 77.1298 28.8702 78.7177 28.8702C80.5212 28.8702 82.0411 28.4361 83.2888 27.5906C84.5365 26.7338 85.4325 25.5228 85.977 23.9347L86.1812 23.1122H82.9712H82.7217C82.0524 25.0429 80.7707 25.9569 78.7631 25.9569C77.4927 25.9569 76.3244 25.5799 75.5418 24.7573C74.7478 23.9233 74.2601 22.9179 74.158 21.4099H86.2152C86.2719 20.9643 86.3059 20.5187 86.3059 20.0732C86.3059 18.3023 85.9543 16.4744 85.2624 15.2634C84.5705 14.0409 83.6404 13.1384 82.4721 12.5443ZM74.1353 18.7593C74.3622 17.2741 75.0767 16.2116 75.8027 15.5147C76.5286 14.8292 77.4814 14.4751 78.661 14.4751C79.852 14.4751 80.8048 14.8178 81.5193 15.5147C82.2339 16.2116 82.9712 17.3198 83.096 18.7593H74.1353Z" fill="white"/>
<path d="M111.94 25.2029C111.521 25.2029 111.18 24.883 111.18 24.4832V14.6465H115.252V11.676H111.18V6.98047H107.721V11.676H105.112V14.6465H107.721V24.4832C107.721 26.8024 109.615 28.6875 111.929 28.6875H115.547V25.2029H111.94Z" fill="white"/>
<path d="M61.0346 11.6075C59.027 11.6075 57.2121 12.4987 55.9758 13.9039C54.7281 12.4987 52.9246 11.6075 50.917 11.6075C46.4593 11.6075 44.1341 14.6694 44.1341 18.4395V28.6761H47.6957V18.0168C47.6957 16.166 49.0795 14.6694 50.917 14.6694C52.7545 14.6694 54.2404 16.1774 54.2404 18.0168V28.6761H54.2517H57.6999H57.7112V18.0168C57.7112 16.166 59.2084 14.6694 61.0346 14.6694C62.8721 14.6694 64.2559 16.1774 64.2559 18.0168V28.6761H67.8175V18.4395C67.8288 14.6694 64.7777 11.6075 61.0346 11.6075Z" fill="white"/>
<path d="M37.7142 12.5443C36.5459 11.9502 35.2869 11.6417 33.9258 11.6417C32.4058 11.6417 31.0561 11.9959 29.8651 12.6928C28.6855 13.3897 27.744 14.3837 27.0748 15.6632C26.3943 16.9428 26.054 18.4394 26.054 20.1417C26.054 21.8669 26.3829 23.5691 27.0408 24.8487C27.6987 26.1283 28.6174 27.1222 29.8084 27.8191C30.988 28.5161 32.3718 28.8702 33.9598 28.8702C35.7633 28.8702 37.2832 28.4361 38.5309 27.5906C39.7785 26.7338 40.6746 25.5228 41.2191 23.9347L41.4232 23.1122H38.2133H37.9637C37.2945 25.0429 36.0128 25.9569 34.0051 25.9569C32.7348 25.9569 31.5665 25.5799 30.7838 24.7573C29.9899 23.9233 29.5021 22.9179 29.4 21.4099H41.4572C41.514 20.9643 41.548 20.5187 41.548 20.0732C41.548 18.3023 41.1964 16.4744 40.5045 15.2634C39.8012 14.0409 38.8711 13.1384 37.7142 12.5443ZM29.3774 18.7593C29.6042 17.2741 30.3188 16.2116 31.0447 15.5147C31.7707 14.8292 32.7234 14.4751 33.9031 14.4751C35.094 14.4751 36.0468 14.8178 36.7614 15.5147C37.4646 16.2116 38.2133 17.3198 38.338 18.7593H29.3774Z" fill="white"/>
<defs>
<linearGradient id="paint0_linear_406_2709" x1="121.758" y1="34.2361" x2="135.117" y2="11.2638" gradientUnits="userSpaceOnUse">
<stop stop-color="#00C8EB"/>
<stop offset="0.2088" stop-color="#00C8EB"/>
<stop offset="0.7372" stop-color="#734BD7"/>
<stop offset="1" stop-color="#734BD7"/>
</linearGradient>
<linearGradient id="paint1_linear_406_2709" x1="116.953" y1="29.7919" x2="138.108" y2="-6.58683" gradientUnits="userSpaceOnUse">
<stop stop-color="#00C8EB"/>
<stop offset="0.042" stop-color="#00C8EB"/>
<stop offset="0.0484" stop-color="#02C6EB"/>
<stop offset="0.2631" stop-color="#3292E2"/>
<stop offset="0.4494" stop-color="#556BDC"/>
<stop offset="0.5981" stop-color="#6B54D8"/>
<stop offset="0.6907" stop-color="#734BD7"/>
<stop offset="1" stop-color="#734BD7"/>
</linearGradient>
</defs>
</svg>
