<svg width="270" height="60" viewBox="0 0 270 60" fill="none" xmlns="http://www.w3.org/2000/svg">
<rect x="1" y="1" width="268" height="58" rx="29" stroke="url(#paint0_linear_1560_5778)" stroke-opacity="0.4" stroke-width="2"/>
<g filter="url(#filter0_d_1560_5778)">
<path d="M50.0355 30.0667V21.6889H52.4355V30.0667H50.0355ZM42.8355 26.8667C42.1985 27.7259 41.4059 28.4296 40.4577 28.9778C39.5096 29.5111 38.4577 29.8444 37.3022 29.9778V27.7333C38.7392 27.4963 39.8874 26.837 40.7466 25.7556C41.6059 24.6593 42.0503 23.3407 42.08 21.8L44.5022 21.9556C44.5022 23.0519 44.3022 24.0815 43.9022 25.0444L48.7688 27.8222L47.6577 29.6889L42.8355 26.8667ZM52.7466 38.6222H38.3911V33.9333H50.0577V32.6889H38.3466V30.8667H52.4355V35.5556H40.7688V36.8222H52.7466V38.6222ZM69.7443 38.7556H67.3221V30.7778H64.2109V37.8222H55.0332V22.1556H57.3887V27.6889H61.8554V22.1556H64.2109V28.4H67.3221V21.6889H69.7443V38.7556ZM61.8554 30H57.3887V35.5111H61.8554V30ZM80.9864 30.3333V21.7778H83.1864V24.7778H85.0753V21.6889H87.2753V30.5111H85.0753V27.0222H83.1864V30.3333H80.9864ZM80.1864 29.4222C79.1938 29.8667 77.7716 30.0889 75.9197 30.0889H71.3642V28.1556H72.5419V23.9333H71.4308V22.0222H79.8308V23.9333H78.6975V27.9556C79.3049 27.837 79.8012 27.6889 80.1864 27.5111V29.4222ZM75.5864 28.1556C76.0308 28.1556 76.3642 28.1481 76.5864 28.1333V23.9333H74.653V28.1556H75.5864ZM87.5864 38.6222H72.8086V34.2H84.9197V33.0667H72.7642V31.3111H87.2753V35.7111H75.1642V36.8444H87.5864V38.6222ZM101.628 38.7556V21.6889H104.028V38.7556H101.628ZM91.9174 31.0667V35.5556H96.184C96.9396 35.5556 97.6951 35.4815 98.4507 35.3333C99.2211 35.1704 99.8655 34.9704 100.384 34.7333V37C99.8951 37.2667 99.2581 37.4741 98.4729 37.6222C97.7025 37.7556 96.91 37.8222 96.0951 37.8222H89.4951V28.8H96.3618V24.5111H89.4729V22.2222H98.7396V31.0667H91.9174ZM113.826 27.6889C112.878 29.1704 111.73 30.3407 110.382 31.2C109.048 32.0444 107.648 32.4741 106.182 32.4889V30.0889C107.293 30.0889 108.359 29.7185 109.382 28.9778C110.419 28.237 111.3 27.2296 112.026 25.9556C112.752 24.6815 113.234 23.2667 113.471 21.7111L115.937 22.1333C115.7 23.4815 115.352 24.6667 114.893 25.6889L121.937 30.5333L120.648 32.5556L113.826 27.6889ZM122.137 35.6667V38.0222H105.848V35.6667H122.137ZM141.952 30.7778V38.7556H139.552V21.6889H141.952V28.3333H144.085V30.7778H141.952ZM134.218 35.5333C134.989 35.5333 135.752 35.4593 136.507 35.3111C137.278 35.163 137.915 34.9704 138.418 34.7333V37.0222C137.929 37.2741 137.278 37.4741 136.463 37.6222C135.648 37.7556 134.841 37.8222 134.041 37.8222H127.729V22.2222H137.152V24.5111H130.174V35.5333H134.218ZM152.394 29.0444C150.246 29.0444 148.49 28.7259 147.127 28.0889C145.779 27.4519 145.105 26.5185 145.105 25.2889C145.105 24.0444 145.779 23.1037 147.127 22.4667C148.49 21.8296 150.246 21.5111 152.394 21.5111C154.542 21.5111 156.29 21.8296 157.638 22.4667C159.001 23.1037 159.683 24.0444 159.683 25.2889C159.683 26.5185 159.001 27.4519 157.638 28.0889C156.29 28.7259 154.542 29.0444 152.394 29.0444ZM152.394 23.4889C151.001 23.4889 149.86 23.6519 148.972 23.9778C148.083 24.2889 147.638 24.7259 147.638 25.2889C147.638 25.8519 148.083 26.2889 148.972 26.6C149.86 26.8963 151.001 27.0444 152.394 27.0444C153.786 27.0444 154.92 26.8963 155.794 26.6C156.683 26.2889 157.127 25.8519 157.127 25.2889C157.127 24.7259 156.683 24.2889 155.794 23.9778C154.92 23.6519 153.786 23.4889 152.394 23.4889ZM160.527 32.3556H153.594V35.0444H151.172V32.3556H144.238V30.2444H160.527V32.3556ZM159.727 36.5111V38.6222H145.305V33.7111H147.749V36.5111H159.727ZM177.725 38.0222H161.436V35.7111H168.347V33H162.458V26.5333H174.369V24.4444H162.458V22.2222H176.747V28.6667H164.858V30.7556H176.947V33H170.791V35.7111H177.725V38.0222ZM182.1 24.5778V30.1556H194.122V32.4889H179.634V22.2222H193.945V24.5778H182.1ZM178.634 38.0222V35.6667H194.922V38.0222H178.634Z" fill="url(#paint1_linear_1560_5778)"/>
</g>
<path d="M236.75 33.25V37.5833C236.75 38.158 236.522 38.7091 236.115 39.1154C235.709 39.5217 235.158 39.75 234.583 39.75H219.417C218.842 39.75 218.291 39.5217 217.885 39.1154C217.478 38.7091 217.25 38.158 217.25 37.5833V33.25" stroke="url(#paint2_linear_1560_5778)" stroke-width="2" stroke-linecap="round" stroke-linejoin="round"/>
<path d="M221.583 27.8359L227 33.2526L232.416 27.8359" stroke="url(#paint3_linear_1560_5778)" stroke-width="2" stroke-linecap="round" stroke-linejoin="round"/>
<path d="M227 33.25V20.25" stroke="url(#paint4_linear_1560_5778)" stroke-width="2" stroke-linecap="round" stroke-linejoin="round"/>
<defs>
<filter id="filter0_d_1560_5778" x="37.3018" y="21.5078" width="159.621" height="19.25" filterUnits="userSpaceOnUse" color-interpolation-filters="sRGB">
<feFlood flood-opacity="0" result="BackgroundImageFix"/>
<feColorMatrix in="SourceAlpha" type="matrix" values="0 0 0 0 0 0 0 0 0 0 0 0 0 0 0 0 0 0 127 0" result="hardAlpha"/>
<feOffset dx="1" dy="1"/>
<feGaussianBlur stdDeviation="0.5"/>
<feComposite in2="hardAlpha" operator="out"/>
<feColorMatrix type="matrix" values="0 0 0 0 0.123526 0 0 0 0 0.0761372 0 0 0 0 0.259615 0 0 0 0.2 0"/>
<feBlend mode="normal" in2="BackgroundImageFix" result="effect1_dropShadow_1560_5778"/>
<feBlend mode="normal" in="SourceGraphic" in2="effect1_dropShadow_1560_5778" result="shape"/>
</filter>
<linearGradient id="paint0_linear_1560_5778" x1="135" y1="0" x2="135" y2="60" gradientUnits="userSpaceOnUse">
<stop stop-color="#CAB177"/>
<stop offset="0.5" stop-color="#CAB177" stop-opacity="0.05"/>
<stop offset="1" stop-color="#CAB177"/>
</linearGradient>
<linearGradient id="paint1_linear_1560_5778" x1="116" y1="20" x2="116" y2="40" gradientUnits="userSpaceOnUse">
<stop stop-color="#CAB177"/>
<stop offset="0.5" stop-color="#FFECA3"/>
<stop offset="0.75" stop-color="#CAB177"/>
<stop offset="1" stop-color="#F5DEA0"/>
</linearGradient>
<linearGradient id="paint2_linear_1560_5778" x1="227" y1="33.25" x2="227" y2="39.75" gradientUnits="userSpaceOnUse">
<stop stop-color="#CAB177"/>
<stop offset="0.5" stop-color="#FFECA3"/>
<stop offset="0.75" stop-color="#CAB177"/>
<stop offset="1" stop-color="#F5DEA0"/>
</linearGradient>
<linearGradient id="paint3_linear_1560_5778" x1="227" y1="27.8359" x2="227" y2="33.2526" gradientUnits="userSpaceOnUse">
<stop stop-color="#CAB177"/>
<stop offset="0.5" stop-color="#FFECA3"/>
<stop offset="0.75" stop-color="#CAB177"/>
<stop offset="1" stop-color="#F5DEA0"/>
</linearGradient>
<linearGradient id="paint4_linear_1560_5778" x1="227.5" y1="20.25" x2="227.5" y2="33.25" gradientUnits="userSpaceOnUse">
<stop stop-color="#CAB177"/>
<stop offset="0.5" stop-color="#FFECA3"/>
<stop offset="0.75" stop-color="#CAB177"/>
<stop offset="1" stop-color="#F5DEA0"/>
</linearGradient>
</defs>
</svg>
