<svg width="200" height="50" viewBox="0 0 200 50" fill="none" xmlns="http://www.w3.org/2000/svg">
<rect x="1" y="1" width="198" height="48" rx="24" stroke="url(#paint0_linear_2101_12216)" stroke-opacity="0.4" stroke-width="2"/>
<g filter="url(#filter0_d_2101_12216)">
<path d="M39.5266 25.05V18.7667H41.3266V25.05H39.5266ZM34.1266 22.65C33.6488 23.2944 33.0544 23.8222 32.3433 24.2333C31.6322 24.6333 30.8433 24.8833 29.9766 24.9833V23.3C31.0544 23.1222 31.9155 22.6278 32.56 21.8167C33.2044 20.9944 33.5377 20.0056 33.56 18.85L35.3766 18.9667C35.3766 19.7889 35.2266 20.5611 34.9266 21.2833L38.5766 23.3667L37.7433 24.7667L34.1266 22.65ZM41.56 31.4667H30.7933V27.95H39.5433V27.0167H30.76V25.65H41.3266V29.1667H32.5766V30.1167H41.56V31.4667ZM54.3082 31.5667H52.4915V25.5833H50.1582V30.8667H43.2749V19.1167H45.0415V23.2667H48.3915V19.1167H50.1582V23.8H52.4915V18.7667H54.3082V31.5667ZM48.3915 25H45.0415V29.1333H48.3915V25ZM62.7398 25.25V18.8333H64.3898V21.0833H65.8064V18.7667H67.4564V25.3833H65.8064V22.7667H64.3898V25.25H62.7398ZM62.1398 24.5667C61.3953 24.9 60.3287 25.0667 58.9398 25.0667H55.5231V23.6167H56.4064V20.45H55.5731V19.0167H61.8731V20.45H61.0231V23.4667C61.4787 23.3778 61.8509 23.2667 62.1398 23.1333V24.5667ZM58.6898 23.6167C59.0231 23.6167 59.2731 23.6111 59.4398 23.6V20.45H57.9898V23.6167H58.6898ZM67.6898 31.4667H56.6064V28.15H65.6898V27.3H56.5731V25.9833H67.4564V29.2833H58.3731V30.1333H67.6898V31.4667ZM78.2214 31.5667V18.7667H80.0214V31.5667H78.2214ZM70.938 25.8V29.1667H74.138C74.7047 29.1667 75.2714 29.1111 75.838 29C76.4158 28.8778 76.8991 28.7278 77.288 28.55V30.25C76.9214 30.45 76.4436 30.6056 75.8547 30.7167C75.2769 30.8167 74.6825 30.8667 74.0714 30.8667H69.1214V24.1H74.2714V20.8833H69.1047V19.1667H76.0547V25.8H70.938ZM87.3696 23.2667C86.6585 24.3778 85.7974 25.2556 84.7863 25.9C83.7863 26.5333 82.7363 26.8556 81.6363 26.8667V25.0667C82.4696 25.0667 83.2696 24.7889 84.0363 24.2333C84.814 23.6778 85.4751 22.9222 86.0196 21.9667C86.564 21.0111 86.9251 19.95 87.1029 18.7833L88.9529 19.1C88.7751 20.1111 88.514 21 88.1696 21.7667L93.4529 25.4L92.4863 26.9167L87.3696 23.2667ZM93.6029 29.25V31.0167H81.3863V29.25H93.6029ZM108.464 25.5833V31.5667H106.664V18.7667H108.464V23.75H110.064V25.5833H108.464ZM102.664 29.15C103.242 29.15 103.814 29.0944 104.38 28.9833C104.958 28.8722 105.436 28.7278 105.814 28.55V30.2667C105.447 30.4556 104.958 30.6056 104.347 30.7167C103.736 30.8167 103.13 30.8667 102.53 30.8667H97.7971V19.1667H104.864V20.8833H99.6304V29.15H102.664ZM116.295 24.2833C114.684 24.2833 113.368 24.0444 112.345 23.5667C111.334 23.0889 110.829 22.3889 110.829 21.4667C110.829 20.5333 111.334 19.8278 112.345 19.35C113.368 18.8722 114.684 18.6333 116.295 18.6333C117.906 18.6333 119.218 18.8722 120.229 19.35C121.251 19.8278 121.762 20.5333 121.762 21.4667C121.762 22.3889 121.251 23.0889 120.229 23.5667C119.218 24.0444 117.906 24.2833 116.295 24.2833ZM116.295 20.1167C115.251 20.1167 114.395 20.2389 113.729 20.4833C113.062 20.7167 112.729 21.0444 112.729 21.4667C112.729 21.8889 113.062 22.2167 113.729 22.45C114.395 22.6722 115.251 22.7833 116.295 22.7833C117.34 22.7833 118.19 22.6722 118.845 22.45C119.512 22.2167 119.845 21.8889 119.845 21.4667C119.845 21.0444 119.512 20.7167 118.845 20.4833C118.19 20.2389 117.34 20.1167 116.295 20.1167ZM122.395 26.7667H117.195V28.7833H115.379V26.7667H110.179V25.1833H122.395V26.7667ZM121.795 29.8833V31.4667H110.979V27.7833H112.812V29.8833H121.795ZM135.294 31.0167H123.077V29.2833H128.26V27.25H123.844V22.4H132.777V20.8333H123.844V19.1667H134.56V24H125.644V25.5667H134.71V27.25H130.094V29.2833H135.294V31.0167ZM138.575 20.9333V25.1167H147.592V26.8667H136.725V19.1667H147.458V20.9333H138.575ZM135.975 31.0167V29.25H148.192V31.0167H135.975Z" fill="url(#paint1_linear_2101_12216)"/>
</g>
<path d="M174.75 27.25V30.25C174.75 30.6478 174.592 31.0294 174.311 31.3107C174.029 31.592 173.648 31.75 173.25 31.75H162.75C162.352 31.75 161.971 31.592 161.689 31.3107C161.408 31.0294 161.25 30.6478 161.25 30.25V27.25" stroke="url(#paint2_linear_2101_12216)" stroke-width="2" stroke-linecap="round" stroke-linejoin="round"/>
<path d="M164.25 23.5L168 27.25L171.75 23.5" stroke="url(#paint3_linear_2101_12216)" stroke-width="2" stroke-linecap="round" stroke-linejoin="round"/>
<path d="M168 27.25V18.25" stroke="url(#paint4_linear_2101_12216)" stroke-width="2" stroke-linecap="round" stroke-linejoin="round"/>
<defs>
<filter id="filter0_d_2101_12216" x="29.9766" y="18.6328" width="120.215" height="14.9336" filterUnits="userSpaceOnUse" color-interpolation-filters="sRGB">
<feFlood flood-opacity="0" result="BackgroundImageFix"/>
<feColorMatrix in="SourceAlpha" type="matrix" values="0 0 0 0 0 0 0 0 0 0 0 0 0 0 0 0 0 0 127 0" result="hardAlpha"/>
<feOffset dx="1" dy="1"/>
<feGaussianBlur stdDeviation="0.5"/>
<feComposite in2="hardAlpha" operator="out"/>
<feColorMatrix type="matrix" values="0 0 0 0 0.123526 0 0 0 0 0.0761372 0 0 0 0 0.259615 0 0 0 0.2 0"/>
<feBlend mode="normal" in2="BackgroundImageFix" result="effect1_dropShadow_2101_12216"/>
<feBlend mode="normal" in="SourceGraphic" in2="effect1_dropShadow_2101_12216" result="shape"/>
</filter>
<linearGradient id="paint0_linear_2101_12216" x1="100" y1="0" x2="100" y2="50" gradientUnits="userSpaceOnUse">
<stop stop-color="#CAB177"/>
<stop offset="0.5" stop-color="#CAB177" stop-opacity="0.05"/>
<stop offset="1" stop-color="#CAB177"/>
</linearGradient>
<linearGradient id="paint1_linear_2101_12216" x1="89" y1="15" x2="89" y2="35" gradientUnits="userSpaceOnUse">
<stop stop-color="#CAB177"/>
<stop offset="0.5" stop-color="#FFECA3"/>
<stop offset="0.75" stop-color="#CAB177"/>
<stop offset="1" stop-color="#F5DEA0"/>
</linearGradient>
<linearGradient id="paint2_linear_2101_12216" x1="168" y1="27.25" x2="168" y2="31.75" gradientUnits="userSpaceOnUse">
<stop stop-color="#CAB177"/>
<stop offset="0.5" stop-color="#FFECA3"/>
<stop offset="0.75" stop-color="#CAB177"/>
<stop offset="1" stop-color="#F5DEA0"/>
</linearGradient>
<linearGradient id="paint3_linear_2101_12216" x1="168" y1="23.5" x2="168" y2="27.25" gradientUnits="userSpaceOnUse">
<stop stop-color="#CAB177"/>
<stop offset="0.5" stop-color="#FFECA3"/>
<stop offset="0.75" stop-color="#CAB177"/>
<stop offset="1" stop-color="#F5DEA0"/>
</linearGradient>
<linearGradient id="paint4_linear_2101_12216" x1="168.5" y1="18.25" x2="168.5" y2="27.25" gradientUnits="userSpaceOnUse">
<stop stop-color="#CAB177"/>
<stop offset="0.5" stop-color="#FFECA3"/>
<stop offset="0.75" stop-color="#CAB177"/>
<stop offset="1" stop-color="#F5DEA0"/>
</linearGradient>
</defs>
</svg>
