<svg width="265" height="81" viewBox="0 0 265 81" fill="none" xmlns="http://www.w3.org/2000/svg">
<g opacity="0.7" clip-path="url(#clip0_1701_4752)">
<path d="M214.813 274.002C212.853 275.315 213.922 272.204 216.304 269.499C218.102 267.539 219.706 263.91 223.675 260.427C224.258 259.86 226.299 257.77 228.065 255.778C229.069 254.563 230.479 252.975 232.406 250.853C234.205 248.617 236.683 245.96 239.405 242.267C244.929 235.009 252.591 224.301 259.557 207.178C262.409 200.212 265.114 191.529 266.831 183.154C268.597 174.778 269.293 166.743 269.569 161.268C269.974 152.277 269.504 147.271 269.391 144.306C269.277 141.342 269.115 140.434 269.196 139.624C269.245 138.539 269.131 137.389 268.953 135.947C268.743 134.521 268.386 132.837 268.046 130.698C267.43 126.827 266.021 120.849 264.369 114.984C262.571 109.153 260.529 103.45 259.12 99.9186C258.407 98.1528 257.759 96.3384 256.982 94.5888C259.25 99.3354 260.432 101.96 260.643 102.413C260.902 102.851 260.303 101.085 258.796 97.1808C257.387 93.4548 257.662 95.3664 255.88 90.96C254.309 87.1531 254.876 89.1943 253.499 85.6951C252.915 84.2533 252.089 82.4551 251.7 81.8557C251.49 81.5479 250.064 79.2961 247.974 75.8941C246.84 74.258 245.528 72.3464 244.086 70.2566C242.596 68.2154 240.895 66.0608 239.194 63.8253C237.364 61.6869 235.63 59.5647 233.929 57.6855C232.18 55.8549 230.608 54.1377 229.199 52.7121C226.299 49.942 224.355 48.079 224.015 47.836C223.691 47.593 222.152 46.2808 219.932 44.353C218.847 43.3648 217.486 42.3604 216.044 41.2102C214.603 40.0762 213.064 38.8288 211.379 37.6787C203.344 31.8791 198.824 29.6435 198.435 29.5301C197.998 29.4329 197.415 29.0927 196.313 28.3313C195.292 27.6023 193.284 26.6303 190.222 25.1562C188.813 24.4758 187.419 23.9574 186.026 23.3418C184.617 22.7586 183.159 22.0782 181.458 21.4788C178.088 20.1828 173.925 18.6114 167.704 16.8294C162.828 15.3876 159.199 14.8044 157.628 14.4966C156.04 14.2374 156.445 14.448 159.458 15.258C161.159 15.7116 162.407 16.1328 162.374 16.2624C162.342 16.392 161.159 16.1652 159.475 15.7764C158.632 15.582 157.676 15.339 156.688 15.0798C155.684 14.853 154.647 14.61 153.643 14.3832C152.185 13.9782 143.874 12.3745 135.24 11.8561C131.967 11.6941 129.084 11.5321 126.54 11.5969C125.26 11.5969 124.078 11.5969 122.976 11.5969C121.875 11.6455 120.838 11.6941 119.882 11.7427C116.059 11.8723 113.418 12.1801 111.539 12.3583C109.644 12.5041 108.526 12.6498 107.765 12.7632C107.003 12.8604 106.582 12.8928 106.128 12.9414C105.124 13.0548 102.694 13.2816 100.977 13.7028C99.2596 14.0754 96.9592 14.4966 96.0682 14.6262C95.8253 14.6424 94.8533 14.8854 93.2495 15.2742C91.6619 15.6954 89.4425 16.1166 86.8505 16.959C81.618 18.4008 74.7654 20.9118 67.6699 24.1194C59.1001 28.0721 50.9192 32.8673 43.2891 38.4238C44.7147 37.2251 46.2374 36.1397 47.7116 34.9895C48.473 34.4063 49.202 33.8717 49.8986 33.3533C50.6114 32.8835 51.308 32.4461 51.956 32.0087C53.2682 31.1663 54.467 30.4373 55.601 29.7893C56.7512 29.1899 58.7113 28.1531 61.0603 26.9057C63.3931 25.6421 66.2119 24.4434 68.8687 23.1474C71.6064 22.0296 74.2146 20.8794 76.3044 20.1018C78.3942 19.3404 79.9008 18.7734 80.322 18.5952C81.051 18.2712 80.1276 18.4656 78.2808 19.0164C75.5916 19.8264 75.381 19.8588 77.3088 19.146C78.702 18.6438 80.1276 18.1254 80.646 17.9472C81.1968 17.769 81.861 17.445 82.3632 17.2344C82.59 17.1372 83.6753 16.7646 85.2467 16.2786C86.8181 15.7926 88.8593 15.1446 91.0301 14.6586L94.9828 13.7028C96.3112 13.4112 97.6558 13.1844 98.9842 12.9252L95.1287 13.7676L91.3703 14.7882C90.3335 15.0798 89.3291 15.3552 88.3895 15.6144C87.4661 15.9222 86.6237 16.2138 85.8785 16.4568C84.4043 16.959 83.3999 17.3154 83.1893 17.4126C81.9744 18.0282 86.7533 16.6674 88.9565 15.8088C90.6575 15.2256 91.2245 15.0798 91.9697 15.096C92.6177 15.1446 94.2215 14.6586 97.3966 14.0106C99.8428 13.4922 102.257 12.9252 102.662 12.8766C103.067 12.828 108.899 11.7427 115.816 11.1433C127.221 10.2685 133.053 10.8679 135.483 10.8841C137.929 10.9975 137.005 10.9003 134.98 10.7869C132.923 10.6573 130.655 10.4791 129.813 10.3819C129.408 10.3333 128.079 10.3333 126.249 10.3171C125.341 10.3171 124.305 10.3171 123.203 10.3171C122.101 10.3333 120.935 10.4305 119.752 10.4791C118.343 10.5601 117.144 10.6249 116.14 10.6735C115.135 10.7545 114.342 10.8355 113.742 10.8841C112.56 10.9813 112.187 10.9813 112.657 10.8841C113.435 10.6735 124.321 9.47467 136.779 10.2685C142.983 10.7545 148.621 11.4511 152.671 12.2287C154.696 12.6174 156.332 12.8928 157.466 13.1358C158.584 13.395 159.215 13.5408 159.215 13.5408C159.215 13.5408 161.095 13.9782 164.124 14.7072C165.614 15.1284 167.412 15.6468 169.389 16.2138C171.365 16.7808 173.487 17.5746 175.739 18.3198C184.698 21.495 192.214 25.3344 192.992 25.6907C193.786 26.0471 196.005 27.1487 197.868 28.3799C199.747 29.5787 201.967 30.8099 202.777 31.3121C203.571 31.7981 207.475 34.0337 211.055 36.6905C212.076 37.4195 213.064 38.0999 213.971 38.7802C214.862 39.4768 215.721 40.1572 216.514 40.789C218.134 42.0526 219.592 43.1866 220.807 44.2882C223.318 46.4428 225.246 48.1276 226.688 49.5532C228.162 50.9464 229.247 51.9831 230.106 52.7931C230.932 53.6355 231.548 54.2511 232.115 54.7857C233.411 56.0169 235.452 58.0581 236.489 59.3703C237.023 59.9859 237.526 60.5691 237.882 60.9903C238.255 61.4115 238.498 61.6707 238.514 61.6545C238.643 61.5573 236.278 58.0743 234.415 56.1141C232.099 53.5707 227.465 48.5812 222.654 44.4016C217.94 40.1248 213.177 36.5771 211.833 35.5889C209.127 33.5639 209.322 33.6611 213.793 36.7391C215.154 37.6625 217.616 39.6388 220.548 41.9554C221.957 43.1866 223.48 44.515 225.035 45.8434C226.574 47.188 228.016 48.6946 229.474 50.0554C235.144 55.6605 240.62 62.1729 242.013 63.9387C243.422 65.7044 245.609 68.3774 246.581 70.0136C247.65 71.666 248.509 72.8972 248.574 72.8486C248.833 72.6704 253.207 79.5553 254.082 81.4993C254.616 82.7143 254.973 83.3299 255.41 83.7835C255.605 83.9941 256.35 85.1605 257.613 87.3799C258.747 89.664 260.594 92.9202 262.522 97.5372C263.996 100.696 265.017 103.742 266.102 106.496C267.074 109.298 267.884 111.874 268.662 114.255C269.326 116.669 269.925 118.856 270.476 120.881C270.93 122.922 271.351 124.785 271.723 126.486C272.452 129.905 272.857 132.74 273.295 135.186C273.603 137.648 273.862 139.722 274.121 141.649C274.445 145.537 274.769 148.842 274.801 153.54C274.882 158.238 274.785 164.345 273.635 173.693C272.598 181.598 271.691 185.324 270.687 189.714C269.585 194.072 268.402 199.159 264.547 209.171C262.959 213.366 260.222 219.636 256.479 226.553C252.77 233.487 247.91 240.987 242.467 247.726C237.072 254.498 231.191 260.508 226.137 265.076C223.529 267.263 221.261 269.272 219.284 270.73C217.34 272.22 215.785 273.338 214.813 274.002ZM153.108 14.0106C154.258 14.2212 155.295 14.3184 155.311 14.1888C155.344 14.0754 154.339 13.7676 153.189 13.557C152.039 13.3464 151.002 13.2492 150.986 13.3788C150.97 13.5084 151.958 13.8 153.108 14.0106ZM130.25 11.5807C131.254 11.6617 132.016 11.5807 132.016 11.4025C132.016 11.2243 131.011 11.0299 129.667 10.9813C126.978 10.9975 127.464 11.4349 130.25 11.5807ZM119.833 11.4997C120.87 11.5483 121.777 11.4997 122.328 11.3701C122.798 11.2567 122.474 11.1595 121.583 11.1433C119.364 11.1109 117.97 11.4025 119.833 11.4997Z" fill="white"/>
<path d="M259.022 194.044C258.18 196.474 257.872 196.555 258.585 194.206C260.173 189.039 261.987 180.777 262.7 176.5C263.137 174.021 263.38 171.834 263.688 169.809C263.931 167.768 264.061 165.873 264.255 163.945C264.53 160.089 264.709 156.12 264.628 150.645C264.449 145.186 264.174 138.171 262.408 128.435C260.578 118.747 257.451 106.192 249.805 90.835C244.313 80.2402 239.777 73.8899 237.007 70.1963C234.301 66.438 233.265 65.3202 233.67 65.6928C234.496 66.4056 240.295 73.7117 244.831 81.3904C246.824 84.7762 247.116 84.3388 245.204 81.1636C243.714 78.5879 242.823 77.2595 242.628 76.9031C242.434 76.5467 242.952 77.1623 244.005 78.7013C245.965 81.8278 250.339 88.5346 254.422 98.6109C255.523 101.413 255.75 102.159 255.297 101.656C254.94 101.235 255.021 101.802 255.507 103.114C256.447 105.949 258.342 110.421 258.585 110.34C258.682 110.307 259.249 111.846 259.913 113.904C260.642 115.945 261.258 118.553 261.712 120.578C262.165 122.279 262.829 125.989 263.461 129.229C263.931 132.501 264.287 135.352 264.142 135.368C264.012 135.385 264.061 136.421 264.32 139.516C264.466 141.055 264.692 143.112 264.79 145.817C264.838 147.178 265 148.685 265 150.386C265.016 152.087 265.033 153.95 265.065 156.023C264.984 157.983 264.903 160.041 264.822 162.098C264.692 164.156 264.466 166.181 264.304 168.092C264.142 170.004 263.801 171.77 263.607 173.309C263.396 174.848 263.202 176.143 262.975 177.067C262.522 179.157 262.181 181.263 261.744 183.126C261.307 184.989 260.934 186.657 260.675 187.937C260.205 190.156 259.363 192.943 259.022 194.044ZM248.282 87.6112C248.833 88.6156 249.4 89.4418 249.497 89.377C249.61 89.3284 249.222 88.3888 248.671 87.3844C247.342 84.9058 246.937 85.1326 248.282 87.6112Z" fill="white"/>
<path d="M250.907 88.8181C250.745 88.4617 250.016 87.0847 249.012 85.1893C248.023 83.2777 246.517 80.9611 245.107 78.5798C243.633 76.247 242.013 73.9628 240.782 72.0998C239.454 70.3178 238.449 68.9894 238.141 68.5682C232.52 61.2621 231.435 60.7113 226.494 55.0737C225.732 54.2799 224.858 53.3889 223.821 52.336C223.302 51.8176 222.735 51.2506 222.12 50.635C221.472 50.0518 220.775 49.4362 220.03 48.7558C218.523 47.4112 216.806 45.8236 214.635 44.1874C213.566 43.345 212.416 42.4378 211.185 41.482C209.905 40.5748 208.544 39.6029 207.086 38.5661C204.915 36.9947 202.696 35.6987 200.736 34.4027C198.743 33.1715 196.848 32.1509 195.293 31.2275C193.738 30.2879 192.377 29.6885 191.47 29.1863C190.546 28.7003 190.012 28.4249 189.963 28.3925C189.914 28.3763 189.38 28.0847 188.456 27.5987C187.533 27.129 186.172 26.5296 184.568 25.7844C183.758 25.4118 182.867 25.0068 181.928 24.5694C180.972 24.1806 179.951 23.7756 178.882 23.3382C177.813 22.917 176.711 22.4634 175.578 22.0098C174.411 21.6048 173.229 21.1998 172.03 20.7786C167.218 19.0614 162.002 17.6844 157.417 16.6152C152.817 15.627 148.864 14.9143 146.531 14.6389C145.592 14.5255 144.36 14.3635 143.129 14.2177C141.882 14.1205 140.651 14.0719 139.743 14.0395C137.135 13.9585 136.73 14.0233 137.848 14.3473C139.517 14.8333 141.947 15.0924 141.979 14.7685C141.995 14.6713 142.011 14.5093 144.425 14.8333C146.839 15.1734 151.715 15.6108 161.176 17.9922C165.015 18.9804 169.26 20.2116 172.921 21.5238C173.844 21.8316 174.735 22.1394 175.578 22.431C176.404 22.755 177.197 23.079 177.943 23.3706C179.417 23.9538 180.648 24.4398 181.555 24.7962C185.119 26.3676 188.797 28.0847 189.671 28.7165C190.724 29.4131 193.689 30.8387 197.674 33.1391C199.894 34.3379 201.4 35.3423 202.372 35.9741C203.344 36.6221 203.781 36.9461 203.749 36.9947C203.668 37.1081 204.98 37.8857 207.086 39.3761C208.982 40.6882 211.055 42.13 211.687 42.8266C212.578 43.7014 213.469 44.398 215.251 45.6292C217.956 47.5408 219.009 48.5776 218.102 47.9944C217.665 47.7352 217.778 47.962 218.394 48.5776C218.993 49.1608 219.479 49.5172 219.576 49.42C219.674 49.3066 220.808 50.2138 222.168 51.5422C223.513 52.8705 225.149 54.5553 226.429 55.7865C226.98 56.3859 228.94 58.4919 231.597 61.3593C232.86 62.8497 234.27 64.5345 235.776 66.3164C237.186 68.1632 238.676 70.1234 240.15 72.0674C241.527 74.0762 242.904 76.085 244.2 77.9804C245.399 79.9243 246.533 81.7549 247.521 83.3587C249.417 86.5987 250.664 88.9639 250.988 89.4013C251.312 89.8387 251.28 89.5957 250.907 88.8181Z" fill="white"/>
<path d="M225.878 56.8619C221.293 52.0344 216.579 48.276 221.163 52.5042C222.654 54.0431 225.294 56.4407 226.72 58.0283C229.247 60.6689 229.199 60.5879 225.878 56.8619Z" fill="white"/>
<path d="M208.269 41.584C206.876 40.5958 206.6 40.4338 207.524 41.1628C208.317 41.7784 209.338 42.5074 209.743 42.7342C210.132 42.9448 209.435 42.4102 208.269 41.584Z" fill="white"/>
<path d="M126.589 13.3288C125.423 13.3288 124.273 13.3288 123.155 13.3288C122.037 13.3774 120.984 13.426 120.029 13.4584C118.117 13.5394 116.627 13.6041 116.027 13.6365C112.852 13.8957 112.56 14.2359 115.622 14.0901C117.064 14.0415 118.716 14.1225 119.316 14.1711C120.012 14.2359 120.401 14.2035 120.401 14.0739C120.401 14.0091 120.871 13.9443 121.697 13.8633C122.523 13.7661 123.722 13.7337 125.164 13.7337C126.46 13.7337 127.934 13.7013 129.262 13.6527C130.591 13.6365 131.757 13.6689 132.454 13.6365C133.523 13.6041 133.831 13.5718 132.988 13.4908C132.146 13.4746 130.137 13.264 126.589 13.3288Z" fill="white"/>
<path d="M109.272 14.4783C107.976 14.6241 104.266 15.0129 100.929 15.7095C99.2601 16.0659 97.6725 16.3899 96.5061 16.6329C95.9229 16.7463 95.4532 16.9083 95.1292 17.0055C94.8052 17.1027 94.627 17.1675 94.627 17.1837C94.6756 17.1675 98.1585 16.4871 102.419 15.6609C106.275 15.0615 108.51 14.7213 109.531 14.5593C110.551 14.4459 110.341 14.4135 109.272 14.4783Z" fill="white"/>
<path d="M100.993 12.2814C100.118 12.4596 99.8591 12.573 100.361 12.5568C100.896 12.5406 101.528 12.4758 101.917 12.3948C102.305 12.3138 102.565 12.2328 102.548 12.1356C102.532 12.0546 101.868 12.1032 100.993 12.2814Z" fill="white"/>
<path d="M85.3766 19.6206C83.7242 20.139 83.4164 20.2686 84.5666 19.9608C85.5548 19.7016 86.7535 19.329 87.1909 19.1346C87.6283 18.9726 86.7535 19.1994 85.3766 19.6206Z" fill="white"/>
<path d="M76.1427 22.6194C72.6597 24.0612 69.4035 25.341 66.6333 26.7504C63.7984 28.0302 61.4008 29.3748 59.4244 30.4763C57.4156 31.5293 55.909 32.5013 54.8722 33.1655C53.8354 33.8297 53.2846 34.2023 53.317 34.2347C53.3656 34.3319 53.9974 34.0565 54.6616 33.6515C55.3744 33.2141 55.9252 32.9549 55.9738 33.0359C56.0224 33.1169 54.9208 33.8135 53.5438 34.5911C51.778 35.5955 51.2596 35.9519 51.8104 35.7737C52.264 35.6441 54.451 34.4129 56.9134 32.9063C60.6718 30.7679 61.255 30.4763 60.8014 30.3953C60.5584 30.3629 60.5584 30.2657 61.7248 29.6015C62.8588 28.8888 65.2239 27.7548 69.6789 25.665C72.7569 24.3852 75.1707 23.3646 76.823 22.6842C77.6654 22.3602 78.2972 22.1172 78.7346 21.9552C79.172 21.777 79.3826 21.6798 79.3664 21.6474C79.3178 21.5826 77.9084 21.9876 76.1427 22.6194Z" fill="white"/>
<path d="M69.0144 22.4742C68.4636 22.6848 66.4548 23.6405 64.7052 24.4343C62.9556 25.2281 61.7892 25.7951 62.2428 25.6331C63.3768 25.2443 70.0836 22.1178 70.0836 22.1178C70.0512 22.0854 69.63 22.2312 69.0144 22.4742Z" fill="white"/>
<path d="M49.4451 36.2974C48.7485 36.832 48.5865 37.0588 49.0239 36.8644C50.1903 36.3298 50.8707 35.8276 50.7249 35.6008C50.6601 35.4874 50.0607 35.8114 49.4451 36.2974Z" fill="white"/>
<path d="M42.8035 41.9611C42.0745 42.4471 41.7019 42.5443 41.9773 42.1879C42.2527 41.8315 42.0097 41.9287 41.4427 42.4309C40.8595 42.9493 39.3205 43.9537 38.0083 44.8771C36.0806 46.1893 35.546 46.6105 35.1248 47.2099C34.817 47.6635 34.0232 48.3115 33.1646 49.0567C32.3546 49.7047 30.9776 50.9683 29.9246 51.9727C28.8716 52.9609 28.0454 53.6898 27.9644 53.5926C27.8672 53.4954 27.3974 53.8356 26.8304 54.4188C26.2796 54.9858 26.1662 55.245 26.555 55.0182C27.3488 54.597 24.3842 57.6102 19.6701 63.1344C18.8115 64.1226 18.1149 65.0946 17.5803 65.7912C17.0619 66.4877 16.7541 66.9413 16.7865 66.9575C16.8513 67.0061 18.0339 65.5482 19.5405 63.6042C21.3063 61.4982 22.3917 60.3156 22.4565 60.3966C22.5699 60.4938 23.2665 59.5704 24.9998 57.6264C28.1912 54.0624 29.309 53.0419 28.985 54.0138C28.7906 54.6294 28.904 54.4836 29.6816 53.5116C30.2162 52.8475 30.7184 52.3129 30.767 52.3615C30.8156 52.4101 31.5122 51.6811 32.3708 50.6929C34.331 48.3601 35.87 47.2261 36.0968 47.4853C36.2102 47.6149 36.7448 47.3395 37.2955 46.8859C37.8463 46.4323 37.9597 46.1569 37.5385 46.2865C37.1335 46.4161 37.3441 46.0597 38.0083 45.4927C38.6725 44.9257 39.3043 44.5693 39.4177 44.6989C39.5311 44.8447 40.3897 44.2939 41.8963 43.1761C44.2939 41.3131 44.8447 40.6165 42.8035 41.9611Z" fill="white"/>
<path d="M20.3663 63.2214C19.4915 64.1772 19.0055 64.9871 19.0541 65.0357C19.1351 65.1005 19.5077 64.6956 20.0261 64.0638C20.5607 63.4482 21.1115 62.7354 21.3869 62.2818C21.6461 61.8606 21.2249 62.2494 20.3663 63.2214Z" fill="white"/>
</g>
<defs>
<clipPath id="clip0_1701_4752">
<rect width="265" height="81" fill="white"/>
</clipPath>
</defs>
</svg>
