<svg width="529" height="17" viewBox="0 0 529 17" fill="none" xmlns="http://www.w3.org/2000/svg">
<g opacity="0.8">
<path d="M503.636 1.53906L503.417 1.75237L501.267 1.81523L501.679 1.60244L503.636 1.53906Z" fill="url(#paint0_linear_1701_4709)"/>
<path d="M505.56 1.76172L505.95 1.76326L505.748 1.83385C505.495 1.83334 505.579 1.76326 505.56 1.76172Z" fill="url(#paint1_linear_1701_4709)"/>
<path d="M43.0818 0.456867L43.8568 0.49551L43.1071 0.24253C44.9377 0.291477 47.4169 0.203373 49.1465 0.267262C50.3622 0.312087 52.3248 0.313632 53.431 0.284779C54.5962 0.253865 55.2336 0.340425 56.1573 0.295599C57.126 0.248713 57.5387 0.443986 57.6988 0.445017C57.9964 0.405859 58.6169 0.325483 58.8836 0.306934C60.3577 0.205434 62.1265 0.379582 63.9487 0.327544C66.9698 0.2415 71.625 0.385765 74.8651 0.300236C77.7907 0.222952 80.7894 0.290962 83.4342 0.335272L84.6191 0.19719L85.0009 0.270353L85.5934 0.201312L85.5765 0.344031C86.197 0.385765 86.4048 0.281173 86.5592 0.276536C87.0702 0.261594 88.4095 0.212647 88.5162 0.213162C88.6453 0.213677 88.7492 0.281173 88.898 0.286325C90.3131 0.335272 91.6861 0.285295 92.7755 0.445017C93.4662 0.239439 94.2552 0.344031 95.1312 0.311572C96.2458 0.270353 96.7512 0.271383 97.8574 0.322391C98.8851 0.370308 101.376 0.228619 102.541 0.269838C105.977 0.392463 110.666 0.037983 114.608 0.390402C115.678 0.124027 117.927 0.320331 119.283 0.409466L119.673 0.411011C121.49 0.122996 125.025 0.355366 127.482 0.299721C130.132 0.239439 132.712 0.254381 134.883 0.329605C136.048 0.369793 136.789 0.274475 137.23 0.267777C139.386 0.234287 141.851 0.317239 144.047 0.295599L144.224 0.439349C145.122 0.223982 147.77 0.267777 148.907 0.386795C165.579 0.374945 183.024 0.327544 200.735 0.454291C202.582 0.272414 204.68 0.439864 206.976 0.40792L209.093 0.631016L208.136 0.484174C207.754 0.446562 208.439 0.347638 208.543 0.343001C208.933 0.325483 210.8 0.337848 211.269 0.353821C212.176 0.38525 212.923 0.327544 213.996 0.364641C217.721 0.493964 222.247 0.301267 226.462 0.415133C227.588 0.445532 230.752 0.392978 231.535 0.364125C232.844 0.315693 234.975 0.416679 236.404 0.383704L236.777 0.527969L236.991 0.385765C238.032 0.367217 238.454 0.46305 238.541 0.463565C240.242 0.470263 245.818 0.472839 247.508 0.428529C251.153 0.332696 257.745 0.431621 261.533 0.485205L261.923 0.486751C262.771 0.176581 265.759 0.453776 266.216 0.432651C268.909 0.30848 271.916 0.506845 272.84 0.459443C274.401 0.379067 282.81 0.371854 284.534 0.435227C286.333 0.501692 289.312 0.336818 290.385 0.387311C291.359 0.433166 297.213 0.527454 298.558 0.491903C299.49 0.467172 300.768 0.457382 301.683 0.433166C302.767 0.404829 304.19 0.411527 304.783 0.588767L305.58 0.449139C306.307 0.639775 307.801 0.468202 308.307 0.459959C313.24 0.382674 318.906 0.532606 323.117 0.448623L323.499 0.521786L324.092 0.452745L324.844 0.670173L324.676 0.454806C325.698 0.499631 326.402 0.347123 327.41 0.394524C328.522 0.447078 330.937 0.526939 332.467 0.486751C332.616 0.482629 332.736 0.416164 332.866 0.416679C332.947 0.417194 333.236 0.529 333.831 0.491903L333.815 0.634622C334 0.631016 334.23 0.648534 334.399 0.637199C334.637 0.620711 335.522 0.445532 335.982 0.429045C336.462 0.412042 338.192 0.422347 338.708 0.439864C338.857 0.445017 338.956 0.511482 339.09 0.513027C339.155 0.513543 339.5 0.403798 340.073 0.445532L340.25 0.589282C340.904 0.388341 341.906 0.509936 342.614 0.384219L344.554 0.463565L345.147 0.394524L345.52 0.538789L345.922 0.433166L346.112 0.469748C346.264 0.465111 346.368 0.402252 346.511 0.399676C349.51 0.347123 352.371 0.380097 355.479 0.364641C357.675 0.353305 360.923 0.234287 362.888 0.323422C364.003 0.373915 364.775 0.270868 365.236 0.261594C365.907 0.247683 366.685 0.278597 367.378 0.270353L367.165 0.412557C367.97 0.199251 369.206 0.290962 370.492 0.283234L370.085 0.424407C370.399 0.417709 370.801 0.440895 371.059 0.428529C371.205 0.421316 372.207 0.235832 372.642 0.220375C374.24 0.164215 376.806 0.291993 378.485 0.244076C382.93 0.117329 388.169 0.367732 393.296 0.232741C394.868 0.191522 396.797 0.210071 398.76 0.183279L399.911 0.33115L400.708 0.191522L402.059 0.304358L401.683 0.195644C402.769 0.187916 403.912 0.221406 404.993 0.20904C409.923 0.151849 420.958 0.0704427 425.259 0.21986C426.208 0.252835 427.822 0.257472 428.376 0.232741C430.279 0.147728 436.785 0.130725 438.902 0.203888C442.094 0.314663 446.825 0.132786 450.2 0.249744C452.735 0.337848 455.894 0.11939 458.39 0.211616C459.03 0.235317 460.56 0.291993 461.108 0.294054C461.175 0.294569 461.405 0.203888 462.284 0.227589L462.461 0.371339L462.868 0.230165C463.303 0.2415 463.837 0.21883 464.233 0.235832C466.021 0.311056 467.349 0.260564 469.29 0.328059C470.531 0.370823 476.663 0.406374 478.249 0.364641C479.622 0.328574 481.486 0.35176 482.517 0.524878L482.73 0.382674L485.448 0.465111L485.431 0.60783L486.405 0.611952C487.191 0.448623 488.447 0.523847 489.157 0.408435L489.918 0.554246C490.943 0.358458 492.293 0.609376 493.425 0.568673C493.596 0.56249 493.781 0.459443 494.407 0.501177L493.585 0.855142L494.177 0.786101L494.736 1.00301L495.519 0.970554L495.943 0.686146L494.786 0.57434L496.92 0.654716C498.543 0.511997 500.27 0.720666 501.985 0.675326C503.341 0.639775 504.262 0.841231 505.102 0.688207L505.675 0.797951L504.883 0.902028C505.63 0.954582 505.941 0.779403 506.264 0.764461C507.126 0.725303 507.643 0.838655 508.398 0.844837L507.199 1.09009L507.575 1.1988L505.633 1.15501L506.205 1.26475L507.949 1.34307C507.828 1.0329 508.631 0.750034 510.54 0.853081C511.06 0.880904 511.377 1.04938 510.706 1.104L511.279 1.21374L512.076 1.07412L512.638 1.25496L511.86 1.25187L512.225 1.46775L511.815 1.64499L511.035 1.6419L511.84 1.43066L510.672 1.42602L510.689 1.2833L509.911 1.28021L510.655 1.56925L508.715 1.48991L509.485 1.56462L509.653 1.77998L510.22 1.92528L508.07 1.98814L506.713 1.91137L506.739 1.69703L505.95 1.76556L505.764 1.69343L505.562 1.76401C505.414 1.75268 505.141 1.77947 504.978 1.76144C504.476 1.70631 504.043 1.50588 504.046 1.40026L503.454 1.4693C502.656 1.26269 501.573 1.25857 500.727 1.45848L499.568 1.38222L498.959 1.59399L500.511 1.63623C501.233 1.5708 500.514 1.73361 500.303 1.74237C499.239 1.78771 498.998 1.56101 498.372 1.59141L496.788 1.79956L497.01 1.58626C496.398 1.56359 496.244 1.6419 495.637 1.65221C494.539 1.67127 493.849 1.68467 492.902 1.71249C491.372 1.75731 490.735 1.57338 489.412 1.55534L487.694 1.26269L487.862 1.47806L487.649 1.62026C487.211 1.62799 486.689 1.60171 486.285 1.61459C486.136 1.61923 486.04 1.67848 485.886 1.68467C484.917 1.72176 484.398 1.57801 483.55 1.67539C483.039 1.50485 482.197 1.56307 481.627 1.45333L481.803 1.59708C481.365 1.60429 480.843 1.57853 480.439 1.59141C480.287 1.59605 480.183 1.65839 480.04 1.66148C478.617 1.68827 476.991 1.58574 476.146 1.64551L475.385 1.4997L474.588 1.63933L473.818 1.56462C472.928 1.74443 471.957 1.5301 470.896 1.55277L470.522 1.4085L470.3 1.62181L470.123 1.47806L469.346 1.47497L469.329 1.61769C469.144 1.61202 468.908 1.62851 468.745 1.61511C468.531 1.59759 468.484 1.51722 467.975 1.5404C465.347 1.662 462.453 1.65684 459.794 1.50743L458.609 1.64551L458.227 1.57235L456.854 1.6383L457.068 1.49609L455.883 1.63417C455.63 1.62438 455.332 1.64396 455.105 1.63108C454.133 1.57544 452.935 1.66303 451.598 1.61666C450.441 1.57647 449.029 1.5538 447.314 1.59914C445.716 1.64139 442.936 1.59605 441.072 1.64551C440.308 1.6656 439.342 1.62232 438.539 1.6352L438.753 1.493C438.363 1.5574 437.694 1.61872 437.178 1.62954C435.496 1.66457 434.134 1.63727 432.885 1.68364C431.399 1.73825 430.411 1.45899 429.369 1.74083C428.446 1.59192 426.969 1.71764 425.879 1.58368L424.695 1.72176C422.788 1.54658 420.065 1.80008 417.684 1.69343C416.642 1.64654 414.093 1.63417 412.619 1.67282C412.36 1.67951 412.324 1.80935 411.841 1.66972L411.248 1.73877L411.072 1.59502C410.676 1.71197 410.066 1.64036 409.505 1.65994C409.35 1.66509 409.252 1.7264 409.106 1.73001C406.647 1.78565 404.917 1.68467 402.483 1.70322C401.859 1.70785 401.655 1.70528 401.11 1.76916L401.907 1.62954C401.949 1.55328 402.143 1.34925 401.349 1.41262C400.517 1.47909 400.936 1.70115 400.136 1.76504L399.366 1.69033C398.617 1.88921 395.775 1.66045 395.472 1.67436C393.717 1.75525 392.193 1.72692 390.39 1.79647C389.379 1.83563 388.722 1.68158 388.062 1.71558C385.513 1.84645 382.936 1.65015 380.263 1.75525C379.959 1.7671 379.71 1.85624 378.696 1.82017C377.59 1.7805 376.054 1.79029 374.81 1.7331C373.381 1.66715 373.027 1.9227 372.067 1.865C370.141 1.74907 368.403 1.75062 366.603 1.91446L366.213 1.91291C365.104 1.70888 363.604 1.76504 362.139 1.75319L362.122 1.89591C361.308 1.95671 359.848 1.80265 359.598 1.81399C357.863 1.89437 356.478 1.92683 354.931 1.72382L353.747 1.86191C353.368 1.85263 352.932 1.86963 352.579 1.85727C351.95 1.8346 350.108 1.81554 349.072 1.84284C347.547 1.88303 345.86 1.83099 343.998 1.89385L343.237 1.74804L341.662 1.88458L340.112 1.80678C337.594 1.96444 334.781 1.82636 332.694 1.91961C330.869 2.00102 329.468 1.82069 327.621 1.97062L326.47 1.82275L325.681 1.89127L324.74 1.60171L325.509 1.67642C325.639 1.54092 325.111 1.43993 324.367 1.45745L324.74 1.60171C324.268 1.57595 323.673 1.59656 323.948 1.70579C324.282 1.83821 325.181 1.77071 325.097 1.88921L323.336 1.95362L321.795 1.8042L320.61 1.94228L320.051 1.72537L319.661 1.72382L319.644 1.86654L318.077 1.93146L317.724 1.64396L316.379 1.49558L317.513 1.78617L317.106 1.92734L314.955 1.9902L314.972 1.84748L313.591 1.98505L313.209 1.91188C313.083 1.91137 312.973 1.97371 312.81 1.98196C312.06 2.01802 311.62 1.86654 310.87 1.90261C309.623 1.96289 307.666 2.03812 305.797 1.95362C303.73 1.85985 300.56 2.02163 298.395 1.92373C296.986 1.85985 295.001 2.02214 293.712 1.97629C291.985 1.91498 290.427 1.92013 288.26 1.95413C286.898 1.97526 285.547 1.97474 284.576 1.79647L284.559 1.93919L281.061 1.85366L281.077 1.71094L280.687 1.7094L280.67 1.85212L277.731 1.98299C276.72 1.76041 272.901 1.99844 272.278 1.96083C272.118 1.95104 272.039 1.89334 271.896 1.88767C271.04 1.85624 269.883 1.899 268.973 1.87582L269.38 1.73464L268.406 1.73052C268.182 1.76144 267.32 1.865 267.221 1.8686C265.885 1.91601 263.324 1.71146 262.156 1.848L261.188 1.80832L261.564 1.91704L259.829 1.7671C259.677 1.77432 259.59 1.82842 259.43 1.83718C257.605 1.93713 255.182 1.81193 253.18 1.95465L252.029 1.80678C250.319 1.89179 247.708 1.99432 246.186 1.78308C246.057 1.78256 245.939 1.84903 245.787 1.85315C241.477 1.97062 235.87 1.83769 231.763 1.79647L230.188 1.93301C229.545 1.81708 227.742 1.80935 227.071 1.92013L226.31 1.77432C226.055 1.78205 225.766 1.75989 225.532 1.77123C225.37 1.77895 225.26 1.84181 225.134 1.8413C225.052 1.84078 224.763 1.72898 224.168 1.76607L224.345 1.90982C223.696 1.73001 223.011 1.89694 222.787 1.90364C220.973 1.95465 218.39 1.82996 216.553 1.87839C215.152 1.91549 212.873 1.80935 211.101 1.85624C210.382 1.8753 210.107 1.84439 209.933 1.8516C209.717 1.86036 209.265 1.97474 208.56 1.91755L208.577 1.77483L207.586 1.91395L207.204 1.84078L206.415 1.90931L206.033 1.83614C204.826 1.97989 203.843 1.84439 202.518 1.89334C201.507 1.93043 199.921 1.85315 198.817 1.87839L199.224 1.73722L197.843 1.87479C197.714 1.87427 197.61 1.80729 197.461 1.80162C196.102 1.75319 193.746 2.06645 192.396 1.78102C191.239 1.9768 188.662 1.76607 187.721 1.76195C187.64 1.76144 187.325 1.87118 186.738 1.82945C186.941 1.64345 186.008 1.64087 185.41 1.53834L184.809 1.679L186.342 1.89952L184.986 1.82275C183.153 1.95568 181.325 1.7027 179.506 2.01493L178.338 2.01029L177.187 1.86242L176.212 1.8583L176.195 2.00102C175.76 1.98968 175.227 2.01235 174.831 1.99535C174.104 1.96495 173.458 1.93558 172.891 1.91601C171.897 1.88149 170.844 1.96547 169.976 1.83254L169.951 2.04688L168.783 2.04224L168.808 1.8279C168.188 1.78617 167.977 1.89127 167.826 1.8954C166.338 1.93558 164.324 1.84593 162.76 1.87479C161.486 1.89849 161.98 1.93043 160.424 1.86551C159.863 1.84181 159.242 1.90725 158.875 1.78771L159.051 1.93146C158.507 1.91601 157.791 1.94692 157.299 1.92425C155.938 1.86242 154.691 1.99638 153.414 1.83718L151.448 1.97217C151.08 1.85469 150.482 1.91498 149.898 1.89437C148.812 1.85572 147.874 1.91961 146.782 1.88149C142.98 1.74959 137.511 1.99175 133.925 1.82945C132.561 1.76762 131.157 1.83048 130.02 1.88509C129.27 1.92116 128.961 1.78823 128.276 1.80678L128.453 1.95053L126.912 1.80111L125.53 1.93868L125.547 1.79596C125.106 1.80265 124.598 1.77895 124.183 1.79029C124.031 1.79441 123.913 1.86088 123.784 1.86036C123.655 1.85985 123.551 1.79235 123.402 1.7872C122.315 1.74959 121.102 1.78102 120.269 1.91755L120.294 1.70322L119.496 1.84284C118.469 1.89024 117.663 1.76401 117.556 1.7635C117.427 1.76298 117.306 1.82945 117.158 1.83357C115.664 1.87273 111.947 1.85469 110.925 1.80832C109.049 1.72331 106.999 1.91549 105.461 1.85778C101.564 1.71094 97.5009 1.9227 92.9945 1.80729C92.461 1.79338 92.4273 1.75525 92.0286 1.73207L91.8153 1.87427L91.4334 1.80111C90.5939 1.75886 89.7741 1.97835 89.0974 1.79183L89.2743 1.93558L88.4965 1.93249L88.5134 1.78977L87.3454 1.78514L87.3285 1.92786C86.3992 1.95413 86.2223 1.72382 85.2031 1.77638C85.0431 1.78462 84.9504 1.84233 84.8044 1.84645C82.9457 1.89952 80.2868 1.86139 78.5713 1.8212L77.3864 1.95929L75.8366 1.88149C75.0757 2.02111 73.6746 1.91961 72.72 1.8686C71.4032 1.79853 71.493 1.82326 69.9937 1.85778C68.4972 1.89179 66.4925 1.76041 65.3105 1.91034L64.7517 1.69343L63.3956 1.61666L62.9801 1.82945L61.8289 1.68158L61.8121 1.82429C61.433 1.87067 61.1747 1.7501 61.0427 1.74959C60.7395 1.74856 58.6394 1.80111 58.308 1.80987C56.8003 1.84954 55.2701 1.82378 54.4137 1.7939C53.6557 1.76762 52.6814 1.80317 51.8812 1.78359L52.3052 1.49918L50.7384 1.5641L51.1035 1.77998L50.1376 1.70476L49.5452 1.7738L49.562 1.63108L48.7843 1.62799L48.7674 1.77071C47.6837 1.71816 46.8301 1.87685 45.8362 1.83048C45.6818 1.82326 45.5975 1.76195 45.4543 1.75731C44.3453 1.72228 43.1717 1.74907 42.3209 1.88767L42.5343 1.74546C42.0935 1.75216 41.5853 1.72846 41.1698 1.7398C41.0182 1.74392 40.9002 1.81038 40.7711 1.80987C40.6419 1.80935 40.538 1.74186 40.3892 1.7367C39.7435 1.71403 37.2165 1.7501 37.0789 1.72331L37.0958 1.58059L35.7509 1.4322L35.9109 1.71867L35.15 1.57286L35.1248 1.7872C34.4958 1.82429 34.3105 1.71713 34.1589 1.71197C33.6844 1.69497 33.0892 1.72073 32.6006 1.70579C32.1879 1.69343 31.865 1.65839 31.4411 1.62954C30.9806 1.59862 31.9128 1.50897 31.6629 1.41623L30.2646 1.69652L29.4953 1.62181C29.0657 1.71867 27.8668 1.70631 27.1481 1.68364C27.0021 1.679 26.9094 1.61408 26.7662 1.61047C24.1635 1.54916 21.5383 1.59759 19.1882 1.43684L19.2051 1.29412L18.4273 1.29103L18.8007 1.43529L15.6926 1.35131C15.5831 1.33225 16.3384 1.2462 15.7179 1.13697C16.198 1.18489 17.0937 1.02826 16.9027 0.998892L15.7375 0.958189L14.8026 0.632561L14.9682 0.88348L15.7291 1.02929L14.7155 1.34667C13.8199 1.23075 14.5667 1.20756 14.5555 1.0602C14.6622 1.05248 14.8699 1.07463 14.9486 1.0262C14.9542 0.979313 14.6088 0.995285 14.5639 0.989102C14.4432 0.972615 15.0075 0.767552 13.4127 0.841231L14.2045 0.737154L12.6855 0.44038L13.8592 0.409466L13.8816 0.23068L14.4797 0.126088C15.1928 0.188431 15.9285 0.0637446 16.0464 0.0611685C17.6131 0.0256174 20.578 0.0560162 21.8808 0.156487L22.4732 0.0874453L22.4564 0.230165L23.2341 0.233256L23.251 0.0905367C24.009 0.0967195 24.4667 0.205949 25.3848 0.170913C26.842 0.114753 29.908 0.132786 31.2277 0.194614C32.9993 0.277566 35.2315 0.254896 36.6802 0.216769C37.472 0.196159 40.1787 0.206979 40.9648 0.234287C41.2203 0.243046 41.2259 0.373399 41.7425 0.237378L43.0818 0.456867L41.5151 0.521786L43.065 0.599587L43.4384 0.743852L43.0818 0.456867ZM472.398 0.412042C472.145 0.411011 472.137 0.482629 472.389 0.483659C472.642 0.484174 472.65 0.413072 472.398 0.412042ZM479.4 0.511997C479.147 0.510967 479.139 0.582584 479.392 0.583614C479.647 0.58413 479.656 0.513027 479.4 0.511997ZM444.475 0.870599L443.554 0.437804C442.574 0.575371 443.178 0.542396 443.529 0.65214C443.787 0.733547 443.815 0.848959 444.475 0.870599ZM462.801 0.802073L463.031 0.517149L462.422 0.72891L461.647 0.690268L462.801 0.802073ZM468.282 0.609891L466.538 0.531576C465.771 0.629985 464.365 0.611437 464.354 0.879873L466.114 0.815469L468.282 0.609891ZM470.045 0.545487C469.792 0.544457 469.784 0.616074 470.036 0.617104C470.289 0.61762 470.297 0.546518 470.045 0.545487ZM478.224 0.578462C477.971 0.577432 477.962 0.649049 478.215 0.650079C478.468 0.65111 478.476 0.579492 478.224 0.578462ZM483.075 0.741276L484.041 0.816499L484.241 0.781464L483.873 0.601132L483.075 0.741276ZM493.029 0.638744C492.776 0.637714 492.768 0.709331 493.02 0.710362C493.273 0.710877 493.281 0.639775 493.029 0.638744ZM460.473 0.720666L459.516 0.573825L458.502 0.891208L460.473 0.720666ZM474.905 0.636683L474.124 0.633592L474.692 0.778888L474.885 0.779918L474.905 0.636683ZM481.332 0.662445C481.079 0.661414 481.071 0.733032 481.323 0.734062C481.576 0.735093 481.584 0.663475 481.332 0.662445ZM485.229 0.678417C484.976 0.677387 484.968 0.749004 485.22 0.750034C485.473 0.751065 485.482 0.679448 485.229 0.678417ZM492.815 0.780433C492.223 0.807741 492.113 0.728395 491.656 0.704179L491.639 0.846898L492.807 0.851535L492.815 0.780433ZM500.208 0.881934L500.225 0.739215C499.68 0.793829 499.321 0.82938 498.658 0.804134L498.65 0.875751L500.208 0.881934ZM458.146 0.639775L456.189 0.703148L456.18 0.774766L458.137 0.711392L458.146 0.639775ZM471.763 0.838139L469.638 0.686661L467.858 0.893784L469.421 0.864416L469.435 0.757248L470.213 0.760339L470.196 0.903059L471.763 0.838139ZM473.709 0.845868L473.726 0.703148C473.262 0.723758 473.133 0.802073 472.549 0.769613L472.541 0.841231L473.709 0.845868ZM490.85 0.915424L488.724 0.763946L487.343 0.901513L488.11 1.01177L487.318 1.11585L489.477 0.981889L490.85 0.915424ZM372.805 0.507875L372.044 0.362064L372.025 0.504784L372.805 0.507875ZM391.715 0.441925C391.463 0.440895 391.454 0.512512 391.707 0.513543C391.96 0.514573 391.968 0.442956 391.715 0.441925ZM401.649 0.482114L400.871 0.479022L400.863 0.550639L401.641 0.553731L401.649 0.482114ZM476.427 0.92882L475.666 0.783009L475.649 0.925729L476.427 0.92882ZM478.774 0.866477L479.341 1.01177L480.327 0.908726L479.754 0.798982L478.774 0.866477ZM503.308 1.03753L502.157 0.889663L502.14 1.03238L501.342 1.17201L503.308 1.03753ZM509.541 1.06278L509.558 0.920061L509.167 0.918516L509.151 1.06124L509.541 1.06278ZM389.371 0.503753C389.118 0.502723 389.11 0.57434 389.362 0.575371C389.615 0.576401 389.624 0.504784 389.371 0.503753ZM478.19 0.864416C477.937 0.863386 477.929 0.935003 478.182 0.936033C478.434 0.936549 478.443 0.865447 478.19 0.864416ZM479.883 1.37141C480.363 1.45075 481.666 1.14986 482.059 1.09421L484.198 1.13852L481.113 0.875751C481.402 1.138 480.557 1.18644 479.883 1.37141ZM506.823 0.980344L504.874 0.972615L504.858 1.11533C505.512 1.03702 506.028 1.03805 506.815 1.05196L506.823 0.980344ZM374.557 0.515088C374.305 0.514058 374.296 0.585675 374.549 0.586706C374.802 0.587736 374.81 0.516119 374.557 0.515088ZM390.53 0.580008C390.278 0.578977 390.269 0.650595 390.522 0.651625C390.775 0.652656 390.783 0.581038 390.53 0.580008ZM391.308 0.583099C391.055 0.582069 391.047 0.653686 391.3 0.654716C391.552 0.655747 391.564 0.58413 391.308 0.583099ZM420.705 0.845353L420.722 0.702633L420.331 0.701087L420.315 0.843807L420.705 0.845353ZM427.342 0.729425L426.565 0.726334L426.556 0.797951L427.334 0.801043L427.342 0.729425ZM434.356 0.757763L433.578 0.754672L433.57 0.826289L434.348 0.82938L434.356 0.757763ZM485.776 0.966432L484.608 0.961795L484.6 1.03341L485.768 1.03805L485.776 0.966432ZM497.058 1.15552L497.075 1.0128L496.684 1.01126L496.668 1.15398L497.058 1.15552ZM497.659 1.01486C497.406 1.01383 497.397 1.08545 497.65 1.08648C497.903 1.087 497.911 1.01589 497.659 1.01486ZM498.624 1.09009L499.59 1.16531L499.79 1.13028L498.633 1.01847L498.624 1.09009ZM500.972 1.02826L500.194 1.02517L500.177 1.16789L500.972 1.02826ZM346.89 0.474385C346.637 0.473355 346.629 0.544972 346.882 0.546002C347.134 0.547033 347.143 0.475415 346.89 0.474385ZM399.091 0.686146C398.838 0.685115 398.83 0.756733 399.083 0.757763C399.335 0.758793 399.344 0.687176 399.091 0.686146ZM425.192 0.792284C424.939 0.791253 424.93 0.86287 425.183 0.863901C425.436 0.864416 425.444 0.793314 425.192 0.792284ZM448.734 1.10194L449.526 0.997861L448.953 0.888117L448.76 0.887086L448.734 1.10194ZM476.418 0.999922C476.05 0.942216 474.967 1.11018 474.835 1.20808L476.393 1.21426L476.017 1.10555L476.418 0.999922ZM486.939 1.04269L486.161 1.0396L486.144 1.18231L486.939 1.04269ZM490.833 1.05866C490.35 1.01074 489.457 1.16737 489.648 1.19674C490.128 1.24466 491.024 1.08803 490.833 1.05866ZM503.883 1.11173C503.631 1.1107 503.622 1.18231 503.875 1.18335C504.128 1.18386 504.136 1.11276 503.883 1.11173ZM374.33 0.800012L374.347 0.657293L373.956 0.655747L373.94 0.798466L374.33 0.800012ZM473.1 1.05814C472.847 1.05711 472.838 1.12873 473.091 1.12976C473.344 1.13079 473.352 1.05917 473.1 1.05814ZM480.11 1.08648C479.858 1.08545 479.849 1.15707 480.102 1.1581C480.355 1.15913 480.366 1.08751 480.11 1.08648ZM335.578 0.571249C335.325 0.570218 335.317 0.641836 335.569 0.642866C335.822 0.643897 335.831 0.572279 335.578 0.571249ZM352.522 0.64029L351.745 0.637199L351.736 0.708816L352.514 0.711907L352.522 0.64029ZM382.714 0.762915C382.461 0.761885 382.453 0.833502 382.705 0.834533C382.958 0.835048 382.966 0.763946 382.714 0.762915ZM393.231 0.80568C392.979 0.804649 392.97 0.876267 393.223 0.877297C393.476 0.877812 393.484 0.80671 393.231 0.80568ZM405.698 0.856172C405.445 0.855142 405.437 0.926759 405.689 0.92779C405.942 0.928305 405.95 0.857203 405.698 0.856172ZM447.768 1.02671L447.17 1.13131L447.361 1.16789L447.959 1.0633L447.768 1.02671ZM492.745 1.35234L493.338 1.2833L493.919 1.32143L492.762 1.20962L492.745 1.35234ZM339.464 0.658838C339.211 0.657808 339.203 0.729425 339.455 0.730456C339.708 0.730971 339.716 0.659869 339.464 0.658838ZM347.449 0.691298L346.671 0.688207C347.12 0.822167 347.148 0.83917 346.637 0.974161L347.62 0.906665L348.962 1.0906L350.119 1.20241L347.44 0.798466L347.449 0.691298ZM355.437 0.723758C355.184 0.722727 355.176 0.794344 355.428 0.795375C355.681 0.79589 355.69 0.724788 355.437 0.723758ZM361.864 0.749519L360.305 0.743336L360.873 0.888632L361.271 0.81856L362.032 0.964371L361.864 0.749519ZM369.071 0.778888C368.818 0.777857 368.81 0.849474 369.063 0.850505C369.315 0.851535 369.324 0.779918 369.071 0.778888ZM379.589 0.821652C379.336 0.820621 379.328 0.892239 379.58 0.893269C379.833 0.893784 379.841 0.822682 379.589 0.821652ZM380.757 0.826289C380.504 0.825258 380.496 0.896876 380.748 0.897906C381.001 0.898937 381.009 0.827319 380.757 0.826289ZM383.483 0.837109C383.23 0.836078 383.222 0.907696 383.475 0.908726C383.727 0.909757 383.736 0.838139 383.483 0.837109ZM445.814 1.09009C445.562 1.08906 445.553 1.16067 445.806 1.16171C446.059 1.16274 446.067 1.09112 445.814 1.09009ZM465.875 1.17149L465.098 1.1684L465.089 1.24002L465.867 1.24311L465.875 1.17149ZM470.356 1.19004C470.104 1.18901 470.095 1.26063 470.348 1.26166C470.601 1.26218 470.609 1.19107 470.356 1.19004ZM483.794 1.24466L484.353 1.46157L484.552 1.42654L484.184 1.2462L483.794 1.24466ZM497.041 1.29824C496.558 1.25033 495.665 1.40696 495.856 1.43632C496.336 1.48424 497.229 1.32761 497.041 1.29824ZM468.79 1.25496C468.537 1.25393 468.529 1.32555 468.781 1.32658C469.034 1.32761 469.042 1.25599 468.79 1.25496ZM472.294 1.26939C472.041 1.26836 472.033 1.33998 472.285 1.34101C472.538 1.34152 472.546 1.27042 472.294 1.26939ZM490.392 1.48579L490.409 1.34307L490.019 1.34152L490.002 1.48424L490.392 1.48579ZM336.33 0.789192C336.078 0.788162 336.069 0.859779 336.322 0.86081C336.575 0.861325 336.583 0.790223 336.33 0.789192ZM356.588 0.871114C356.335 0.870084 356.327 0.941701 356.58 0.942731C356.832 0.943762 356.841 0.872145 356.588 0.871114ZM361.058 0.960765L358.334 0.913879C358.831 1.06587 359.373 1.00817 360.075 1.02826C360.398 1.03753 360.679 1.17562 361.058 0.960765ZM368.274 0.918516C368.021 0.917485 368.013 0.989102 368.265 0.990133C368.518 0.991163 368.526 0.919546 368.274 0.918516ZM402.556 1.05763C402.303 1.0566 402.295 1.12822 402.547 1.12925C402.8 1.13028 402.809 1.05866 402.556 1.05763ZM477.544 1.36213L476.764 1.35904L476.747 1.50176L477.525 1.50485L477.544 1.36213ZM498.192 1.4456L497.414 1.44251L497.406 1.51412L498.184 1.51722L498.192 1.4456ZM329.699 0.833502C329.446 0.832472 329.437 0.904089 329.69 0.90512C329.943 0.90615 329.951 0.834533 329.699 0.833502ZM337.88 0.866477C337.628 0.865447 337.619 0.937064 337.872 0.938094C338.124 0.939125 338.133 0.867508 337.88 0.866477ZM377.615 1.02774C377.362 1.02671 377.354 1.09833 377.607 1.09936C377.859 1.10039 377.868 1.02878 377.615 1.02774ZM479.094 1.43993L478.314 1.43684L478.305 1.50846L479.083 1.51155L479.094 1.43993ZM485.911 1.46724C485.658 1.46621 485.65 1.53783 485.903 1.53886C486.155 1.53989 486.164 1.46827 485.911 1.46724ZM228.599 0.494479L227.821 0.491388L227.812 0.563005L228.59 0.566096L228.599 0.494479ZM240.481 0.542911C240.228 0.541881 240.22 0.613498 240.472 0.614528C240.725 0.615559 240.733 0.543941 240.481 0.542911ZM341.96 0.954582L340.986 0.95046L340.578 1.09163L341.951 1.02568L341.96 0.954582ZM369.425 1.06639C369.172 1.06536 369.164 1.13697 369.416 1.138C369.669 1.13852 369.678 1.06742 369.425 1.06639ZM421.236 1.2766C420.983 1.27557 420.974 1.34719 421.227 1.34822C421.48 1.34873 421.488 1.27763 421.236 1.2766ZM466.426 1.46003C466.173 1.45899 466.164 1.53061 466.417 1.53164C466.67 1.53216 466.678 1.46106 466.426 1.46003ZM255.454 0.818045L255.471 0.675326L255.081 0.67378L255.064 0.816499L255.454 0.818045ZM258.181 0.82938L258.197 0.686661L257.406 0.790738L257.4 0.826289L258.181 0.82938ZM319.341 1.07721L318.58 0.931396L318.563 1.07412L319.341 1.07721ZM330.072 0.977767C329.819 0.976737 329.811 1.04835 330.064 1.04938C330.316 1.05042 330.325 0.978798 330.072 0.977767ZM334.941 0.997861L332.984 1.06124L332.975 1.13285L334.932 1.06948L334.941 0.997861ZM353.834 1.07463C353.581 1.0736 353.573 1.14522 353.825 1.14625C354.078 1.14676 354.086 1.07566 353.834 1.07463ZM379.74 1.17974L378.963 1.17665L378.954 1.24826L379.732 1.25136L379.74 1.17974ZM183.198 0.453261C182.945 0.45223 182.937 0.523847 183.189 0.524878C183.442 0.525908 183.451 0.454291 183.198 0.453261ZM193.132 0.493964L192.354 0.490872L192.345 0.561975L193.126 0.565066L193.132 0.493964ZM215.531 0.584645C215.279 0.583614 215.27 0.655232 215.523 0.656262C215.776 0.657293 215.784 0.585675 215.531 0.584645ZM242.216 0.692844L240.658 0.686661L240.652 0.722212L241.225 0.831957L241.615 0.833502L242.216 0.692844ZM259.357 0.7624L258.56 0.902028C259.733 0.922122 260.152 1.20653 261.283 0.948914L260.331 0.766522L260.118 0.908726L259.534 0.90615L259.357 0.7624ZM321.298 1.01383L320.13 1.0092L320.121 1.08081L321.289 1.08545L321.298 1.01383ZM324.218 1.02568C323.965 1.02465 323.957 1.09627 324.209 1.0973C324.462 1.09833 324.471 1.02671 324.218 1.02568ZM326.75 1.03599L325.973 1.0329L325.964 1.10451L326.742 1.10761L326.75 1.03599ZM383.236 1.26527L381.678 1.25908L381.661 1.4018C382.391 1.4219 383.011 1.40799 383.236 1.26527ZM396.286 1.31834C396.034 1.31731 396.025 1.38892 396.278 1.38995C396.53 1.39047 396.542 1.31937 396.286 1.31834ZM400.377 1.33482L398.428 1.3271L398.42 1.39871C399.271 1.36368 399.633 1.48321 400.36 1.47806L400.377 1.33482ZM160.012 0.43059L158.844 0.425953L158.818 0.64029L159.209 0.641836L159.226 0.499116L160.006 0.502208L160.012 0.43059ZM166.22 0.670689L165.855 0.454806L165.464 0.453261L165.049 0.666052L166.22 0.670689ZM207.538 0.623802L206.76 0.620711L206.752 0.692328L207.529 0.69542L207.538 0.623802ZM285.839 0.941701L285.062 0.93861L285.053 1.01023L285.834 1.01332L285.839 0.941701ZM297.525 0.989102L296.747 0.986011L296.739 1.05763L297.517 1.06072L297.525 0.989102ZM301.032 1.00301L299.864 0.998377L299.839 1.21271C300.302 1.1921 300.431 1.11379 301.015 1.14625L301.032 1.00301ZM307.265 1.02826L306.097 1.02362L306.072 1.23796L307.24 1.2426L306.863 1.13388L307.265 1.02826ZM335.117 1.14161C334.865 1.14058 334.856 1.2122 335.109 1.21323C335.362 1.21374 335.37 1.14264 335.117 1.14161ZM348.364 1.1952C348.112 1.19417 348.103 1.26578 348.356 1.26681C348.608 1.26784 348.617 1.19623 348.364 1.1952ZM216.099 0.72994L215.321 0.726849L215.296 0.941186L215.686 0.942731C215.534 0.834017 215.967 0.813923 216.099 0.72994ZM231.656 1.00765L234.396 0.911302L231.869 0.865447L231.656 1.00765ZM245.299 0.991163L245.316 0.848444L244.524 0.952521L244.518 0.988072L245.299 0.991163ZM289.531 1.02774C289.279 1.02671 289.27 1.09833 289.523 1.09936C289.776 1.10039 289.784 1.02878 289.531 1.02774ZM375.012 1.58935L375.037 1.37501L374.647 1.37347C374.796 1.48218 374.364 1.50227 374.232 1.58626L375.012 1.58935ZM162.915 0.585675C162.662 0.584645 162.654 0.656262 162.907 0.657293C163.159 0.657808 163.168 0.586706 162.915 0.585675ZM194.858 0.714999C194.606 0.713968 194.597 0.785586 194.85 0.786616C195.103 0.787646 195.114 0.716029 194.858 0.714999ZM203.234 0.749004L202.052 0.851535L202.243 0.888117L203.225 0.820621L203.234 0.749004ZM204.208 0.753126C203.955 0.752095 203.947 0.823713 204.2 0.824743C204.452 0.825774 204.461 0.754156 204.208 0.753126ZM256.021 0.963341C255.769 0.96231 255.76 1.03393 256.013 1.03496C256.266 1.03599 256.274 0.964371 256.021 0.963341ZM292.64 1.11224C292.387 1.11121 292.378 1.18283 292.631 1.18386C292.884 1.18438 292.892 1.11327 292.64 1.11224ZM303.935 1.1581C303.682 1.15707 303.674 1.22869 303.927 1.22972C304.179 1.23023 304.188 1.15913 303.935 1.1581ZM335.881 1.28742C335.628 1.28639 335.62 1.35801 335.873 1.35904C336.125 1.36007 336.134 1.28845 335.881 1.28742ZM339.175 1.44405L339.191 1.30133C338.728 1.32194 338.599 1.40026 338.015 1.3678L338.007 1.43942L339.175 1.44405ZM344.257 1.32143C343.774 1.27351 342.881 1.43014 343.072 1.45951C343.552 1.50794 344.445 1.3508 344.257 1.32143ZM345.231 1.32555C344.978 1.32452 344.97 1.39614 345.222 1.39717C345.475 1.39768 345.483 1.32658 345.231 1.32555ZM357.11 1.37347L356.332 1.37037L356.316 1.51309L357.11 1.37347ZM362.953 1.39717L362.175 1.39408L362.167 1.46569L362.945 1.46878L362.953 1.39717ZM175.373 0.707785C175.12 0.706755 175.112 0.778372 175.364 0.779403C175.617 0.779918 175.625 0.708816 175.373 0.707785ZM197.773 0.798466L196.995 0.795375L196.986 0.866992L197.764 0.870084L197.773 0.798466ZM206.929 0.835563C206.676 0.834533 206.667 0.90615 206.92 0.90718C207.173 0.908211 207.181 0.836594 206.929 0.835563ZM348.126 1.55174L348.142 1.40902L347.752 1.40747L347.735 1.55019L348.126 1.55174ZM373.465 1.51155L372.687 1.50846L372.679 1.58007L373.457 1.58317L373.465 1.51155ZM118.489 0.548063C118.236 0.547033 118.227 0.61865 118.48 0.619681C118.733 0.620711 118.741 0.549094 118.489 0.548063ZM126.086 0.578977L125.308 0.575886L125.292 0.718605L126.086 0.578977ZM174.78 0.776827L174.003 0.773735L173.994 0.845353L174.772 0.848444L174.78 0.776827ZM199.713 0.877812L198.348 0.872145L197.747 1.0128L199.112 1.01847L199.713 0.877812ZM259.509 1.12049C259.256 1.11946 259.247 1.19107 259.5 1.1921C259.753 1.19313 259.761 1.12152 259.509 1.12049ZM267.089 1.29412L266.329 1.14831L266.312 1.29103L267.089 1.29412ZM315.607 1.34822C315.354 1.34719 315.346 1.41881 315.598 1.41984C315.851 1.42087 315.859 1.34925 315.607 1.34822ZM184.509 0.887602L183.341 0.882964L182.544 1.02259L184.262 1.31524L183.703 1.09833L185.261 1.10451L184.492 1.02981L184.509 0.887602ZM190.939 0.913879C190.686 0.912848 190.678 0.984465 190.93 0.985496C191.183 0.986011 191.191 0.914909 190.939 0.913879ZM230.673 1.07515C230.421 1.07412 230.412 1.14573 230.665 1.14676C230.918 1.14728 230.926 1.07618 230.673 1.07515ZM274.302 1.25187C274.05 1.25084 274.041 1.32246 274.294 1.32349C274.549 1.32452 274.558 1.2529 274.302 1.25187ZM314.818 1.41623C314.565 1.4152 314.557 1.48682 314.809 1.48785C315.062 1.48888 315.07 1.41726 314.818 1.41623ZM340.334 1.51979L339.556 1.5167L339.548 1.58832L340.326 1.59141L340.334 1.51979ZM19.9126 0.290962C19.6599 0.289932 19.6515 0.361549 19.9042 0.36258C20.1569 0.36361 20.1653 0.291993 19.9126 0.290962ZM23.0292 0.303843C22.7765 0.302813 22.768 0.37443 23.0207 0.37546C23.2734 0.376491 23.2818 0.304873 23.0292 0.303843ZM24.3937 0.309511L23.6132 0.306419L23.6047 0.378037L24.3825 0.381128L24.3937 0.309511ZM37.2474 0.361549L36.2647 0.429045L35.6835 0.390917L36.2563 0.500662L37.2306 0.504784L37.2474 0.361549ZM47.1811 0.401737C46.9284 0.400707 46.92 0.472324 47.1727 0.473355C47.4254 0.474385 47.4338 0.402768 47.1811 0.401737ZM55.3628 0.435227C55.1101 0.434197 55.1016 0.505814 55.3543 0.506845C55.607 0.50736 55.6154 0.436258 55.3628 0.435227ZM135.613 0.760854C135.36 0.759824 135.352 0.831441 135.604 0.832472C135.857 0.832987 135.865 0.761885 135.613 0.760854ZM165.024 0.879873L163.856 0.875236L163.847 0.946853L165.015 0.95149L165.024 0.879873ZM176.676 1.21323C176.872 1.02259 175.909 1.02259 175.347 0.922122L175.148 0.957158L176.676 1.21323ZM176.906 0.928305C176.653 0.927275 176.645 0.998892 176.897 0.999922C177.15 1.00095 177.158 0.929335 176.906 0.928305ZM178.251 1.07669L178.267 0.933973L177.476 1.03805L177.47 1.0736L178.251 1.07669ZM188.788 0.976222L188.01 0.97313L187.993 1.11585L188.788 0.976222ZM194.614 1.14316L194.631 1.00044L194.241 0.998892L194.224 1.14161L194.614 1.14316ZM196.383 1.00714C196.13 1.00611 196.122 1.07772 196.374 1.07875C196.627 1.07978 196.636 1.00817 196.383 1.00714ZM204.174 1.03908C203.922 1.03805 203.913 1.10967 204.166 1.1107C204.419 1.11121 204.427 1.04011 204.174 1.03908ZM233.391 1.15758C233.139 1.15655 233.13 1.22817 233.383 1.2292C233.636 1.22972 233.644 1.15861 233.391 1.15758ZM305.653 1.45075L304.876 1.44766L304.867 1.51928L305.645 1.52237L305.653 1.45075ZM329.808 1.54865L329.03 1.54555L329.013 1.68827L329.808 1.54865ZM337.403 1.57956C337.15 1.57853 337.142 1.65015 337.395 1.65118C337.647 1.65221 337.656 1.58059 337.403 1.57956ZM15.7965 0.488812L15.8133 0.346092L15.4231 0.344546L15.4062 0.487266L15.7965 0.488812ZM35.6554 0.640805C35.7846 0.505299 35.2567 0.404313 34.5127 0.421831L35.6554 0.640805ZM61.3937 0.531061L60.616 0.527969L60.5991 0.670689L61.3769 0.67378L61.3937 0.531061ZM106.564 0.857203L106.581 0.714483L106.191 0.712938L106.174 0.855657L106.564 0.857203ZM128.007 0.801558L127.229 0.798466L127.212 0.941186L128.007 0.801558ZM202.608 1.104L202.009 1.20859L202.2 1.24517L202.798 1.14058L202.608 1.104ZM268.833 1.37295L268.235 1.47754L268.426 1.51412L269.024 1.40953L268.833 1.37295ZM319.282 1.5775L318.504 1.57441L318.496 1.64602L319.273 1.64912L319.282 1.5775ZM40.5437 0.517665C40.291 0.516634 40.2825 0.588251 40.5352 0.589282C40.7879 0.590312 40.7963 0.518695 40.5437 0.517665ZM110.079 0.800012L109.302 0.796921L109.285 0.93964L110.063 0.942731L110.079 0.800012ZM156.631 0.989102C156.379 0.988072 156.37 1.05969 156.623 1.06072C156.876 1.06124 156.884 0.990133 156.631 0.989102ZM160.315 1.14676L160.332 1.00404L159.942 1.0025L159.925 1.14522L160.315 1.14676ZM169.098 1.0396C168.845 1.03856 168.836 1.11018 169.089 1.11121C169.342 1.11224 169.35 1.04063 169.098 1.0396ZM182.148 1.09266L181.37 1.08957L181.362 1.16119L182.139 1.16428L182.148 1.09266ZM247.399 1.35749C247.146 1.35646 247.138 1.42808 247.391 1.42911C247.643 1.42963 247.652 1.35852 247.399 1.35749ZM251.083 1.51515L251.1 1.37244L250.308 1.47651L250.302 1.51206L251.083 1.51515ZM310.118 1.61202C309.865 1.61099 309.856 1.68261 310.109 1.68364C310.362 1.68415 310.37 1.61305 310.118 1.61202ZM322.584 1.66251C322.331 1.66148 322.323 1.7331 322.575 1.73413C322.828 1.73464 322.837 1.66354 322.584 1.66251ZM326.868 1.68003C326.616 1.679 326.607 1.75062 326.86 1.75165C327.113 1.75216 327.121 1.68106 326.868 1.68003ZM18.8878 0.716029L19.2977 0.538789L19.1068 0.502208L18.4975 0.713968L18.8878 0.716029ZM22.2233 0.515088C21.9706 0.514058 21.9622 0.585675 22.2149 0.586706C22.4676 0.587221 22.476 0.516119 22.2233 0.515088ZM70.9203 0.712422C70.6676 0.711392 70.6592 0.783009 70.9119 0.78404C71.1645 0.78507 71.173 0.713453 70.9203 0.712422ZM99.9408 0.830411L100.5 1.04732L101.485 0.944277L100.912 0.834533L99.9408 0.830411ZM138.491 1.12976L137.73 0.98395L137.713 1.12667L138.491 1.12976ZM163.246 1.08751C162.994 1.08648 162.985 1.1581 163.238 1.15913C163.491 1.15964 163.499 1.08854 163.246 1.08751ZM178.826 1.15037C178.574 1.14934 178.565 1.22096 178.818 1.22199C179.07 1.22302 179.079 1.1514 178.826 1.15037ZM301.15 1.64705C300.897 1.64602 300.889 1.71764 301.141 1.71867C301.394 1.7197 301.402 1.64808 301.15 1.64705ZM61.7559 0.746943L60.9782 0.743852L60.9697 0.815469L61.7475 0.81856L61.7559 0.746943ZM72.4701 0.790223C72.2174 0.789192 72.209 0.86081 72.4617 0.86184C72.7144 0.86287 72.7228 0.791253 72.4701 0.790223ZM73.2479 0.793314C72.9952 0.792284 72.9868 0.863901 73.2394 0.864931C73.4921 0.865962 73.5006 0.794344 73.2479 0.793314ZM134.018 1.04011C133.765 1.03908 133.757 1.1107 134.01 1.11173C134.265 1.11276 134.273 1.04114 134.018 1.04011ZM202.582 1.31834C202.33 1.31731 202.321 1.38892 202.574 1.38995C202.827 1.39098 202.835 1.31937 202.582 1.31834ZM213.49 1.36265C213.238 1.36162 213.229 1.43323 213.482 1.43426C213.734 1.43529 213.743 1.36368 213.49 1.36265ZM242.123 1.47909L241.346 1.476L241.329 1.61872L242.123 1.47909ZM275.218 1.75628L275.235 1.61356L274.844 1.61202L274.827 1.75474L275.218 1.75628ZM279.519 1.63057L278.741 1.62748L278.733 1.69909L279.511 1.70218L279.519 1.63057ZM17.9219 0.64029C17.6692 0.63926 17.6608 0.710877 17.9135 0.711907C18.1662 0.712938 18.1746 0.64132 17.9219 0.64029ZM40.1281 0.730456C39.8754 0.729425 39.867 0.801042 40.1197 0.802073C40.3724 0.803103 40.3808 0.731486 40.1281 0.730456ZM53.1587 0.926244L53.1755 0.783525L52.1844 0.922637L51.4151 0.847929L50.0337 0.985496L52.76 0.996316L52.7432 1.13904L54.7114 0.968493L53.1587 0.926244ZM58.2154 1.01847L57.6567 0.801558C57.4011 0.835048 56.6487 0.930366 56.4718 0.93964C55.5452 0.987557 54.8489 0.810317 55.082 1.14831L55.6828 1.00765L58.2154 1.01847ZM91.1582 0.937579C90.9056 0.936549 90.8971 1.00817 91.1498 1.0092C91.4025 1.01023 91.4109 0.93861 91.1582 0.937579ZM97.7816 0.964371C97.5289 0.963341 97.5205 1.03496 97.7732 1.03599C98.0259 1.03702 98.0343 0.965402 97.7816 0.964371ZM195.341 1.57492L194.005 1.35492L194.179 1.53422L193.379 1.70991L195.131 1.71713L195.341 1.57492ZM248.932 1.57801C248.679 1.57698 248.671 1.6486 248.924 1.64963C249.176 1.65066 249.185 1.57904 248.932 1.57801ZM300.743 1.78823C300.49 1.7872 300.482 1.85882 300.734 1.85985C300.987 1.86088 300.995 1.78926 300.743 1.78823ZM309.312 1.82275C309.059 1.82172 309.051 1.89334 309.303 1.89437C309.556 1.8954 309.564 1.82378 309.312 1.82275ZM22.7737 0.803104L21.8078 0.72788L21.6085 0.762915L22.7652 0.874721L22.7737 0.803104ZM68.5562 0.917485C68.3035 0.916455 68.2951 0.988072 68.5478 0.989102C68.8005 0.990133 68.8089 0.918516 68.5562 0.917485ZM74.5956 0.941701L73.4276 0.937064L73.4191 1.00868L74.5871 1.01332L74.5956 0.941701ZM113.55 1.09988L111.991 1.09369L111.983 1.16531L113.541 1.17149L113.55 1.09988ZM122.484 1.3508C122.372 1.26578 121.945 1.24208 122.119 1.13491L121.729 1.13337L121.703 1.3477L122.484 1.3508ZM127.381 1.15604C127.128 1.15501 127.119 1.22662 127.372 1.22766C127.625 1.22869 127.633 1.15707 127.381 1.15604ZM198.865 1.44611L197.697 1.44148L197.68 1.5842L198.848 1.58883L198.865 1.44611ZM254.553 1.81502L253.986 1.66972L252.613 1.73567L252.604 1.80729C253.191 1.84903 253.506 1.73928 253.587 1.7398C253.669 1.74031 253.958 1.85212 254.553 1.81502ZM17.9051 0.783525C17.6524 0.782494 17.644 0.854111 17.8967 0.855142C18.1494 0.855657 18.1578 0.784555 17.9051 0.783525ZM24.1382 0.808771C23.8855 0.807741 23.8771 0.879358 24.1298 0.880388C24.3825 0.880904 24.3909 0.809801 24.1382 0.808771ZM37.1884 0.86184L36.4107 0.858749L36.9779 1.00404L37.1716 1.00507L37.1884 0.86184ZM38.3396 1.0092L38.3564 0.866477L37.9662 0.864931L37.9493 1.00765L38.3396 1.0092ZM40.1085 0.87369C39.8558 0.87266 39.8473 0.944277 40.1 0.945308C40.3527 0.945823 40.364 0.874721 40.1085 0.87369ZM45.9541 0.897391L45.7548 0.932427L46.3275 1.04217L46.5269 1.00714L45.9541 0.897391ZM47.8999 0.90512C47.6472 0.904089 47.6387 0.975706 47.8914 0.976737C48.1441 0.977767 48.1525 0.90615 47.8999 0.90512ZM49.4581 0.911302C49.2054 0.910272 49.197 0.981889 49.4497 0.98292C49.7024 0.98395 49.7108 0.912333 49.4581 0.911302ZM61.1466 0.958704C60.8939 0.957673 60.8855 1.02929 61.1382 1.03032C61.3909 1.03135 61.3993 0.959734 61.1466 0.958704ZM62.7049 0.965402C62.4522 0.964371 62.4438 1.03599 62.6965 1.03702C62.9492 1.03753 62.9576 0.966432 62.7049 0.965402ZM64.6507 0.97313C64.398 0.9721 64.3895 1.04372 64.6422 1.04475C64.8949 1.04578 64.9062 0.974161 64.6507 0.97313ZM84.5208 1.05351C84.2681 1.05248 84.2597 1.12409 84.5124 1.12512C84.7651 1.12615 84.7735 1.05454 84.5208 1.05351ZM163.794 1.37553L163.016 1.37244L163.583 1.51773L163.777 1.51876L163.794 1.37553ZM177.625 1.43169C177.372 1.43066 177.363 1.50227 177.616 1.5033C177.869 1.50382 177.877 1.43272 177.625 1.43169ZM192.427 1.49145C192.174 1.49042 192.166 1.56204 192.418 1.56307C192.671 1.5641 192.679 1.49248 192.427 1.49145ZM203.725 1.53731C203.472 1.53628 203.464 1.6079 203.717 1.60893C203.969 1.60996 203.978 1.53834 203.725 1.53731ZM215.411 1.58471C215.158 1.58368 215.15 1.6553 215.402 1.65633C215.655 1.65736 215.663 1.58574 215.411 1.58471ZM225.541 1.62593C225.288 1.6249 225.28 1.69652 225.532 1.69755C225.785 1.69858 225.794 1.62696 225.541 1.62593ZM31.1406 0.908726C30.8879 0.907696 30.8795 0.979313 31.1322 0.980344C31.3849 0.980859 31.3933 0.909757 31.1406 0.908726ZM32.5052 0.913879L31.7274 0.910787L31.719 0.982404L32.4968 0.985496L32.5052 0.913879ZM45.3589 0.966432L43.8006 0.960249L43.7838 1.10297L44.3762 1.03393L45.342 1.10915L45.3589 0.966432ZM48.672 0.979828C48.4193 0.978798 48.4109 1.05042 48.6636 1.05145C48.9162 1.05196 48.9247 0.980859 48.672 0.979828ZM127.15 1.44096L126.389 1.29515L126.373 1.43787L127.15 1.44096ZM195.712 1.71919L196.894 1.61666L196.703 1.58007L195.72 1.64757L195.712 1.71919ZM17.498 0.924698C17.2453 0.923668 17.2368 0.995285 17.4895 0.996316C17.7422 0.997346 17.7507 0.925729 17.498 0.924698ZM32.8758 1.05866L33.443 1.20395C33.8641 1.13852 34.1645 1.09988 34.0522 0.992194C33.5918 1.01229 33.4626 1.0906 32.8758 1.05866ZM85.2817 1.19983C85.029 1.1988 85.0206 1.27042 85.2733 1.27145C85.526 1.27197 85.5344 1.20086 85.2817 1.19983ZM105.326 1.42396L104.369 1.27712L103.386 1.34461L103.377 1.41623L105.326 1.42396ZM114.889 1.31988C114.636 1.31885 114.628 1.39047 114.881 1.3915C115.133 1.39253 115.142 1.32091 114.889 1.31988ZM133.976 1.39717C133.723 1.39614 133.715 1.46775 133.967 1.46878C134.22 1.46981 134.229 1.3982 133.976 1.39717ZM187.345 1.61408C187.092 1.61305 187.084 1.68467 187.336 1.6857C187.589 1.68621 187.598 1.61511 187.345 1.61408ZM175.067 1.63572L173.508 1.62954L173.5 1.70115L174.281 1.70425L174.457 1.848L175.067 1.63572ZM47.8662 1.19107C47.6135 1.19004 47.605 1.26166 47.8577 1.26269C48.1104 1.26321 48.1189 1.1921 47.8662 1.19107ZM98.2898 1.60996L98.6998 1.43272L98.5088 1.39614L97.8996 1.6079L98.2898 1.60996ZM121.883 1.49145C121.63 1.49042 121.622 1.56204 121.875 1.56307C122.127 1.56359 122.136 1.49248 121.883 1.49145ZM152.835 1.75989L152.852 1.61717L152.462 1.61511L152.445 1.75783L152.835 1.75989ZM18.0567 1.14161L17.279 1.13852L17.8433 1.2833L18.037 1.28433L18.0567 1.14161ZM18.6407 1.14367C18.388 1.14264 18.3796 1.21426 18.6323 1.21529C18.885 1.21632 18.8934 1.1447 18.6407 1.14367ZM20.5893 1.1514C20.3366 1.15037 20.3281 1.22199 20.5808 1.22302C20.8335 1.22405 20.8419 1.15243 20.5893 1.1514ZM72.3999 1.36213C72.1472 1.3611 72.1388 1.43272 72.3915 1.43375C72.6442 1.43426 72.6526 1.36316 72.3999 1.36213ZM165.894 1.74134C165.641 1.74031 165.633 1.81193 165.885 1.81296C166.138 1.81399 166.147 1.74237 165.894 1.74134ZM179.141 1.79493C178.888 1.7939 178.88 1.86551 179.132 1.86654C179.385 1.86757 179.393 1.79596 179.141 1.79493ZM35.7734 1.28485C35.5207 1.28382 35.5122 1.35543 35.7649 1.35646C36.0176 1.35698 36.026 1.28588 35.7734 1.28485ZM40.0579 1.30236L39.8586 1.3374L40.8104 1.51979L41.0097 1.48476L40.0579 1.30236ZM48.4081 1.55071L48.043 1.33482C47.2569 1.36986 47.1502 1.48321 47.2288 1.61769L48.4081 1.55071ZM48.6271 1.33688L48.4277 1.37192L49.7698 1.55586L49.7951 1.34152L49.0061 1.41005L48.6271 1.33688ZM56.8087 1.37037C56.556 1.36934 56.5476 1.44096 56.8003 1.44199C57.053 1.44251 57.0614 1.37089 56.8087 1.37037ZM57.9767 1.37501C57.724 1.37398 57.7156 1.4456 57.9683 1.44663C58.221 1.44714 58.2294 1.37604 57.9767 1.37501ZM61.2898 1.38841L60.5121 1.38532L60.5037 1.45693L61.2814 1.46003L61.2898 1.38841ZM104.335 1.56307C104.082 1.56204 104.074 1.63366 104.326 1.63469C104.579 1.6352 104.588 1.5641 104.335 1.56307ZM43.9438 1.38944C43.6911 1.38841 43.6827 1.46003 43.9354 1.46106C44.1881 1.46209 44.1993 1.39047 43.9438 1.38944ZM103.742 1.63211L102.965 1.62902L102.956 1.70064L103.734 1.70373L103.742 1.63211ZM23.484 1.37759L22.7063 1.3745L22.6978 1.44611L23.4756 1.44921L23.484 1.37759ZM24.652 1.38274L23.8743 1.37965L23.8659 1.45127L24.6436 1.45436L24.652 1.38274ZM42.7674 1.4559C42.5147 1.45487 42.5062 1.52649 42.7589 1.52752C43.0116 1.52855 43.0201 1.45693 42.7674 1.4559ZM32.2413 1.48476C31.9886 1.48373 31.9801 1.55534 32.2328 1.55637C32.4855 1.5574 32.4939 1.48579 32.2413 1.48476ZM41.5825 1.59399C41.3298 1.59296 41.3214 1.66457 41.5741 1.6656C41.8268 1.66663 41.8352 1.59502 41.5825 1.59399Z" fill="url(#paint2_linear_1701_4709)"/>
<path d="M14.5669 0.983045C14.5669 1.00675 14.5557 1.03045 14.5585 1.05466C14.2721 1.07579 13.851 1.14122 13.7695 1.12319L13.7864 0.980469L14.5669 0.983045Z" fill="url(#paint3_linear_1701_4709)"/>
<path d="M510.599 1.85027L510.591 1.92188L511.371 1.92504L511.38 1.85344L510.599 1.85027Z" fill="url(#paint4_linear_1701_4709)"/>
<path d="M488.629 1.55079C488.882 1.55182 488.874 1.62344 488.621 1.62241C488.368 1.62086 488.377 1.54976 488.629 1.55079Z" fill="url(#paint5_linear_1701_4709)"/>
<path d="M12.8315 0.832042C13.0842 0.833073 13.0758 0.90469 12.8231 0.90366C12.5704 0.902629 12.5788 0.831012 12.8315 0.832042Z" fill="url(#paint6_linear_1701_4709)"/>
</g>
<g opacity="0.5">
<path d="M498.852 6.79297L498.638 6.89962L496.539 6.93105L496.942 6.82466L498.852 6.79297Z" fill="url(#paint7_linear_1701_4709)"/>
<path d="M500.729 6.90234L501.11 6.90312L500.913 6.93841C500.666 6.93815 500.749 6.90312 500.729 6.90234Z" fill="url(#paint8_linear_1701_4709)"/>
<path d="M49.3513 6.25187L50.1077 6.27119L49.376 6.1447C51.1627 6.16918 53.5824 6.12512 55.2704 6.15707C56.457 6.17948 58.3725 6.18025 59.4522 6.16583C60.5894 6.15037 61.2115 6.19365 62.113 6.17124C63.0584 6.14779 63.4613 6.24543 63.6175 6.24595C63.908 6.22637 64.5136 6.18618 64.7739 6.1769C66.2126 6.12615 67.939 6.21323 69.7174 6.18721C72.666 6.14419 77.2095 6.21632 80.3718 6.17356C83.2272 6.13491 86.1539 6.16892 88.7353 6.19107L89.8917 6.12203L90.2644 6.15861L90.8426 6.12409L90.8262 6.19545C91.4318 6.21632 91.6346 6.16402 91.7853 6.16171C92.284 6.15423 93.5912 6.12976 93.6953 6.13002C93.8213 6.13028 93.9227 6.16402 94.068 6.1666C95.4491 6.19107 96.7891 6.16608 97.8524 6.24595C98.5265 6.14316 99.2965 6.19545 100.151 6.17922C101.239 6.15861 101.733 6.15913 102.812 6.18463C103.815 6.20859 106.246 6.13775 107.383 6.15836C110.737 6.21967 115.314 6.04243 119.161 6.21864C120.205 6.08545 122.4 6.1836 123.724 6.22817L124.105 6.22894C125.878 6.08494 129.328 6.20112 131.726 6.1733C134.312 6.14316 136.831 6.15063 138.949 6.18824C140.086 6.20833 140.81 6.16067 141.24 6.15733C143.345 6.14058 145.751 6.18206 147.893 6.17124L148.066 6.24311C148.943 6.13543 151.527 6.15733 152.637 6.21684C168.909 6.21091 185.935 6.18721 203.221 6.25058C205.024 6.15964 207.071 6.24337 209.312 6.2274L211.379 6.33895L210.444 6.26552C210.071 6.24672 210.74 6.19726 210.841 6.19494C211.222 6.18618 213.045 6.19236 213.502 6.20035C214.387 6.21606 215.116 6.18721 216.163 6.20576C219.8 6.27042 224.217 6.17407 228.33 6.231C229.429 6.2462 232.517 6.21993 233.282 6.2055C234.559 6.18128 236.639 6.23178 238.034 6.21529L238.398 6.28742L238.606 6.21632C239.623 6.20705 240.034 6.25496 240.119 6.25522C241.78 6.25857 247.222 6.25986 248.872 6.2377C252.429 6.18979 258.863 6.23925 262.56 6.26604L262.941 6.26681C263.768 6.11173 266.684 6.25033 267.131 6.23976C269.758 6.17768 272.693 6.27686 273.595 6.25316C275.119 6.21297 283.326 6.20936 285.008 6.24105C286.765 6.27428 289.672 6.19185 290.719 6.21709C291.67 6.24002 297.384 6.28716 298.696 6.26939C299.606 6.25702 300.853 6.25213 301.746 6.24002C302.804 6.22585 304.193 6.2292 304.772 6.31782L305.55 6.24801C306.26 6.34332 307.717 6.25754 308.211 6.25342C313.026 6.21477 318.555 6.28974 322.666 6.24775L323.039 6.28433L323.617 6.24981L324.351 6.35852L324.187 6.25084C325.184 6.27325 325.872 6.197 326.856 6.2207C327.941 6.24698 330.298 6.28691 331.791 6.26681C331.936 6.26475 332.054 6.23152 332.18 6.23178C332.26 6.23203 332.542 6.28794 333.123 6.26939L333.107 6.34075C333.287 6.33895 333.512 6.3477 333.677 6.34204C333.91 6.33379 334.773 6.2462 335.222 6.23796C335.691 6.22946 337.379 6.23461 337.883 6.24337C338.028 6.24595 338.124 6.27918 338.256 6.27995C338.319 6.28021 338.656 6.22534 339.215 6.2462L339.387 6.31808C340.026 6.21761 341.004 6.27841 341.695 6.21555L343.588 6.25522L344.167 6.2207L344.531 6.29283L344.923 6.24002L345.109 6.25831C345.257 6.25599 345.359 6.22456 345.498 6.22328C348.425 6.197 351.217 6.21349 354.251 6.20576C356.394 6.20009 359.564 6.14058 361.483 6.18515C362.571 6.21039 363.324 6.15887 363.774 6.15423C364.428 6.14728 365.188 6.16274 365.864 6.15861L365.656 6.22972C366.443 6.12306 367.648 6.16892 368.903 6.16505L368.506 6.23564C368.813 6.23229 369.205 6.24388 369.457 6.2377C369.6 6.2341 370.578 6.14135 371.003 6.13363C372.562 6.10554 375.066 6.16943 376.705 6.14548C381.043 6.0821 386.157 6.2073 391.16 6.13981C392.695 6.1192 394.578 6.12847 396.493 6.11508L397.617 6.18901L398.395 6.1192L399.713 6.17562L399.346 6.12126C400.406 6.1174 401.522 6.13414 402.577 6.12796C407.389 6.09936 418.158 6.05866 422.356 6.13337C423.283 6.14986 424.858 6.15217 425.398 6.13981C427.256 6.0973 433.605 6.0888 435.672 6.12538C438.787 6.18077 443.405 6.08983 446.699 6.14831C449.173 6.19236 452.256 6.08313 454.692 6.12925C455.317 6.1411 456.81 6.16943 457.345 6.17046C457.411 6.17072 457.635 6.12538 458.493 6.13723L458.666 6.20911L459.063 6.13852C459.488 6.14419 460.008 6.13285 460.395 6.14135C462.14 6.17897 463.437 6.15372 465.33 6.18747C466.541 6.20885 472.526 6.22662 474.074 6.20576C475.414 6.18772 477.234 6.19932 478.24 6.28588L478.448 6.21477L481.101 6.25599L481.084 6.32735L482.035 6.32941C482.802 6.24775 484.027 6.28536 484.721 6.22766L485.463 6.30056C486.463 6.20267 487.782 6.32813 488.886 6.30777C489.053 6.30468 489.234 6.25316 489.845 6.27403L489.042 6.45101L489.62 6.41649L490.166 6.52494L490.93 6.50871L491.344 6.36651L490.215 6.31061L492.298 6.3508C493.882 6.27944 495.567 6.38377 497.241 6.3611C498.565 6.34332 499.464 6.44405 500.283 6.36754L500.842 6.42241L500.069 6.47445C500.798 6.50073 501.102 6.41314 501.417 6.40567C502.259 6.38609 502.763 6.44276 503.5 6.44586L502.33 6.56848L502.697 6.62284L500.801 6.60094L501.36 6.65581L503.062 6.69497C502.944 6.53989 503.728 6.39845 505.591 6.44998C506.098 6.46389 506.408 6.54813 505.753 6.57544L506.312 6.63031L507.09 6.5605L507.638 6.65092L506.879 6.64937L507.235 6.75731L506.835 6.84593L506.073 6.84439L506.86 6.73877L505.72 6.73645L505.736 6.66509L504.977 6.66354L505.703 6.80806L503.81 6.76839L504.561 6.80575L504.725 6.91343L505.279 6.98608L503.179 7.01751L501.856 6.97912L501.881 6.87195L501.111 6.90622L500.93 6.87015L500.732 6.90544C500.587 6.89978 500.321 6.91317 500.162 6.90416C499.672 6.87659 499.25 6.77638 499.253 6.72357L498.674 6.75809C497.896 6.65478 496.838 6.65272 496.013 6.75268L494.882 6.71455L494.287 6.82043L495.802 6.84155C496.507 6.80884 495.805 6.89024 495.6 6.89462C494.561 6.91729 494.325 6.80394 493.714 6.81914L492.169 6.92322L492.385 6.81657C491.788 6.80523 491.637 6.84439 491.045 6.84954C489.974 6.85907 489.3 6.86577 488.376 6.87968C486.883 6.90209 486.261 6.81013 484.97 6.80111L483.293 6.65478L483.457 6.76247L483.249 6.83357C482.822 6.83743 482.312 6.82429 481.917 6.83073C481.772 6.83305 481.679 6.86268 481.528 6.86577C480.583 6.88432 480.076 6.81244 479.248 6.86113C478.749 6.77586 477.927 6.80497 477.371 6.7501L477.544 6.82198C477.116 6.82558 476.607 6.8127 476.212 6.81914C476.064 6.82146 475.963 6.85263 475.823 6.85418C474.433 6.86757 472.847 6.81631 472.022 6.84619L471.279 6.77329L470.501 6.8431L469.75 6.80575C468.882 6.89565 467.933 6.78849 466.898 6.79982L466.533 6.72769L466.317 6.83434L466.144 6.76247L465.385 6.76092L465.368 6.83228C465.188 6.82945 464.957 6.83769 464.798 6.83099C464.59 6.82223 464.544 6.78205 464.048 6.79364C461.483 6.85444 458.657 6.85186 456.062 6.77715L454.906 6.84619L454.533 6.80961L453.193 6.84259L453.401 6.77148L452.245 6.84052C451.998 6.83563 451.708 6.84542 451.486 6.83898C450.538 6.81116 449.368 6.85495 448.063 6.83177C446.934 6.81167 445.556 6.80034 443.882 6.82301C442.322 6.84413 439.609 6.82146 437.79 6.84619C437.044 6.85624 436.102 6.8346 435.318 6.84104L435.526 6.76994C435.145 6.80214 434.493 6.8328 433.989 6.83821C432.348 6.85572 431.018 6.84207 429.799 6.86526C428.349 6.89256 427.385 6.75293 426.368 6.89385C425.467 6.8194 424.025 6.88226 422.962 6.81528L421.805 6.88432C419.945 6.79673 417.287 6.92348 414.963 6.87015C413.946 6.84671 411.458 6.84052 410.019 6.85985C409.767 6.86319 409.732 6.92811 409.26 6.8583L408.682 6.89282L408.509 6.82095C408.123 6.87942 407.528 6.84362 406.98 6.85341C406.83 6.85598 406.734 6.88664 406.591 6.88844C404.191 6.91626 402.503 6.86577 400.127 6.87505C399.518 6.87736 399.318 6.87608 398.787 6.90802L399.565 6.83821C399.606 6.80008 399.795 6.69806 399.02 6.72975C398.208 6.76298 398.617 6.87401 397.836 6.90596L397.085 6.8686C396.353 6.96804 393.58 6.85366 393.284 6.86062C391.571 6.90106 390.083 6.8869 388.324 6.92167C387.338 6.94125 386.696 6.86423 386.052 6.88123C383.564 6.94666 381.049 6.84851 378.44 6.90106C378.144 6.90699 377.9 6.95156 376.911 6.93352C375.831 6.91369 374.332 6.91858 373.118 6.88999C371.723 6.85701 371.378 6.98479 370.441 6.95594C368.561 6.89797 366.865 6.89875 365.108 6.98067L364.727 6.97989C363.645 6.87788 362.181 6.90596 360.751 6.90003L360.735 6.97139C359.94 7.00179 358.515 6.92476 358.271 6.93043C356.577 6.97062 355.227 6.98685 353.717 6.88535L352.56 6.95439C352.19 6.94975 351.765 6.95825 351.42 6.95207C350.806 6.94074 349.009 6.93121 347.998 6.94486C346.51 6.96495 344.863 6.93893 343.046 6.97036L342.303 6.89746L340.766 6.96573L339.253 6.92683C336.795 7.00566 334.049 6.93662 332.013 6.98324C330.232 7.02395 328.865 6.93378 327.061 7.00875L325.938 6.93481L325.168 6.96907L324.25 6.82429L325.001 6.86165C325.127 6.7939 324.612 6.7434 323.885 6.75216L324.25 6.82429C323.789 6.81141 323.209 6.82172 323.477 6.87633C323.803 6.94254 324.68 6.90879 324.598 6.96804L322.88 7.00025L321.375 6.92554L320.219 6.99458L319.674 6.88612L319.293 6.88535L319.276 6.95671L317.747 6.98917L317.402 6.84542L316.089 6.77123L317.196 6.91652L316.799 6.98711L314.7 7.01854L314.716 6.94718L313.368 7.01596L312.995 6.97938C312.872 6.97912 312.765 7.01029 312.606 7.01442C311.875 7.03245 311.444 6.95671 310.713 6.97474C309.496 7.00488 307.586 7.0425 305.761 7.00025C303.744 6.95336 300.65 7.03425 298.537 6.9853C297.162 6.95336 295.224 7.03451 293.967 7.01158C292.281 6.98093 290.76 6.9835 288.645 7.0005C287.316 7.01107 285.998 7.01081 285.049 6.92167L285.033 6.99303L281.619 6.95027L281.635 6.87891L281.254 6.87814L281.238 6.9495L278.369 7.01493C277.382 6.90364 273.655 7.02266 273.047 7.00385C272.891 6.99896 272.814 6.97011 272.674 6.96727C271.838 6.95156 270.709 6.97294 269.822 6.96135L270.219 6.89076L269.268 6.8887C269.049 6.90416 268.207 6.95594 268.112 6.95774C266.807 6.98144 264.308 6.87917 263.168 6.94744L262.223 6.9276L262.59 6.98196L260.896 6.90699C260.748 6.9106 260.663 6.93765 260.507 6.94203C258.726 6.992 256.361 6.9294 254.407 7.00076L253.284 6.92683C251.615 6.96933 249.066 7.0206 247.581 6.91498C247.455 6.91472 247.34 6.94795 247.192 6.95001C242.986 7.00875 237.513 6.94228 233.504 6.92167L231.967 6.98994C231.339 6.93198 229.58 6.92811 228.925 6.9835L228.182 6.9106C227.933 6.91446 227.651 6.90338 227.423 6.90905C227.264 6.91291 227.157 6.94434 227.034 6.94409C226.955 6.94383 226.672 6.88793 226.091 6.90647L226.264 6.97835C225.631 6.88844 224.962 6.97191 224.743 6.97526C222.973 7.00076 220.452 6.93842 218.66 6.96263C217.292 6.98118 215.067 6.92811 213.338 6.95156C212.636 6.96109 212.368 6.94563 212.198 6.94924C211.987 6.95362 211.546 7.01081 210.858 6.98221L210.874 6.91085L209.907 6.98041L209.534 6.94383L208.764 6.97809L208.392 6.94151C207.213 7.01338 206.254 6.94563 204.961 6.97011C203.974 6.98865 202.426 6.95001 201.349 6.96263L201.746 6.89205L200.398 6.96083C200.272 6.96057 200.171 6.92708 200.025 6.92425C198.699 6.90003 196.4 7.05666 195.082 6.91395C193.953 7.01184 191.437 6.90647 190.519 6.90441C190.44 6.90416 190.133 6.95903 189.56 6.93816C189.757 6.84516 188.848 6.84387 188.264 6.79261L187.678 6.86294L189.174 6.9732L187.85 6.93481C186.061 7.00128 184.277 6.87479 182.501 7.0309L181.361 7.02858L180.238 6.95465L179.287 6.95259L179.27 7.02395C178.845 7.01828 178.325 7.02961 177.938 7.02111C177.229 7.00591 176.598 6.99123 176.045 6.98144C175.075 6.96418 174.047 7.00617 173.2 6.93971L173.176 7.04688L172.036 7.04456L172.06 6.93739C171.455 6.91652 171.249 6.96907 171.101 6.97114C169.649 6.99123 167.684 6.9464 166.158 6.96083C164.914 6.97268 165.396 6.98865 163.878 6.95619C163.33 6.94434 162.724 6.97706 162.365 6.91729L162.538 6.98917C162.006 6.98144 161.307 6.9969 160.828 6.98556C159.499 6.95465 158.282 7.02163 157.035 6.94203L155.117 7.00952C154.758 6.95078 154.174 6.98093 153.604 6.97062C152.544 6.9513 151.629 6.98324 150.563 6.96418C146.852 6.89823 141.514 7.01931 138.015 6.93816C136.683 6.90725 135.313 6.93868 134.203 6.96598C133.471 6.98402 133.17 6.91755 132.501 6.92683L132.674 6.9987L131.169 6.92399L129.821 6.99278L129.837 6.92142C129.407 6.92476 128.911 6.91291 128.506 6.91858C128.358 6.92064 128.243 6.95388 128.117 6.95362C127.99 6.95336 127.889 6.91961 127.744 6.91704C126.683 6.89823 125.5 6.91395 124.686 6.98221L124.71 6.87505L123.932 6.94486C122.929 6.96856 122.143 6.90544 122.038 6.90519C121.912 6.90493 121.795 6.93816 121.649 6.94022C120.192 6.9598 116.563 6.95078 115.566 6.9276C113.735 6.88509 111.735 6.98118 110.233 6.95233C106.43 6.87891 102.464 6.98479 98.0661 6.92708C97.5454 6.92013 97.5126 6.90106 97.1234 6.88947L96.9152 6.96057L96.5425 6.92399C95.7231 6.90287 94.923 7.01261 94.2625 6.91935L94.4352 6.99123L93.6761 6.98968L93.6925 6.91832L92.5526 6.91601L92.5361 6.98737C91.6291 7.0005 91.4564 6.88535 90.4617 6.91163C90.3055 6.91575 90.2151 6.9446 90.0726 6.94666C88.2585 6.9732 85.6634 6.95413 83.9891 6.93404L82.8326 7.00308L81.32 6.96418C80.5774 7.03399 79.2099 6.98324 78.2782 6.95774C76.993 6.9227 77.0807 6.93507 75.6174 6.95233C74.1568 6.96933 72.2002 6.90364 71.0465 6.97861L70.5012 6.87015L69.1776 6.83177L68.772 6.93816L67.6485 6.86423L67.6321 6.93558C67.2621 6.95877 67.01 6.89849 66.8812 6.89823C66.5852 6.89772 64.5355 6.92399 64.2121 6.92837C62.7406 6.94821 61.2471 6.93533 60.4113 6.92039C59.6714 6.90725 58.7205 6.92502 57.9395 6.91523L58.3533 6.77303L56.8242 6.80549L57.1805 6.91343L56.2378 6.87582L55.6596 6.91034L55.676 6.83898L54.9169 6.83743L54.9005 6.90879C53.8427 6.88252 53.0097 6.96186 52.0396 6.93868C51.8889 6.93507 51.8067 6.90441 51.6669 6.90209C50.5845 6.88458 49.439 6.89797 48.6087 6.96727L48.817 6.89617C48.3867 6.89952 47.8907 6.88767 47.4852 6.89334C47.3372 6.8954 47.2221 6.92863 47.0961 6.92837C46.97 6.92811 46.8686 6.89437 46.7234 6.89179C46.0931 6.88045 43.6268 6.89849 43.4925 6.88509L43.509 6.81373L42.1963 6.73954L42.3525 6.88277L41.6099 6.80987L41.5853 6.91704C40.9714 6.93558 40.7906 6.882 40.6426 6.87942C40.1795 6.87092 39.5985 6.8838 39.1217 6.87633C38.7189 6.87015 38.4037 6.85263 37.9899 6.83821C37.5405 6.82275 38.4503 6.77792 38.2064 6.73155L36.8418 6.8717L36.0909 6.83434C35.6716 6.88277 34.5015 6.87659 33.8 6.86526C33.6575 6.86294 33.5671 6.83048 33.4273 6.82867C30.887 6.79802 28.3248 6.82223 26.0312 6.74186L26.0476 6.6705L25.2885 6.66895L25.653 6.74108L22.6195 6.69909C22.5126 6.68956 23.2497 6.64654 22.6441 6.59192C23.1127 6.61588 23.9869 6.53757 23.8005 6.52288L22.6633 6.50253L21.7508 6.33972L21.9125 6.46518L22.6551 6.53808L21.6658 6.69677C20.7917 6.63881 21.5206 6.62722 21.5096 6.55354C21.6138 6.54968 21.8165 6.56075 21.8933 6.53654C21.8988 6.51309 21.5617 6.52108 21.5178 6.51799C21.4 6.50975 21.9508 6.40721 20.3943 6.44405L21.1671 6.39201L19.6846 6.24363L20.83 6.22817L20.8519 6.13878L21.4356 6.08648C22.1317 6.11765 22.8496 6.05531 22.9647 6.05402C24.4938 6.03625 27.3876 6.05145 28.6591 6.10168L29.2373 6.06716L29.2209 6.13852L29.98 6.14007L29.9964 6.06871C30.7363 6.0718 31.183 6.12641 32.0791 6.10889C33.5013 6.08081 36.4937 6.08983 37.7817 6.12074C39.5108 6.16222 41.6894 6.15089 43.1034 6.13182C43.8762 6.12152 46.5178 6.12693 47.2851 6.14058C47.5345 6.14496 47.54 6.21014 48.0442 6.14213L49.3513 6.25187L47.8222 6.28433L49.3349 6.32323L49.6994 6.39536L49.3513 6.25187ZM468.364 6.22946C468.117 6.22894 468.109 6.26475 468.355 6.26527C468.602 6.26552 468.61 6.22997 468.364 6.22946ZM475.198 6.27944C474.951 6.27892 474.943 6.31473 475.19 6.31524C475.439 6.3155 475.447 6.27995 475.198 6.27944ZM441.111 6.45874L440.212 6.24234C439.256 6.31112 439.845 6.29464 440.188 6.34951C440.44 6.39021 440.467 6.44792 441.111 6.45874ZM458.997 6.42447L459.222 6.28201L458.627 6.38789L457.871 6.36857L458.997 6.42447ZM464.346 6.32838L462.645 6.28923C461.896 6.33843 460.524 6.32916 460.513 6.46337L462.231 6.43117L464.346 6.32838ZM466.067 6.29618C465.821 6.29567 465.812 6.33147 466.059 6.33199C466.306 6.33225 466.314 6.2967 466.067 6.29618ZM474.05 6.31267C473.803 6.31215 473.795 6.34796 474.042 6.34848C474.288 6.34899 474.296 6.31318 474.05 6.31267ZM478.785 6.39408L479.728 6.43169L479.922 6.41417L479.563 6.324L478.785 6.39408ZM488.5 6.34281C488.253 6.34229 488.245 6.3781 488.491 6.37862C488.738 6.37888 488.746 6.34332 488.5 6.34281ZM456.725 6.38377L455.791 6.31035L454.802 6.46904L456.725 6.38377ZM470.811 6.34178L470.049 6.34023L470.602 6.41288L470.792 6.4134L470.811 6.34178ZM477.083 6.35466C476.837 6.35414 476.828 6.38995 477.075 6.39047C477.322 6.39098 477.33 6.35518 477.083 6.35466ZM480.887 6.36265C480.64 6.36213 480.632 6.39794 480.879 6.39845C481.125 6.39897 481.134 6.36316 480.887 6.36265ZM488.291 6.41365C487.713 6.42731 487.606 6.38763 487.159 6.37553L487.143 6.44689L488.283 6.44921L488.291 6.41365ZM495.507 6.4644L495.523 6.39304C494.991 6.42035 494.641 6.43813 493.994 6.4255L493.986 6.46131L495.507 6.4644ZM454.454 6.34332L452.544 6.37501L452.535 6.41082L454.445 6.37913L454.454 6.34332ZM467.744 6.44251L465.67 6.36677L463.932 6.47033L465.459 6.45565L465.473 6.40206L466.232 6.40361L466.215 6.47497L467.744 6.44251ZM469.643 6.44637L469.66 6.37501C469.208 6.38532 469.082 6.42447 468.512 6.40824L468.503 6.44405L469.643 6.44637ZM486.373 6.48115L484.299 6.40541L482.95 6.47419L483.698 6.52932L482.926 6.58136L485.033 6.51438L486.373 6.48115ZM371.161 6.27738L370.419 6.20447L370.4 6.27583L371.161 6.27738ZM389.618 6.2444C389.371 6.24388 389.363 6.27969 389.609 6.28021C389.856 6.28072 389.864 6.24492 389.618 6.2444ZM399.313 6.26449L398.554 6.26295L398.546 6.29876L399.305 6.3003L399.313 6.26449ZM472.296 6.48785L471.553 6.41494L471.537 6.4863L472.296 6.48785ZM474.587 6.45668L475.14 6.52932L476.102 6.4778L475.543 6.42293L474.587 6.45668ZM498.532 6.5422L497.408 6.46827L497.392 6.53963L496.614 6.60944L498.532 6.5422ZM504.615 6.55483L504.632 6.48347L504.251 6.4827L504.234 6.55406L504.615 6.55483ZM387.329 6.27531C387.083 6.2748 387.075 6.31061 387.321 6.31112C387.568 6.31164 387.576 6.27583 387.329 6.27531ZM474.017 6.45565C473.77 6.45513 473.762 6.49094 474.009 6.49145C474.255 6.49171 474.264 6.45616 474.017 6.45565ZM475.669 6.70914C476.138 6.74881 477.409 6.59837 477.793 6.57054L479.881 6.5927L476.87 6.46131C477.152 6.59244 476.327 6.61666 475.669 6.70914ZM501.963 6.51361L500.061 6.50974L500.044 6.5811C500.683 6.54195 501.187 6.54246 501.954 6.54942L501.963 6.51361ZM372.871 6.28098C372.625 6.28047 372.617 6.31628 372.863 6.31679C373.11 6.31731 373.118 6.2815 372.871 6.28098ZM388.461 6.31344C388.215 6.31293 388.206 6.34873 388.453 6.34925C388.7 6.34977 388.708 6.31396 388.461 6.31344ZM389.22 6.31499C388.974 6.31447 388.965 6.35028 389.212 6.3508C389.459 6.35131 389.47 6.3155 389.22 6.31499ZM417.911 6.44611L417.928 6.37475L417.547 6.37398L417.531 6.44534L417.911 6.44611ZM424.39 6.38815L423.631 6.3866L423.622 6.42241L424.381 6.42396L424.39 6.38815ZM431.235 6.40232L430.476 6.40077L430.468 6.43658L431.227 6.43813L431.235 6.40232ZM481.421 6.50665L480.281 6.50434L480.273 6.54014L481.413 6.54246L481.421 6.50665ZM492.432 6.6012L492.448 6.52984L492.067 6.52907L492.051 6.60043L492.432 6.6012ZM493.018 6.53087C492.772 6.53035 492.763 6.56616 493.01 6.56668C493.257 6.56694 493.265 6.53138 493.018 6.53087ZM493.961 6.56848L494.904 6.60609L495.098 6.58858L493.969 6.53267L493.961 6.56848ZM496.252 6.53757L495.493 6.53602L495.476 6.60738L496.252 6.53757ZM345.868 6.26063C345.622 6.26011 345.613 6.29592 345.86 6.29644C346.107 6.29695 346.115 6.26115 345.868 6.26063ZM396.816 6.36651C396.57 6.366 396.562 6.4018 396.808 6.40232C397.055 6.40283 397.063 6.36703 396.816 6.36651ZM422.29 6.41958C422.044 6.41906 422.036 6.45487 422.282 6.45539C422.529 6.45565 422.537 6.42009 422.29 6.41958ZM445.268 6.57441L446.041 6.52237L445.482 6.4675L445.293 6.46698L445.268 6.57441ZM472.288 6.5234C471.929 6.49455 470.871 6.57853 470.742 6.62748L472.263 6.63057L471.896 6.57621L472.288 6.5234ZM482.556 6.54478L481.797 6.54324L481.78 6.61459L482.556 6.54478ZM486.357 6.55277C485.885 6.52881 485.014 6.60712 485.2 6.62181C485.669 6.64577 486.543 6.56745 486.357 6.55277ZM499.094 6.5793C498.847 6.57879 498.839 6.61459 499.085 6.61511C499.332 6.61537 499.34 6.57982 499.094 6.5793ZM372.649 6.42344L372.666 6.35208L372.285 6.35131L372.269 6.42267L372.649 6.42344ZM469.049 6.55251C468.802 6.55199 468.794 6.5878 469.04 6.58832C469.287 6.58883 469.295 6.55302 469.049 6.55251ZM475.891 6.56668C475.645 6.56616 475.636 6.60197 475.883 6.60249C476.13 6.603 476.141 6.56719 475.891 6.56668ZM334.828 6.30906C334.581 6.30855 334.573 6.34436 334.819 6.34487C335.066 6.34539 335.074 6.30958 334.828 6.30906ZM351.365 6.34358L350.606 6.34204L350.598 6.37785L351.357 6.37939L351.365 6.34358ZM380.832 6.4049C380.585 6.40438 380.577 6.44019 380.824 6.4407C381.071 6.44096 381.079 6.40541 380.832 6.4049ZM391.097 6.42628C390.851 6.42576 390.843 6.46157 391.089 6.46209C391.336 6.46234 391.344 6.42679 391.097 6.42628ZM403.264 6.45152C403.018 6.45101 403.01 6.48682 403.256 6.48733C403.503 6.48759 403.511 6.45204 403.264 6.45152ZM444.325 6.53679L443.742 6.58909L443.928 6.60738L444.512 6.55509L444.325 6.53679ZM488.223 6.69961L488.801 6.66509L489.368 6.68415L488.239 6.62825L488.223 6.69961ZM338.62 6.35286C338.374 6.35234 338.365 6.38815 338.612 6.38867C338.859 6.38892 338.867 6.35337 338.62 6.35286ZM346.414 6.36909L345.655 6.36754C346.093 6.43452 346.12 6.44302 345.622 6.51052L346.581 6.47677L347.891 6.56874L349.02 6.62464L346.405 6.42267L346.414 6.36909ZM354.21 6.38532C353.963 6.3848 353.955 6.42061 354.202 6.42112C354.448 6.42138 354.456 6.38583 354.21 6.38532ZM360.482 6.3982L358.962 6.39511L359.515 6.46775L359.904 6.43272L360.647 6.50562L360.482 6.3982ZM367.517 6.41288C367.27 6.41237 367.262 6.44817 367.509 6.44869C367.755 6.44921 367.763 6.4134 367.517 6.41288ZM377.782 6.43426C377.535 6.43375 377.527 6.46956 377.774 6.47007C378.021 6.47033 378.029 6.43478 377.782 6.43426ZM378.922 6.43658C378.675 6.43607 378.667 6.47188 378.914 6.47239C379.16 6.47291 379.169 6.4371 378.922 6.43658ZM381.583 6.44199C381.336 6.44148 381.328 6.47729 381.575 6.4778C381.821 6.47832 381.83 6.44251 381.583 6.44199ZM442.418 6.56848C442.172 6.56797 442.163 6.60377 442.41 6.60429C442.657 6.60481 442.665 6.569 442.418 6.56848ZM461.998 6.60918L461.239 6.60764L461.231 6.64345L461.99 6.64499L461.998 6.60918ZM466.371 6.61846C466.125 6.61794 466.117 6.65375 466.363 6.65427C466.61 6.65453 466.618 6.61897 466.371 6.61846ZM479.487 6.64577L480.032 6.75422L480.226 6.73671L479.867 6.64654L479.487 6.64577ZM492.415 6.67256C491.944 6.6486 491.073 6.72692 491.259 6.7416C491.728 6.76556 492.599 6.68724 492.415 6.67256ZM464.842 6.65092C464.596 6.6504 464.587 6.68621 464.834 6.68673C465.081 6.68724 465.089 6.65143 464.842 6.65092ZM468.262 6.65813C468.016 6.65762 468.007 6.69343 468.254 6.69394C468.501 6.6942 468.509 6.65865 468.262 6.65813ZM485.926 6.76633L485.943 6.69497L485.562 6.6942L485.545 6.76556L485.926 6.76633ZM335.562 6.41803C335.315 6.41752 335.307 6.45333 335.554 6.45384C335.8 6.4541 335.809 6.41855 335.562 6.41803ZM355.333 6.45899C355.087 6.45848 355.079 6.49429 355.325 6.4948C355.572 6.49532 355.58 6.45951 355.333 6.45899ZM359.696 6.50382L357.038 6.48038C357.523 6.55637 358.052 6.52752 358.737 6.53757C359.052 6.5422 359.326 6.61125 359.696 6.50382ZM366.739 6.4827C366.492 6.48218 366.484 6.51799 366.73 6.5185C366.977 6.51902 366.985 6.48321 366.739 6.4827ZM400.198 6.55225C399.951 6.55174 399.943 6.58755 400.19 6.58806C400.436 6.58858 400.445 6.55277 400.198 6.55225ZM473.387 6.7045L472.625 6.70296L472.608 6.77432L473.367 6.77586L473.387 6.7045ZM493.539 6.74624L492.78 6.74469L492.772 6.7805L493.531 6.78205L493.539 6.74624ZM329.089 6.44019C328.843 6.43967 328.834 6.47548 329.081 6.476C329.328 6.47651 329.336 6.4407 329.089 6.44019ZM337.075 6.45668C336.828 6.45616 336.82 6.49197 337.066 6.49248C337.313 6.493 337.321 6.45719 337.075 6.45668ZM375.856 6.53731C375.609 6.53679 375.601 6.5726 375.847 6.57312C376.094 6.57363 376.102 6.53783 375.856 6.53731ZM474.899 6.7434L474.137 6.74186L474.129 6.77767L474.888 6.77921L474.899 6.7434ZM481.553 6.75706C481.306 6.75654 481.298 6.79235 481.545 6.79287C481.791 6.79338 481.799 6.75757 481.553 6.75706ZM230.416 6.27068L229.657 6.26913L229.648 6.30494L230.407 6.30649L230.416 6.27068ZM242.013 6.29489C241.766 6.29438 241.758 6.33019 242.004 6.3307C242.251 6.33122 242.259 6.29541 242.013 6.29489ZM341.056 6.50073L340.105 6.49867L339.708 6.56925L341.048 6.53628L341.056 6.50073ZM367.862 6.55663C367.616 6.55612 367.607 6.59192 367.854 6.59244C368.101 6.5927 368.109 6.55715 367.862 6.55663ZM418.429 6.66174C418.183 6.66122 418.175 6.69703 418.421 6.69755C418.668 6.6978 418.676 6.66225 418.429 6.66174ZM462.535 6.75345C462.288 6.75293 462.28 6.78874 462.527 6.78926C462.773 6.78952 462.782 6.75397 462.535 6.75345ZM256.627 6.43246L256.643 6.3611L256.262 6.36033L256.246 6.43169L256.627 6.43246ZM259.288 6.43813L259.304 6.36677L258.531 6.41881L258.526 6.43658L259.288 6.43813ZM318.98 6.56204L318.238 6.48914L318.221 6.5605L318.98 6.56204ZM329.454 6.51232C329.207 6.51181 329.199 6.54761 329.446 6.54813C329.692 6.54865 329.7 6.51284 329.454 6.51232ZM334.205 6.52237L332.295 6.55406L332.287 6.58986L334.197 6.55818L334.205 6.52237ZM352.645 6.56075C352.398 6.56024 352.39 6.59605 352.637 6.59656C352.884 6.59682 352.892 6.56127 352.645 6.56075ZM377.93 6.61331L377.171 6.61176L377.163 6.64757L377.922 6.64912L377.93 6.61331ZM186.105 6.25007C185.858 6.24955 185.85 6.28536 186.096 6.28588C186.343 6.28639 186.351 6.25058 186.105 6.25007ZM195.8 6.27042L195.041 6.26887L195.033 6.30442L195.794 6.30597L195.8 6.27042ZM217.662 6.31576C217.416 6.31524 217.407 6.35105 217.654 6.35157C217.901 6.35208 217.909 6.31628 217.662 6.31576ZM243.706 6.36986L242.185 6.36677L242.18 6.38454L242.739 6.43942L243.12 6.44019L243.706 6.36986ZM260.436 6.40464L259.658 6.47445C260.803 6.4845 261.211 6.6267 262.316 6.49789L261.387 6.4067L261.179 6.4778L260.609 6.47651L260.436 6.40464ZM320.89 6.53035L319.75 6.52804L319.742 6.56384L320.882 6.56616L320.89 6.53035ZM323.74 6.53628C323.494 6.53576 323.485 6.57157 323.732 6.57209C323.979 6.5726 323.987 6.53679 323.74 6.53628ZM326.212 6.54143L325.453 6.53989L325.445 6.57569L326.204 6.57724L326.212 6.54143ZM381.342 6.65607L379.821 6.65298L379.804 6.72434C380.517 6.73439 381.123 6.72743 381.342 6.65607ZM394.079 6.68261C393.832 6.68209 393.824 6.7179 394.071 6.71841C394.317 6.71867 394.328 6.68312 394.079 6.68261ZM398.072 6.69085L396.17 6.68699L396.161 6.72279C396.992 6.70528 397.345 6.76504 398.055 6.76247L398.072 6.69085ZM163.475 6.23873L162.335 6.23641L162.31 6.34358L162.691 6.34436L162.708 6.273L163.469 6.27454L163.475 6.23873ZM169.534 6.35878L169.178 6.25084L168.797 6.25007L168.391 6.35646L169.534 6.35878ZM209.86 6.33534L209.101 6.33379L209.093 6.3696L209.852 6.37115L209.86 6.33534ZM286.283 6.49429L285.524 6.49274L285.515 6.52855L286.277 6.5301L286.283 6.49429ZM297.688 6.51799L296.929 6.51644L296.921 6.55225L297.68 6.5538L297.688 6.51799ZM301.111 6.52494L299.971 6.52263L299.946 6.62979C300.398 6.61949 300.524 6.58033 301.094 6.59656L301.111 6.52494ZM307.194 6.53757L306.054 6.53525L306.029 6.64242L307.169 6.64474L306.802 6.59038L307.194 6.53757ZM334.378 6.59424C334.132 6.59373 334.123 6.62954 334.37 6.63005C334.617 6.63031 334.625 6.59476 334.378 6.59424ZM347.307 6.62104C347.06 6.62052 347.052 6.65633 347.299 6.65684C347.545 6.65736 347.554 6.62155 347.307 6.62104ZM218.216 6.38841L217.457 6.38686L217.432 6.49403L217.813 6.4948C217.665 6.44045 218.087 6.4304 218.216 6.38841ZM233.4 6.52726L236.074 6.47909L233.608 6.45616L233.4 6.52726ZM246.715 6.51902L246.732 6.44766L245.959 6.4997L245.953 6.51747L246.715 6.51902ZM289.886 6.53731C289.64 6.53679 289.631 6.5726 289.878 6.57312C290.125 6.57363 290.133 6.53783 289.886 6.53731ZM373.315 6.81811L373.34 6.71094L372.959 6.71017C373.104 6.76453 372.682 6.77457 372.554 6.81657L373.315 6.81811ZM166.308 6.31628C166.062 6.31576 166.054 6.35157 166.3 6.35208C166.547 6.35234 166.555 6.31679 166.308 6.31628ZM197.485 6.38094C197.239 6.38042 197.23 6.41623 197.477 6.41675C197.724 6.41726 197.735 6.38145 197.485 6.38094ZM205.66 6.39794L204.506 6.44921L204.692 6.4675L205.651 6.43375L205.66 6.39794ZM206.61 6.4C206.364 6.39949 206.356 6.43529 206.602 6.43581C206.849 6.43632 206.857 6.40052 206.61 6.4ZM257.18 6.50511C256.934 6.50459 256.926 6.5404 257.172 6.54092C257.419 6.54143 257.427 6.50562 257.18 6.50511ZM292.92 6.57956C292.673 6.57904 292.665 6.61485 292.911 6.61537C293.158 6.61563 293.166 6.58007 292.92 6.57956ZM303.944 6.60249C303.697 6.60197 303.689 6.63778 303.936 6.6383C304.182 6.63855 304.191 6.603 303.944 6.60249ZM335.123 6.66715C334.877 6.66663 334.869 6.70244 335.115 6.70296C335.362 6.70347 335.37 6.66766 335.123 6.66715ZM338.338 6.74546L338.354 6.6741C337.902 6.68441 337.776 6.72357 337.206 6.70734L337.198 6.74315L338.338 6.74546ZM343.298 6.68415C342.827 6.66019 341.955 6.73851 342.141 6.75319C342.61 6.77741 343.481 6.69884 343.298 6.68415ZM344.249 6.68621C344.002 6.6857 343.994 6.72151 344.241 6.72202C344.487 6.72228 344.495 6.68673 344.249 6.68621ZM355.843 6.71017L355.084 6.70862L355.068 6.77998L355.843 6.71017ZM361.546 6.72202L360.787 6.72048L360.778 6.75628L361.537 6.75783L361.546 6.72202ZM178.467 6.37733C178.221 6.37681 178.212 6.41262 178.459 6.41314C178.706 6.4134 178.714 6.37785 178.467 6.37733ZM200.33 6.42267L199.571 6.42112L199.562 6.45693L200.321 6.45848L200.33 6.42267ZM209.266 6.44122C209.019 6.4407 209.011 6.47651 209.258 6.47703C209.504 6.47754 209.512 6.44173 209.266 6.44122ZM347.074 6.79931L347.09 6.72795L346.71 6.72717L346.693 6.79853L347.074 6.79931ZM371.805 6.77921L371.046 6.77767L371.038 6.81347L371.797 6.81502L371.805 6.77921ZM122.948 6.29747C122.702 6.29695 122.693 6.33276 122.94 6.33328C123.187 6.33379 123.195 6.29798 122.948 6.29747ZM130.364 6.31293L129.605 6.31138L129.588 6.38274L130.364 6.31293ZM177.889 6.41185L177.13 6.41031L177.122 6.44611L177.881 6.44766L177.889 6.41185ZM202.223 6.46234L200.891 6.45951L200.305 6.52984L201.637 6.53267L202.223 6.46234ZM260.584 6.58368C260.337 6.58317 260.329 6.61897 260.576 6.61949C260.822 6.62 260.831 6.5842 260.584 6.58368ZM267.983 6.6705L267.24 6.59759L267.224 6.66895L267.983 6.6705ZM315.336 6.69755C315.089 6.69703 315.081 6.73284 315.327 6.73336C315.574 6.73387 315.582 6.69806 315.336 6.69755ZM187.384 6.46724L186.244 6.46492L185.466 6.53473L187.143 6.68106L186.598 6.5726L188.119 6.57569L187.368 6.53834L187.384 6.46724ZM193.66 6.48038C193.413 6.47986 193.405 6.51567 193.651 6.51619C193.898 6.51644 193.906 6.48089 193.66 6.48038ZM232.441 6.56101C232.194 6.5605 232.186 6.5963 232.433 6.59682C232.679 6.59708 232.687 6.56153 232.441 6.56101ZM275.023 6.64937C274.776 6.64886 274.768 6.68467 275.014 6.68518C275.264 6.6857 275.272 6.64989 275.023 6.64937ZM314.566 6.73155C314.319 6.73104 314.311 6.76685 314.557 6.76736C314.804 6.76788 314.812 6.73207 314.566 6.73155ZM339.47 6.78333L338.711 6.78179L338.702 6.8176L339.461 6.81914L339.47 6.78333ZM26.7382 6.16892C26.4915 6.1684 26.4833 6.20421 26.7299 6.20473C26.9766 6.20524 26.9848 6.16943 26.7382 6.16892ZM29.7799 6.17536C29.5333 6.17484 29.5251 6.21065 29.7717 6.21117C30.0183 6.21168 30.0266 6.17587 29.7799 6.17536ZM31.1117 6.17819L30.3499 6.17665L30.3417 6.21246L31.1008 6.214L31.1117 6.17819ZM43.6569 6.20421L42.6978 6.23796L42.1306 6.2189L42.6896 6.27377L43.6405 6.27583L43.6569 6.20421ZM53.3522 6.22431C53.1056 6.22379 53.0974 6.2596 53.344 6.26011C53.5906 6.26063 53.5988 6.22482 53.3522 6.22431ZM61.3375 6.24105C61.0909 6.24054 61.0827 6.27634 61.3293 6.27686C61.5759 6.27712 61.5842 6.24157 61.3375 6.24105ZM139.662 6.40386C139.415 6.40335 139.407 6.43916 139.653 6.43967C139.9 6.43993 139.908 6.40438 139.662 6.40386ZM168.366 6.46337L167.226 6.46106L167.218 6.49686L168.358 6.49918L168.366 6.46337ZM179.739 6.63005C179.931 6.53473 178.991 6.53473 178.443 6.4845L178.248 6.50202L179.739 6.63005ZM179.964 6.48759C179.717 6.48707 179.709 6.52288 179.955 6.5234C180.202 6.52391 180.21 6.48811 179.964 6.48759ZM181.276 6.56178L181.293 6.49042L180.52 6.54246L180.514 6.56024L181.276 6.56178ZM191.561 6.51155L190.801 6.51L190.785 6.58136L191.561 6.51155ZM197.247 6.59502L197.263 6.52366L196.882 6.52288L196.866 6.59424L197.247 6.59502ZM198.973 6.52701C198.727 6.52649 198.718 6.5623 198.965 6.56281C199.212 6.56333 199.22 6.52752 198.973 6.52701ZM206.578 6.54298C206.331 6.54246 206.323 6.57827 206.569 6.57879C206.816 6.57904 206.824 6.54349 206.578 6.54298ZM235.093 6.60223C234.847 6.60171 234.839 6.63752 235.085 6.63804C235.332 6.6383 235.34 6.60274 235.093 6.60223ZM305.621 6.74881L304.862 6.74727L304.854 6.78308L305.613 6.78462L305.621 6.74881ZM329.196 6.79776L328.437 6.79621L328.421 6.86757L329.196 6.79776ZM336.609 6.81322C336.362 6.8127 336.354 6.84851 336.601 6.84903C336.847 6.84954 336.855 6.81373 336.609 6.81322ZM22.7209 6.26784L22.7373 6.19648L22.3564 6.19571L22.3399 6.26707L22.7209 6.26784ZM42.1032 6.34384C42.2292 6.27609 41.7141 6.22559 40.9879 6.23435L42.1032 6.34384ZM67.2237 6.28897L66.4647 6.28742L66.4482 6.35878L67.2073 6.36033L67.2237 6.28897ZM111.31 6.45204L111.327 6.38068L110.946 6.37991L110.929 6.45127L111.31 6.45204ZM132.238 6.42422L131.479 6.42267L131.462 6.49403L132.238 6.42422ZM205.048 6.57544L204.465 6.62773L204.651 6.64602L205.235 6.59373L205.048 6.57544ZM269.684 6.70991L269.101 6.76221L269.287 6.7805L269.871 6.7282L269.684 6.70991ZM318.923 6.81219L318.164 6.81064L318.155 6.84645L318.914 6.848L318.923 6.81219ZM46.8741 6.28227C46.6275 6.28175 46.6192 6.31756 46.8659 6.31808C47.1125 6.31859 47.1207 6.28279 46.8741 6.28227ZM114.741 6.42344L113.982 6.4219L113.965 6.49326L114.725 6.4948L114.741 6.42344ZM160.176 6.51799C159.929 6.51747 159.921 6.55328 160.167 6.5538C160.414 6.55406 160.422 6.5185 160.176 6.51799ZM163.771 6.59682L163.787 6.52546L163.406 6.52469L163.39 6.59605L163.771 6.59682ZM172.343 6.54324C172.096 6.54272 172.088 6.57853 172.334 6.57904C172.581 6.57956 172.589 6.54375 172.343 6.54324ZM185.08 6.56977L184.321 6.56822L184.312 6.60403L185.071 6.60558L185.08 6.56977ZM248.765 6.70218C248.518 6.70167 248.51 6.73748 248.757 6.73799C249.003 6.73825 249.011 6.7027 248.765 6.70218ZM252.36 6.78101L252.377 6.70966L251.604 6.76169L251.598 6.77947L252.36 6.78101ZM309.978 6.82945C309.732 6.82893 309.723 6.86474 309.97 6.86526C310.217 6.86551 310.225 6.82996 309.978 6.82945ZM322.145 6.85469C321.899 6.85418 321.89 6.88999 322.137 6.8905C322.384 6.89076 322.392 6.85521 322.145 6.85469ZM326.327 6.86345C326.08 6.86294 326.072 6.89875 326.319 6.89926C326.565 6.89952 326.574 6.86397 326.327 6.86345ZM25.738 6.38145L26.138 6.29283L25.9517 6.27454L25.357 6.38042L25.738 6.38145ZM28.9935 6.28098C28.7468 6.28047 28.7386 6.31628 28.9852 6.31679C29.2319 6.31705 29.2401 6.2815 28.9935 6.28098ZM76.5217 6.37965C76.275 6.37913 76.2668 6.41494 76.5135 6.41546C76.7601 6.41597 76.7683 6.38016 76.5217 6.37965ZM104.846 6.43864L105.391 6.5471L106.353 6.49558L105.794 6.4407L104.846 6.43864ZM142.47 6.58832L141.728 6.51541L141.711 6.58677L142.47 6.58832ZM166.632 6.56719C166.385 6.56668 166.377 6.60249 166.624 6.603C166.87 6.60326 166.878 6.56771 166.632 6.56719ZM181.838 6.59862C181.591 6.59811 181.583 6.63392 181.83 6.63443C182.076 6.63495 182.085 6.59914 181.838 6.59862ZM301.226 6.84696C300.979 6.84645 300.971 6.88226 301.217 6.88277C301.464 6.88329 301.472 6.84748 301.226 6.84696ZM67.5772 6.39691L66.8182 6.39536L66.81 6.43117L67.569 6.43272L67.5772 6.39691ZM78.0343 6.41855C77.7877 6.41803 77.7795 6.45384 78.0261 6.45436C78.2727 6.45487 78.281 6.41906 78.0343 6.41855ZM78.7934 6.42009C78.5468 6.41958 78.5386 6.45539 78.7852 6.4559C79.0318 6.45642 79.04 6.42061 78.7934 6.42009ZM138.105 6.54349C137.858 6.54298 137.85 6.57879 138.097 6.5793C138.346 6.57982 138.354 6.54401 138.105 6.54349ZM205.024 6.68261C204.777 6.68209 204.769 6.7179 205.016 6.71841C205.262 6.71893 205.27 6.68312 205.024 6.68261ZM215.67 6.70476C215.423 6.70425 215.415 6.74005 215.662 6.74057C215.908 6.74108 215.917 6.70528 215.67 6.70476ZM243.616 6.76298L242.857 6.76144L242.84 6.8328L243.616 6.76298ZM275.916 6.90158L275.932 6.83022L275.552 6.82945L275.535 6.90081L275.916 6.90158ZM280.114 6.83872L279.355 6.83718L279.347 6.87298L280.106 6.87453L280.114 6.83872ZM24.7953 6.34358C24.5486 6.34307 24.5404 6.37888 24.7871 6.37939C25.0337 6.37991 25.0419 6.3441 24.7953 6.34358ZM46.4685 6.38867C46.2219 6.38815 46.2137 6.42396 46.4603 6.42447C46.7069 6.42499 46.7151 6.38918 46.4685 6.38867ZM59.1864 6.48656L59.2028 6.4152L58.2355 6.48476L57.4846 6.4474L56.1364 6.51619L58.7972 6.5216L58.7808 6.59296L60.7018 6.50768L59.1864 6.48656ZM64.1217 6.53267L63.5764 6.42422C63.327 6.44096 62.5926 6.48862 62.42 6.49326C61.5156 6.51722 60.836 6.4286 61.0635 6.59759L61.6499 6.52726L64.1217 6.53267ZM96.2739 6.49223C96.0273 6.49171 96.0191 6.52752 96.2657 6.52804C96.5123 6.52855 96.5206 6.49274 96.2739 6.49223ZM102.738 6.50562C102.492 6.50511 102.484 6.54092 102.73 6.54143C102.977 6.54195 102.985 6.50614 102.738 6.50562ZM197.956 6.8109L196.652 6.7009L196.822 6.79055L196.041 6.87839L197.751 6.882L197.956 6.8109ZM250.261 6.81244C250.014 6.81193 250.006 6.84774 250.253 6.84825C250.499 6.84877 250.508 6.81296 250.261 6.81244ZM300.828 6.91755C300.582 6.91704 300.573 6.95285 300.82 6.95336C301.067 6.95388 301.075 6.91807 300.828 6.91755ZM309.192 6.93481C308.945 6.9343 308.937 6.97011 309.184 6.97062C309.43 6.97114 309.438 6.93533 309.192 6.93481ZM29.5306 6.42499L28.5879 6.38738L28.3933 6.4049L29.5223 6.4608L29.5306 6.42499ZM74.2143 6.48218C73.9677 6.48166 73.9595 6.51747 74.2061 6.51799C74.4527 6.5185 74.4609 6.4827 74.2143 6.48218ZM80.1088 6.49429L78.9688 6.49197L78.9606 6.52778L80.1005 6.5301L80.1088 6.49429ZM118.128 6.57338L116.607 6.57028L116.599 6.60609L118.12 6.60918L118.128 6.57338ZM126.848 6.69884C126.738 6.65633 126.322 6.64448 126.492 6.59089L126.111 6.59012L126.086 6.69729L126.848 6.69884ZM131.627 6.60146C131.38 6.60094 131.372 6.63675 131.619 6.63727C131.865 6.63778 131.874 6.60197 131.627 6.60146ZM201.396 6.74649L200.256 6.74418L200.239 6.81554L201.379 6.81785L201.396 6.74649ZM255.747 6.93095L255.194 6.8583L253.854 6.89127L253.845 6.92708C254.418 6.94795 254.725 6.89308 254.805 6.89334C254.884 6.89359 255.166 6.9495 255.747 6.93095ZM24.7788 6.4152C24.5322 6.41468 24.524 6.45049 24.7706 6.45101C25.0172 6.45127 25.0255 6.41572 24.7788 6.4152ZM30.8624 6.42782C30.6157 6.42731 30.6075 6.46312 30.8541 6.46363C31.1008 6.46389 31.109 6.42834 30.8624 6.42782ZM43.5994 6.45436L42.8403 6.45281L43.3939 6.52546L43.583 6.52597L43.5994 6.45436ZM44.7229 6.52804L44.7394 6.45668L44.3585 6.4559L44.342 6.52726L44.7229 6.52804ZM46.4493 6.46028C46.2027 6.45977 46.1945 6.49558 46.4411 6.49609C46.6877 6.49635 46.6987 6.4608 46.4493 6.46028ZM52.1547 6.47213L51.9601 6.48965L52.5192 6.54452L52.7137 6.52701L52.1547 6.47213ZM54.0537 6.476C53.8071 6.47548 53.7989 6.51129 54.0455 6.51181C54.2921 6.51232 54.3004 6.47651 54.0537 6.476ZM55.5746 6.47909C55.328 6.47857 55.3198 6.51438 55.5664 6.5149C55.813 6.51541 55.8212 6.4796 55.5746 6.47909ZM66.9826 6.50279C66.736 6.50227 66.7277 6.53808 66.9744 6.5386C67.221 6.53911 67.2292 6.5033 66.9826 6.50279ZM68.5035 6.50614C68.2569 6.50562 68.2486 6.54143 68.4953 6.54195C68.7419 6.5422 68.7501 6.50665 68.5035 6.50614ZM70.4025 6.51C70.1559 6.50949 70.1477 6.5453 70.3943 6.54581C70.6409 6.54633 70.6519 6.51052 70.4025 6.51ZM89.7958 6.55019C89.5492 6.54968 89.541 6.58548 89.7876 6.586C90.0342 6.58651 90.0424 6.55071 89.7958 6.55019ZM167.166 6.7112L166.407 6.70966L166.961 6.7823L167.15 6.78282L167.166 6.7112ZM180.665 6.73928C180.418 6.73877 180.41 6.77457 180.657 6.77509C180.903 6.77535 180.912 6.7398 180.665 6.73928ZM195.112 6.76916C194.865 6.76865 194.857 6.80446 195.104 6.80497C195.35 6.80549 195.359 6.76968 195.112 6.76916ZM206.139 6.79209C205.892 6.79158 205.884 6.82739 206.131 6.8279C206.378 6.82842 206.386 6.79261 206.139 6.79209ZM217.544 6.81579C217.298 6.81528 217.289 6.85109 217.536 6.8516C217.783 6.85212 217.791 6.81631 217.544 6.81579ZM227.431 6.8364C227.185 6.83589 227.177 6.8717 227.423 6.87221C227.67 6.87273 227.678 6.83692 227.431 6.8364ZM37.6967 6.4778C37.4501 6.47729 37.4419 6.51309 37.6885 6.51361C37.9351 6.51387 37.9434 6.47832 37.6967 6.4778ZM39.0285 6.48038L38.2695 6.47883L38.2612 6.51464L39.0203 6.51619L39.0285 6.48038ZM51.5737 6.50665L50.0529 6.50356L50.0364 6.57492L50.6146 6.5404L51.5573 6.57801L51.5737 6.50665ZM54.8073 6.51335C54.5607 6.51284 54.5525 6.54865 54.7991 6.54916C55.0457 6.54942 55.054 6.51387 54.8073 6.51335ZM131.402 6.74392L130.66 6.67101L130.643 6.74237L131.402 6.74392ZM198.318 6.88303L199.472 6.83177L199.286 6.81347L198.326 6.84722L198.318 6.88303ZM24.3815 6.48579C24.1349 6.48527 24.1266 6.52108 24.3733 6.5216C24.6199 6.52211 24.6281 6.4863 24.3815 6.48579ZM39.3903 6.55277L39.9438 6.62541C40.3548 6.5927 40.6481 6.57338 40.5385 6.51953C40.089 6.52958 39.963 6.56874 39.3903 6.55277ZM90.5384 6.62335C90.2918 6.62284 90.2836 6.65865 90.5302 6.65916C90.7768 6.65942 90.7851 6.62387 90.5384 6.62335ZM110.102 6.73542L109.167 6.662L108.208 6.69574L108.2 6.73155L110.102 6.73542ZM119.435 6.68338C119.189 6.68286 119.18 6.71867 119.427 6.71919C119.674 6.7197 119.682 6.68389 119.435 6.68338ZM138.064 6.72202C137.817 6.72151 137.809 6.75731 138.056 6.75783C138.302 6.75834 138.311 6.72254 138.064 6.72202ZM190.152 6.83048C189.905 6.82996 189.897 6.86577 190.144 6.86629C190.39 6.86654 190.399 6.83099 190.152 6.83048ZM178.169 6.8413L176.648 6.83821L176.639 6.87401L177.401 6.87556L177.574 6.94744L178.169 6.8413ZM54.0209 6.61897C53.7742 6.61846 53.766 6.65427 54.0126 6.65478C54.2593 6.65504 54.2675 6.61949 54.0209 6.61897ZM103.234 6.82842L103.634 6.7398L103.448 6.72151L102.853 6.82739L103.234 6.82842ZM126.261 6.76916C126.015 6.76865 126.006 6.80446 126.253 6.80497C126.5 6.80523 126.508 6.76968 126.261 6.76916ZM156.471 6.90338L156.487 6.83202L156.106 6.83099L156.09 6.90235L156.471 6.90338ZM24.9268 6.59424L24.1677 6.5927L24.7185 6.66509L24.9076 6.6656L24.9268 6.59424ZM25.4968 6.59527C25.2502 6.59476 25.242 6.63057 25.4886 6.63108C25.7352 6.6316 25.7434 6.59579 25.4968 6.59527ZM27.3986 6.59914C27.152 6.59862 27.1437 6.63443 27.3904 6.63495C27.637 6.63546 27.6452 6.59965 27.3986 6.59914ZM77.9658 6.7045C77.7192 6.70399 77.711 6.7398 77.9576 6.74031C78.2042 6.74057 78.2125 6.70502 77.9658 6.7045ZM169.216 6.89411C168.969 6.89359 168.961 6.9294 169.208 6.92992C169.454 6.93043 169.463 6.89462 169.216 6.89411ZM182.145 6.9209C181.898 6.92039 181.89 6.95619 182.137 6.95671C182.383 6.95722 182.391 6.92142 182.145 6.9209ZM42.2183 6.66586C41.9716 6.66535 41.9634 6.70115 42.2101 6.70167C42.4567 6.70193 42.4649 6.66638 42.2183 6.66586ZM46.4 6.67462L46.2054 6.69214L47.1344 6.78333L47.329 6.76582L46.4 6.67462ZM54.5497 6.79879L54.1935 6.69085C53.4262 6.70837 53.3221 6.76504 53.3988 6.83228L54.5497 6.79879ZM54.7635 6.69188L54.5689 6.7094L55.8788 6.80137L55.9035 6.6942L55.1334 6.72846L54.7635 6.69188ZM62.7488 6.70862C62.5022 6.70811 62.4939 6.74392 62.7406 6.74443C62.9872 6.74469 62.9954 6.70888 62.7488 6.70862ZM63.8888 6.71094C63.6421 6.71043 63.6339 6.74624 63.8805 6.74675C64.1272 6.74701 64.1354 6.71146 63.8888 6.71094ZM67.1224 6.71764L66.3633 6.7161L66.3551 6.7519L67.1141 6.75345L67.1224 6.71764ZM109.134 6.80497C108.888 6.80446 108.879 6.84027 109.126 6.84078C109.373 6.84104 109.381 6.80549 109.134 6.80497ZM50.1926 6.71816C49.946 6.71764 49.9378 6.75345 50.1844 6.75397C50.431 6.75448 50.442 6.71867 50.1926 6.71816ZM108.556 6.83949L107.797 6.83795L107.789 6.87376L108.548 6.8753L108.556 6.83949ZM30.2239 6.71223L29.4648 6.71069L29.4566 6.74649L30.2156 6.74804L30.2239 6.71223ZM31.3638 6.71481L30.6048 6.71326L30.5965 6.74907L31.3556 6.75062L31.3638 6.71481ZM49.0444 6.75139C48.7978 6.75087 48.7896 6.78668 49.0362 6.7872C49.2828 6.78771 49.2911 6.7519 49.0444 6.75139ZM38.7709 6.76582C38.5243 6.7653 38.5161 6.80111 38.7627 6.80162C39.0093 6.80214 39.0176 6.76633 38.7709 6.76582ZM47.888 6.82043C47.6414 6.81992 47.6332 6.85572 47.8798 6.85624C48.1264 6.85675 48.1346 6.82095 47.888 6.82043Z" fill="url(#paint9_linear_1701_4709)"/>
<path d="M21.5204 6.51691C21.5204 6.52876 21.5095 6.54061 21.5122 6.55272C21.2327 6.56328 20.8217 6.596 20.7422 6.58698L20.7586 6.51562L21.5204 6.51691Z" fill="url(#paint10_linear_1701_4709)"/>
<path d="M505.649 6.94857L505.641 6.98438L506.402 6.98596L506.411 6.95016L505.649 6.94857Z" fill="url(#paint11_linear_1701_4709)"/>
<path d="M484.205 6.79688C484.451 6.7974 484.443 6.8332 484.197 6.83269C483.95 6.83192 483.958 6.79637 484.205 6.79688Z" fill="url(#paint12_linear_1701_4709)"/>
<path d="M19.8268 6.44141C20.0735 6.44193 20.0652 6.47774 19.8186 6.47722C19.572 6.47671 19.5802 6.4409 19.8268 6.44141Z" fill="url(#paint13_linear_1701_4709)"/>
</g>
<path opacity="0.5" d="M17.6377 0.648438H11.0992C10.6206 0.648438 9.55817 1.01365 9.1377 2.47452V5.518C6.74026 6.3296 1.68385 9.29192 0.637695 14.6484" stroke="url(#paint14_linear_1701_4709)" stroke-width="1.3"/>
<path opacity="0.5" d="M510.638 1.64844H517.176C517.655 1.64844 518.717 2.01365 519.138 3.47452V6.518C521.535 7.3296 526.592 10.2919 527.638 15.6484" stroke="url(#paint15_linear_1701_4709)" stroke-width="1.3"/>
<path opacity="0.3" d="M18.6377 6.54688H14.4069C14.0972 6.54688 13.4098 6.78166 13.1377 7.72079V9.67731C11.5864 10.199 8.31462 12.1034 7.6377 15.5469" stroke="url(#paint16_linear_1701_4709)" stroke-width="0.8"/>
<path opacity="0.3" d="M509.638 7.54688H513.868C514.178 7.54688 514.866 7.78166 515.138 8.72079V10.6773C516.689 11.199 519.961 13.1034 520.638 16.5469" stroke="url(#paint17_linear_1701_4709)" stroke-width="0.8"/>
<defs>
<linearGradient id="paint0_linear_1701_4709" x1="501.257" y1="1.81521" x2="503.66" y2="1.81521" gradientUnits="userSpaceOnUse">
<stop stop-color="white" stop-opacity="0"/>
<stop offset="0.15" stop-color="white"/>
<stop offset="0.85" stop-color="white"/>
<stop offset="1" stop-color="white" stop-opacity="0"/>
</linearGradient>
<linearGradient id="paint1_linear_1701_4709" x1="505.558" y1="1.83385" x2="505.954" y2="1.83385" gradientUnits="userSpaceOnUse">
<stop stop-color="white" stop-opacity="0"/>
<stop offset="0.15" stop-color="white"/>
<stop offset="0.85" stop-color="white"/>
<stop offset="1" stop-color="white" stop-opacity="0"/>
</linearGradient>
<linearGradient id="paint2_linear_1701_4709" x1="10.6857" y1="2.04678" x2="517.634" y2="2.04678" gradientUnits="userSpaceOnUse">
<stop stop-color="white" stop-opacity="0"/>
<stop offset="0.15" stop-color="white"/>
<stop offset="0.85" stop-color="white"/>
<stop offset="1" stop-color="white" stop-opacity="0"/>
</linearGradient>
<linearGradient id="paint3_linear_1701_4709" x1="13.7663" y1="1.12629" x2="14.5749" y2="1.12629" gradientUnits="userSpaceOnUse">
<stop stop-color="white" stop-opacity="0"/>
<stop offset="0.15" stop-color="white"/>
<stop offset="0.85" stop-color="white"/>
<stop offset="1" stop-color="white" stop-opacity="0"/>
</linearGradient>
<linearGradient id="paint4_linear_1701_4709" x1="511.371" y1="1.92533" x2="511.371" y2="1.85269" gradientUnits="userSpaceOnUse">
<stop stop-color="white" stop-opacity="0"/>
<stop offset="0.15" stop-color="white"/>
<stop offset="0.85" stop-color="white"/>
<stop offset="1" stop-color="white" stop-opacity="0"/>
</linearGradient>
<linearGradient id="paint5_linear_1701_4709" x1="488.434" y1="1.62242" x2="488.818" y2="1.62242" gradientUnits="userSpaceOnUse">
<stop stop-color="white" stop-opacity="0"/>
<stop offset="0.15" stop-color="white"/>
<stop offset="0.85" stop-color="white"/>
<stop offset="1" stop-color="white" stop-opacity="0"/>
</linearGradient>
<linearGradient id="paint6_linear_1701_4709" x1="12.6362" y1="0.903667" x2="13.0206" y2="0.903667" gradientUnits="userSpaceOnUse">
<stop stop-color="white" stop-opacity="0"/>
<stop offset="0.15" stop-color="white"/>
<stop offset="0.85" stop-color="white"/>
<stop offset="1" stop-color="white" stop-opacity="0"/>
</linearGradient>
<linearGradient id="paint7_linear_1701_4709" x1="496.53" y1="6.93104" x2="498.875" y2="6.93104" gradientUnits="userSpaceOnUse">
<stop stop-color="white" stop-opacity="0"/>
<stop offset="0.15" stop-color="white"/>
<stop offset="0.85" stop-color="white"/>
<stop offset="1" stop-color="white" stop-opacity="0"/>
</linearGradient>
<linearGradient id="paint8_linear_1701_4709" x1="500.728" y1="6.93841" x2="501.114" y2="6.93841" gradientUnits="userSpaceOnUse">
<stop stop-color="white" stop-opacity="0"/>
<stop offset="0.15" stop-color="white"/>
<stop offset="0.85" stop-color="white"/>
<stop offset="1" stop-color="white" stop-opacity="0"/>
</linearGradient>
<linearGradient id="paint9_linear_1701_4709" x1="17.7328" y1="7.04683" x2="512.515" y2="7.04683" gradientUnits="userSpaceOnUse">
<stop stop-color="white" stop-opacity="0"/>
<stop offset="0.15" stop-color="white"/>
<stop offset="0.85" stop-color="white"/>
<stop offset="1" stop-color="white" stop-opacity="0"/>
</linearGradient>
<linearGradient id="paint10_linear_1701_4709" x1="20.7391" y1="6.58853" x2="21.5282" y2="6.58853" gradientUnits="userSpaceOnUse">
<stop stop-color="white" stop-opacity="0"/>
<stop offset="0.15" stop-color="white"/>
<stop offset="0.85" stop-color="white"/>
<stop offset="1" stop-color="white" stop-opacity="0"/>
</linearGradient>
<linearGradient id="paint11_linear_1701_4709" x1="506.402" y1="6.9861" x2="506.402" y2="6.94978" gradientUnits="userSpaceOnUse">
<stop stop-color="white" stop-opacity="0"/>
<stop offset="0.15" stop-color="white"/>
<stop offset="0.85" stop-color="white"/>
<stop offset="1" stop-color="white" stop-opacity="0"/>
</linearGradient>
<linearGradient id="paint12_linear_1701_4709" x1="484.014" y1="6.83269" x2="484.389" y2="6.83269" gradientUnits="userSpaceOnUse">
<stop stop-color="white" stop-opacity="0"/>
<stop offset="0.15" stop-color="white"/>
<stop offset="0.85" stop-color="white"/>
<stop offset="1" stop-color="white" stop-opacity="0"/>
</linearGradient>
<linearGradient id="paint13_linear_1701_4709" x1="19.6362" y1="6.47722" x2="20.0114" y2="6.47722" gradientUnits="userSpaceOnUse">
<stop stop-color="white" stop-opacity="0"/>
<stop offset="0.15" stop-color="white"/>
<stop offset="0.85" stop-color="white"/>
<stop offset="1" stop-color="white" stop-opacity="0"/>
</linearGradient>
<linearGradient id="paint14_linear_1701_4709" x1="17.6377" y1="-0.568954" x2="0.54745" y2="16.4777" gradientUnits="userSpaceOnUse">
<stop offset="0.129808" stop-color="white" stop-opacity="0"/>
<stop offset="0.346154" stop-color="#CCCCCC"/>
<stop offset="0.663462" stop-color="#B3B3B3"/>
<stop offset="0.913462" stop-color="#999999" stop-opacity="0"/>
</linearGradient>
<linearGradient id="paint15_linear_1701_4709" x1="510.638" y1="0.431046" x2="527.728" y2="17.4777" gradientUnits="userSpaceOnUse">
<stop offset="0.129808" stop-color="white" stop-opacity="0"/>
<stop offset="0.346154" stop-color="#CCCCCC"/>
<stop offset="0.663462" stop-color="#B3B3B3"/>
<stop offset="0.913462" stop-color="#999999" stop-opacity="0"/>
</linearGradient>
<linearGradient id="paint16_linear_1701_4709" x1="18.6377" y1="5.76427" x2="7.65116" y2="16.7944" gradientUnits="userSpaceOnUse">
<stop offset="0.129808" stop-color="white" stop-opacity="0"/>
<stop offset="0.346154" stop-color="#CCCCCC"/>
<stop offset="0.663462" stop-color="#B3B3B3"/>
<stop offset="0.913462" stop-color="#999999" stop-opacity="0"/>
</linearGradient>
<linearGradient id="paint17_linear_1701_4709" x1="509.638" y1="6.76427" x2="520.624" y2="17.7944" gradientUnits="userSpaceOnUse">
<stop offset="0.129808" stop-color="white" stop-opacity="0"/>
<stop offset="0.346154" stop-color="#CCCCCC"/>
<stop offset="0.663462" stop-color="#B3B3B3"/>
<stop offset="0.913462" stop-color="#999999" stop-opacity="0"/>
</linearGradient>
</defs>
</svg>
