<svg width="517" height="13" viewBox="0 0 517 13" fill="none" xmlns="http://www.w3.org/2000/svg">
<path opacity="0.3" d="M13.7363 11.1406H8.73633C8.3703 11.1406 7.55787 10.8537 7.23633 9.70584V7.31454C5.40299 6.67686 1.53633 4.34932 0.736328 0.140625" stroke="url(#paint0_linear_1701_4716)" stroke-width="1.5"/>
<path opacity="0.3" d="M502.736 11.1406H507.736C508.102 11.1406 508.915 10.8798 509.236 9.83628V7.66236C511.07 7.08265 514.936 4.96671 515.736 1.14063" stroke="url(#paint1_linear_1701_4716)" stroke-width="1.5"/>
<g opacity="0.5">
<path d="M497.735 11.6328L497.516 11.8461L495.365 11.909L495.778 11.6962L497.735 11.6328Z" fill="url(#paint2_linear_1701_4716)"/>
<path d="M499.658 11.8555L500.048 11.857L499.846 11.9276C499.594 11.9271 499.678 11.857 499.658 11.8555Z" fill="url(#paint3_linear_1701_4716)"/>
<path d="M37.1805 10.5506L37.9554 10.5893L37.2057 10.3363C39.0364 10.3852 41.5156 10.2971 43.2451 10.361C44.4608 10.4058 46.4234 10.4074 47.5297 10.3785C48.6949 10.3476 49.3322 10.4342 50.256 10.3893C51.2246 10.3425 51.6374 10.5377 51.7974 10.5388C52.095 10.4996 52.7155 10.4192 52.9823 10.4007C54.4563 10.2992 56.2252 10.4733 58.0474 10.4213C61.0685 10.3352 65.7236 10.4795 68.9637 10.394C71.8894 10.3167 74.888 10.3847 77.5329 10.429L78.7177 10.2909L79.0996 10.3641L79.692 10.2951L79.6752 10.4378C80.2957 10.4795 80.5034 10.3749 80.6579 10.3703C81.1689 10.3553 82.5081 10.3064 82.6148 10.3069C82.744 10.3074 82.8479 10.3749 82.9967 10.3801C84.4118 10.429 85.7847 10.379 86.8741 10.5388C87.5648 10.3332 88.3538 10.4378 89.2298 10.4053C90.3445 10.3641 90.8498 10.3651 91.9561 10.4161C92.9837 10.4641 95.4741 10.3224 96.6393 10.3636C100.076 10.4862 104.765 10.1317 108.707 10.4842C109.777 10.2178 112.026 10.4141 113.382 10.5032L113.772 10.5048C115.589 10.2167 119.123 10.4491 121.58 10.3935C124.231 10.3332 126.811 10.3481 128.981 10.4234C130.147 10.4635 130.888 10.3682 131.329 10.3615C133.485 10.328 135.95 10.411 138.146 10.3893L138.323 10.5331C139.221 10.3177 141.869 10.3615 143.006 10.4805C159.678 10.4687 177.122 10.4213 194.833 10.548C196.681 10.3662 198.778 10.5336 201.075 10.5017L203.192 10.7248L202.235 10.5779C201.853 10.5403 202.538 10.4414 202.642 10.4368C203.032 10.4192 204.899 10.4316 205.368 10.4476C206.275 10.479 207.022 10.4213 208.094 10.4584C211.82 10.5877 216.346 10.395 220.56 10.5089C221.686 10.5393 224.851 10.4867 225.634 10.4579C226.942 10.4094 229.073 10.5104 230.503 10.4775L230.876 10.6217L231.089 10.4795C232.131 10.461 232.552 10.5568 232.639 10.5573C234.341 10.564 239.917 10.5666 241.607 10.5223C245.251 10.4264 251.844 10.5254 255.632 10.579L256.022 10.5805C256.87 10.2703 259.857 10.5475 260.315 10.5264C263.007 10.4022 266.014 10.6006 266.938 10.5532C268.499 10.4728 276.908 10.4656 278.632 10.529C280.432 10.5954 283.411 10.4306 284.484 10.4811C285.458 10.5269 291.312 10.6212 292.657 10.5857C293.589 10.5609 294.867 10.5511 295.782 10.5269C296.866 10.4986 298.289 10.5053 298.882 10.6825L299.679 10.5429C300.406 10.7335 301.9 10.562 302.405 10.5537C307.338 10.4764 313.004 10.6264 317.216 10.5424L317.598 10.6155L318.19 10.5465L318.943 10.7639L318.774 10.5486C319.796 10.5934 320.501 10.4409 321.509 10.4883C322.621 10.5408 325.035 10.6207 326.566 10.5805C326.714 10.5764 326.835 10.5099 326.964 10.5104C327.046 10.5109 327.335 10.6227 327.93 10.5857L327.913 10.7284C328.099 10.7248 328.329 10.7423 328.497 10.7309C328.736 10.7145 329.62 10.5393 330.081 10.5228C330.561 10.5058 332.29 10.5161 332.807 10.5336C332.956 10.5388 333.054 10.6052 333.189 10.6068C333.254 10.6073 333.599 10.4975 334.172 10.5393L334.349 10.683C335.003 10.4821 336.005 10.6037 336.713 10.478L338.653 10.5573L339.245 10.4883L339.619 10.6325L340.02 10.5269L340.211 10.5635C340.363 10.5589 340.467 10.496 340.61 10.4934C343.608 10.4409 346.469 10.4738 349.578 10.4584C351.773 10.4471 355.022 10.328 356.987 10.4172C358.102 10.4677 358.874 10.3646 359.334 10.3553C360.005 10.3414 360.783 10.3723 361.477 10.3641L361.263 10.5063C362.069 10.293 363.304 10.3847 364.59 10.377L364.183 10.5182C364.498 10.5115 364.899 10.5346 365.158 10.5223C365.304 10.5151 366.306 10.3296 366.741 10.3141C368.339 10.258 370.905 10.3857 372.584 10.3378C377.029 10.2111 382.268 10.4615 387.395 10.3265C388.967 10.2853 390.896 10.3038 392.858 10.277L394.01 10.4249L394.807 10.2853L396.158 10.3981L395.781 10.2894C396.868 10.2817 398.011 10.3152 399.092 10.3028C404.022 10.2456 415.056 10.1642 419.358 10.3136C420.307 10.3466 421.921 10.3512 422.474 10.3265C424.378 10.2415 430.883 10.2245 433 10.2976C436.193 10.4084 440.924 10.2265 444.299 10.3435C446.834 10.4316 449.993 10.2131 452.489 10.3054C453.129 10.3291 454.659 10.3857 455.206 10.3878C455.274 10.3883 455.504 10.2976 456.383 10.3213L456.56 10.4651L456.967 10.3239C457.402 10.3352 457.936 10.3126 458.331 10.3296C460.12 10.4048 461.448 10.3543 463.388 10.4218C464.629 10.4646 470.761 10.5001 472.348 10.4584C473.72 10.4223 475.585 10.4455 476.615 10.6186L476.829 10.4764L479.547 10.5589L479.53 10.7016L480.504 10.7057C481.29 10.5424 482.545 10.6176 483.255 10.5022L484.016 10.648C485.041 10.4522 486.392 10.7031 487.523 10.6624C487.694 10.6562 487.88 10.5532 488.506 10.5949L487.683 10.9489L488.276 10.8799L488.834 11.0968L489.618 11.0643L490.042 10.7799L488.885 10.6681L491.019 10.7485C492.642 10.6057 494.368 10.8144 496.084 10.7691C497.44 10.7335 498.361 10.935 499.2 10.782L499.773 10.8917L498.981 10.9958C499.728 11.0483 500.04 10.8732 500.363 10.8582C501.225 10.8191 501.741 10.9324 502.497 10.9386L501.298 11.1838L501.674 11.2926L499.731 11.2488L500.304 11.3585L502.047 11.4368C501.927 11.1266 502.73 10.8438 504.639 10.9468C505.158 10.9747 505.476 11.1431 504.805 11.1977L505.377 11.3075L506.175 11.1679L506.736 11.3487L505.959 11.3456L506.324 11.5615L505.914 11.7387L505.133 11.7357L505.939 11.5244L504.771 11.5198L504.788 11.3771L504.01 11.374L504.754 11.663L502.814 11.5837L503.583 11.6584L503.752 11.8737L504.319 12.019L502.168 12.0819L500.812 12.0051L500.837 11.7908L500.048 11.8593L499.863 11.7872L499.661 11.8578C499.512 11.8464 499.24 11.8732 499.077 11.8552C498.574 11.8001 498.142 11.5996 498.145 11.494L497.552 11.563C496.755 11.3564 495.671 11.3523 494.826 11.5522L493.666 11.476L493.057 11.6877L494.61 11.73C495.331 11.6646 494.613 11.8274 494.402 11.8361C493.338 11.8815 493.097 11.6548 492.47 11.6852L490.887 11.8933L491.109 11.68C490.497 11.6573 490.342 11.7357 489.736 11.746C488.638 11.765 487.947 11.7784 487.001 11.8062C485.471 11.8511 484.833 11.6671 483.511 11.6491L481.793 11.3564L481.961 11.5718L481.748 11.714C481.31 11.7217 480.788 11.6955 480.383 11.7083C480.234 11.713 480.139 11.7722 479.985 11.7784C479.016 11.8155 478.496 11.6718 477.648 11.7691C477.137 11.5986 476.295 11.6568 475.725 11.5471L475.902 11.6908C475.464 11.698 474.942 11.6723 474.538 11.6852C474.386 11.6898 474.282 11.7521 474.139 11.7552C472.715 11.782 471.09 11.6795 470.245 11.7393L469.484 11.5934L468.686 11.7331L467.917 11.6584C467.027 11.8382 466.055 11.6238 464.994 11.6465L464.621 11.5023L464.399 11.7156L464.222 11.5718L463.444 11.5687L463.427 11.7114C463.242 11.7058 463.006 11.7223 462.843 11.7089C462.63 11.6913 462.582 11.611 462.074 11.6342C459.446 11.7557 456.551 11.7506 453.892 11.6012L452.708 11.7393L452.326 11.6661L450.953 11.732L451.166 11.5898L449.981 11.7279C449.729 11.7181 449.431 11.7377 449.204 11.7248C448.232 11.6692 447.033 11.7568 445.697 11.7104C444.54 11.6702 443.128 11.6475 441.412 11.6929C439.815 11.7351 437.035 11.6898 435.171 11.7393C434.407 11.7594 433.441 11.7161 432.638 11.729L432.851 11.5867C432.461 11.6512 431.793 11.7125 431.276 11.7233C429.595 11.7583 428.233 11.731 426.983 11.7774C425.498 11.832 424.51 11.5527 423.468 11.8346C422.544 11.6857 421.068 11.8114 419.978 11.6774L418.793 11.8155C416.887 11.6403 414.163 11.8938 411.782 11.7872C410.741 11.7403 408.191 11.7279 406.717 11.7666C406.459 11.7733 406.423 11.9031 405.94 11.7635L405.347 11.8325L405.17 11.6888C404.774 11.8057 404.165 11.7341 403.604 11.7537C403.449 11.7588 403.351 11.8202 403.205 11.8238C400.745 11.8794 399.016 11.7784 396.581 11.797C395.958 11.8016 395.753 11.799 395.208 11.8629L396.006 11.7233C396.048 11.647 396.242 11.443 395.447 11.5064C394.616 11.5728 395.034 11.7949 394.234 11.8588L393.465 11.7841C392.715 11.983 389.874 11.7542 389.571 11.7681C387.816 11.849 386.291 11.8207 384.489 11.8902C383.478 11.9294 382.821 11.7753 382.161 11.8093C379.612 11.9402 377.034 11.7439 374.361 11.849C374.058 11.8609 373.808 11.95 372.795 11.9139C371.688 11.8742 370.152 11.884 368.909 11.8268C367.48 11.7609 367.126 12.0165 366.166 11.9587C364.239 11.8428 362.501 11.8444 360.702 12.0082L360.311 12.0067C359.202 11.8026 357.703 11.8588 356.237 11.8469L356.221 11.9897C355.406 12.0505 353.946 11.8964 353.696 11.9077C351.961 11.9881 350.577 12.0206 349.03 11.8176L347.845 11.9557C347.466 11.9464 347.031 11.9634 346.677 11.951C346.048 11.9283 344.206 11.9093 343.17 11.9366C341.646 11.9768 339.958 11.9247 338.097 11.9876L337.336 11.8418L335.761 11.9783L334.211 11.9005C331.692 12.0582 328.879 11.9201 326.793 12.0134C324.968 12.0948 323.567 11.9144 321.719 12.0644L320.568 11.9165L319.779 11.985L318.839 11.6955L319.608 11.7702C319.737 11.6347 319.209 11.5337 318.465 11.5512L318.839 11.6955C318.367 11.6697 317.772 11.6903 318.047 11.7995C318.381 11.932 319.28 11.8645 319.195 11.983L317.435 12.0474L315.893 11.898L314.709 12.036L314.15 11.8191L313.76 11.8176L313.743 11.9603L312.176 12.0252L311.822 11.7377L310.477 11.5893L311.612 11.8799L311.205 12.0211L309.054 12.0839L309.071 11.9412L307.689 12.0788L307.307 12.0056C307.181 12.0051 307.072 12.0675 306.909 12.0757C306.159 12.1118 305.718 11.9603 304.969 11.9964C303.722 12.0566 301.765 12.1319 299.895 12.0474C297.829 11.9536 294.659 12.1154 292.494 12.0175C291.085 11.9536 289.1 12.1159 287.811 12.07C286.084 12.0087 284.526 12.0139 282.358 12.0479C280.996 12.069 279.646 12.0685 278.674 11.8902L278.658 12.0329L275.159 11.9474L275.176 11.8047L274.786 11.8031L274.769 11.9459L271.829 12.0767C270.818 11.8542 267 12.0922 266.377 12.0546C266.217 12.0448 266.138 11.9871 265.995 11.9814C265.138 11.95 263.982 11.9928 263.072 11.9696L263.479 11.8284L262.505 11.8243C262.28 11.8552 261.418 11.9587 261.32 11.9624C259.984 12.0098 257.423 11.8052 256.255 11.9417L255.286 11.9021L255.662 12.0108L253.927 11.8609C253.776 11.8681 253.689 11.9222 253.529 11.9309C251.704 12.0309 249.281 11.9057 247.279 12.0484L246.127 11.9005C244.418 11.9855 241.806 12.0881 240.285 11.8768C240.155 11.8763 240.038 11.9428 239.886 11.9469C235.576 12.0644 229.969 11.9314 225.861 11.8902L224.286 12.0268C223.643 11.9108 221.841 11.9031 221.17 12.0139L220.409 11.8681C220.153 11.8758 219.864 11.8536 219.631 11.865C219.468 11.8727 219.359 11.9356 219.232 11.935C219.151 11.9345 218.862 11.8227 218.267 11.8598L218.443 12.0036C217.795 11.8238 217.11 11.9907 216.885 11.9974C215.071 12.0484 212.488 11.9237 210.652 11.9721C209.251 12.0092 206.971 11.9031 205.199 11.95C204.481 11.9691 204.206 11.9381 204.031 11.9454C203.815 11.9541 203.363 12.0685 202.659 12.0113L202.675 11.8686L201.684 12.0077L201.302 11.9345L200.513 12.0031L200.132 11.9299C198.924 12.0736 197.942 11.9381 196.616 11.9871C195.606 12.0242 194.019 11.9469 192.916 11.9721L193.323 11.831L191.941 11.9685C191.812 11.968 191.708 11.901 191.56 11.8954C190.201 11.8469 187.845 12.1602 186.495 11.8748C185.338 12.0706 182.76 11.8598 181.82 11.8557C181.738 11.8552 181.424 11.9649 180.837 11.9232C181.039 11.7372 180.107 11.7346 179.509 11.6321L178.908 11.7727L180.441 11.9933L179.085 11.9165C177.252 12.0494 175.424 11.7964 173.604 12.1087L172.436 12.104L171.285 11.9562L170.311 11.952L170.294 12.0948C169.859 12.0834 169.325 12.1061 168.929 12.0891C168.202 12.0587 167.557 12.0293 166.989 12.0098C165.995 11.9752 164.943 12.0592 164.075 11.9263L164.05 12.1406L162.882 12.136L162.907 11.9217C162.286 11.8799 162.076 11.985 161.924 11.9891C160.436 12.0293 158.423 11.9397 156.859 11.9685C155.584 11.9922 156.079 12.0242 154.523 11.9593C153.962 11.9356 153.341 12.001 152.973 11.8815L153.15 12.0252C152.605 12.0098 151.889 12.0407 151.398 12.018C150.036 11.9562 148.79 12.0901 147.512 11.9309L145.547 12.0659C145.179 11.9484 144.581 12.0087 143.997 11.9881C142.91 11.9495 141.973 12.0134 140.88 11.9752C137.079 11.8433 131.609 12.0855 128.024 11.9232C126.659 11.8614 125.256 11.9242 124.118 11.9788C123.369 12.0149 123.06 11.882 122.375 11.9005L122.552 12.0443L121.01 11.8949L119.629 12.0324L119.646 11.8897C119.205 11.8964 118.697 11.8727 118.281 11.884C118.13 11.8882 118.012 11.9546 117.882 11.9541C117.753 11.9536 117.649 11.8861 117.501 11.8809C116.414 11.8433 115.201 11.8748 114.367 12.0113L114.392 11.797L113.595 11.9366C112.567 11.984 111.762 11.8578 111.655 11.8572C111.526 11.8567 111.405 11.9232 111.256 11.9273C109.763 11.9665 106.045 11.9484 105.023 11.9021C103.148 11.8171 101.098 12.0092 99.5594 11.9515C95.6623 11.8047 91.5995 12.0165 87.0931 11.901C86.5597 11.8871 86.526 11.849 86.1273 11.8258L85.9139 11.968L85.532 11.8949C84.6925 11.8526 83.8727 12.0721 83.196 11.8856L83.3729 12.0293L82.5952 12.0262L82.612 11.8835L81.444 11.8789L81.4272 12.0216C80.4978 12.0479 80.3209 11.8176 79.3017 11.8701C79.1417 11.8784 79.049 11.9361 78.903 11.9402C77.0443 11.9933 74.3854 11.9551 72.6699 11.915L71.4851 12.053L69.9352 11.9752C69.1743 12.1149 67.7733 12.0134 66.8187 11.9624C65.5018 11.8923 65.5917 11.917 64.0924 11.9515C62.5959 11.9855 60.5912 11.8542 59.4091 12.0041L58.8504 11.7872L57.4942 11.7104L57.0787 11.9232L55.9275 11.7753L55.9107 11.918C55.5317 11.9644 55.2733 11.8439 55.1414 11.8433C54.8382 11.8423 52.738 11.8949 52.4067 11.9036C50.8989 11.9433 49.3687 11.9175 48.5124 11.8876C47.7543 11.8614 46.78 11.8969 45.9798 11.8773L46.4038 11.5929L44.8371 11.6579L45.2021 11.8737L44.2362 11.7985L43.6438 11.8676L43.6607 11.7248L42.8829 11.7217L42.8661 11.8645C41.7823 11.8119 40.9287 11.9706 39.9348 11.9242C39.7804 11.917 39.6962 11.8557 39.553 11.8511C38.4439 11.816 37.2703 11.8428 36.4196 11.9814L36.633 11.8392C36.1921 11.8459 35.6839 11.8222 35.2684 11.8335C35.1168 11.8377 34.9989 11.9041 34.8697 11.9036C34.7406 11.9031 34.6367 11.8356 34.4879 11.8305C33.8421 11.8078 31.3151 11.8439 31.1776 11.8171L31.1944 11.6743L29.8495 11.526L30.0096 11.8124L29.2487 11.6666L29.2234 11.8809C28.5945 11.918 28.4092 11.8109 28.2576 11.8057C27.783 11.7887 27.1878 11.8145 26.6993 11.7995C26.2865 11.7872 25.9637 11.7521 25.5397 11.7233C25.0792 11.6924 26.0114 11.6027 25.7615 11.51L24.3633 11.7903L23.5939 11.7156C23.1644 11.8124 21.9655 11.8001 21.2467 11.7774C21.1007 11.7727 21.008 11.7078 20.8649 11.7042C18.2621 11.6429 15.6369 11.6913 13.2868 11.5306L13.3037 11.3879L12.5259 11.3848L12.8994 11.529L9.79124 11.4451C9.68174 11.426 10.437 11.34 9.81651 11.2307C10.2966 11.2786 11.1923 11.122 11.0014 11.0926L9.83616 11.0519L8.90119 10.7263L9.06685 10.9772L9.82774 11.123L8.81415 11.4404C7.91849 11.3245 8.66535 11.3013 8.65411 11.154C8.76081 11.1462 8.96858 11.1684 9.04719 11.1199C9.05281 11.0731 8.70746 11.089 8.66254 11.0829C8.54181 11.0664 9.10616 10.8613 7.51138 10.935L8.30315 10.8309L6.78418 10.5341L7.9578 10.5032L7.98026 10.3244L8.57831 10.2198C9.29147 10.2822 10.0271 10.1575 10.145 10.1549C11.7117 10.1194 14.6767 10.1498 15.9794 10.2502L16.5719 10.1812L16.555 10.3239L17.3328 10.327L17.3496 10.1843C18.1077 10.1905 18.5653 10.2997 19.4835 10.2647C20.9407 10.2085 24.0067 10.2265 25.3263 10.2884C27.098 10.3713 29.3301 10.3486 30.7789 10.3105C31.5707 10.2899 34.2773 10.3007 35.0634 10.328C35.3189 10.3368 35.3246 10.4671 35.8412 10.3311L37.1805 10.5506L35.6138 10.6155L37.1636 10.6933L37.537 10.8376L37.1805 10.5506ZM466.496 10.5058C466.244 10.5048 466.235 10.5764 466.488 10.5774C466.741 10.5779 466.749 10.5068 466.496 10.5058ZM473.499 10.6057C473.246 10.6047 473.238 10.6763 473.49 10.6774C473.746 10.6779 473.754 10.6068 473.499 10.6057ZM438.574 10.9643L437.653 10.5316C436.673 10.6691 437.276 10.6361 437.627 10.7459C437.886 10.8273 437.914 10.9427 438.574 10.9643ZM456.9 10.8958L457.13 10.6109L456.52 10.8227L455.746 10.784L456.9 10.8958ZM462.38 10.7036L460.637 10.6253C459.87 10.7237 458.463 10.7052 458.452 10.9736L460.213 10.9092L462.38 10.7036ZM464.143 10.6392C463.891 10.6382 463.882 10.7098 464.135 10.7109C464.388 10.7114 464.396 10.6403 464.143 10.6392ZM472.322 10.6722C472.07 10.6712 472.061 10.7428 472.314 10.7438C472.567 10.7449 472.575 10.6732 472.322 10.6722ZM477.174 10.835L478.14 10.9102L478.339 10.8752L477.971 10.6949L477.174 10.835ZM487.127 10.7325C486.875 10.7315 486.866 10.8031 487.119 10.8041C487.372 10.8046 487.38 10.7335 487.127 10.7325ZM454.572 10.8144L453.614 10.6676L452.601 10.985L454.572 10.8144ZM469.004 10.7304L468.223 10.7273L468.79 10.8726L468.984 10.8737L469.004 10.7304ZM475.43 10.7562C475.178 10.7552 475.169 10.8268 475.422 10.8278C475.675 10.8288 475.683 10.7572 475.43 10.7562ZM479.327 10.7722C479.075 10.7711 479.066 10.8428 479.319 10.8438C479.572 10.8448 479.58 10.7732 479.327 10.7722ZM486.914 10.8742C486.322 10.9015 486.212 10.8221 485.754 10.7979L485.738 10.9406L486.906 10.9453L486.914 10.8742ZM494.307 10.9757L494.323 10.833C493.779 10.8876 493.419 10.9231 492.757 10.8979L492.748 10.9695L494.307 10.9757ZM452.244 10.7335L450.287 10.7969L450.279 10.8685L452.236 10.8051L452.244 10.7335ZM465.862 10.9319L463.736 10.7804L461.956 10.9875L463.52 10.9582L463.534 10.851L464.312 10.8541L464.295 10.9968L465.862 10.9319ZM467.807 10.9396L467.824 10.7969C467.361 10.8175 467.232 10.8958 466.648 10.8634L466.639 10.935L467.807 10.9396ZM484.949 11.0092L482.823 10.8577L481.442 10.9953L482.208 11.1055L481.416 11.2096L483.576 11.0756L484.949 11.0092ZM366.904 10.6016L366.143 10.4558L366.123 10.5985L366.904 10.6016ZM385.814 10.5357C385.561 10.5346 385.553 10.6063 385.805 10.6073C386.058 10.6083 386.067 10.5367 385.814 10.5357ZM395.748 10.5759L394.97 10.5728L394.961 10.6444L395.739 10.6475L395.748 10.5759ZM470.525 11.0226L469.764 10.8768L469.748 11.0195L470.525 11.0226ZM472.873 10.9602L473.44 11.1055L474.425 11.0025L473.852 10.8927L472.873 10.9602ZM497.406 11.1313L496.255 10.9834L496.238 11.1261L495.441 11.2658L497.406 11.1313ZM503.639 11.1565L503.656 11.0138L503.266 11.0123L503.249 11.155L503.639 11.1565ZM383.469 10.5975C383.217 10.5965 383.208 10.6681 383.461 10.6691C383.714 10.6702 383.722 10.5985 383.469 10.5975ZM472.289 10.9582C472.036 10.9571 472.027 11.0288 472.28 11.0298C472.533 11.0303 472.541 10.9592 472.289 10.9582ZM473.982 11.4652C474.462 11.5445 475.765 11.2436 476.158 11.188L478.297 11.2323L475.211 10.9695C475.501 11.2318 474.655 11.2802 473.982 11.4652ZM500.922 11.0741L498.973 11.0664L498.956 11.2091C499.61 11.1308 500.127 11.1318 500.913 11.1457L500.922 11.0741ZM368.656 10.6088C368.403 10.6078 368.395 10.6794 368.648 10.6805C368.9 10.6815 368.909 10.6099 368.656 10.6088ZM384.629 10.6738C384.376 10.6727 384.368 10.7443 384.621 10.7454C384.873 10.7464 384.882 10.6748 384.629 10.6738ZM385.407 10.6768C385.154 10.6758 385.146 10.7474 385.398 10.7485C385.651 10.7495 385.662 10.6779 385.407 10.6768ZM414.803 10.9391L414.82 10.7964L414.43 10.7948L414.413 10.9376L414.803 10.9391ZM421.441 10.8232L420.663 10.8201L420.655 10.8917L421.432 10.8948L421.441 10.8232ZM428.455 10.8515L427.677 10.8484L427.668 10.92L428.446 10.9231L428.455 10.8515ZM479.875 11.0602L478.707 11.0555L478.699 11.1272L479.867 11.1318L479.875 11.0602ZM491.156 11.2493L491.173 11.1066L490.783 11.105L490.766 11.2477L491.156 11.2493ZM491.757 11.1086C491.505 11.1076 491.496 11.1792 491.749 11.1802C492.002 11.1807 492.01 11.1096 491.757 11.1086ZM492.723 11.1838L493.689 11.2591L493.888 11.224L492.732 11.1122L492.723 11.1838ZM495.07 11.122L494.293 11.1189L494.276 11.2616L495.07 11.122ZM340.989 10.5681C340.736 10.5671 340.728 10.6387 340.98 10.6398C341.233 10.6408 341.241 10.5692 340.989 10.5681ZM393.19 10.7799C392.937 10.7789 392.929 10.8505 393.181 10.8515C393.434 10.8525 393.442 10.7809 393.19 10.7799ZM419.29 10.886C419.038 10.885 419.029 10.9566 419.282 10.9577C419.534 10.9582 419.543 10.8871 419.29 10.886ZM442.833 11.1957L443.625 11.0916L443.052 10.9819L442.858 10.9808L442.833 11.1957ZM470.517 11.0937C470.149 11.036 469.065 11.2039 468.933 11.3018L470.492 11.308L470.115 11.1993L470.517 11.0937ZM481.037 11.1364L480.26 11.1333L480.243 11.2761L481.037 11.1364ZM484.932 11.1524C484.449 11.1045 483.556 11.2611 483.747 11.2905C484.227 11.3384 485.123 11.1818 484.932 11.1524ZM497.982 11.2055C497.729 11.2044 497.721 11.2761 497.974 11.2771C498.226 11.2776 498.235 11.2065 497.982 11.2055ZM368.429 10.8938L368.445 10.751L368.055 10.7495L368.038 10.8922L368.429 10.8938ZM467.198 11.1519C466.945 11.1509 466.937 11.2225 467.19 11.2235C467.442 11.2245 467.451 11.1529 467.198 11.1519ZM474.209 11.1802C473.956 11.1792 473.948 11.2508 474.201 11.2518C474.453 11.2529 474.465 11.1813 474.209 11.1802ZM329.677 10.665C329.424 10.664 329.415 10.7356 329.668 10.7366C329.921 10.7376 329.929 10.666 329.677 10.665ZM346.621 10.734L345.843 10.7309L345.835 10.8026L346.613 10.8057L346.621 10.734ZM376.812 10.8567C376.56 10.8556 376.551 10.9273 376.804 10.9283C377.057 10.9288 377.065 10.8577 376.812 10.8567ZM387.33 10.8994C387.077 10.8984 387.069 10.97 387.322 10.971C387.574 10.9716 387.583 10.9005 387.33 10.8994ZM399.796 10.9499C399.544 10.9489 399.535 11.0205 399.788 11.0215C400.041 11.0221 400.049 10.951 399.796 10.9499ZM441.867 11.1205L441.269 11.2251L441.46 11.2616L442.058 11.157L441.867 11.1205ZM486.844 11.4461L487.436 11.3771L488.017 11.4152L486.861 11.3034L486.844 11.4461ZM333.562 10.7526C333.31 10.7516 333.301 10.8232 333.554 10.8242C333.807 10.8247 333.815 10.7536 333.562 10.7526ZM341.548 10.785L340.77 10.782C341.219 10.9159 341.247 10.9329 340.736 11.0679L341.719 11.0004L343.061 11.1844L344.218 11.2962L341.539 10.8922L341.548 10.785ZM349.535 10.8175C349.283 10.8165 349.274 10.8881 349.527 10.8891C349.78 10.8896 349.788 10.8185 349.535 10.8175ZM355.962 10.8433L354.404 10.8371L354.971 10.9824L355.37 10.9123L356.131 11.0581L355.962 10.8433ZM363.17 10.8726C362.917 10.8716 362.909 10.9432 363.161 10.9443C363.414 10.9453 363.422 10.8737 363.17 10.8726ZM373.687 10.9154C373.435 10.9144 373.426 10.986 373.679 10.987C373.932 10.9875 373.94 10.9164 373.687 10.9154ZM374.855 10.92C374.603 10.919 374.594 10.9906 374.847 10.9917C375.1 10.9927 375.108 10.9211 374.855 10.92ZM377.582 10.9309C377.329 10.9298 377.321 11.0014 377.573 11.0025C377.826 11.0035 377.834 10.9319 377.582 10.9309ZM439.913 11.1838C439.66 11.1828 439.652 11.2544 439.904 11.2555C440.157 11.2565 440.166 11.1849 439.913 11.1838ZM459.974 11.2652L459.196 11.2622L459.188 11.3338L459.966 11.3369L459.974 11.2652ZM464.455 11.2838C464.202 11.2828 464.194 11.3544 464.447 11.3554C464.699 11.3559 464.708 11.2848 464.455 11.2838ZM477.893 11.3384L478.451 11.5553L478.651 11.5203L478.283 11.34L477.893 11.3384ZM491.14 11.392C490.657 11.3441 489.764 11.5007 489.955 11.5301C490.435 11.578 491.328 11.4214 491.14 11.392ZM462.888 11.3487C462.636 11.3477 462.627 11.4193 462.88 11.4203C463.133 11.4214 463.141 11.3497 462.888 11.3487ZM466.392 11.3631C466.14 11.3621 466.131 11.4337 466.384 11.4348C466.637 11.4353 466.645 11.3642 466.392 11.3631ZM484.491 11.5795L484.508 11.4368L484.117 11.4353L484.101 11.578L484.491 11.5795ZM330.429 10.8829C330.176 10.8819 330.168 10.9535 330.421 10.9546C330.673 10.9551 330.682 10.884 330.429 10.8829ZM350.687 10.9649C350.434 10.9638 350.426 11.0355 350.678 11.0365C350.931 11.0375 350.939 10.9659 350.687 10.9649ZM355.156 11.0545L352.433 11.0076C352.93 11.1596 353.472 11.1019 354.174 11.122C354.497 11.1313 354.777 11.2694 355.156 11.0545ZM362.372 11.0123C362.12 11.0112 362.111 11.0829 362.364 11.0839C362.617 11.0849 362.625 11.0133 362.372 11.0123ZM396.654 11.1514C396.402 11.1503 396.393 11.222 396.646 11.223C396.899 11.224 396.907 11.1524 396.654 11.1514ZM471.643 11.4559L470.862 11.4528L470.845 11.5955L471.623 11.5986L471.643 11.4559ZM492.291 11.5393L491.513 11.5363L491.505 11.6079L492.282 11.611L492.291 11.5393ZM323.797 10.9273C323.544 10.9262 323.536 10.9978 323.789 10.9989C324.041 10.9999 324.05 10.9283 323.797 10.9273ZM331.979 10.9602C331.726 10.9592 331.718 11.0308 331.97 11.0318C332.223 11.0329 332.232 10.9613 331.979 10.9602ZM371.714 11.1215C371.461 11.1205 371.452 11.1921 371.705 11.1931C371.958 11.1941 371.966 11.1225 371.714 11.1215ZM473.193 11.5337L472.412 11.5306L472.404 11.6022L473.181 11.6053L473.193 11.5337ZM480.01 11.561C479.757 11.56 479.749 11.6316 480.001 11.6326C480.254 11.6336 480.262 11.562 480.01 11.561ZM222.697 10.5882L221.919 10.5851L221.911 10.6568L222.689 10.6598L222.697 10.5882ZM234.579 10.6367C234.327 10.6356 234.318 10.7072 234.571 10.7083C234.824 10.7093 234.832 10.6377 234.579 10.6367ZM336.058 11.0483L335.084 11.0442L334.677 11.1854L336.05 11.1194L336.058 11.0483ZM363.523 11.1601C363.271 11.1591 363.262 11.2307 363.515 11.2318C363.768 11.2323 363.776 11.1612 363.523 11.1601ZM415.334 11.3704C415.081 11.3693 415.073 11.4409 415.326 11.442C415.578 11.4425 415.587 11.3714 415.334 11.3704ZM460.524 11.5538C460.272 11.5527 460.263 11.6244 460.516 11.6254C460.769 11.6259 460.777 11.5548 460.524 11.5538ZM249.553 10.9118L249.57 10.7691L249.179 10.7675L249.163 10.9102L249.553 10.9118ZM252.279 10.9231L252.296 10.7804L251.504 10.8845L251.499 10.92L252.279 10.9231ZM313.44 11.171L312.679 11.0251L312.662 11.1679L313.44 11.171ZM324.171 11.0715C323.918 11.0705 323.909 11.1421 324.162 11.1431C324.415 11.1442 324.423 11.0725 324.171 11.0715ZM329.039 11.0916L327.082 11.155L327.074 11.2266L329.031 11.1632L329.039 11.0916ZM347.932 11.1684C347.68 11.1674 347.671 11.239 347.924 11.24C348.177 11.2405 348.185 11.1694 347.932 11.1684ZM373.839 11.2735L373.061 11.2704L373.053 11.342L373.831 11.3451L373.839 11.2735ZM177.296 10.547C177.044 10.546 177.035 10.6176 177.288 10.6186C177.541 10.6197 177.549 10.548 177.296 10.547ZM187.23 10.5877L186.452 10.5846L186.444 10.6557L187.225 10.6588L187.23 10.5877ZM209.63 10.6784C209.377 10.6774 209.369 10.749 209.622 10.75C209.874 10.751 209.883 10.6794 209.63 10.6784ZM236.315 10.7866L234.756 10.7804L234.751 10.816L235.323 10.9257L235.714 10.9273L236.315 10.7866ZM253.456 10.8562L252.658 10.9958C253.832 11.0159 254.25 11.3003 255.382 11.0427L254.43 10.8603L254.217 11.0025L253.632 10.9999L253.456 10.8562ZM315.396 11.1076L314.229 11.1029L314.22 11.1746L315.388 11.1792L315.396 11.1076ZM318.317 11.1194C318.064 11.1184 318.055 11.19 318.308 11.1911C318.561 11.1921 318.569 11.1205 318.317 11.1194ZM320.849 11.1297L320.071 11.1266L320.063 11.1983L320.841 11.2014L320.849 11.1297ZM377.335 11.359L375.776 11.3528L375.759 11.4956C376.489 11.5156 377.11 11.5017 377.335 11.359ZM390.385 11.4121C390.132 11.4111 390.124 11.4827 390.376 11.4837C390.629 11.4842 390.64 11.4131 390.385 11.4121ZM394.476 11.4286L392.527 11.4208L392.519 11.4925C393.369 11.4574 393.732 11.577 394.459 11.5718L394.476 11.4286ZM154.11 10.5243L152.942 10.5197L152.917 10.734L153.307 10.7356L153.324 10.5929L154.105 10.596L154.11 10.5243ZM160.318 10.7644L159.953 10.5486L159.563 10.547L159.147 10.7598L160.318 10.7644ZM201.636 10.7176L200.859 10.7145L200.85 10.7861L201.628 10.7892L201.636 10.7176ZM279.938 11.0355L279.16 11.0324L279.152 11.104L279.932 11.1071L279.938 11.0355ZM291.624 11.0829L290.846 11.0798L290.837 11.1514L291.615 11.1545L291.624 11.0829ZM295.13 11.0968L293.962 11.0921L293.937 11.3065C294.4 11.2859 294.53 11.2075 295.114 11.24L295.13 11.0968ZM301.364 11.122L300.196 11.1174L300.17 11.3317L301.338 11.3363L300.962 11.2276L301.364 11.122ZM329.216 11.2354C328.963 11.2343 328.955 11.3059 329.208 11.307C329.46 11.3075 329.469 11.2364 329.216 11.2354ZM342.463 11.2889C342.21 11.2879 342.202 11.3595 342.454 11.3606C342.707 11.3616 342.716 11.29 342.463 11.2889ZM210.197 10.8237L209.419 10.8206L209.394 11.0349L209.784 11.0365C209.633 10.9278 210.065 10.9077 210.197 10.8237ZM225.755 11.1014L228.495 11.0051L225.968 10.9592L225.755 11.1014ZM239.397 11.0849L239.414 10.9422L238.622 11.0463L238.617 11.0818L239.397 11.0849ZM283.63 11.1215C283.377 11.1205 283.369 11.1921 283.622 11.1931C283.874 11.1941 283.883 11.1225 283.63 11.1215ZM369.111 11.6831L369.136 11.4688L368.746 11.4672C368.895 11.5759 368.462 11.596 368.33 11.68L369.111 11.6831ZM157.014 10.6794C156.761 10.6784 156.752 10.75 157.005 10.751C157.258 10.7516 157.266 10.6805 157.014 10.6794ZM188.957 10.8087C188.704 10.8077 188.696 10.8793 188.948 10.8804C189.201 10.8814 189.212 10.8098 188.957 10.8087ZM197.332 10.8428L196.15 10.9453L196.341 10.9819L197.324 10.9144L197.332 10.8428ZM198.307 10.8469C198.054 10.8458 198.045 10.9175 198.298 10.9185C198.551 10.9195 198.559 10.8479 198.307 10.8469ZM250.12 11.0571C249.867 11.0561 249.859 11.1277 250.112 11.1287C250.364 11.1297 250.373 11.0581 250.12 11.0571ZM286.738 11.206C286.486 11.205 286.477 11.2766 286.73 11.2776C286.982 11.2781 286.991 11.207 286.738 11.206ZM298.034 11.2518C297.781 11.2508 297.772 11.3224 298.025 11.3235C298.278 11.324 298.286 11.2529 298.034 11.2518ZM329.98 11.3812C329.727 11.3801 329.719 11.4518 329.971 11.4528C330.224 11.4538 330.232 11.3822 329.98 11.3812ZM333.273 11.5378L333.29 11.3951C332.827 11.4157 332.698 11.494 332.114 11.4615L332.105 11.5332L333.273 11.5378ZM338.355 11.4152C337.872 11.3673 336.979 11.5239 337.17 11.5533C337.65 11.6017 338.543 11.4445 338.355 11.4152ZM339.329 11.4193C339.077 11.4183 339.068 11.4899 339.321 11.4909C339.574 11.4914 339.582 11.4203 339.329 11.4193ZM351.209 11.4672L350.431 11.4641L350.414 11.6068L351.209 11.4672ZM357.052 11.4909L356.274 11.4878L356.266 11.5594L357.043 11.5625L357.052 11.4909ZM169.471 10.8015C169.219 10.8005 169.21 10.8721 169.463 10.8732C169.716 10.8737 169.724 10.8026 169.471 10.8015ZM191.871 10.8922L191.094 10.8891L191.085 10.9607L191.863 10.9638L191.871 10.8922ZM201.027 10.9293C200.775 10.9283 200.766 10.9999 201.019 11.0009C201.272 11.002 201.28 10.9303 201.027 10.9293ZM342.224 11.6455L342.241 11.5028L341.851 11.5012L341.834 11.6439L342.224 11.6455ZM367.564 11.6053L366.786 11.6022L366.778 11.6738L367.555 11.6769L367.564 11.6053ZM112.587 10.6418C112.334 10.6408 112.326 10.7124 112.579 10.7134C112.831 10.7145 112.84 10.6428 112.587 10.6418ZM120.185 10.6727L119.407 10.6696L119.39 10.8124L120.185 10.6727ZM168.879 10.8706L168.101 10.8675L168.093 10.9391L168.871 10.9422L168.879 10.8706ZM193.811 10.9716L192.447 10.9659L191.846 11.1066L193.211 11.1122L193.811 10.9716ZM253.607 11.2142C253.355 11.2132 253.346 11.2848 253.599 11.2859C253.852 11.2869 253.86 11.2153 253.607 11.2142ZM261.188 11.3879L260.427 11.2421L260.41 11.3848L261.188 11.3879ZM309.705 11.442C309.453 11.4409 309.444 11.5126 309.697 11.5136C309.95 11.5146 309.958 11.443 309.705 11.442ZM178.608 10.9814L177.44 10.9767L176.642 11.1163L178.361 11.409L177.802 11.1921L179.36 11.1983L178.591 11.1236L178.608 10.9814ZM185.037 11.0076C184.785 11.0066 184.776 11.0782 185.029 11.0792C185.282 11.0798 185.29 11.0087 185.037 11.0076ZM224.772 11.1689C224.519 11.1679 224.511 11.2395 224.764 11.2405C225.016 11.241 225.025 11.1699 224.772 11.1689ZM268.401 11.3456C268.148 11.3446 268.14 11.4162 268.393 11.4172C268.648 11.4183 268.657 11.3467 268.401 11.3456ZM308.916 11.51C308.664 11.5089 308.655 11.5806 308.908 11.5816C309.161 11.5826 309.169 11.511 308.916 11.51ZM334.433 11.6135L333.655 11.6105L333.647 11.6821L334.424 11.6852L334.433 11.6135ZM14.0112 10.3847C13.7585 10.3837 13.7501 10.4553 14.0028 10.4563C14.2555 10.4574 14.2639 10.3857 14.0112 10.3847ZM17.1278 10.3976C16.8751 10.3966 16.8667 10.4682 17.1194 10.4692C17.3721 10.4702 17.3805 10.3986 17.1278 10.3976ZM18.4923 10.4033L17.7118 10.4002L17.7034 10.4718L18.4811 10.4749L18.4923 10.4033ZM31.346 10.4553L30.3633 10.5228L29.7821 10.4847L30.3549 10.5944L31.3292 10.5985L31.346 10.4553ZM41.2797 10.4955C41.027 10.4945 41.0186 10.5661 41.2713 10.5671C41.524 10.5681 41.5324 10.4965 41.2797 10.4955ZM49.4614 10.529C49.2087 10.5279 49.2003 10.5996 49.453 10.6006C49.7057 10.6011 49.7141 10.53 49.4614 10.529ZM129.711 10.8546C129.459 10.8536 129.45 10.9252 129.703 10.9262C129.956 10.9267 129.964 10.8556 129.711 10.8546ZM159.122 10.9736L157.954 10.969L157.946 11.0406L159.114 11.0452L159.122 10.9736ZM170.774 11.307C170.971 11.1163 170.008 11.1163 169.446 11.0159L169.247 11.0509L170.774 11.307ZM171.004 11.0221C170.752 11.021 170.743 11.0926 170.996 11.0937C171.249 11.0947 171.257 11.0231 171.004 11.0221ZM172.349 11.1704L172.366 11.0277L171.574 11.1318L171.569 11.1674L172.349 11.1704ZM182.887 11.07L182.109 11.0669L182.092 11.2096L182.887 11.07ZM188.713 11.2369L188.729 11.0942L188.339 11.0926L188.322 11.2354L188.713 11.2369ZM190.481 11.1009C190.229 11.0999 190.22 11.1715 190.473 11.1725C190.726 11.1735 190.734 11.1019 190.481 11.1009ZM198.273 11.1328C198.02 11.1318 198.012 11.2034 198.264 11.2044C198.517 11.205 198.526 11.1339 198.273 11.1328ZM227.49 11.2513C227.237 11.2503 227.229 11.3219 227.481 11.323C227.734 11.3235 227.743 11.2524 227.49 11.2513ZM299.752 11.5445L298.974 11.5414L298.966 11.613L299.743 11.6161L299.752 11.5445ZM323.907 11.6424L323.129 11.6393L323.112 11.782L323.907 11.6424ZM331.502 11.6733C331.249 11.6723 331.24 11.7439 331.493 11.7449C331.746 11.746 331.754 11.6743 331.502 11.6733ZM9.89512 10.5826L9.91197 10.4398L9.5217 10.4383L9.50485 10.581L9.89512 10.5826ZM29.7541 10.7346C29.8832 10.599 29.3554 10.4981 28.6113 10.5156L29.7541 10.7346ZM55.4923 10.6248L54.7146 10.6217L54.6978 10.7644L55.4755 10.7675L55.4923 10.6248ZM100.663 10.951L100.68 10.8082L100.289 10.8067L100.273 10.9494L100.663 10.951ZM122.105 10.8953L121.328 10.8922L121.311 11.0349L122.105 10.8953ZM196.706 11.1977L196.108 11.3023L196.299 11.3389L196.897 11.2343L196.706 11.1977ZM262.932 11.4667L262.334 11.5713L262.525 11.6079L263.123 11.5033L262.932 11.4667ZM313.381 11.6712L312.603 11.6682L312.594 11.7398L313.372 11.7429L313.381 11.6712ZM34.6423 10.6114C34.3896 10.6104 34.3812 10.682 34.6339 10.683C34.8866 10.6841 34.895 10.6124 34.6423 10.6114ZM104.178 10.8938L103.4 10.8907L103.383 11.0334L104.161 11.0365L104.178 10.8938ZM150.73 11.0829C150.477 11.0818 150.469 11.1534 150.721 11.1545C150.974 11.155 150.983 11.0839 150.73 11.0829ZM154.414 11.2405L154.43 11.0978L154.04 11.0962L154.023 11.239L154.414 11.2405ZM163.196 11.1333C162.943 11.1323 162.935 11.2039 163.188 11.205C163.44 11.206 163.449 11.1344 163.196 11.1333ZM176.246 11.1864L175.469 11.1833L175.46 11.2549L176.238 11.258L176.246 11.1864ZM241.498 11.4512C241.245 11.4502 241.236 11.5218 241.489 11.5229C241.742 11.5234 241.75 11.4523 241.498 11.4512ZM245.181 11.6089L245.198 11.4662L244.406 11.5703L244.401 11.6058L245.181 11.6089ZM304.216 11.7058C303.964 11.7047 303.955 11.7764 304.208 11.7774C304.46 11.7779 304.469 11.7068 304.216 11.7058ZM316.682 11.7563C316.43 11.7552 316.421 11.8268 316.674 11.8279C316.927 11.8284 316.935 11.7573 316.682 11.7563ZM320.967 11.7738C320.714 11.7727 320.706 11.8444 320.959 11.8454C321.211 11.8459 321.22 11.7748 320.967 11.7738ZM12.9864 10.8098L13.3963 10.6325L13.2054 10.596L12.5961 10.8077L12.9864 10.8098ZM16.322 10.6088C16.0693 10.6078 16.0609 10.6794 16.3136 10.6805C16.5662 10.681 16.5747 10.6099 16.322 10.6088ZM65.0189 10.8062C64.7662 10.8051 64.7578 10.8768 65.0105 10.8778C65.2632 10.8788 65.2716 10.8072 65.0189 10.8062ZM94.0394 10.9242L94.5981 11.1411L95.5836 11.038L95.0109 10.9283L94.0394 10.9242ZM132.589 11.2235L131.828 11.0777L131.812 11.2204L132.589 11.2235ZM157.345 11.1813C157.092 11.1802 157.084 11.2518 157.336 11.2529C157.589 11.2534 157.598 11.1823 157.345 11.1813ZM172.925 11.2441C172.672 11.2431 172.664 11.3147 172.916 11.3157C173.169 11.3168 173.178 11.2452 172.925 11.2441ZM295.248 11.7408C294.996 11.7398 294.987 11.8114 295.24 11.8124C295.493 11.8135 295.501 11.7418 295.248 11.7408ZM55.8545 10.8407L55.0768 10.8376L55.0684 10.9092L55.8461 10.9123L55.8545 10.8407ZM66.5688 10.884C66.3161 10.8829 66.3077 10.9546 66.5603 10.9556C66.813 10.9566 66.8215 10.885 66.5688 10.884ZM67.3465 10.8871C67.0938 10.886 67.0854 10.9577 67.3381 10.9587C67.5908 10.9597 67.5992 10.8881 67.3465 10.8871ZM128.117 11.1339C127.864 11.1328 127.855 11.2044 128.108 11.2055C128.364 11.2065 128.372 11.1349 128.117 11.1339ZM196.681 11.4121C196.428 11.4111 196.42 11.4827 196.672 11.4837C196.925 11.4847 196.934 11.4131 196.681 11.4121ZM207.589 11.4564C207.336 11.4554 207.328 11.527 207.58 11.528C207.833 11.529 207.842 11.4574 207.589 11.4564ZM236.222 11.5728L235.444 11.5697L235.427 11.7125L236.222 11.5728ZM269.316 11.85L269.333 11.7073L268.943 11.7058L268.926 11.8485L269.316 11.85ZM273.618 11.7243L272.84 11.7212L272.832 11.7928L273.609 11.7959L273.618 11.7243ZM12.0206 10.734C11.7679 10.733 11.7594 10.8046 12.0121 10.8057C12.2648 10.8067 12.2733 10.7351 12.0206 10.734ZM34.2267 10.8242C33.9741 10.8232 33.9656 10.8948 34.2183 10.8958C34.471 10.8969 34.4794 10.8252 34.2267 10.8242ZM47.2573 11.02L47.2742 10.8773L46.2831 11.0164L45.5137 10.9417L44.1324 11.0792L46.8586 11.0901L46.8418 11.2328L48.81 11.0622L47.2573 11.02ZM52.314 11.1122L51.7553 10.8953C51.4998 10.9288 50.7473 11.0241 50.5704 11.0334C49.6439 11.0813 48.9476 10.9041 49.1806 11.2421L49.7815 11.1014L52.314 11.1122ZM85.2569 11.0313C85.0042 11.0303 84.9958 11.1019 85.2485 11.1029C85.5012 11.104 85.5096 11.0324 85.2569 11.0313ZM91.8803 11.0581C91.6276 11.0571 91.6192 11.1287 91.8718 11.1297C92.1245 11.1308 92.133 11.0592 91.8803 11.0581ZM189.44 11.6687L188.103 11.4487L188.277 11.628L187.477 11.8037L189.229 11.8109L189.44 11.6687ZM243.031 11.6718C242.778 11.6707 242.769 11.7424 243.022 11.7434C243.275 11.7444 243.283 11.6728 243.031 11.6718ZM294.841 11.882C294.589 11.8809 294.58 11.9526 294.833 11.9536C295.086 11.9546 295.094 11.883 294.841 11.882ZM303.41 11.9165C303.158 11.9155 303.149 11.9871 303.402 11.9881C303.655 11.9891 303.663 11.9175 303.41 11.9165ZM16.8723 10.8969L15.9064 10.8216L15.7071 10.8567L16.8639 10.9685L16.8723 10.8969ZM62.6548 11.0112C62.4021 11.0102 62.3937 11.0818 62.6464 11.0829C62.8991 11.0839 62.9075 11.0123 62.6548 11.0112ZM68.6942 11.0355L67.5262 11.0308L67.5178 11.1024L68.6858 11.1071L68.6942 11.0355ZM107.648 11.1936L106.09 11.1874L106.082 11.2591L107.64 11.2652L107.648 11.1936ZM116.583 11.4445C116.47 11.3595 116.043 11.3358 116.218 11.2287L115.827 11.2271L115.802 11.4415L116.583 11.4445ZM121.479 11.2498C121.226 11.2488 121.218 11.3204 121.471 11.3214C121.723 11.3224 121.732 11.2508 121.479 11.2498ZM192.963 11.5399L191.795 11.5352L191.779 11.6779L192.947 11.6826L192.963 11.5399ZM248.652 11.9088L248.084 11.7635L246.712 11.8294L246.703 11.901C247.29 11.9428 247.604 11.833 247.686 11.8335C247.767 11.8341 248.056 11.9459 248.652 11.9088ZM12.0037 10.8773C11.751 10.8762 11.7426 10.9479 11.9953 10.9489C12.248 10.9494 12.2564 10.8783 12.0037 10.8773ZM18.2368 10.9025C17.9841 10.9015 17.9757 10.9731 18.2284 10.9741C18.4811 10.9747 18.4895 10.9036 18.2368 10.9025ZM31.2871 10.9556L30.5093 10.9525L31.0765 11.0978L31.2702 11.0988L31.2871 10.9556ZM32.4382 11.1029L32.4551 10.9602L32.0648 10.9587L32.048 11.1014L32.4382 11.1029ZM34.2071 10.9674C33.9544 10.9664 33.946 11.038 34.1987 11.0391C34.4514 11.0396 34.4626 10.9685 34.2071 10.9674ZM40.0527 10.9911L39.8534 11.0262L40.4262 11.1359L40.6255 11.1009L40.0527 10.9911ZM41.9985 10.9989C41.7458 10.9978 41.7374 11.0695 41.9901 11.0705C42.2428 11.0715 42.2512 10.9999 41.9985 10.9989ZM43.5568 11.0051C43.3041 11.004 43.2957 11.0756 43.5483 11.0767C43.801 11.0777 43.8095 11.0061 43.5568 11.0051ZM55.2453 11.0525C54.9926 11.0514 54.9842 11.123 55.2368 11.1241C55.4895 11.1251 55.498 11.0535 55.2453 11.0525ZM56.8036 11.0592C56.5509 11.0581 56.5424 11.1297 56.7951 11.1308C57.0478 11.1313 57.0562 11.0602 56.8036 11.0592ZM58.7493 11.0669C58.4966 11.0658 58.4882 11.1375 58.7409 11.1385C58.9936 11.1395 59.0048 11.0679 58.7493 11.0669ZM78.6195 11.1473C78.3668 11.1462 78.3583 11.2178 78.611 11.2189C78.8637 11.2199 78.8722 11.1483 78.6195 11.1473ZM157.892 11.4693L157.115 11.4662L157.682 11.6115L157.876 11.6125L157.892 11.4693ZM171.723 11.5254C171.47 11.5244 171.462 11.596 171.715 11.5971C171.967 11.5976 171.976 11.5265 171.723 11.5254ZM186.525 11.5852C186.273 11.5842 186.264 11.6558 186.517 11.6568C186.77 11.6579 186.778 11.5862 186.525 11.5852ZM197.824 11.6311C197.571 11.63 197.563 11.7016 197.815 11.7027C198.068 11.7037 198.076 11.6321 197.824 11.6311ZM209.509 11.6785C209.257 11.6774 209.248 11.749 209.501 11.7501C209.754 11.7511 209.762 11.6795 209.509 11.6785ZM219.64 11.7197C219.387 11.7186 219.378 11.7903 219.631 11.7913C219.884 11.7923 219.892 11.7207 219.64 11.7197ZM25.2393 11.0025C24.9866 11.0014 24.9781 11.0731 25.2308 11.0741C25.4835 11.0746 25.492 11.0035 25.2393 11.0025ZM26.6038 11.0076L25.8261 11.0045L25.8177 11.0762L26.5954 11.0792L26.6038 11.0076ZM39.4575 11.0602L37.8992 11.054L37.8824 11.1967L38.4748 11.1277L39.4407 11.2029L39.4575 11.0602ZM42.7706 11.0736C42.5179 11.0725 42.5095 11.1442 42.7622 11.1452C43.0149 11.1457 43.0233 11.0746 42.7706 11.0736ZM121.249 11.5347L120.488 11.3889L120.471 11.5316L121.249 11.5347ZM189.81 11.8129L190.992 11.7104L190.802 11.6738L189.819 11.7413L189.81 11.8129ZM11.5966 11.0184C11.3439 11.0174 11.3355 11.089 11.5882 11.0901C11.8409 11.0911 11.8493 11.0195 11.5966 11.0184ZM26.9744 11.1524L27.5416 11.2977C27.9627 11.2323 28.2632 11.1936 28.1509 11.0859C27.6904 11.106 27.5612 11.1844 26.9744 11.1524ZM79.3803 11.2936C79.1277 11.2926 79.1192 11.3642 79.3719 11.3652C79.6246 11.3657 79.633 11.2946 79.3803 11.2936ZM99.4246 11.5177L98.4672 11.3709L97.4845 11.4384L97.476 11.51L99.4246 11.5177ZM108.988 11.4136C108.735 11.4126 108.727 11.4842 108.979 11.4852C109.232 11.4863 109.24 11.4147 108.988 11.4136ZM128.074 11.4909C127.822 11.4899 127.813 11.5615 128.066 11.5625C128.319 11.5636 128.327 11.4919 128.074 11.4909ZM181.443 11.7078C181.191 11.7068 181.182 11.7784 181.435 11.7794C181.688 11.78 181.696 11.7089 181.443 11.7078ZM169.165 11.7295L167.607 11.7233L167.599 11.7949L168.379 11.798L168.556 11.9417L169.165 11.7295ZM41.9648 11.2848C41.7121 11.2838 41.7037 11.3554 41.9564 11.3564C42.2091 11.357 42.2175 11.2859 41.9648 11.2848ZM92.3885 11.7037L92.7984 11.5265L92.6075 11.4899L91.9982 11.7016L92.3885 11.7037ZM115.982 11.5852C115.729 11.5842 115.721 11.6558 115.973 11.6568C116.226 11.6573 116.234 11.5862 115.982 11.5852ZM146.934 11.8536L146.951 11.7109L146.56 11.7089L146.544 11.8516L146.934 11.8536ZM12.1553 11.2354L11.3776 11.2323L11.9419 11.3771L12.1357 11.3781L12.1553 11.2354ZM12.7393 11.2374C12.4866 11.2364 12.4782 11.308 12.7309 11.309C12.9836 11.3101 12.992 11.2385 12.7393 11.2374ZM14.6879 11.2452C14.4352 11.2441 14.4268 11.3157 14.6795 11.3168C14.9322 11.3178 14.9406 11.2462 14.6879 11.2452ZM66.4986 11.4559C66.2459 11.4549 66.2375 11.5265 66.4902 11.5275C66.7428 11.528 66.7513 11.4569 66.4986 11.4559ZM159.993 11.8351C159.74 11.8341 159.731 11.9057 159.984 11.9067C160.237 11.9077 160.245 11.8361 159.993 11.8351ZM173.239 11.8887C172.987 11.8876 172.978 11.9593 173.231 11.9603C173.484 11.9613 173.492 11.8897 173.239 11.8887ZM29.872 11.3786C29.6193 11.3776 29.6109 11.4492 29.8636 11.4502C30.1163 11.4507 30.1247 11.3796 29.872 11.3786ZM34.1566 11.3961L33.9572 11.4311L34.909 11.6135L35.1084 11.5785L34.1566 11.3961ZM42.5067 11.6445L42.1417 11.4286C41.3555 11.4636 41.2488 11.577 41.3274 11.7114L42.5067 11.6445ZM42.7257 11.4306L42.5263 11.4657L43.8684 11.6496L43.8937 11.4353L43.1047 11.5038L42.7257 11.4306ZM50.9074 11.4641C50.6547 11.4631 50.6462 11.5347 50.8989 11.5357C51.1516 11.5363 51.16 11.4646 50.9074 11.4641ZM52.0754 11.4688C51.8227 11.4677 51.8142 11.5393 52.0669 11.5404C52.3196 11.5409 52.3281 11.4698 52.0754 11.4688ZM55.3885 11.4822L54.6107 11.4791L54.6023 11.5507L55.38 11.5538L55.3885 11.4822ZM98.4335 11.6568C98.1808 11.6558 98.1724 11.7274 98.425 11.7284C98.6777 11.729 98.6862 11.6579 98.4335 11.6568ZM38.0424 11.4832C37.7897 11.4822 37.7813 11.5538 38.034 11.5548C38.2867 11.5558 38.2979 11.4842 38.0424 11.4832ZM97.841 11.7259L97.0633 11.7228L97.0549 11.7944L97.8326 11.7975L97.841 11.7259ZM17.5826 11.4713L16.8049 11.4682L16.7965 11.5399L17.5742 11.543L17.5826 11.4713ZM18.7506 11.4765L17.9729 11.4734L17.9645 11.545L18.7422 11.5481L18.7506 11.4765ZM36.866 11.5497C36.6133 11.5486 36.6049 11.6202 36.8576 11.6213C37.1103 11.6223 37.1187 11.5507 36.866 11.5497ZM26.3399 11.5785C26.0872 11.5775 26.0788 11.6491 26.3315 11.6501C26.5842 11.6512 26.5926 11.5795 26.3399 11.5785ZM35.6811 11.6877C35.4284 11.6867 35.42 11.7583 35.6727 11.7594C35.9254 11.7604 35.9338 11.6888 35.6811 11.6877Z" fill="url(#paint4_linear_1701_4716)"/>
<path d="M8.66555 11.0768C8.66555 11.1005 8.65432 11.1242 8.65713 11.1484C8.37074 11.1695 7.94959 11.235 7.86816 11.2169L7.88501 11.0742L8.66555 11.0768Z" fill="url(#paint5_linear_1701_4716)"/>
<path d="M504.698 11.944L504.689 12.0156L505.47 12.0188L505.478 11.9472L504.698 11.944Z" fill="url(#paint6_linear_1701_4716)"/>
<path d="M482.728 11.6445C482.981 11.6456 482.972 11.7172 482.72 11.7162C482.467 11.7146 482.475 11.6435 482.728 11.6445Z" fill="url(#paint7_linear_1701_4716)"/>
<path d="M6.93011 10.9258C7.18281 10.9268 7.17438 10.9984 6.92169 10.9974C6.669 10.9964 6.67742 10.9248 6.93011 10.9258Z" fill="url(#paint8_linear_1701_4716)"/>
</g>
<defs>
<linearGradient id="paint0_linear_1701_4716" x1="13.7363" y1="12.0971" x2="0.314137" y2="-0.932836" gradientUnits="userSpaceOnUse">
<stop offset="0.129808" stop-color="white" stop-opacity="0"/>
<stop offset="0.346154" stop-color="#CCCCCC"/>
<stop offset="0.663462" stop-color="#B3B3B3"/>
<stop offset="0.913462" stop-color="#999999" stop-opacity="0"/>
</linearGradient>
<linearGradient id="paint1_linear_1701_4716" x1="502.736" y1="12.0102" x2="514.917" y2="-0.997479" gradientUnits="userSpaceOnUse">
<stop offset="0.129808" stop-color="white" stop-opacity="0"/>
<stop offset="0.346154" stop-color="#CCCCCC"/>
<stop offset="0.663462" stop-color="#B3B3B3"/>
<stop offset="0.913462" stop-color="#999999" stop-opacity="0"/>
</linearGradient>
<linearGradient id="paint2_linear_1701_4716" x1="495.356" y1="11.909" x2="497.759" y2="11.909" gradientUnits="userSpaceOnUse">
<stop stop-color="white" stop-opacity="0"/>
<stop offset="0.15" stop-color="white"/>
<stop offset="0.85" stop-color="white"/>
<stop offset="1" stop-color="white" stop-opacity="0"/>
</linearGradient>
<linearGradient id="paint3_linear_1701_4716" x1="499.657" y1="11.9276" x2="500.052" y2="11.9276" gradientUnits="userSpaceOnUse">
<stop stop-color="white" stop-opacity="0"/>
<stop offset="0.15" stop-color="white"/>
<stop offset="0.85" stop-color="white"/>
<stop offset="1" stop-color="white" stop-opacity="0"/>
</linearGradient>
<linearGradient id="paint4_linear_1701_4716" x1="4.78438" y1="12.1405" x2="511.733" y2="12.1405" gradientUnits="userSpaceOnUse">
<stop stop-color="white" stop-opacity="0"/>
<stop offset="0.15" stop-color="white"/>
<stop offset="0.85" stop-color="white"/>
<stop offset="1" stop-color="white" stop-opacity="0"/>
</linearGradient>
<linearGradient id="paint5_linear_1701_4716" x1="7.86497" y1="11.22" x2="8.67352" y2="11.22" gradientUnits="userSpaceOnUse">
<stop stop-color="white" stop-opacity="0"/>
<stop offset="0.15" stop-color="white"/>
<stop offset="0.85" stop-color="white"/>
<stop offset="1" stop-color="white" stop-opacity="0"/>
</linearGradient>
<linearGradient id="paint6_linear_1701_4716" x1="505.47" y1="12.0191" x2="505.47" y2="11.9464" gradientUnits="userSpaceOnUse">
<stop stop-color="white" stop-opacity="0"/>
<stop offset="0.15" stop-color="white"/>
<stop offset="0.85" stop-color="white"/>
<stop offset="1" stop-color="white" stop-opacity="0"/>
</linearGradient>
<linearGradient id="paint7_linear_1701_4716" x1="482.533" y1="11.7162" x2="482.917" y2="11.7162" gradientUnits="userSpaceOnUse">
<stop stop-color="white" stop-opacity="0"/>
<stop offset="0.15" stop-color="white"/>
<stop offset="0.85" stop-color="white"/>
<stop offset="1" stop-color="white" stop-opacity="0"/>
</linearGradient>
<linearGradient id="paint8_linear_1701_4716" x1="6.73481" y1="10.9974" x2="7.11926" y2="10.9974" gradientUnits="userSpaceOnUse">
<stop stop-color="white" stop-opacity="0"/>
<stop offset="0.15" stop-color="white"/>
<stop offset="0.85" stop-color="white"/>
<stop offset="1" stop-color="white" stop-opacity="0"/>
</linearGradient>
</defs>
</svg>
