<svg width="350" height="85" viewBox="0 0 350 85" fill="none" xmlns="http://www.w3.org/2000/svg">
<g clip-path="url(#clip0_2028_10431)">
<mask id="mask0_2028_10431" style="mask-type:luminance" maskUnits="userSpaceOnUse" x="308" y="41" width="21" height="31">
<path d="M308.611 71.7177H318.268L328.827 41.6992H319.141L308.611 71.7177Z" fill="white"/>
</mask>
<g mask="url(#mask0_2028_10431)">
<path d="M295.8 64.2059L313.651 32.8164L341.609 49.2109L323.759 80.5718L295.8 64.2059Z" fill="white"/>
</g>
<path d="M328.995 14.3672L324.237 27.6199L340.145 71.7193H349.999L328.995 14.3672Z" fill="white"/>
<mask id="mask1_2028_10431" style="mask-type:luminance" maskUnits="userSpaceOnUse" x="293" y="13" width="31" height="59">
<path d="M313.962 13.2812L293.38 71.7187H303.066L323.619 13.2812H313.962Z" fill="white"/>
</mask>
<g mask="url(#mask1_2028_10431)">
<path d="M268.435 57.0951L300.954 0L348.565 27.8763L316.074 85L268.435 57.0951Z" fill="white"/>
</g>
<path d="M238.251 29.0195C227.355 29.0195 221.414 36.6741 221.414 46.0995V71.6909H230.002V45.0427C230.002 40.4157 233.718 36.6741 238.251 36.6741C242.812 36.6741 246.247 40.4443 246.247 45.0427V71.6909H255.088V46.0995C255.088 36.6741 247.543 29.0195 238.251 29.0195Z" fill="white"/>
<path d="M8.92527 45.1846H37.8409V37.1016H8.92527V21.2497H40.0933V13.1953H0V71.7185H40.769V63.6069H8.92527V45.1846Z" fill="white"/>
<path d="M57.2963 13.1953H48.7371V71.7185H57.2963V13.1953Z" fill="white"/>
<path d="M204.718 31.3619C201.818 29.8766 198.693 29.1055 195.314 29.1055C191.541 29.1055 188.191 29.9909 185.234 31.7332C182.306 33.4754 179.969 35.9603 178.308 39.1592C176.619 42.3582 175.774 46.0998 175.774 50.3555C175.774 54.6683 176.591 58.924 178.224 62.1229C179.857 65.3219 182.137 67.8067 185.094 69.549C188.022 71.2913 191.457 72.1767 195.398 72.1767C199.875 72.1767 203.648 71.0914 206.745 68.9778C209.842 66.8356 212.067 63.8081 213.418 59.838L213.925 57.7815H205.957H205.337C203.676 62.6085 200.495 64.8934 195.511 64.8934C192.358 64.8934 189.458 63.9509 187.515 61.8944C185.544 59.8094 184.333 57.296 184.08 53.5258H214.009C214.15 52.4119 214.234 51.298 214.234 50.1841C214.234 45.757 213.362 41.1871 211.644 38.1596C209.927 35.1035 207.618 32.8471 204.718 31.3619ZM184.024 46.8995C184.587 43.1865 186.361 40.5302 188.163 38.7879C189.965 37.0742 192.33 36.1888 195.258 36.1888C198.214 36.1888 200.579 37.0457 202.353 38.7879C204.127 40.5302 205.957 43.3007 206.266 46.8995H184.024Z" fill="white"/>
<path d="M277.866 63.0053C276.824 63.0053 275.979 62.2056 275.979 61.2059V36.6142H286.087V29.1881H275.979V17.4492H267.392V29.1881H260.916V36.6142H267.392V61.2059C267.392 67.004 272.094 71.7167 277.838 71.7167H286.819V63.0053H277.866Z" fill="white"/>
<path d="M151.504 29.0195C146.521 29.0195 142.016 31.2474 138.947 34.7605C135.85 31.2474 131.373 29.0195 126.39 29.0195C115.325 29.0195 109.553 36.6741 109.553 46.0995V71.6909H118.394V45.0427C118.394 40.4157 121.828 36.6741 126.39 36.6741C130.951 36.6741 134.639 40.4443 134.639 45.0427V71.6909H134.667H143.227H143.255V45.0427C143.255 40.4157 146.971 36.6741 151.504 36.6741C156.065 36.6741 159.5 40.4443 159.5 45.0427V71.6909H168.341V46.0995C168.369 36.6741 160.796 29.0195 151.504 29.0195Z" fill="white"/>
<path d="M93.6169 31.3619C90.7169 29.8766 87.5916 29.1055 84.213 29.1055C80.4401 29.1055 77.0896 29.9909 74.1333 31.7332C71.2052 33.4754 68.8683 35.9603 67.2071 39.1592C65.5178 42.3582 64.6731 46.0998 64.6731 50.3555C64.6731 54.6683 65.4896 58.924 67.1226 62.1229C68.7556 65.3219 71.0362 67.8067 73.9925 69.549C76.9207 71.2913 80.3557 72.1767 84.2974 72.1767C88.7741 72.1767 92.547 71.0914 95.6441 68.9778C98.7412 66.8356 100.965 63.8081 102.317 59.838L102.824 57.7815H94.8557H94.2363C92.5751 62.6085 89.3936 64.8934 84.41 64.8934C81.2566 64.8934 78.3566 63.9509 76.4139 61.8944C74.443 59.8094 73.2323 57.296 72.9789 53.5258H102.908C103.049 52.4119 103.133 51.298 103.133 50.1841C103.133 45.757 102.261 41.1871 100.543 38.1596C98.7975 35.1035 96.4887 32.8471 93.6169 31.3619ZM72.9226 46.8995C73.4857 43.1865 75.2595 40.5302 77.0615 38.7879C78.8634 37.0742 81.2285 36.1888 84.1566 36.1888C87.113 36.1888 89.478 37.0457 91.2518 38.7879C92.9974 40.5302 94.8557 43.3007 95.1654 46.8995H72.9226Z" fill="white"/>
</g>
<defs>
<clipPath id="clip0_2028_10431">
<rect width="350" height="85" fill="white"/>
</clipPath>
</defs>
</svg>
