<svg width="500" height="8" viewBox="0 0 500 8" fill="none" xmlns="http://www.w3.org/2000/svg">
<g opacity="0.8">
<path d="M491.002 2.98828L490.783 3.41553L488.632 3.54143L489.045 3.11522L491.002 2.98828Z" fill="url(#paint0_linear_1580_4909)"/>
<path d="M492.925 3.43359L493.315 3.43669L493.113 3.57807C492.86 3.57704 492.944 3.43669 492.925 3.43359Z" fill="url(#paint1_linear_1580_4909)"/>
<path d="M30.4443 0.821199L31.2192 0.898598L30.4696 0.39189C32.3002 0.48993 34.7794 0.313459 36.509 0.441426C37.7247 0.531209 39.6873 0.534305 40.7936 0.476514C41.9588 0.414594 42.5961 0.587969 43.5199 0.498186C44.4886 0.404274 44.9013 0.795399 45.0613 0.797463C45.359 0.719032 45.9795 0.558041 46.2462 0.520889C47.7202 0.317587 49.4891 0.6664 51.3113 0.562169C54.3324 0.389826 58.9877 0.678784 62.2278 0.507474C65.1534 0.352675 68.1521 0.488898 70.797 0.577649L71.9818 0.301075L72.3637 0.447618L72.9561 0.309331L72.9392 0.595193C73.5598 0.678784 73.7675 0.46929 73.922 0.460002C74.433 0.430074 75.7722 0.332035 75.8789 0.333067C76.0081 0.334099 76.112 0.46929 76.2608 0.47961C77.6759 0.577649 79.0489 0.477546 80.1383 0.797463C80.829 0.385698 81.6179 0.595193 82.4939 0.530177C83.6086 0.447618 84.114 0.449682 85.2202 0.551849C86.2479 0.647824 88.7383 0.364027 89.9035 0.446586C93.3402 0.6922 98.0291 -0.0178103 101.971 0.688072C103.041 0.154532 105.29 0.547721 106.646 0.726256L107.036 0.729352C108.853 0.152468 112.388 0.617897 114.845 0.506442C117.495 0.385698 120.075 0.415626 122.246 0.566297C123.411 0.646792 124.152 0.455874 124.593 0.442458C126.749 0.375379 129.215 0.541529 131.41 0.498186L131.587 0.786111C132.486 0.354739 135.133 0.442458 136.27 0.680848C152.943 0.657112 170.387 0.562169 188.098 0.816039C189.946 0.451746 192.043 0.787143 194.34 0.72316L196.457 1.17001L195.499 0.875895C195.117 0.800559 195.803 0.602417 195.906 0.593129C196.297 0.558041 198.164 0.582809 198.633 0.614801C199.54 0.677752 200.286 0.562169 201.359 0.636473C205.085 0.895502 209.611 0.509538 213.825 0.737608C214.951 0.798495 218.116 0.693232 218.899 0.63544C220.207 0.538433 222.338 0.740704 223.768 0.674656L224.141 0.963614L224.354 0.678784C225.396 0.641632 225.817 0.833583 225.904 0.834615C227.606 0.848031 233.182 0.853191 234.872 0.764439C238.517 0.572489 245.109 0.770631 248.897 0.877959L249.287 0.881055C250.135 0.259795 253.122 0.815007 253.58 0.772695C256.273 0.523985 259.28 0.921302 260.203 0.826359C261.764 0.665368 270.174 0.65092 271.898 0.777855C273.697 0.910982 276.676 0.580745 277.749 0.68188C278.723 0.773727 284.577 0.962582 285.922 0.891374C286.854 0.841839 288.132 0.822231 289.047 0.773727C290.131 0.716968 291.554 0.730384 292.147 1.08539L292.944 0.805719C293.671 1.18756 295.165 0.843903 295.671 0.827391C300.604 0.672592 306.27 0.972902 310.481 0.804687L310.863 0.95123L311.456 0.812943L312.208 1.24844L312.04 0.817071C313.062 0.906854 313.766 0.601385 314.774 0.696328C315.886 0.801591 318.301 0.96155 319.831 0.881055C319.98 0.872799 320.101 0.739672 320.23 0.740704C320.311 0.741736 320.6 0.965678 321.196 0.891374L321.179 1.17724C321.364 1.17001 321.594 1.2051 321.763 1.1824C322.001 1.14937 322.886 0.798495 323.346 0.765471C323.826 0.731416 325.556 0.752056 326.073 0.787143C326.221 0.797463 326.32 0.93059 326.454 0.933686C326.519 0.934718 326.864 0.714904 327.437 0.798495L327.614 1.08642C328.268 0.683944 329.271 0.927494 329.978 0.675688L331.918 0.834615L332.511 0.696328L332.884 0.985286L333.286 0.773727L333.477 0.846999C333.628 0.837711 333.732 0.711808 333.875 0.706648C336.874 0.601385 339.735 0.667432 342.843 0.636473C345.039 0.613769 348.287 0.375379 350.253 0.553913C351.367 0.655048 352.14 0.44865 352.6 0.430074C353.271 0.40221 354.049 0.46413 354.742 0.447618L354.529 0.732448C355.335 0.305203 356.57 0.488898 357.856 0.473418L357.449 0.756184C357.763 0.742768 358.165 0.789207 358.423 0.764439C358.569 0.749992 359.572 0.378475 360.007 0.347515C361.604 0.235028 364.171 0.490962 365.85 0.394986C370.294 0.141116 375.534 0.642664 380.66 0.372283C382.233 0.289723 384.162 0.326875 386.124 0.273211L387.275 0.569393L388.073 0.289723L389.423 0.515729L389.047 0.297979C390.134 0.282499 391.277 0.349579 392.357 0.324811C397.288 0.21026 408.322 0.0472051 412.624 0.346483C413.573 0.41253 415.187 0.421818 415.74 0.372283C417.644 0.202004 424.149 0.167948 426.266 0.314491C429.459 0.536369 434.19 0.172076 437.565 0.406338C440.1 0.582809 443.259 0.145244 445.755 0.329971C446.395 0.377443 447.925 0.490962 448.473 0.49509C448.54 0.496122 448.77 0.314491 449.649 0.361963L449.826 0.649888L450.233 0.367123C450.668 0.389826 451.202 0.344419 451.598 0.378475C453.386 0.529145 454.714 0.42801 456.654 0.563201C457.895 0.648856 464.027 0.720064 465.614 0.636473C466.987 0.564233 468.851 0.610673 469.882 0.957422L470.095 0.672592L472.813 0.837711L472.796 1.12357L473.77 1.13183C474.556 0.804687 475.812 0.955358 476.522 0.724192L477.283 1.01625C478.308 0.624089 479.658 1.12667 480.79 1.04514C480.961 1.03276 481.146 0.826359 481.772 0.90995L480.95 1.61893L481.542 1.48064L482.101 1.91511L482.884 1.85009L483.308 1.28044L482.151 1.05649L484.285 1.21748C485.908 0.931622 487.635 1.34958 489.35 1.25876C490.707 1.18756 491.627 1.59106 492.467 1.28456L493.04 1.50438L492.248 1.71284C492.995 1.8181 493.306 1.46723 493.629 1.4373C494.491 1.35887 495.008 1.5859 495.763 1.59829L494.564 2.08952L494.941 2.30727L492.998 2.21955L493.57 2.43936L495.314 2.59623C495.193 1.97497 495.996 1.4084 497.906 1.6148C498.425 1.67053 498.742 2.00799 498.071 2.11738L498.644 2.33719L499.441 2.05753L500.003 2.41975L499.225 2.41356L499.59 2.84597L499.18 3.20097L498.4 3.19478L499.206 2.77166L498.038 2.76238L498.054 2.47651L497.277 2.47032L498.021 3.04927L496.081 2.89034L496.85 3.03998L497.018 3.47135L497.585 3.76238L495.435 3.88828L494.079 3.73451L494.104 3.3052L493.315 3.44246L493.13 3.29798L492.927 3.43936C492.779 3.41666 492.506 3.47032 492.343 3.4342C491.841 3.32378 491.408 2.92233 491.411 2.71078L490.819 2.84906C490.021 2.43523 488.938 2.42698 488.093 2.82739L486.933 2.67466L486.324 3.0988L487.876 3.18343C488.598 3.05237 487.879 3.37847 487.669 3.39602C486.604 3.48683 486.363 3.03276 485.737 3.09364L484.153 3.51057L484.375 3.08332C483.763 3.03792 483.609 3.19478 483.002 3.21542C481.904 3.2536 481.214 3.28044 480.267 3.33616C478.737 3.42595 478.1 3.05753 476.777 3.02141L475.059 2.43523L475.228 2.86661L475.014 3.15144C474.576 3.16692 474.054 3.11428 473.65 3.14008C473.501 3.14937 473.405 3.26805 473.251 3.28044C472.282 3.35474 471.763 3.06681 470.915 3.26186C470.404 2.92027 469.562 3.03689 468.992 2.81707L469.168 3.105C468.73 3.11944 468.208 3.06785 467.804 3.09364C467.652 3.10293 467.548 3.2278 467.405 3.234C465.982 3.28766 464.356 3.08229 463.511 3.202L462.75 2.90995L461.953 3.18962L461.183 3.03998C460.293 3.40015 459.322 2.97084 458.26 3.01625L457.887 2.72729L457.665 3.15453L457.488 2.86661L456.711 2.86041L456.694 3.14628C456.508 3.13492 456.273 3.16795 456.11 3.14112C455.896 3.10603 455.849 2.94504 455.34 2.99148C452.712 3.23503 449.818 3.22471 447.159 2.92543L445.974 3.202L445.592 3.05546L444.219 3.18756L444.432 2.90273L443.248 3.1793C442.995 3.15969 442.697 3.19891 442.47 3.17311C441.498 3.06165 440.299 3.23709 438.963 3.14421C437.806 3.06372 436.394 3.01831 434.678 3.10912C433.081 3.19375 430.301 3.10293 428.437 3.202C427.673 3.24225 426.707 3.15556 425.904 3.18136L426.118 2.89653C425.727 3.02553 425.059 3.14834 424.542 3.17001C422.861 3.24019 421.499 3.18549 420.249 3.27837C418.764 3.38776 417.776 2.82842 416.734 3.39292C415.81 3.09468 414.334 3.34648 413.244 3.07817L412.059 3.35474C410.153 3.00386 407.429 3.5116 405.048 3.29798C404.007 3.20407 401.457 3.1793 399.983 3.2567C399.725 3.27012 399.688 3.53018 399.206 3.25051L398.613 3.38879L398.436 3.10087C398.04 3.33513 397.431 3.19168 396.869 3.2309C396.715 3.24122 396.617 3.36403 396.471 3.37125C394.011 3.48271 392.282 3.28044 389.847 3.31759C389.224 3.32688 389.019 3.32172 388.474 3.44968L389.272 3.17001C389.314 3.01728 389.508 2.60861 388.713 2.73554C387.882 2.86867 388.3 3.31346 387.5 3.44143L386.731 3.29179C385.981 3.69014 383.14 3.23193 382.836 3.2598C381.082 3.42182 379.557 3.36506 377.754 3.50438C376.744 3.58281 376.087 3.27424 375.427 3.34236C372.877 3.60448 370.3 3.21129 367.627 3.42182C367.324 3.44555 367.074 3.62409 366.06 3.55185C364.954 3.47239 363.418 3.49199 362.174 3.37744C360.745 3.24535 360.392 3.75722 359.431 3.64163C357.505 3.40943 355.767 3.41253 353.967 3.7407L353.577 3.73761C352.468 3.32894 350.969 3.44143 349.503 3.41769L349.486 3.70355C348.672 3.82533 347.212 3.51676 346.962 3.53947C345.227 3.70046 343.843 3.76547 342.296 3.35887L341.111 3.63544C340.732 3.61686 340.297 3.65092 339.943 3.62615C339.314 3.58075 337.472 3.54256 336.436 3.59726C334.911 3.67775 333.224 3.57352 331.362 3.69942L330.602 3.40737L329.026 3.68085L327.477 3.52502C324.958 3.84081 322.145 3.56423 320.059 3.75102C318.233 3.91408 316.832 3.55288 314.985 3.85319L313.834 3.55701L313.045 3.69426L312.104 3.11428L312.874 3.26392C313.003 2.99251 312.475 2.79024 311.731 2.82533L312.104 3.11428C311.633 3.06269 311.037 3.10397 311.312 3.32275C311.647 3.58797 312.545 3.45278 312.461 3.69014L310.7 3.81914L309.159 3.51986L307.974 3.79643L307.415 3.36196L307.025 3.35887L307.008 3.64473L305.441 3.77476L305.088 3.19891L303.743 2.90169L304.877 3.48374L304.47 3.7665L302.319 3.89241L302.336 3.60654L300.955 3.88209L300.573 3.73554C300.447 3.73451 300.337 3.85938 300.174 3.8759C299.425 3.94813 298.984 3.64473 298.234 3.71697C296.987 3.83771 295.03 3.98838 293.16 3.81914C291.094 3.63131 287.924 3.95536 285.759 3.75928C284.35 3.63131 282.365 3.95639 281.076 3.86454C279.349 3.74174 277.791 3.75206 275.623 3.82017C274.262 3.86248 272.911 3.86145 271.94 3.50438L271.923 3.79024L268.424 3.61893L268.441 3.33307L268.051 3.32997L268.034 3.61583L265.094 3.87796C264.084 3.43214 260.265 3.90892 259.642 3.83358C259.482 3.81398 259.403 3.69839 259.26 3.68704C258.404 3.62409 257.247 3.70974 256.337 3.6633L256.744 3.38054L255.77 3.37228C255.545 3.4342 254.683 3.64163 254.585 3.64886C253.249 3.7438 250.688 3.3341 249.52 3.60758L248.551 3.52811L248.928 3.74586L247.192 3.44555C247.041 3.46 246.954 3.56836 246.794 3.58591C244.969 3.78611 242.546 3.53534 240.544 3.8212L239.393 3.52502C237.683 3.6953 235.071 3.90066 233.55 3.47755C233.421 3.47651 233.303 3.60964 233.151 3.6179C228.841 3.85319 223.234 3.58694 219.126 3.50438L217.551 3.77786C216.908 3.54566 215.106 3.53018 214.435 3.75206L213.674 3.46C213.418 3.47548 213.129 3.43111 212.896 3.45381C212.733 3.46929 212.624 3.59519 212.497 3.59416C212.416 3.59313 212.127 3.36919 211.531 3.44349L211.708 3.73142C211.06 3.37125 210.375 3.70562 210.15 3.71903C208.336 3.8212 205.753 3.57146 203.917 3.66846C202.516 3.74277 200.236 3.53018 198.464 3.62409C197.746 3.66227 197.47 3.60035 197.296 3.6148C197.08 3.63234 196.628 3.86145 195.923 3.7469L195.94 3.46103L194.949 3.73967L194.567 3.59313L193.778 3.73038L193.396 3.58384C192.189 3.87177 191.206 3.60035 189.881 3.69839C188.87 3.7727 187.284 3.6179 186.18 3.66846L186.588 3.3857L185.206 3.66124C185.077 3.66021 184.973 3.52605 184.824 3.5147C183.465 3.41769 181.11 4.04514 179.759 3.47342C178.602 3.86557 176.025 3.44349 175.084 3.43523C175.003 3.4342 174.688 3.65402 174.102 3.57043C174.304 3.19788 173.372 3.19272 172.774 2.98735L172.173 3.26908L173.706 3.71078L172.35 3.55701C170.516 3.82326 168.688 3.31656 166.869 3.94194L165.701 3.93265L164.55 3.63647L163.575 3.62822L163.559 3.91408C163.123 3.89137 162.59 3.93678 162.194 3.90273C161.467 3.84184 160.821 3.78302 160.254 3.7438C159.26 3.67466 158.207 3.84287 157.34 3.57662L157.314 4.00593L156.146 3.99664L156.171 3.56733C155.551 3.48374 155.34 3.69426 155.189 3.70252C153.701 3.78302 151.688 3.60345 150.124 3.66124C148.849 3.70871 149.343 3.7727 147.788 3.64266C147.226 3.59519 146.606 3.72626 146.238 3.48683L146.415 3.77476C145.87 3.7438 145.154 3.80572 144.663 3.76031C143.301 3.63647 142.054 3.90479 140.777 3.58591L138.811 3.85629C138.444 3.62099 137.845 3.74174 137.261 3.70046C136.175 3.62306 135.237 3.75102 134.145 3.67466C130.343 3.41047 124.874 3.8955 121.288 3.57043C119.924 3.44659 118.52 3.57249 117.383 3.68188C116.633 3.75412 116.324 3.48787 115.639 3.52502L115.816 3.81294L114.275 3.51367L112.893 3.78921L112.91 3.50335C112.469 3.51676 111.961 3.46929 111.545 3.49199C111.394 3.50025 111.276 3.63338 111.147 3.63234C111.018 3.63131 110.914 3.49612 110.765 3.4858C109.678 3.41047 108.465 3.47342 107.632 3.7469L107.657 3.31759L106.859 3.59726C105.832 3.6922 105.026 3.43936 104.919 3.43833C104.79 3.4373 104.669 3.57043 104.521 3.57868C103.027 3.65711 99.3094 3.62099 98.2874 3.52811C96.4118 3.35783 94.3622 3.74277 92.8236 3.62718C88.9264 3.33307 84.8637 3.75722 80.3573 3.52605C79.8238 3.49819 79.7901 3.42182 79.3914 3.37538L79.178 3.66021L78.7962 3.51367C77.9567 3.42904 77.1368 3.86867 76.4601 3.49509L76.637 3.78302L75.8593 3.77682L75.8761 3.49096L74.7081 3.48167L74.6913 3.76754C73.7619 3.82017 73.585 3.35887 72.5658 3.46413C72.4058 3.48064 72.3131 3.59623 72.1671 3.60448C70.3084 3.71078 67.6495 3.63441 65.934 3.55391L64.7491 3.83049L63.1992 3.67466C62.4384 3.95433 61.0373 3.75102 60.0827 3.64886C58.7658 3.50851 58.8557 3.55804 57.3564 3.62718C55.8598 3.6953 53.8551 3.43214 52.6731 3.73245L52.1143 3.29798L50.7582 3.14421L50.3427 3.57043L49.1915 3.27424L49.1746 3.56011C48.7956 3.65298 48.5373 3.4115 48.4053 3.41047C48.1021 3.4084 46.0019 3.51367 45.6706 3.53121C44.1629 3.61067 42.6326 3.55907 41.7763 3.49922C41.0182 3.44659 40.0439 3.51779 39.2437 3.47858L39.6677 2.90892L38.101 3.03895L38.466 3.47135L37.5001 3.32068L36.9077 3.45897L36.9245 3.17311L36.1468 3.16692L36.1299 3.45278C35.0462 3.34751 34.1926 3.66537 33.1987 3.57249C33.0443 3.55804 32.96 3.43523 32.8168 3.42595C31.7078 3.35577 30.5342 3.40943 29.6834 3.68704L29.8968 3.40221C29.456 3.41563 28.9478 3.36816 28.5322 3.39086C28.3806 3.39911 28.2627 3.53224 28.1335 3.53121C28.0044 3.53018 27.9005 3.39499 27.7517 3.38467C27.1059 3.33926 24.579 3.4115 24.4414 3.35784L24.4582 3.07197L23.1133 2.77476L23.2734 3.34855L22.5125 3.05649L22.4872 3.4858C21.8583 3.56011 21.673 3.34545 21.5213 3.33513C21.0468 3.30108 20.4516 3.35267 19.9631 3.32275C19.5503 3.29798 19.2274 3.2278 18.8035 3.17001C18.343 3.10809 19.2752 2.92853 19.0253 2.74277L17.627 3.30417L16.8577 3.15453C16.4281 3.34855 15.2292 3.32378 14.5105 3.27837C14.3645 3.26908 14.2718 3.13905 14.1286 3.13183C11.5258 3.00902 8.90061 3.10603 6.55055 2.78405L6.56739 2.49819L5.78965 2.49199L6.16308 2.78095L3.05493 2.61274C2.94543 2.57455 3.7007 2.40221 3.0802 2.18343C3.56032 2.2794 4.45598 1.96568 4.26506 1.90685L3.09985 1.82533L2.16488 1.17311L2.33053 1.67569L3.09143 1.96774L2.07784 2.60345C1.18217 2.37125 1.92903 2.32481 1.9178 2.02966C2.02449 2.01418 2.23226 2.05856 2.31088 1.96155C2.31649 1.86764 1.97114 1.89963 1.92622 1.88725C1.80549 1.85422 2.36984 1.44349 0.775053 1.59106L1.56683 1.3826L0.0478516 0.788175L1.22148 0.726256L1.24394 0.368155L1.84199 0.15866C2.55515 0.283531 3.29078 0.0337893 3.4087 0.0286293C4.97541 -0.0425781 7.94037 0.0183094 9.24316 0.219548L9.83559 0.0812609L9.81874 0.367123L10.5965 0.373315L10.6133 0.0874528C11.3714 0.0998367 11.8291 0.318619 12.7472 0.248444C14.2044 0.135956 17.2704 0.172076 18.5901 0.295915C20.3618 0.462066 22.5939 0.416658 24.0427 0.340291C24.8345 0.299011 27.5411 0.320683 28.3273 0.375379C28.5828 0.392922 28.5884 0.654016 29.105 0.381571L30.4443 0.821199L28.8776 0.95123L30.4275 1.10706L30.8009 1.39602L30.4443 0.821199ZM459.763 0.731416C459.51 0.729352 459.501 0.872799 459.754 0.874862C460.007 0.875894 460.015 0.73348 459.763 0.731416ZM466.765 0.931622C466.512 0.929558 466.504 1.073 466.757 1.07507C467.012 1.0761 467.021 0.933686 466.765 0.931622ZM431.84 1.64989L430.919 0.783015C429.939 1.05856 430.543 0.99251 430.894 1.21232C431.152 1.37538 431.18 1.60654 431.84 1.64989ZM450.166 1.51263L450.396 0.941942L449.787 1.36609L449.012 1.28869L450.166 1.51263ZM455.646 1.1277L453.903 0.970838C453.136 1.16795 451.73 1.1308 451.718 1.66846L453.479 1.53947L455.646 1.1277ZM457.41 0.998702C457.157 0.996638 457.149 1.14008 457.401 1.14215C457.654 1.14318 457.662 1.00077 457.41 0.998702ZM465.589 1.06475C465.336 1.06269 465.327 1.20613 465.58 1.2082C465.833 1.21026 465.841 1.06681 465.589 1.06475ZM470.44 1.39086L471.406 1.54153L471.606 1.47135L471.238 1.11016L470.44 1.39086ZM480.394 1.18549C480.141 1.18343 480.133 1.32687 480.385 1.32894C480.638 1.32997 480.646 1.18756 480.394 1.18549ZM447.838 1.34958L446.881 1.05546L445.867 1.69117L447.838 1.34958ZM462.27 1.18136L461.489 1.17517L462.056 1.46619L462.25 1.46826L462.27 1.18136ZM468.697 1.23296C468.444 1.2309 468.436 1.37435 468.688 1.37641C468.941 1.37847 468.949 1.23503 468.697 1.23296ZM472.594 1.26496C472.341 1.26289 472.333 1.40634 472.585 1.4084C472.838 1.41047 472.847 1.26702 472.594 1.26496ZM480.18 1.46929C479.588 1.52399 479.478 1.36506 479.021 1.31656L479.004 1.60242L480.172 1.6117L480.18 1.46929ZM487.573 1.67259L487.59 1.38673C487.045 1.49612 486.686 1.56733 486.023 1.51676L486.015 1.66021L487.573 1.67259ZM445.511 1.18756L443.554 1.31449L443.545 1.45794L445.502 1.331L445.511 1.18756ZM459.128 1.58487L457.003 1.28147L455.222 1.69633L456.786 1.6375L456.8 1.42285L457.578 1.42904L457.561 1.7149L459.128 1.58487ZM461.074 1.60035L461.091 1.31449C460.627 1.35577 460.498 1.51263 459.914 1.44762L459.906 1.59106L461.074 1.60035ZM478.215 1.73967L476.09 1.43627L474.708 1.71181L475.475 1.93265L474.683 2.14112L476.842 1.8728L478.215 1.73967ZM360.17 0.923366L359.409 0.631313L359.389 0.917174L360.17 0.923366ZM379.08 0.791271C378.827 0.789207 378.819 0.932654 379.071 0.934718C379.324 0.936782 379.332 0.793335 379.08 0.791271ZM389.013 0.871767L388.236 0.865575L388.227 1.00902L389.005 1.01521L389.013 0.871767ZM463.792 1.7665L463.031 1.47445L463.014 1.76031L463.792 1.7665ZM466.139 1.64163L466.706 1.93265L467.692 1.72626L467.119 1.50644L466.139 1.64163ZM490.673 1.98425L489.522 1.68807L489.505 1.97393L488.707 2.2536L490.673 1.98425ZM496.906 2.03482L496.923 1.74896L496.533 1.74586L496.516 2.03173L496.906 2.03482ZM376.735 0.91511C376.483 0.913046 376.474 1.05649 376.727 1.05856C376.98 1.06062 376.988 0.917174 376.735 0.91511ZM465.555 1.6375C465.302 1.63544 465.294 1.77889 465.546 1.78095C465.799 1.78198 465.808 1.63957 465.555 1.6375ZM467.248 2.65298C467.728 2.81191 469.031 2.20923 469.424 2.09777L471.563 2.18652L468.478 1.66021C468.767 2.18549 467.922 2.2825 467.248 2.65298ZM494.188 1.8697L492.24 1.85422L492.223 2.14008C492.877 1.98322 493.394 1.98529 494.18 2.01315L494.188 1.8697ZM361.922 0.937814C361.669 0.93575 361.661 1.0792 361.913 1.08126C362.166 1.08332 362.174 0.939878 361.922 0.937814ZM377.895 1.06785C377.642 1.06578 377.634 1.20923 377.886 1.21129C378.139 1.21336 378.148 1.06991 377.895 1.06785ZM378.673 1.07404C378.42 1.07197 378.411 1.21542 378.664 1.21748C378.917 1.21955 378.928 1.0761 378.673 1.07404ZM408.07 1.59932L408.086 1.31346L407.696 1.31036L407.679 1.59622L408.07 1.59932ZM414.707 1.36712L413.929 1.36093L413.921 1.50438L414.699 1.51057L414.707 1.36712ZM421.721 1.42388L420.943 1.41769L420.935 1.56114L421.712 1.56733L421.721 1.42388ZM473.141 1.84184L471.973 1.83255L471.965 1.976L473.133 1.98529L473.141 1.84184ZM484.423 2.22058L484.44 1.93472L484.049 1.93162L484.033 2.21748L484.423 2.22058ZM485.024 1.93885C484.771 1.93678 484.763 2.08023 485.015 2.08229C485.268 2.08333 485.276 1.94091 485.024 1.93885ZM485.99 2.08952L486.955 2.24019L487.155 2.17001L485.998 1.94607L485.99 2.08952ZM488.337 1.96568L487.559 1.95949L487.542 2.24535L488.337 1.96568ZM334.254 0.856287C334.002 0.854223 333.993 0.99767 334.246 0.999734C334.499 1.0018 334.507 0.858351 334.254 0.856287ZM386.456 1.28044C386.203 1.27837 386.195 1.42182 386.447 1.42388C386.7 1.42595 386.708 1.2825 386.456 1.28044ZM412.556 1.49303C412.304 1.49096 412.295 1.63441 412.548 1.63647C412.801 1.6375 412.809 1.49509 412.556 1.49303ZM436.099 2.11325L436.891 1.90479L436.318 1.68498L436.124 1.68291L436.099 2.11325ZM463.783 1.90892C463.415 1.79334 462.332 2.12976 462.2 2.32584L463.758 2.33823L463.382 2.12048L463.783 1.90892ZM474.304 1.99457L473.526 1.98838L473.509 2.27424L474.304 1.99457ZM478.198 2.02657C477.715 1.93059 476.822 2.24432 477.013 2.30314C477.493 2.39911 478.389 2.08539 478.198 2.02657ZM491.248 2.13286C490.996 2.1308 490.987 2.27424 491.24 2.27631C491.493 2.27734 491.501 2.13492 491.248 2.13286ZM361.694 1.50851L361.711 1.22264L361.321 1.21955L361.304 1.50541L361.694 1.50851ZM460.465 2.02553C460.212 2.02347 460.203 2.16692 460.456 2.16898C460.709 2.17104 460.717 2.0276 460.465 2.02553ZM467.475 2.08229C467.223 2.08023 467.214 2.22368 467.467 2.22574C467.72 2.2278 467.731 2.08436 467.475 2.08229ZM322.942 1.0503C322.689 1.04824 322.681 1.19168 322.934 1.19375C323.186 1.19581 323.195 1.05237 322.942 1.0503ZM339.887 1.18859L339.109 1.1824L339.1 1.32584L339.878 1.33203L339.887 1.18859ZM370.078 1.4342C369.825 1.43214 369.817 1.57559 370.07 1.57765C370.322 1.57868 370.331 1.43627 370.078 1.4342ZM380.596 1.51986C380.343 1.51779 380.335 1.66124 380.587 1.6633C380.84 1.66434 380.849 1.52192 380.596 1.51986ZM393.062 1.62099C392.81 1.61893 392.801 1.76238 393.054 1.76444C393.306 1.76547 393.315 1.62306 393.062 1.62099ZM435.133 1.96258L434.535 2.17208L434.726 2.24535L435.324 2.03585L435.133 1.96258ZM480.11 2.6148L480.703 2.47651L481.284 2.55288L480.127 2.32894L480.11 2.6148ZM326.828 1.22574C326.575 1.22368 326.567 1.36712 326.82 1.36919C327.072 1.37022 327.081 1.2278 326.828 1.22574ZM334.813 1.29076L334.035 1.28456C334.485 1.55288 334.513 1.58694 334.002 1.85732L334.984 1.72213L336.326 2.09055L337.483 2.31449L334.805 1.50541L334.813 1.29076ZM342.801 1.35577C342.548 1.35371 342.54 1.49715 342.793 1.49922C343.045 1.50025 343.054 1.35783 342.801 1.35577ZM349.228 1.40737L347.67 1.39499L348.237 1.68601L348.636 1.54566L349.396 1.83771L349.228 1.40737ZM356.435 1.46619C356.183 1.46413 356.174 1.60758 356.427 1.60964C356.68 1.6117 356.688 1.46826 356.435 1.46619ZM366.953 1.55185C366.7 1.54979 366.692 1.69323 366.945 1.6953C367.197 1.69633 367.206 1.55391 366.953 1.55185ZM368.121 1.56114C367.868 1.55907 367.86 1.70252 368.113 1.70458C368.365 1.70665 368.374 1.5632 368.121 1.56114ZM370.848 1.58281C370.595 1.58074 370.586 1.72419 370.839 1.72626C371.092 1.72832 371.1 1.58487 370.848 1.58281ZM433.179 2.08952C432.926 2.08745 432.918 2.2309 433.171 2.23296C433.423 2.23503 433.432 2.09158 433.179 2.08952ZM453.24 2.25257L452.462 2.24638L452.454 2.38983L453.232 2.39602L453.24 2.25257ZM457.721 2.28972C457.469 2.28766 457.46 2.43111 457.713 2.43317C457.966 2.4342 457.974 2.29179 457.721 2.28972ZM471.159 2.39911L471.718 2.83358L471.917 2.76341L471.549 2.40221L471.159 2.39911ZM484.406 2.50644C483.923 2.41047 483.03 2.72419 483.221 2.78302C483.701 2.87899 484.594 2.56527 484.406 2.50644ZM456.155 2.41975C455.902 2.41769 455.894 2.56114 456.146 2.5632C456.399 2.56527 456.407 2.42182 456.155 2.41975ZM459.659 2.44865C459.406 2.44659 459.398 2.59003 459.65 2.5921C459.903 2.59313 459.911 2.45071 459.659 2.44865ZM477.757 2.88209L477.774 2.59623L477.384 2.59313L477.367 2.87899L477.757 2.88209ZM323.695 1.48683C323.442 1.48477 323.433 1.62822 323.686 1.63028C323.939 1.63131 323.947 1.4889 323.695 1.48683ZM343.952 1.65092C343.7 1.64886 343.691 1.7923 343.944 1.79437C344.197 1.79643 344.205 1.65298 343.952 1.65092ZM348.422 1.83049L345.699 1.73658C346.196 2.04101 346.738 1.92543 347.439 1.96568C347.762 1.98425 348.043 2.26083 348.422 1.83049ZM355.638 1.74586C355.385 1.7438 355.377 1.88725 355.63 1.88931C355.882 1.89137 355.891 1.74793 355.638 1.74586ZM389.92 2.0245C389.668 2.02244 389.659 2.16588 389.912 2.16795C390.165 2.17001 390.173 2.02657 389.92 2.0245ZM464.909 2.63441L464.129 2.62822L464.112 2.91408L464.889 2.92027L464.909 2.63441ZM485.557 2.80159L484.779 2.7954L484.771 2.93885L485.549 2.94504L485.557 2.80159ZM317.063 1.57559C316.81 1.57352 316.802 1.71697 317.054 1.71903C317.307 1.7211 317.315 1.57765 317.063 1.57559ZM325.244 1.64163C324.992 1.63957 324.983 1.78302 325.236 1.78508C325.489 1.78714 325.497 1.6437 325.244 1.64163ZM364.979 1.96465C364.727 1.96258 364.718 2.10603 364.971 2.10809C365.224 2.11016 365.232 1.96671 364.979 1.96465ZM466.459 2.79024L465.678 2.78405L465.67 2.92749L466.448 2.93369L466.459 2.79024ZM473.276 2.84493C473.023 2.84287 473.015 2.98632 473.268 2.98838C473.52 2.99045 473.529 2.847 473.276 2.84493ZM215.962 0.896534L215.184 0.890342L215.176 1.03379L215.954 1.03998L215.962 0.896534ZM227.844 0.993542C227.592 0.991478 227.583 1.13492 227.836 1.13699C228.089 1.13905 228.097 0.995606 227.844 0.993542ZM329.324 1.8181L328.35 1.80985L327.943 2.09261L329.316 1.96052L329.324 1.8181ZM356.789 2.04205C356.536 2.03998 356.528 2.18343 356.781 2.18549C357.033 2.18652 357.042 2.04411 356.789 2.04205ZM408.6 2.4631C408.347 2.46103 408.339 2.60448 408.592 2.60654C408.844 2.60758 408.853 2.46516 408.6 2.4631ZM453.791 2.83049C453.538 2.82842 453.529 2.97187 453.782 2.97393C454.035 2.97497 454.043 2.83255 453.791 2.83049ZM242.818 1.54463L242.835 1.25876L242.445 1.25567L242.428 1.54153L242.818 1.54463ZM245.544 1.56733L245.561 1.28147L244.769 1.48993L244.764 1.56114L245.544 1.56733ZM306.705 2.06372L305.944 1.77166L305.927 2.05753L306.705 2.06372ZM317.436 1.86454C317.183 1.86248 317.175 2.00593 317.428 2.00799C317.68 2.01005 317.689 1.86661 317.436 1.86454ZM322.305 1.90479L320.348 2.03173L320.339 2.17517L322.296 2.04824L322.305 1.90479ZM341.198 2.05856C340.945 2.05649 340.937 2.19994 341.189 2.202C341.442 2.20304 341.451 2.06062 341.198 2.05856ZM367.105 2.26908L366.327 2.26289L366.319 2.40634L367.096 2.41253L367.105 2.26908ZM170.561 0.813975C170.308 0.811911 170.3 0.955358 170.553 0.957422C170.805 0.959486 170.814 0.816039 170.561 0.813975ZM180.495 0.895502L179.717 0.88931L179.709 1.03173L180.489 1.03792L180.495 0.895502ZM202.895 1.07713C202.642 1.07507 202.634 1.21852 202.886 1.22058C203.139 1.22264 203.148 1.0792 202.895 1.07713ZM229.58 1.29385L228.021 1.28147L228.016 1.35267L228.588 1.57249L228.979 1.57559L229.58 1.29385ZM246.721 1.43317L245.923 1.71284C247.097 1.75309 247.515 2.32275 248.647 1.80675L247.695 1.44143L247.482 1.72626L246.898 1.7211L246.721 1.43317ZM308.662 1.93678L307.494 1.92749L307.486 2.07094L308.654 2.08023L308.662 1.93678ZM311.582 1.96052C311.329 1.95845 311.321 2.1019 311.574 2.10396C311.826 2.10603 311.835 1.96258 311.582 1.96052ZM314.115 1.98116L313.337 1.97497L313.328 2.11841L314.106 2.1246L314.115 1.98116ZM370.6 2.44039L369.042 2.42801L369.025 2.71387C369.755 2.75412 370.376 2.72626 370.6 2.44039ZM383.651 2.54669C383.398 2.54463 383.39 2.68807 383.642 2.69014C383.895 2.69117 383.906 2.54875 383.651 2.54669ZM387.742 2.57971L385.793 2.56423L385.785 2.70768C386.635 2.6375 386.998 2.87693 387.725 2.86661L387.742 2.57971ZM147.375 0.768567L146.207 0.75928L146.182 1.18859L146.572 1.19168L146.589 0.905822L147.369 0.912014L147.375 0.768567ZM153.583 1.24948L153.218 0.817071L152.827 0.813975L152.412 1.24019L153.583 1.24948ZM194.901 1.15556L194.124 1.14937L194.115 1.29282L194.893 1.29901L194.901 1.15556ZM273.203 1.7923L272.425 1.78611L272.417 1.92956L273.198 1.93575L273.203 1.7923ZM284.889 1.88725L284.111 1.88105L284.103 2.0245L284.881 2.03069L284.889 1.88725ZM288.396 1.91511L287.228 1.90582L287.203 2.33513C287.666 2.29385 287.795 2.13699 288.379 2.202L288.396 1.91511ZM294.629 1.96568L293.461 1.95639L293.436 2.3857L294.604 2.39499L294.227 2.17724L294.629 1.96568ZM322.482 2.19272C322.229 2.19065 322.22 2.3341 322.473 2.33616C322.726 2.33719 322.734 2.19478 322.482 2.19272ZM335.728 2.30004C335.476 2.29798 335.467 2.44143 335.72 2.44349C335.973 2.44555 335.981 2.30211 335.728 2.30004ZM203.462 1.36815L202.684 1.36196L202.659 1.79127L203.049 1.79437C202.898 1.57662 203.33 1.53637 203.462 1.36815ZM219.02 1.9244L221.76 1.73142L219.233 1.63957L219.02 1.9244ZM232.662 1.89137L232.679 1.60551L231.887 1.81398L231.882 1.88518L232.662 1.89137ZM276.895 1.96465C276.643 1.96258 276.634 2.10603 276.887 2.10809C277.14 2.11016 277.148 1.96671 276.895 1.96465ZM362.377 3.08952L362.402 2.66021L362.012 2.65711C362.16 2.87486 361.728 2.91511 361.596 3.08332L362.377 3.08952ZM150.278 1.0792C150.025 1.07713 150.017 1.22058 150.27 1.22264C150.522 1.22368 150.531 1.08126 150.278 1.0792ZM182.222 1.33823C181.969 1.33616 181.96 1.47961 182.213 1.48167C182.466 1.48374 182.477 1.34029 182.222 1.33823ZM190.597 1.40634L189.415 1.6117L189.606 1.68498L190.589 1.54979L190.597 1.40634ZM191.571 1.41459C191.319 1.41253 191.31 1.55598 191.563 1.55804C191.816 1.56011 191.824 1.41666 191.571 1.41459ZM243.385 1.83565C243.132 1.83358 243.124 1.97703 243.377 1.97909C243.629 1.98116 243.638 1.83771 243.385 1.83565ZM280.004 2.13389C279.751 2.13183 279.742 2.27528 279.995 2.27734C280.248 2.27837 280.256 2.13596 280.004 2.13389ZM291.299 2.22574C291.046 2.22368 291.038 2.36712 291.291 2.36919C291.543 2.37022 291.552 2.2278 291.299 2.22574ZM323.245 2.48477C322.993 2.48271 322.984 2.62615 323.237 2.62822C323.49 2.63028 323.498 2.48683 323.245 2.48477ZM326.539 2.7985L326.556 2.51263C326.092 2.55391 325.963 2.71078 325.379 2.64576L325.371 2.78921L326.539 2.7985ZM331.621 2.55288C331.138 2.45691 330.245 2.77063 330.436 2.82946C330.916 2.92646 331.809 2.6117 331.621 2.55288ZM332.595 2.56114C332.342 2.55907 332.334 2.70252 332.587 2.70458C332.839 2.70562 332.848 2.5632 332.595 2.56114ZM344.474 2.65711L343.697 2.65092L343.68 2.93678L344.474 2.65711ZM350.317 2.70458L349.54 2.69839L349.531 2.84184L350.309 2.84803L350.317 2.70458ZM162.736 1.32378C162.483 1.32171 162.475 1.46516 162.728 1.46723C162.98 1.46826 162.989 1.32584 162.736 1.32378ZM185.136 1.50541L184.358 1.49922L184.35 1.64266L185.128 1.64886L185.136 1.50541ZM194.292 1.57971C194.039 1.57765 194.031 1.7211 194.284 1.72316C194.536 1.72522 194.545 1.58178 194.292 1.57971ZM335.49 3.01418L335.507 2.72832L335.116 2.72522L335.099 3.01109L335.49 3.01418ZM360.829 2.93369L360.052 2.92749L360.043 3.07094L360.821 3.07713L360.829 2.93369ZM105.851 1.00386C105.599 1.0018 105.59 1.14524 105.843 1.14731C106.096 1.14937 106.104 1.00593 105.851 1.00386ZM113.449 1.06578L112.671 1.05959L112.655 1.34545L113.449 1.06578ZM162.144 1.46207L161.366 1.45587L161.357 1.59932L162.135 1.60551L162.144 1.46207ZM187.076 1.66434L185.712 1.65298L185.111 1.93472L186.475 1.94607L187.076 1.66434ZM246.872 2.1504C246.62 2.14834 246.611 2.29179 246.864 2.29385C247.117 2.29592 247.125 2.15247 246.872 2.1504ZM254.453 2.49819L253.692 2.20613L253.675 2.49199L254.453 2.49819ZM302.971 2.60654C302.718 2.60448 302.71 2.74793 302.962 2.74999C303.215 2.75206 303.223 2.60861 302.971 2.60654ZM171.872 1.68394L170.704 1.67466L169.907 1.95433L171.625 2.5405L171.066 2.10603L172.625 2.11841L171.855 1.96877L171.872 1.68394ZM178.302 1.73658C178.049 1.73451 178.041 1.87796 178.294 1.88002C178.546 1.88105 178.555 1.73864 178.302 1.73658ZM218.037 2.05959C217.784 2.05753 217.776 2.20097 218.029 2.20304C218.281 2.20407 218.29 2.06165 218.037 2.05959ZM261.666 2.41356C261.414 2.4115 261.405 2.55495 261.658 2.55701C261.913 2.55907 261.922 2.41563 261.666 2.41356ZM302.182 2.74277C301.929 2.7407 301.921 2.88415 302.173 2.88621C302.426 2.88828 302.434 2.74483 302.182 2.74277ZM327.698 2.9502L326.921 2.94401L326.912 3.08745L327.69 3.09364L327.698 2.9502ZM7.27494 0.488898C7.02224 0.486834 7.01382 0.630281 7.26652 0.632345C7.51921 0.634409 7.52764 0.490962 7.27494 0.488898ZM10.3915 0.514697C10.1388 0.512633 10.1304 0.65608 10.3831 0.658144C10.6358 0.660208 10.6442 0.516761 10.3915 0.514697ZM11.7561 0.526049L10.9755 0.519857L10.9671 0.663304L11.7448 0.669496L11.7561 0.526049ZM24.6098 0.630281L23.6271 0.765471L23.0459 0.689104L23.6187 0.908918L24.593 0.917174L24.6098 0.630281ZM34.5436 0.710776C34.2909 0.708712 34.2825 0.852159 34.5352 0.854223C34.7879 0.856287 34.7963 0.71284 34.5436 0.710776ZM42.7253 0.777855C42.4726 0.775791 42.4642 0.919238 42.7169 0.921302C42.9696 0.922334 42.978 0.779919 42.7253 0.777855ZM122.976 1.43007C122.723 1.42801 122.715 1.57146 122.967 1.57352C123.22 1.57455 123.228 1.43214 122.976 1.43007ZM152.387 1.66846L151.219 1.65918L151.21 1.80262L152.378 1.81191L152.387 1.66846ZM164.039 2.33616C164.235 1.95433 163.272 1.95433 162.711 1.75309L162.511 1.82326L164.039 2.33616ZM164.269 1.76547C164.016 1.76341 164.008 1.90685 164.261 1.90892C164.513 1.91098 164.522 1.76754 164.269 1.76547ZM165.614 2.06269L165.631 1.77682L164.839 1.98529L164.833 2.05649L165.614 2.06269ZM176.151 1.86145L175.374 1.85525L175.357 2.14112L176.151 1.86145ZM181.977 2.19581L181.994 1.90995L181.604 1.90685L181.587 2.19272L181.977 2.19581ZM183.746 1.92337C183.493 1.9213 183.485 2.06475 183.738 2.06681C183.99 2.06888 183.999 1.92543 183.746 1.92337ZM191.538 1.98735C191.285 1.98529 191.277 2.12873 191.529 2.1308C191.782 2.13183 191.79 1.98941 191.538 1.98735ZM220.755 2.22471C220.502 2.22264 220.494 2.36609 220.746 2.36815C220.999 2.36919 221.008 2.22677 220.755 2.22471ZM293.017 2.81191L292.24 2.80572L292.231 2.94917L293.009 2.95536L293.017 2.81191ZM317.172 3.00799L316.394 3.0018L316.378 3.28766L317.172 3.00799ZM324.767 3.06991C324.514 3.06785 324.506 3.21129 324.759 3.21336C325.011 3.21542 325.02 3.07197 324.767 3.06991ZM3.15881 0.885182L3.17566 0.599321L2.78539 0.596225L2.76854 0.882087L3.15881 0.885182ZM23.0179 1.18962C23.147 0.918206 22.6192 0.715936 21.8751 0.751024L23.0179 1.18962ZM48.7563 0.969806L47.9786 0.963614L47.9617 1.24948L48.7394 1.25567L48.7563 0.969806ZM93.927 1.62306L93.9438 1.33719L93.5536 1.3341L93.5367 1.61996L93.927 1.62306ZM115.37 1.5116L114.592 1.50541L114.575 1.79127L115.37 1.5116ZM189.971 2.11738L189.373 2.32687L189.564 2.40015L190.162 2.19065L189.971 2.11738ZM256.197 2.65608L255.599 2.86557L255.79 2.93885L256.388 2.72935L256.197 2.65608ZM306.646 3.06578L305.868 3.05959L305.86 3.20304L306.638 3.20923L306.646 3.06578ZM27.9061 0.942974C27.6534 0.94091 27.645 1.08436 27.8977 1.08642C28.1504 1.08848 28.1588 0.945038 27.9061 0.942974ZM97.4423 1.50851L96.6645 1.50231L96.6477 1.78818L97.4254 1.79437L97.4423 1.50851ZM143.994 1.88725C143.742 1.88518 143.733 2.02863 143.986 2.03069C144.239 2.03173 144.247 1.88931 143.994 1.88725ZM147.678 2.20304L147.695 1.91717L147.305 1.91408L147.288 2.19994L147.678 2.20304ZM156.461 1.98838C156.208 1.98632 156.2 2.12976 156.452 2.13183C156.705 2.13389 156.713 1.99045 156.461 1.98838ZM169.511 2.09468L168.733 2.08849L168.725 2.23193L169.503 2.23812L169.511 2.09468ZM234.763 2.62512C234.51 2.62306 234.501 2.7665 234.754 2.76857C235.007 2.7696 235.015 2.62718 234.763 2.62512ZM238.446 2.94091L238.463 2.65505L237.671 2.86351L237.666 2.93472L238.446 2.94091ZM297.482 3.13492C297.229 3.13286 297.22 3.27631 297.473 3.27837C297.726 3.2794 297.734 3.13699 297.482 3.13492ZM309.948 3.23606C309.695 3.234 309.687 3.37744 309.939 3.37951C310.192 3.38054 310.201 3.23812 309.948 3.23606ZM314.232 3.27115C313.98 3.26908 313.971 3.41253 314.224 3.41459C314.477 3.41563 314.485 3.27321 314.232 3.27115ZM6.25012 1.34029L6.66005 0.985286L6.46912 0.912014L5.85985 1.33616L6.25012 1.34029ZM9.5857 0.937814C9.333 0.93575 9.32458 1.0792 9.57728 1.08126C9.82997 1.08229 9.8384 0.939878 9.5857 0.937814ZM58.2829 1.33307C58.0302 1.331 58.0218 1.47445 58.2745 1.47651C58.5272 1.47858 58.5356 1.33513 58.2829 1.33307ZM87.3036 1.56939L87.8623 2.00386L88.8478 1.79746L88.275 1.57765L87.3036 1.56939ZM125.854 2.16898L125.093 1.87693L125.076 2.16279L125.854 2.16898ZM150.609 2.08436C150.357 2.08229 150.348 2.22574 150.601 2.2278C150.854 2.22884 150.862 2.08642 150.609 2.08436ZM166.189 2.21026C165.937 2.2082 165.928 2.35164 166.181 2.35371C166.434 2.35577 166.442 2.21232 166.189 2.21026ZM288.514 3.2051C288.261 3.20304 288.253 3.34648 288.505 3.34855C288.758 3.35061 288.766 3.20716 288.514 3.2051ZM49.1185 1.40221L48.3408 1.39602L48.3323 1.53947L49.1101 1.54566L49.1185 1.40221ZM59.8328 1.4889C59.5801 1.48683 59.5717 1.63028 59.8244 1.63234C60.0771 1.63441 60.0855 1.49096 59.8328 1.4889ZM60.6105 1.49509C60.3578 1.49303 60.3494 1.63647 60.6021 1.63854C60.8548 1.6406 60.8632 1.49715 60.6105 1.49509ZM121.381 1.98941C121.128 1.98735 121.12 2.1308 121.373 2.13286C121.628 2.13492 121.636 1.99148 121.381 1.98941ZM189.946 2.54669C189.693 2.54463 189.685 2.68807 189.937 2.69014C190.19 2.6922 190.198 2.54875 189.946 2.54669ZM200.854 2.63544C200.601 2.63338 200.593 2.77682 200.845 2.77889C201.098 2.78095 201.106 2.6375 200.854 2.63544ZM229.487 2.86867L228.709 2.86248L228.692 3.14834L229.487 2.86867ZM262.582 3.42388L262.598 3.13802L262.208 3.13492L262.191 3.42079L262.582 3.42388ZM266.883 3.17208L266.105 3.16588L266.097 3.30933L266.875 3.31552L266.883 3.17208ZM5.28426 1.18859C5.03157 1.18652 5.02314 1.32997 5.27584 1.33203C5.52853 1.3341 5.53696 1.19065 5.28426 1.18859ZM27.4906 1.36919C27.2379 1.36712 27.2295 1.51057 27.4822 1.51263C27.7348 1.5147 27.7433 1.37125 27.4906 1.36919ZM40.5212 1.76134L40.5381 1.47548L39.547 1.75412L38.7776 1.60448L37.3962 1.88002L40.1225 1.90169L40.1057 2.18756L42.0739 1.84597L40.5212 1.76134ZM45.5779 1.94607L45.0192 1.5116C44.7637 1.57868 44.0112 1.7696 43.8344 1.78818C42.9078 1.88415 42.2115 1.52915 42.4445 2.20613L43.0454 1.9244L45.5779 1.94607ZM78.521 1.78405C78.2683 1.78198 78.2599 1.92543 78.5126 1.92749C78.7653 1.92956 78.7737 1.78611 78.521 1.78405ZM85.1444 1.83771C84.8917 1.83565 84.8833 1.97909 85.136 1.98116C85.3887 1.98322 85.3971 1.83977 85.1444 1.83771ZM182.705 3.06062L181.368 2.61996L181.542 2.97909L180.742 3.331L182.494 3.34545L182.705 3.06062ZM236.296 3.06681C236.043 3.06475 236.034 3.2082 236.287 3.21026C236.54 3.21232 236.548 3.06888 236.296 3.06681ZM288.107 3.48787C287.854 3.4858 287.845 3.62925 288.098 3.63131C288.351 3.63338 288.359 3.48993 288.107 3.48787ZM296.676 3.55701C296.423 3.55495 296.415 3.69839 296.667 3.70046C296.92 3.70252 296.928 3.55907 296.676 3.55701ZM10.136 1.5147L9.17016 1.36403L8.97081 1.4342L10.1276 1.65814L10.136 1.5147ZM55.9188 1.7438C55.6661 1.74174 55.6577 1.88518 55.9104 1.88725C56.1631 1.88931 56.1715 1.74586 55.9188 1.7438ZM61.9582 1.7923L60.7902 1.78302L60.7818 1.92646L61.9498 1.93575L61.9582 1.7923ZM100.913 2.10912L99.3543 2.09674L99.3459 2.24019L100.904 2.25257L100.913 2.10912ZM109.847 2.6117C109.735 2.44143 109.308 2.39395 109.482 2.1793L109.092 2.1762L109.066 2.60551L109.847 2.6117ZM114.743 2.22161C114.491 2.21955 114.482 2.36299 114.735 2.36506C114.988 2.36712 114.996 2.22368 114.743 2.22161ZM186.228 2.80262L185.06 2.79334L185.043 3.0792L186.211 3.08849L186.228 2.80262ZM241.917 3.54153L241.35 3.25051L239.977 3.3826L239.968 3.52605C240.555 3.60964 240.869 3.38983 240.951 3.39086C241.032 3.39189 241.321 3.61583 241.917 3.54153ZM5.26742 1.47548C5.01472 1.47342 5.0063 1.61686 5.25899 1.61893C5.51169 1.61996 5.52011 1.47755 5.26742 1.47548ZM11.5006 1.52605C11.2479 1.52399 11.2395 1.66743 11.4921 1.6695C11.7448 1.67053 11.7533 1.52811 11.5006 1.52605ZM24.5509 1.63234L23.7731 1.62615L24.3403 1.91717L24.534 1.91924L24.5509 1.63234ZM25.7021 1.92749L25.7189 1.64163L25.3286 1.63854L25.3118 1.9244L25.7021 1.92749ZM27.4709 1.65608C27.2182 1.65402 27.2098 1.79746 27.4625 1.79953C27.7152 1.80056 27.7264 1.65814 27.4709 1.65608ZM33.3166 1.70355L33.1173 1.77373L33.69 1.99354L33.8894 1.92337L33.3166 1.70355ZM35.2624 1.71903C35.0097 1.71697 35.0012 1.86041 35.2539 1.86248C35.5066 1.86454 35.5151 1.7211 35.2624 1.71903ZM36.8207 1.73142C36.568 1.72935 36.5595 1.8728 36.8122 1.87486C37.0649 1.87693 37.0733 1.73348 36.8207 1.73142ZM48.5092 1.82636C48.2565 1.8243 48.2481 1.96774 48.5008 1.96981C48.7535 1.97187 48.7619 1.82842 48.5092 1.82636ZM50.0675 1.83977C49.8148 1.83771 49.8064 1.98116 50.0591 1.98322C50.3118 1.98425 50.3202 1.84184 50.0675 1.83977ZM52.0133 1.85525C51.7606 1.85319 51.7521 1.99664 52.0048 1.9987C52.2575 2.00077 52.2688 1.85732 52.0133 1.85525ZM71.8835 2.01625C71.6308 2.01418 71.6224 2.15763 71.8751 2.15969C72.1278 2.16176 72.1362 2.01831 71.8835 2.01625ZM151.157 2.66124L150.379 2.65505L150.946 2.94607L151.14 2.94813L151.157 2.66124ZM164.988 2.77373C164.735 2.77166 164.727 2.91511 164.979 2.91717C165.232 2.91821 165.24 2.77579 164.988 2.77373ZM179.79 2.89344C179.537 2.89137 179.529 3.03482 179.782 3.03689C180.034 3.03895 180.043 2.8955 179.79 2.89344ZM191.088 2.98529C190.836 2.98322 190.827 3.12667 191.08 3.12873C191.333 3.1308 191.341 2.98735 191.088 2.98529ZM202.774 3.08023C202.521 3.07817 202.513 3.22161 202.766 3.22368C203.018 3.22574 203.027 3.08229 202.774 3.08023ZM212.904 3.16279C212.652 3.16072 212.643 3.30417 212.896 3.30624C213.149 3.3083 213.157 3.16485 212.904 3.16279ZM18.503 1.72626C18.2503 1.72419 18.2419 1.86764 18.4946 1.8697C18.7473 1.87073 18.7557 1.72832 18.503 1.72626ZM19.8676 1.73658L19.0899 1.73038L19.0814 1.87383L19.8592 1.88002L19.8676 1.73658ZM32.7214 1.84184L31.1631 1.82946L31.1462 2.11532L31.7387 1.97703L32.7045 2.1277L32.7214 1.84184ZM36.0345 1.86867C35.7818 1.86661 35.7734 2.01005 36.0261 2.01212C36.2788 2.01315 36.2872 1.87073 36.0345 1.86867ZM114.513 2.7923L113.752 2.50025L113.736 2.78611L114.513 2.7923ZM183.075 3.34958L184.257 3.14421L184.066 3.07094L183.084 3.20613L183.075 3.34958ZM4.8603 1.75825C4.6076 1.75618 4.59918 1.89963 4.85187 1.90169C5.10457 1.90376 5.11299 1.76031 4.8603 1.75825ZM20.2382 2.02657L20.8054 2.31759C21.2265 2.18652 21.527 2.10912 21.4147 1.89344C20.9542 1.93369 20.825 2.09055 20.2382 2.02657ZM72.6444 2.30933C72.3917 2.30727 72.3833 2.45071 72.636 2.45278C72.8887 2.45381 72.8971 2.3114 72.6444 2.30933ZM92.6888 2.75825L91.7314 2.46413L90.7487 2.59932L90.7402 2.74277L92.6888 2.75825ZM102.252 2.54979C101.999 2.54772 101.991 2.69117 102.243 2.69323C102.496 2.6953 102.505 2.55185 102.252 2.54979ZM121.339 2.70458C121.086 2.70252 121.078 2.84597 121.33 2.84803C121.583 2.8501 121.592 2.70665 121.339 2.70458ZM174.708 3.13905C174.455 3.13699 174.447 3.28044 174.7 3.2825C174.952 3.28353 174.961 3.14112 174.708 3.13905ZM162.43 3.1824L160.872 3.17001L160.863 3.31346L161.644 3.31965L161.821 3.60758L162.43 3.1824ZM35.2287 2.29179C34.976 2.28972 34.9676 2.43317 35.2202 2.43523C35.4729 2.43627 35.4814 2.29385 35.2287 2.29179ZM85.6526 3.1308L86.0626 2.77579L85.8716 2.70252L85.2624 3.12667L85.6526 3.1308ZM109.246 2.89344C108.993 2.89137 108.985 3.03482 109.238 3.03689C109.49 3.03792 109.499 2.8955 109.246 2.89344ZM140.198 3.43111L140.215 3.14524L139.825 3.14112L139.808 3.42698L140.198 3.43111ZM5.41903 2.19272L4.64129 2.18652L5.20565 2.47651L5.39938 2.47858L5.41903 2.19272ZM6.00304 2.19684C5.75034 2.19478 5.74192 2.33823 5.99462 2.34029C6.24731 2.34236 6.25574 2.19891 6.00304 2.19684ZM7.9516 2.21232C7.69891 2.21026 7.69048 2.35371 7.94318 2.35577C8.19588 2.35783 8.2043 2.21439 7.9516 2.21232ZM59.7626 2.63441C59.5099 2.63234 59.5015 2.77579 59.7542 2.77786C60.0069 2.77889 60.0153 2.63647 59.7626 2.63441ZM153.257 3.39395C153.004 3.39189 152.996 3.53534 153.249 3.5374C153.501 3.53947 153.51 3.39602 153.257 3.39395ZM166.504 3.50128C166.251 3.49922 166.243 3.64266 166.496 3.64473C166.748 3.64679 166.757 3.50335 166.504 3.50128ZM23.1358 2.47961C22.8831 2.47755 22.8747 2.62099 23.1274 2.62306C23.3801 2.62409 23.3885 2.48167 23.1358 2.47961ZM27.4204 2.5147L27.221 2.58487L28.1729 2.9502L28.3722 2.88002L27.4204 2.5147ZM35.7706 3.01212L35.4056 2.57971C34.6194 2.64989 34.5127 2.87693 34.5913 3.14628L35.7706 3.01212ZM35.9896 2.58384L35.7902 2.65402L37.1323 3.02244L37.1576 2.59313L36.3686 2.73038L35.9896 2.58384ZM44.1713 2.65092C43.9186 2.64886 43.9102 2.7923 44.1629 2.79437C44.4156 2.7954 44.424 2.65195 44.1713 2.65092ZM45.3393 2.66021C45.0866 2.65814 45.0782 2.80159 45.3309 2.80366C45.5836 2.80469 45.592 2.66227 45.3393 2.66021ZM48.6524 2.68704L47.8747 2.68085L47.8662 2.8243L48.644 2.83049L48.6524 2.68704ZM91.6977 3.03689C91.445 3.03482 91.4365 3.17827 91.6892 3.18033C91.9419 3.18136 91.9504 3.03895 91.6977 3.03689ZM31.3063 2.6891C31.0536 2.68704 31.0452 2.83049 31.2979 2.83255C31.5505 2.83462 31.5618 2.69117 31.3063 2.6891ZM91.1052 3.17517L90.3275 3.16898L90.3191 3.31243L91.0968 3.31862L91.1052 3.17517ZM10.8464 2.66537L10.0686 2.65918L10.0602 2.80262L10.8379 2.80882L10.8464 2.66537ZM12.0144 2.67569L11.2366 2.6695L11.2282 2.81294L12.006 2.81914L12.0144 2.67569ZM30.1298 2.82223C29.8771 2.82017 29.8687 2.96361 30.1214 2.96568C30.3741 2.96774 30.3825 2.8243 30.1298 2.82223ZM19.6037 2.88002C19.351 2.87796 19.3426 3.02141 19.5952 3.02347C19.8479 3.02553 19.8564 2.88209 19.6037 2.88002ZM28.945 3.0988C28.6923 3.09674 28.6839 3.24019 28.9366 3.24225C29.1892 3.24432 29.1977 3.10087 28.945 3.0988Z" fill="url(#paint2_linear_1580_4909)"/>
<path d="M1.92923 1.87625C1.92923 1.92373 1.918 1.9712 1.92081 2.0197C1.63442 2.06201 1.21326 2.19308 1.13184 2.15696L1.14868 1.87109L1.92923 1.87625Z" fill="url(#paint3_linear_1580_4909)"/>
<path d="M497.965 3.61049L497.956 3.75391L498.736 3.76025L498.745 3.61683L497.965 3.61049Z" fill="url(#paint4_linear_1580_4909)"/>
<path d="M475.994 3.01174C476.246 3.0138 476.238 3.15725 475.985 3.15519C475.732 3.15209 475.741 3.00968 475.994 3.01174Z" fill="url(#paint5_linear_1580_4909)"/>
<path d="M0.193786 1.57815C0.446481 1.58021 0.438058 1.72366 0.185363 1.72159C-0.0673328 1.71953 -0.0589096 1.57608 0.193786 1.57815Z" fill="url(#paint6_linear_1580_4909)"/>
</g>
<g opacity="0.5">
<path d="M490.999 7.24609L490.78 7.56605L488.629 7.66034L489.042 7.34115L490.999 7.24609Z" fill="url(#paint7_linear_1580_4909)"/>
<path d="M492.922 7.57812L493.312 7.58044L493.11 7.68632C492.857 7.68555 492.942 7.58044 492.922 7.57812Z" fill="url(#paint8_linear_1580_4909)"/>
<path d="M30.4441 5.6228L31.2191 5.68076L30.4694 5.3013C32.3 5.37472 34.7792 5.24256 36.5088 5.33839C37.7245 5.40563 39.6871 5.40795 40.7934 5.36467C41.9585 5.3183 42.5959 5.44814 43.5196 5.3809C44.4883 5.31057 44.901 5.60348 45.0611 5.60503C45.3587 5.54629 45.9792 5.42572 46.2459 5.3979C47.72 5.24565 49.4888 5.50687 51.311 5.42882C54.3321 5.29975 58.9873 5.51615 62.2274 5.38785C65.1531 5.27193 68.1517 5.37394 70.7965 5.44041L71.9814 5.23328L72.3633 5.34303L72.9557 5.23947L72.9388 5.45355C73.5593 5.51615 73.7671 5.35926 73.9215 5.3523C74.4325 5.32989 75.7718 5.25647 75.8785 5.25724C76.0077 5.25802 76.1115 5.35926 76.2603 5.36699C77.6754 5.44041 79.0484 5.36544 80.1378 5.60503C80.8285 5.29666 81.6175 5.45355 82.4935 5.40486C83.6081 5.34303 84.1135 5.34458 85.2197 5.42109C86.2474 5.49296 88.7378 5.28043 89.903 5.34226C93.3397 5.52619 98.0285 4.99447 101.971 5.5231C103.04 5.12354 105.289 5.418 106.645 5.5517L107.036 5.55402C108.852 5.12199 112.387 5.47055 114.844 5.38708C117.494 5.29666 120.075 5.31907 122.245 5.43191C123.41 5.49219 124.151 5.34921 124.592 5.33917C126.749 5.28893 129.214 5.41336 131.409 5.3809L131.586 5.59652C132.485 5.27347 135.132 5.33917 136.27 5.51769C152.942 5.49992 170.386 5.42882 188.097 5.61894C189.945 5.34612 192.042 5.5973 194.339 5.54938L196.456 5.88402L195.498 5.66376C195.116 5.60734 195.801 5.45896 195.905 5.452C196.296 5.42572 198.163 5.44427 198.632 5.46823C199.539 5.51537 200.285 5.42882 201.358 5.48446C205.084 5.67845 209.61 5.3894 213.824 5.5602C214.95 5.6058 218.114 5.52697 218.898 5.48369C220.206 5.41104 222.337 5.56252 223.766 5.51306L224.14 5.72945L224.353 5.51615C225.395 5.48832 225.816 5.63207 225.903 5.63285C227.604 5.64289 233.181 5.64676 234.871 5.58029C238.515 5.43654 245.108 5.58493 248.895 5.66531L249.286 5.66763C250.133 5.20237 253.121 5.61816 253.579 5.58648C256.271 5.40022 259.278 5.69777 260.202 5.62666C261.763 5.5061 270.172 5.49528 271.896 5.59034C273.696 5.69004 276.675 5.44273 277.747 5.51847C278.722 5.58725 284.576 5.72868 285.921 5.67535C286.853 5.63826 288.13 5.62357 289.046 5.58725C290.129 5.54474 291.553 5.55479 292.145 5.82065L292.943 5.61121C293.67 5.89716 295.164 5.6398 295.669 5.62744C300.602 5.51151 306.268 5.73641 310.48 5.61044L310.861 5.72018L311.454 5.61662L312.206 5.94276L312.038 5.61971C313.06 5.68695 313.765 5.45818 314.773 5.52929C315.884 5.60812 318.299 5.72791 319.829 5.66763C319.978 5.66144 320.099 5.56175 320.228 5.56252C320.309 5.56329 320.599 5.731 321.194 5.67535L321.177 5.88943C321.362 5.88402 321.592 5.9103 321.761 5.8933C322 5.86857 322.884 5.6058 323.345 5.58107C323.825 5.55556 325.554 5.57102 326.071 5.5973C326.22 5.60503 326.318 5.70472 326.453 5.70704C326.517 5.70781 326.863 5.5432 327.435 5.6058L327.612 5.82142C328.266 5.52001 329.269 5.7024 329.976 5.51383L331.916 5.63285L332.509 5.52929L332.882 5.74568L333.284 5.58725L333.475 5.64212C333.626 5.63517 333.73 5.54088 333.873 5.53701C336.872 5.45818 339.733 5.50765 342.841 5.48446C345.037 5.46746 348.285 5.28893 350.251 5.42263C351.365 5.49837 352.138 5.3438 352.598 5.32989C353.269 5.30902 354.047 5.35539 354.74 5.34303L354.527 5.55634C355.333 5.23638 356.568 5.37394 357.854 5.36235L357.447 5.57411C357.761 5.56406 358.163 5.59884 358.421 5.58029C358.567 5.56947 359.57 5.29125 360.005 5.26806C361.602 5.18382 364.169 5.37549 365.848 5.30361C370.292 5.11349 375.531 5.4891 380.658 5.28661C382.231 5.22478 384.16 5.25261 386.122 5.21242L387.273 5.43423L388.071 5.22478L389.421 5.39404L389.045 5.23097C390.132 5.21937 391.274 5.26961 392.355 5.25106C397.286 5.16527 408.32 5.04316 412.621 5.26729C413.57 5.31675 415.185 5.32371 415.738 5.28661C417.641 5.15909 424.147 5.13359 426.264 5.24333C429.456 5.40949 434.187 5.13668 437.562 5.31212C440.098 5.44427 443.256 5.11658 445.752 5.25492C446.392 5.29048 447.923 5.37549 448.47 5.37858C448.538 5.37935 448.768 5.24333 449.647 5.27888L449.823 5.49451L450.231 5.28275C450.666 5.29975 451.199 5.26574 451.595 5.29125C453.384 5.40408 454.712 5.32835 456.652 5.42959C457.893 5.49373 464.025 5.54706 465.611 5.48446C466.984 5.43036 468.849 5.46514 469.879 5.72482L470.092 5.51151L472.81 5.63517L472.793 5.84925L473.768 5.85543C474.554 5.61044 475.809 5.72327 476.519 5.55015L477.28 5.76887C478.305 5.47519 479.655 5.85156 480.787 5.79051C480.958 5.78123 481.143 5.62666 481.77 5.68927L480.947 6.22021L481.539 6.11665L482.098 6.44202L482.881 6.39333L483.305 5.96672L482.149 5.79901L484.282 5.91957C485.905 5.7055 487.632 6.0185 489.348 5.95049C490.704 5.89716 491.625 6.19935 492.464 5.96981L493.037 6.13443L492.245 6.29054C492.992 6.36937 493.304 6.1066 493.627 6.08419C494.488 6.02545 495.005 6.19548 495.76 6.20476L494.561 6.57263L494.938 6.7357L492.995 6.67001L493.568 6.83463L495.311 6.9521C495.19 6.48685 495.993 6.06255 497.903 6.21712C498.422 6.25886 498.739 6.51158 498.068 6.5935L498.641 6.75812L499.439 6.54867L500 6.81994L499.222 6.81531L499.587 7.13913L499.177 7.40499L498.397 7.40035L499.203 7.08349L498.035 7.07653L498.051 6.86245L497.274 6.85781L498.018 7.29138L496.078 7.17236L496.847 7.28443L497.015 7.60748L497.583 7.82542L495.432 7.91971L494.076 7.80455L494.101 7.48305L493.312 7.58584L493.127 7.47764L492.925 7.58352C492.776 7.56652 492.503 7.6067 492.341 7.57965C491.838 7.49696 491.406 7.19632 491.408 7.03789L490.816 7.14145C490.019 6.83154 488.935 6.82535 488.09 7.12522L486.93 7.01084L486.321 7.32848L487.874 7.39185C488.595 7.2937 487.876 7.53792 487.666 7.55106C486.602 7.61907 486.36 7.27902 485.734 7.32461L484.151 7.63685L484.372 7.31689C483.76 7.28288 483.606 7.40035 482.999 7.41581C481.902 7.44441 481.211 7.4645 480.265 7.50623C478.734 7.57347 478.097 7.29756 476.775 7.27051L475.056 6.83154L475.225 7.15459L475.011 7.36789C474.573 7.37949 474.051 7.34007 473.647 7.35939C473.498 7.36635 473.403 7.45523 473.248 7.4645C472.28 7.52014 471.76 7.30452 470.912 7.45059C470.401 7.19478 469.559 7.28211 468.989 7.11749L469.166 7.33312C468.728 7.34394 468.206 7.30529 467.801 7.32461C467.65 7.33157 467.546 7.42508 467.403 7.42972C465.979 7.46991 464.353 7.31611 463.508 7.40576L462.747 7.18705L461.95 7.39649L461.181 7.28443C460.291 7.55415 459.319 7.23265 458.258 7.26665L457.884 7.05025L457.663 7.37021L457.486 7.15459L456.708 7.14995L456.691 7.36403C456.506 7.35553 456.27 7.38026 456.107 7.36017C455.894 7.33389 455.846 7.21332 455.338 7.2481C452.71 7.43049 449.815 7.42277 447.156 7.19864L445.971 7.40576L445.589 7.29602L444.216 7.39494L444.43 7.18164L443.245 7.38876C442.992 7.37408 442.695 7.40344 442.467 7.38412C441.496 7.30066 440.297 7.43204 438.96 7.36248C437.804 7.3022 436.391 7.2682 434.676 7.33621C433.078 7.39958 430.299 7.33157 428.434 7.40576C427.671 7.4359 426.705 7.37099 425.902 7.39031L426.115 7.177C425.725 7.27361 425.057 7.36558 424.54 7.3818C422.858 7.43436 421.496 7.3934 420.247 7.46295C418.762 7.54488 417.773 7.12599 416.732 7.54874C415.808 7.32539 414.331 7.51396 413.242 7.31302L412.057 7.52014C410.15 7.25738 407.427 7.63762 405.046 7.47764C404.004 7.40731 401.455 7.38876 399.981 7.44672C399.723 7.45677 399.686 7.65153 399.203 7.44209L398.611 7.54565L398.434 7.33002C398.038 7.50546 397.429 7.39803 396.867 7.4274C396.713 7.43513 396.615 7.5271 396.469 7.53251C394.009 7.61598 392.279 7.4645 389.845 7.49232C389.222 7.49928 389.017 7.49541 388.472 7.59125L389.27 7.3818C389.312 7.26742 389.505 6.96138 388.711 7.05644C387.88 7.15613 388.298 7.48923 387.498 7.58506L386.729 7.473C385.979 7.77132 383.138 7.42818 382.834 7.44904C381.079 7.57038 379.555 7.52787 377.752 7.63221C376.742 7.69094 376.085 7.45986 375.425 7.51087C372.875 7.70717 370.298 7.41272 367.625 7.57038C367.322 7.58816 367.072 7.72186 366.058 7.66776C364.952 7.60825 363.416 7.62293 362.172 7.53715C360.743 7.43822 360.389 7.82156 359.429 7.735C357.503 7.56111 355.765 7.56342 353.965 7.80919L353.575 7.80687C352.466 7.50082 350.967 7.58506 349.501 7.56729L349.484 7.78137C348.67 7.87256 347.21 7.64148 346.96 7.65848C345.225 7.77905 343.841 7.82774 342.294 7.52324L341.109 7.73036C340.73 7.71645 340.295 7.74195 339.941 7.7234C339.312 7.6894 337.47 7.6608 336.434 7.70176C334.909 7.76205 333.222 7.68399 331.361 7.77828L330.6 7.55956L329.025 7.76436L327.475 7.64767C324.956 7.88416 322.143 7.67703 320.057 7.81692C318.232 7.93903 316.831 7.66853 314.983 7.89343L313.832 7.67162L313.043 7.77441L312.102 7.34007L312.872 7.45213C313.001 7.24887 312.473 7.0974 311.729 7.12367L312.102 7.34007C311.631 7.30143 311.035 7.33234 311.311 7.49619C311.645 7.69481 312.543 7.59357 312.459 7.77132L310.699 7.86793L309.157 7.6438L307.972 7.85092L307.414 7.52555L307.023 7.52324L307.006 7.73732L305.44 7.83469L305.086 7.40344L303.741 7.18086L304.875 7.61675L304.468 7.82851L302.318 7.9228L302.334 7.70872L300.953 7.91507L300.571 7.80533C300.445 7.80455 300.335 7.89807 300.172 7.91043C299.423 7.96453 298.982 7.73732 298.232 7.79141C296.986 7.88184 295.029 7.99467 293.159 7.86793C291.092 7.72727 287.922 7.96994 285.758 7.8231C284.348 7.72727 282.363 7.97072 281.074 7.90193C279.348 7.80996 277.789 7.81769 275.622 7.8687C274.26 7.90039 272.91 7.89961 271.938 7.63221L271.921 7.84629L268.423 7.71799L268.44 7.50392L268.049 7.5016L268.033 7.71568L265.093 7.91198C264.082 7.57811 260.264 7.93516 259.64 7.87875C259.48 7.86406 259.402 7.7775 259.259 7.769C258.402 7.72186 257.245 7.786 256.336 7.75123L256.743 7.53947L255.769 7.53328C255.544 7.57965 254.682 7.735 254.584 7.74041C253.247 7.81151 250.687 7.50469 249.519 7.70949L248.55 7.64998L248.926 7.81305L247.191 7.58816C247.039 7.59898 246.952 7.68012 246.792 7.69326C244.967 7.8432 242.544 7.65539 240.542 7.86947L239.391 7.64767C237.681 7.77518 235.07 7.92898 233.548 7.61211C233.419 7.61134 233.301 7.71104 233.15 7.71722C228.84 7.89343 223.233 7.69404 219.125 7.63221L217.55 7.83701C216.907 7.66312 215.104 7.65153 214.433 7.81769L213.673 7.59898C213.417 7.61057 213.128 7.57734 212.895 7.59434C212.732 7.60593 212.622 7.70022 212.496 7.69945C212.415 7.69867 212.125 7.53096 211.53 7.58661L211.707 7.80223C211.059 7.53251 210.373 7.78291 210.149 7.79296C208.335 7.86947 205.752 7.68244 203.916 7.75509C202.515 7.81074 200.235 7.65153 198.463 7.72186C197.744 7.75045 197.469 7.70408 197.295 7.7149C197.079 7.72804 196.627 7.89961 195.922 7.81383L195.939 7.59975L194.948 7.80842L194.566 7.69867L193.777 7.80146L193.395 7.69172C192.188 7.90734 191.205 7.70408 189.88 7.7775C188.869 7.83315 187.283 7.71722 186.179 7.75509L186.587 7.54333L185.205 7.74968C185.076 7.74891 184.972 7.64844 184.823 7.63994C183.464 7.56729 181.109 8.03718 179.758 7.60902C178.601 7.9027 176.024 7.58661 175.083 7.58043C175.002 7.57965 174.687 7.74427 174.101 7.68167C174.303 7.40267 173.371 7.39881 172.773 7.24501L172.172 7.456L173.705 7.78678L172.349 7.67162C170.515 7.87102 168.687 7.49155 166.868 7.9599L165.7 7.95294L164.549 7.73113L163.575 7.72495L163.558 7.93903C163.123 7.92203 162.589 7.95603 162.193 7.93053C161.466 7.88493 160.82 7.84088 160.253 7.81151C159.259 7.75973 158.206 7.8857 157.339 7.68631L157.313 8.00781L156.145 8.00086L156.171 7.67935C155.55 7.61675 155.34 7.77441 155.188 7.7806C153.7 7.84088 151.687 7.7064 150.123 7.74968C148.848 7.78523 149.342 7.83315 147.787 7.73577C147.225 7.70022 146.605 7.79837 146.237 7.61907L146.414 7.83469C145.869 7.81151 145.153 7.85788 144.662 7.82387C143.3 7.73113 142.053 7.93207 140.776 7.69326L138.811 7.89575C138.443 7.71954 137.845 7.80996 137.261 7.77905C136.174 7.72109 135.236 7.81692 134.144 7.75973C130.342 7.56188 124.873 7.92512 121.288 7.68167C119.923 7.58893 118.519 7.68322 117.382 7.76514C116.632 7.81924 116.324 7.61984 115.638 7.64767L115.815 7.86329L114.274 7.63916L112.893 7.84551L112.909 7.63144C112.469 7.64148 111.96 7.60593 111.545 7.62293C111.393 7.62912 111.275 7.72881 111.146 7.72804C111.017 7.72727 110.913 7.62602 110.764 7.6183C109.678 7.56188 108.465 7.60902 107.631 7.81383L107.656 7.49232L106.859 7.70176C105.831 7.77287 105.025 7.58352 104.919 7.58275C104.789 7.58197 104.669 7.68167 104.52 7.68785C103.026 7.74659 99.3088 7.71954 98.2868 7.64998C96.4113 7.52246 94.3617 7.81074 92.823 7.72418C88.9259 7.50392 84.8632 7.82156 80.3568 7.64844C79.8233 7.62757 79.7896 7.57038 79.3909 7.5356L79.1776 7.74891L78.7957 7.63916C77.9562 7.57579 77.1364 7.90502 76.4597 7.62525L76.6366 7.84088L75.8588 7.83624L75.8757 7.62216L74.7077 7.61521L74.6908 7.82928C73.7615 7.8687 73.5846 7.52324 72.5654 7.60207C72.4054 7.61443 72.3127 7.70099 72.1667 7.70717C70.308 7.78678 67.6491 7.72959 65.9336 7.6693L64.7487 7.87643L63.1989 7.75973C62.438 7.96917 61.0369 7.81692 60.0823 7.74041C58.7655 7.6353 58.8554 7.6724 57.356 7.72418C55.8595 7.77519 53.8548 7.57811 52.6728 7.80301L52.114 7.47764L50.7579 7.36248L50.3424 7.68167L49.1912 7.45986L49.1744 7.67394C48.7953 7.7435 48.537 7.56265 48.4051 7.56188C48.1018 7.56033 46.0017 7.63916 45.6703 7.6523C44.1626 7.71181 42.6324 7.67317 41.776 7.62834C41.018 7.58893 40.0437 7.64225 39.2435 7.61289L39.6675 7.18627L38.1008 7.28365L38.4658 7.60748L37.4999 7.49464L36.9075 7.5982L36.9243 7.38412L36.1466 7.37949L36.1297 7.59357C35.046 7.51473 34.1924 7.75277 33.1985 7.68322C33.0441 7.6724 32.9598 7.58043 32.8166 7.57347C31.7076 7.52092 30.534 7.56111 29.6832 7.769L29.8966 7.5557C29.4558 7.56574 28.9476 7.53019 28.5321 7.54719C28.3805 7.55338 28.2625 7.65307 28.1334 7.6523C28.0042 7.65153 27.9003 7.55029 27.7515 7.54256C27.1058 7.50855 24.5788 7.56265 24.4412 7.52246L24.4581 7.30838L23.1132 7.0858L23.2732 7.51551L22.5123 7.29679L22.4871 7.6183C21.8581 7.67394 21.6728 7.51319 21.5212 7.50546C21.0467 7.47996 20.4515 7.5186 19.9629 7.49619C19.5502 7.47764 19.2273 7.42508 18.8034 7.3818C18.3429 7.33543 19.2751 7.20096 19.0252 7.06185L17.6269 7.48228L16.8576 7.37021C16.428 7.51551 15.2291 7.49696 14.5104 7.46295C14.3644 7.456 14.2717 7.35862 14.1285 7.35321C11.5258 7.26124 8.90056 7.33389 6.55051 7.09276L6.56736 6.87868L5.78962 6.87404L6.16305 7.09044L3.05491 6.96447C2.94541 6.93587 3.70068 6.80681 3.08018 6.64296C3.5603 6.71484 4.45596 6.47989 4.26503 6.43584L3.09983 6.37478L2.16487 5.88634L2.33052 6.26272L3.09141 6.48144L2.07783 6.95751C1.18217 6.78362 1.92902 6.74884 1.91779 6.52781C2.02448 6.51621 2.23225 6.54945 2.31087 6.4768C2.31648 6.40647 1.97113 6.43043 1.92621 6.42115C1.80548 6.39642 2.36983 6.08883 0.775049 6.19935L1.56682 6.04323L0.0478516 5.59807L1.22147 5.5517L1.24394 5.28352L1.84198 5.12663C2.55514 5.22015 3.29076 5.03312 3.40868 5.02925C4.97538 4.97593 7.94033 5.02152 9.2431 5.17223L9.83553 5.06867L9.81869 5.28275L10.5964 5.28738L10.6133 5.07331C11.3713 5.08258 11.829 5.24642 12.7471 5.19387C14.2043 5.10963 17.2703 5.13668 18.59 5.22942C20.3616 5.35385 22.5938 5.31984 24.0425 5.26265C24.8343 5.23174 27.541 5.24797 28.3271 5.28893C28.5826 5.30207 28.5882 5.4976 29.1049 5.29357L30.4441 5.6228L28.8774 5.72018L30.4273 5.83688L30.8007 6.05328L30.4441 5.6228ZM459.76 5.55556C459.507 5.55402 459.499 5.66144 459.751 5.66299C460.004 5.66376 460.013 5.55711 459.76 5.55556ZM466.762 5.7055C466.51 5.70395 466.501 5.81138 466.754 5.81292C467.009 5.81369 467.018 5.70704 466.762 5.7055ZM431.837 6.2434L430.916 5.59421C429.936 5.80056 430.54 5.75109 430.891 5.91571C431.149 6.03782 431.177 6.21094 431.837 6.2434ZM450.163 6.14061L450.393 5.71322L449.784 6.03086L449.009 5.9729L450.163 6.14061ZM455.644 5.85234L453.9 5.73486C453.134 5.88248 451.727 5.85466 451.716 6.25731L453.476 6.1607L455.644 5.85234ZM457.407 5.75573C457.154 5.75419 457.146 5.86161 457.399 5.86316C457.651 5.86393 457.66 5.75728 457.407 5.75573ZM465.586 5.80519C465.333 5.80365 465.325 5.91107 465.578 5.91262C465.83 5.91416 465.839 5.80674 465.586 5.80519ZM470.438 6.04941L471.404 6.16225L471.603 6.1097L471.235 5.8392L470.438 6.04941ZM480.391 5.89562C480.138 5.89407 480.13 6.0015 480.383 6.00304C480.635 6.00382 480.644 5.89716 480.391 5.89562ZM447.836 6.0185L446.878 5.79824L445.865 6.27431L447.836 6.0185ZM462.267 5.89252L461.487 5.88789L462.054 6.10583L462.248 6.10738L462.267 5.89252ZM468.694 5.93117C468.441 5.92962 468.433 6.03705 468.686 6.03859C468.938 6.04014 468.947 5.93271 468.694 5.93117ZM472.591 5.95513C472.338 5.95358 472.33 6.06101 472.583 6.06255C472.835 6.0641 472.844 5.95667 472.591 5.95513ZM480.178 6.10815C479.585 6.14911 479.476 6.03009 479.018 5.99377L479.001 6.20785L480.169 6.2148L480.178 6.10815ZM487.57 6.2604L487.587 6.04632C487.042 6.12824 486.683 6.18157 486.02 6.1437L486.012 6.25113L487.57 6.2604ZM445.508 5.89716L443.551 5.99222L443.543 6.09965L445.5 6.00459L445.508 5.89716ZM459.125 6.19471L457 5.96749L455.22 6.27818L456.784 6.23412L456.798 6.07337L457.576 6.07801L457.559 6.29209L459.125 6.19471ZM461.071 6.2063L461.088 5.99222C460.625 6.02314 460.496 6.14061 459.912 6.09192L459.903 6.19935L461.071 6.2063ZM478.212 6.31064L476.087 6.08342L474.705 6.28977L475.472 6.45516L474.68 6.61127L476.839 6.41033L478.212 6.31064ZM360.168 5.69931L359.407 5.4806L359.387 5.69468L360.168 5.69931ZM379.078 5.60039C378.825 5.59884 378.816 5.70627 379.069 5.70781C379.322 5.70936 379.33 5.60193 379.078 5.60039ZM389.011 5.66067L388.233 5.65603L388.225 5.76346L389.003 5.7681L389.011 5.66067ZM463.789 6.33073L463.028 6.11201L463.011 6.32609L463.789 6.33073ZM466.136 6.23722L466.703 6.45516L467.689 6.30059L467.116 6.13597L466.136 6.23722ZM490.67 6.4938L489.519 6.27199L489.502 6.48607L488.705 6.69552L490.67 6.4938ZM496.903 6.53167L496.92 6.31759L496.53 6.31527L496.513 6.52935L496.903 6.53167ZM376.733 5.69313C376.48 5.69158 376.472 5.79901 376.725 5.80056C376.977 5.8021 376.986 5.69468 376.733 5.69313ZM465.552 6.23412C465.3 6.23258 465.291 6.34 465.544 6.34155C465.797 6.34232 465.805 6.23567 465.552 6.23412ZM467.245 6.99461C467.725 7.11363 469.028 6.66228 469.421 6.57881L471.561 6.64528L468.475 6.25113C468.764 6.64451 467.919 6.71715 467.245 6.99461ZM494.185 6.40802L492.237 6.39642L492.22 6.6105C492.874 6.49303 493.391 6.49457 494.177 6.51544L494.185 6.40802ZM361.92 5.71013C361.667 5.70859 361.659 5.81601 361.911 5.81756C362.164 5.8191 362.172 5.71168 361.92 5.71013ZM377.893 5.80751C377.64 5.80597 377.632 5.91339 377.884 5.91494C378.137 5.91648 378.145 5.80906 377.893 5.80751ZM378.67 5.81215C378.418 5.8106 378.409 5.91803 378.662 5.91957C378.915 5.92112 378.926 5.81369 378.67 5.81215ZM408.067 6.20553L408.084 5.99145L407.694 5.98913L407.677 6.20321L408.067 6.20553ZM414.705 6.03164L413.927 6.027L413.918 6.13443L414.696 6.13906L414.705 6.03164ZM421.718 6.07414L420.941 6.06951L420.932 6.17693L421.71 6.18157L421.718 6.07414ZM473.139 6.38715L471.971 6.38019L471.962 6.48762L473.13 6.49457L473.139 6.38715ZM484.42 6.67078L484.437 6.4567L484.047 6.45439L484.03 6.66847L484.42 6.67078ZM485.021 6.4598C484.768 6.45825 484.76 6.56568 485.013 6.56722C485.265 6.56799 485.274 6.46134 485.021 6.4598ZM485.987 6.57263L486.953 6.68547L487.152 6.63291L485.995 6.46521L485.987 6.57263ZM488.334 6.47989L487.556 6.47525L487.539 6.68933L488.334 6.47989ZM334.252 5.64908C334 5.64753 333.991 5.75496 334.244 5.7565C334.497 5.75805 334.505 5.65062 334.252 5.64908ZM386.453 5.96672C386.201 5.96517 386.192 6.0726 386.445 6.07414C386.698 6.07569 386.706 5.96826 386.453 5.96672ZM412.554 6.12593C412.301 6.12438 412.293 6.23181 412.545 6.23335C412.798 6.23412 412.807 6.12747 412.554 6.12593ZM436.097 6.59041L436.888 6.43429L436.316 6.26968L436.122 6.26813L436.097 6.59041ZM463.781 6.43738C463.413 6.35082 462.329 6.60277 462.197 6.74961L463.755 6.75889L463.379 6.59582L463.781 6.43738ZM474.301 6.50153L473.523 6.49689L473.506 6.71097L474.301 6.50153ZM478.195 6.52549C477.712 6.45361 476.82 6.68856 477.011 6.73261C477.491 6.80449 478.386 6.56954 478.195 6.52549ZM491.246 6.60509C490.993 6.60355 490.984 6.71097 491.237 6.71252C491.49 6.71329 491.498 6.60664 491.246 6.60509ZM361.692 6.13752L361.709 5.92344L361.319 5.92112L361.302 6.1352L361.692 6.13752ZM460.462 6.52472C460.209 6.52317 460.201 6.6306 460.453 6.63214C460.706 6.63369 460.715 6.52626 460.462 6.52472ZM467.473 6.56722C467.22 6.56568 467.212 6.6731 467.464 6.67465C467.717 6.67619 467.728 6.56877 467.473 6.56722ZM322.94 5.79437C322.687 5.79283 322.679 5.90025 322.932 5.9018C323.184 5.90334 323.193 5.79592 322.94 5.79437ZM339.885 5.89793L339.107 5.8933L339.099 6.00072L339.876 6.00536L339.885 5.89793ZM370.076 6.08187C369.823 6.08033 369.815 6.18775 370.068 6.1893C370.32 6.19007 370.329 6.08342 370.076 6.08187ZM380.594 6.14602C380.341 6.14447 380.333 6.2519 380.585 6.25345C380.838 6.25422 380.846 6.14757 380.594 6.14602ZM393.06 6.22176C392.807 6.22021 392.799 6.32764 393.052 6.32918C393.304 6.32996 393.313 6.2233 393.06 6.22176ZM435.131 6.47757L434.533 6.63446L434.724 6.68933L435.322 6.53244L435.131 6.47757ZM480.107 6.96601L480.7 6.86245L481.281 6.91964L480.124 6.75193L480.107 6.96601ZM326.826 5.92576C326.573 5.92421 326.565 6.03164 326.818 6.03318C327.07 6.03396 327.079 5.9273 326.826 5.92576ZM334.811 5.97445L334.033 5.96981C334.483 6.17075 334.511 6.19625 334 6.39874L334.982 6.2975L336.325 6.5734L337.481 6.74111L334.803 6.1352L334.811 5.97445ZM342.799 6.02314C342.546 6.02159 342.538 6.12902 342.791 6.13056C343.043 6.13134 343.052 6.02468 342.799 6.02314ZM349.226 6.06178L347.668 6.0525L348.235 6.27045L348.634 6.16534L349.394 6.38406L349.226 6.06178ZM356.433 6.10583C356.181 6.10429 356.172 6.21171 356.425 6.21326C356.678 6.2148 356.686 6.10738 356.433 6.10583ZM366.951 6.16998C366.698 6.16843 366.69 6.27586 366.943 6.2774C367.195 6.27818 367.204 6.17152 366.951 6.16998ZM368.119 6.17693C367.866 6.17539 367.858 6.28281 368.111 6.28436C368.363 6.28591 368.372 6.17848 368.119 6.17693ZM370.845 6.19316C370.593 6.19162 370.584 6.29904 370.837 6.30059C371.09 6.30213 371.098 6.19471 370.845 6.19316ZM433.177 6.57263C432.924 6.57109 432.915 6.67851 433.168 6.68006C433.421 6.6816 433.429 6.57418 433.177 6.57263ZM453.238 6.69474L452.46 6.69011L452.451 6.79753L453.229 6.80217L453.238 6.69474ZM457.719 6.72256C457.466 6.72102 457.458 6.82845 457.71 6.82999C457.963 6.83076 457.971 6.72411 457.719 6.72256ZM471.156 6.80449L471.715 7.12986L471.915 7.0773L471.547 6.80681L471.156 6.80449ZM484.403 6.88486C483.92 6.81299 483.027 7.04793 483.218 7.09199C483.698 7.16386 484.591 6.92892 484.403 6.88486ZM456.152 6.81994C455.899 6.8184 455.891 6.92582 456.144 6.92737C456.396 6.92892 456.405 6.82149 456.152 6.81994ZM459.656 6.84158C459.403 6.84004 459.395 6.94746 459.648 6.94901C459.9 6.94978 459.909 6.84313 459.656 6.84158ZM477.755 7.16618L477.771 6.9521L477.381 6.94978L477.364 7.16386L477.755 7.16618ZM323.693 6.12129C323.44 6.11974 323.432 6.22717 323.684 6.22871C323.937 6.22949 323.945 6.12283 323.693 6.12129ZM343.95 6.24417C343.698 6.24263 343.689 6.35005 343.942 6.3516C344.195 6.35314 344.203 6.24572 343.95 6.24417ZM348.42 6.37865L345.697 6.30832C346.194 6.53631 346.736 6.44975 347.437 6.47989C347.76 6.4938 348.041 6.70092 348.42 6.37865ZM355.636 6.31527C355.383 6.31373 355.375 6.42115 355.628 6.4227C355.88 6.42424 355.889 6.31682 355.636 6.31527ZM389.918 6.52394C389.665 6.5224 389.657 6.62982 389.91 6.63137C390.162 6.63291 390.171 6.52549 389.918 6.52394ZM464.906 6.9807L464.126 6.97606L464.109 7.19014L464.887 7.19478L464.906 6.9807ZM485.554 7.1059L484.777 7.10126L484.768 7.20869L485.546 7.21332L485.554 7.1059ZM317.061 6.18775C316.808 6.18621 316.8 6.29363 317.052 6.29518C317.305 6.29672 317.314 6.1893 317.061 6.18775ZM325.243 6.23722C324.99 6.23567 324.981 6.3431 325.234 6.34464C325.487 6.34619 325.495 6.23876 325.243 6.23722ZM364.977 6.47912C364.725 6.47757 364.716 6.585 364.969 6.58654C365.221 6.58809 365.23 6.48066 364.977 6.47912ZM466.456 7.0974L465.676 7.09276L465.667 7.20019L466.445 7.20482L466.456 7.0974ZM473.273 7.13836C473.021 7.13681 473.012 7.24424 473.265 7.24578C473.518 7.24733 473.526 7.1399 473.273 7.13836ZM215.961 5.67922L215.183 5.67458L215.175 5.78201L215.952 5.78664L215.961 5.67922ZM227.843 5.75187C227.59 5.75032 227.582 5.85775 227.835 5.85929C228.087 5.86084 228.096 5.75341 227.843 5.75187ZM329.322 6.36937L328.348 6.36319L327.941 6.57495L329.314 6.47603L329.322 6.36937ZM356.787 6.53708C356.534 6.53554 356.526 6.64296 356.779 6.64451C357.031 6.64528 357.04 6.53863 356.787 6.53708ZM408.598 6.8524C408.345 6.85086 408.337 6.95828 408.589 6.95983C408.842 6.9606 408.851 6.85395 408.598 6.8524ZM453.788 7.12754C453.535 7.12599 453.527 7.23342 453.78 7.23496C454.032 7.23574 454.041 7.12908 453.788 7.12754ZM242.817 6.16457L242.833 5.95049L242.443 5.94817L242.426 6.16225L242.817 6.16457ZM245.543 6.18157L245.56 5.96749L244.768 6.12361L244.762 6.17693L245.543 6.18157ZM306.703 6.55331L305.942 6.33459L305.925 6.54867L306.703 6.55331ZM317.434 6.40415C317.182 6.40261 317.173 6.51003 317.426 6.51158C317.679 6.51312 317.687 6.4057 317.434 6.40415ZM322.303 6.43429L320.346 6.52935L320.337 6.63678L322.294 6.54172L322.303 6.43429ZM341.196 6.54945C340.943 6.5479 340.935 6.65533 341.188 6.65687C341.44 6.65765 341.449 6.55099 341.196 6.54945ZM367.103 6.70711L366.325 6.70247L366.317 6.8099L367.094 6.81453L367.103 6.70711ZM170.56 5.61739C170.307 5.61585 170.299 5.72327 170.552 5.72482C170.804 5.72636 170.813 5.61894 170.56 5.61739ZM180.494 5.67845L179.716 5.67381L179.708 5.78046L180.488 5.7851L180.494 5.67845ZM202.894 5.81447C202.641 5.81292 202.633 5.92035 202.885 5.92189C203.138 5.92344 203.146 5.81601 202.894 5.81447ZM229.578 5.97677L228.02 5.96749L228.014 6.02082L228.587 6.18543L228.977 6.18775L229.578 5.97677ZM246.719 6.0811L245.922 6.29054C247.096 6.32068 247.514 6.7473 248.645 6.36087L247.694 6.08728L247.48 6.30059L246.896 6.29673L246.719 6.0811ZM308.66 6.45825L307.492 6.45129L307.484 6.55872L308.652 6.56568L308.66 6.45825ZM311.58 6.47603C311.327 6.47448 311.319 6.58191 311.572 6.58345C311.824 6.585 311.833 6.47757 311.58 6.47603ZM314.113 6.49148L313.335 6.48685L313.327 6.59427L314.104 6.59891L314.113 6.49148ZM370.598 6.8354L369.04 6.82613L369.023 7.04021C369.753 7.07035 370.374 7.04948 370.598 6.8354ZM383.649 6.915C383.396 6.91346 383.387 7.02088 383.64 7.02243C383.893 7.0232 383.904 6.91655 383.649 6.915ZM387.739 6.93974L385.791 6.92814L385.782 7.03557C386.633 6.98301 386.995 7.16232 387.723 7.15459L387.739 6.93974ZM147.374 5.58339L146.206 5.57643L146.181 5.89793L146.571 5.90025L146.588 5.68617L147.368 5.69081L147.374 5.58339ZM153.582 5.94353L153.217 5.61971L152.827 5.61739L152.411 5.93658L153.582 5.94353ZM194.9 5.8732L194.122 5.86857L194.114 5.97599L194.892 5.98063L194.9 5.8732ZM273.202 6.35005L272.424 6.34541L272.415 6.45284L273.196 6.45748L273.202 6.35005ZM284.887 6.42115L284.11 6.41652L284.101 6.52394L284.879 6.52858L284.887 6.42115ZM288.394 6.44202L287.226 6.43506L287.201 6.75657C287.664 6.72566 287.793 6.60818 288.377 6.65687L288.394 6.44202ZM294.627 6.47989L293.459 6.47293L293.434 6.79444L294.602 6.8014L294.226 6.63832L294.627 6.47989ZM322.48 6.64992C322.227 6.64837 322.219 6.7558 322.471 6.75734C322.724 6.75812 322.732 6.65146 322.48 6.64992ZM335.727 6.73029C335.474 6.72875 335.465 6.83617 335.718 6.83772C335.971 6.83926 335.979 6.73184 335.727 6.73029ZM203.461 6.03241L202.683 6.02777L202.658 6.34928L203.048 6.3516C202.897 6.18853 203.329 6.15839 203.461 6.03241ZM219.018 6.44898L221.759 6.30445L219.232 6.23567L219.018 6.44898ZM232.661 6.42424L232.678 6.21017L231.886 6.36628L231.881 6.41961L232.661 6.42424ZM276.894 6.47912C276.641 6.47757 276.633 6.585 276.885 6.58654C277.138 6.58809 277.146 6.48066 276.894 6.47912ZM362.374 7.32152L362.4 7.00002L362.009 6.9977C362.158 7.16077 361.726 7.19091 361.594 7.31689L362.374 7.32152ZM150.277 5.81601C150.025 5.81447 150.016 5.92189 150.269 5.92344C150.521 5.92421 150.53 5.81756 150.277 5.81601ZM182.221 6.01C181.968 6.00845 181.959 6.11588 182.212 6.11742C182.465 6.11897 182.476 6.01154 182.221 6.01ZM190.596 6.06101L189.414 6.2148L189.605 6.26968L190.588 6.16843L190.596 6.06101ZM191.57 6.06719C191.318 6.06564 191.309 6.17307 191.562 6.17461C191.815 6.17616 191.823 6.06873 191.57 6.06719ZM243.384 6.38251C243.131 6.38097 243.123 6.48839 243.375 6.48994C243.628 6.49148 243.636 6.38406 243.384 6.38251ZM280.002 6.60586C279.749 6.60432 279.741 6.71174 279.993 6.71329C280.246 6.71406 280.255 6.60741 280.002 6.60586ZM291.297 6.67465C291.045 6.6731 291.036 6.78053 291.289 6.78207C291.542 6.78285 291.55 6.67619 291.297 6.67465ZM323.243 6.86863C322.991 6.86709 322.982 6.97451 323.235 6.97606C323.488 6.9776 323.496 6.87018 323.243 6.86863ZM326.537 7.10358L326.554 6.8895C326.09 6.92041 325.961 7.03789 325.377 6.9892L325.369 7.09662L326.537 7.10358ZM331.619 6.91964C331.136 6.84777 330.243 7.08271 330.434 7.12676C330.914 7.19941 331.807 6.96369 331.619 6.91964ZM332.593 6.92582C332.34 6.92428 332.332 7.0317 332.585 7.03325C332.837 7.03402 332.846 6.92737 332.593 6.92582ZM344.473 6.9977L343.695 6.99306L343.678 7.20714L344.473 6.9977ZM350.315 7.03325L349.538 7.02861L349.529 7.13604L350.307 7.14068L350.315 7.03325ZM162.735 5.99918C162.482 5.99763 162.474 6.10506 162.727 6.1066C162.979 6.10738 162.988 6.00072 162.735 5.99918ZM185.135 6.1352L184.357 6.13056L184.349 6.23799L185.127 6.24263L185.135 6.1352ZM194.291 6.19084C194.038 6.1893 194.03 6.29673 194.282 6.29827C194.535 6.29982 194.544 6.19239 194.291 6.19084ZM335.488 7.2651L335.505 7.05103L335.114 7.04871L335.098 7.26279L335.488 7.2651ZM360.827 7.20482L360.05 7.20019L360.041 7.30761L360.819 7.31225L360.827 7.20482ZM105.851 5.75959C105.598 5.75805 105.59 5.86548 105.842 5.86702C106.095 5.86857 106.104 5.76114 105.851 5.75959ZM113.448 5.80597L112.671 5.80133L112.654 6.01541L113.448 5.80597ZM162.143 6.10274L161.365 6.0981L161.356 6.20553L162.134 6.21017L162.143 6.10274ZM187.075 6.25422L185.711 6.24572L185.11 6.4567L186.474 6.46521L187.075 6.25422ZM246.871 6.61823C246.618 6.61668 246.61 6.72411 246.862 6.72566C247.115 6.7272 247.124 6.61978 246.871 6.61823ZM254.452 6.87868L253.691 6.65996L253.674 6.87404L254.452 6.87868ZM302.969 6.95983C302.716 6.95828 302.708 7.06571 302.961 7.06726C303.213 7.0688 303.222 6.96138 302.969 6.95983ZM171.871 6.2689L170.703 6.26195L169.906 6.47139L171.624 6.91037L171.066 6.585L172.624 6.59427L171.854 6.48221L171.871 6.2689ZM178.301 6.30832C178.048 6.30677 178.04 6.4142 178.293 6.41574C178.545 6.41652 178.554 6.30986 178.301 6.30832ZM218.036 6.55022C217.783 6.54867 217.775 6.6561 218.027 6.65765C218.28 6.65842 218.288 6.55177 218.036 6.55022ZM261.665 6.81531C261.412 6.81376 261.404 6.92119 261.656 6.92273C261.912 6.92428 261.92 6.81685 261.665 6.81531ZM302.18 7.06185C301.927 7.0603 301.919 7.16773 302.172 7.16927C302.424 7.17082 302.433 7.06339 302.18 7.06185ZM327.696 7.21719L326.919 7.21255L326.91 7.31998L327.688 7.32461L327.696 7.21719ZM7.2749 5.37394C7.0222 5.3724 7.01378 5.47982 7.26648 5.48137C7.51917 5.48292 7.52759 5.37549 7.2749 5.37394ZM10.3915 5.39326C10.1388 5.39172 10.1303 5.49914 10.383 5.50069C10.6357 5.50224 10.6442 5.39481 10.3915 5.39326ZM11.756 5.40177L10.9755 5.39713L10.967 5.50455L11.7448 5.50919L11.756 5.40177ZM24.6097 5.47982L23.627 5.58107L23.0458 5.52388L23.6186 5.68849L24.5929 5.69468L24.6097 5.47982ZM34.5434 5.54011C34.2907 5.53856 34.2823 5.64599 34.535 5.64753C34.7877 5.64908 34.7961 5.54165 34.5434 5.54011ZM42.7251 5.59034C42.4724 5.5888 42.4639 5.69622 42.7166 5.69777C42.9693 5.69854 42.9777 5.59189 42.7251 5.59034ZM122.975 6.07878C122.722 6.07724 122.714 6.18466 122.967 6.18621C123.219 6.18698 123.228 6.08033 122.975 6.07878ZM152.386 6.25731L151.218 6.25035L151.209 6.35778L152.377 6.36474L152.386 6.25731ZM164.038 6.75734C164.234 6.47139 163.271 6.47139 162.71 6.32068L162.51 6.37324L164.038 6.75734ZM164.268 6.32996C164.015 6.32841 164.007 6.43584 164.26 6.43738C164.512 6.43893 164.521 6.3315 164.268 6.32996ZM165.613 6.55254L165.63 6.33846L164.838 6.49457L164.832 6.5479L165.613 6.55254ZM176.15 6.40183L175.373 6.3972L175.356 6.61127L176.15 6.40183ZM181.976 6.65224L181.993 6.43816L181.603 6.43584L181.586 6.64992L181.976 6.65224ZM183.745 6.4482C183.492 6.44666 183.484 6.55408 183.737 6.55563C183.989 6.55718 183.998 6.44975 183.745 6.4482ZM191.537 6.49612C191.284 6.49457 191.275 6.602 191.528 6.60355C191.781 6.60432 191.789 6.49767 191.537 6.49612ZM220.754 6.67388C220.501 6.67233 220.492 6.77976 220.745 6.7813C220.998 6.78207 221.006 6.67542 220.754 6.67388ZM293.016 7.11363L292.238 7.10899L292.229 7.21642L293.007 7.22105L293.016 7.11363ZM317.17 7.26047L316.393 7.25583L316.376 7.46991L317.17 7.26047ZM324.765 7.30684C324.512 7.30529 324.504 7.41272 324.757 7.41426C325.009 7.41581 325.018 7.30838 324.765 7.30684ZM3.1588 5.67072L3.17564 5.45664L2.78537 5.45432L2.76852 5.6684L3.1588 5.67072ZM23.0177 5.89871C23.1469 5.69545 22.619 5.54397 21.875 5.57025L23.0177 5.89871ZM48.756 5.73409L47.9783 5.72945L47.9614 5.94353L48.7392 5.94817L48.756 5.73409ZM93.9265 6.2233L93.9433 6.00923L93.553 6.00691L93.5362 6.22099L93.9265 6.2233ZM115.369 6.13984L114.591 6.1352L114.574 6.34928L115.369 6.13984ZM189.97 6.5935L189.372 6.75039L189.563 6.80526L190.161 6.64837L189.97 6.5935ZM256.195 6.99693L255.597 7.15381L255.788 7.20869L256.386 7.0518L256.195 6.99693ZM306.644 7.30375L305.867 7.29911L305.858 7.40654L306.636 7.41117L306.644 7.30375ZM27.906 5.714C27.6533 5.71245 27.6448 5.81988 27.8975 5.82142C28.1502 5.82297 28.1587 5.71554 27.906 5.714ZM97.4417 6.13752L96.664 6.13288L96.6471 6.34696L97.4249 6.3516L97.4417 6.13752ZM143.994 6.42115C143.741 6.41961 143.732 6.52703 143.985 6.52858C144.238 6.52935 144.246 6.4227 143.994 6.42115ZM147.677 6.65765L147.694 6.44357L147.304 6.44125L147.287 6.65533L147.677 6.65765ZM156.46 6.49689C156.207 6.49535 156.199 6.60277 156.451 6.60432C156.704 6.60586 156.713 6.49844 156.46 6.49689ZM169.51 6.5765L168.732 6.57186L168.724 6.67929L169.502 6.68392L169.51 6.5765ZM234.761 6.97374C234.509 6.9722 234.5 7.07962 234.753 7.08117C235.006 7.08194 235.014 6.97529 234.761 6.97374ZM238.445 7.21023L238.462 6.99615L237.67 7.15227L237.664 7.2056L238.445 7.21023ZM297.48 7.35553C297.227 7.35398 297.219 7.46141 297.471 7.46295C297.724 7.46373 297.733 7.35707 297.48 7.35553ZM309.946 7.43127C309.693 7.42972 309.685 7.53715 309.938 7.53869C310.19 7.53947 310.199 7.43281 309.946 7.43127ZM314.231 7.45754C313.978 7.456 313.97 7.56342 314.222 7.56497C314.475 7.56574 314.483 7.45909 314.231 7.45754ZM6.25008 6.01154L6.66001 5.74568L6.46909 5.69081L5.85981 6.00845L6.25008 6.01154ZM9.58565 5.71013C9.33295 5.70859 9.32453 5.81601 9.57722 5.81756C9.82992 5.81833 9.83834 5.71168 9.58565 5.71013ZM58.2826 6.00613C58.0299 6.00459 58.0215 6.11201 58.2742 6.11356C58.5269 6.11511 58.5353 6.00768 58.2826 6.00613ZM87.3031 6.18312L87.8618 6.50849L88.8473 6.35392L88.2745 6.1893L87.3031 6.18312ZM125.853 6.63214L125.092 6.41343L125.075 6.6275L125.853 6.63214ZM150.609 6.56877C150.356 6.56722 150.347 6.67465 150.6 6.67619C150.853 6.67697 150.861 6.57031 150.609 6.56877ZM166.189 6.66306C165.936 6.66151 165.927 6.76894 166.18 6.77048C166.433 6.77203 166.441 6.6646 166.189 6.66306ZM288.512 7.40808C288.259 7.40654 288.251 7.51396 288.504 7.51551C288.756 7.51705 288.765 7.40963 288.512 7.40808ZM49.1182 6.05791L48.3405 6.05328L48.3321 6.1607L49.1098 6.16534L49.1182 6.05791ZM59.8324 6.12283C59.5797 6.12129 59.5713 6.22871 59.824 6.23026C60.0767 6.23181 60.0851 6.12438 59.8324 6.12283ZM60.6102 6.12747C60.3575 6.12593 60.3491 6.23335 60.6017 6.2349C60.8544 6.23644 60.8629 6.12902 60.6102 6.12747ZM121.38 6.49767C121.128 6.49612 121.119 6.60355 121.372 6.60509C121.627 6.60664 121.636 6.49921 121.38 6.49767ZM189.945 6.915C189.692 6.91346 189.683 7.02088 189.936 7.02243C190.189 7.02398 190.197 6.91655 189.945 6.915ZM200.853 6.98147C200.6 6.97992 200.591 7.08735 200.844 7.0889C201.097 7.09044 201.105 6.98301 200.853 6.98147ZM229.486 7.15613L228.708 7.1515L228.691 7.36558L229.486 7.15613ZM262.58 7.57193L262.597 7.35785L262.207 7.35553L262.19 7.56961L262.58 7.57193ZM266.881 7.38335L266.104 7.37871L266.095 7.48614L266.873 7.49078L266.881 7.38335ZM5.28423 5.89793C5.03154 5.89639 5.02312 6.00382 5.27581 6.00536C5.5285 6.00691 5.53693 5.89948 5.28423 5.89793ZM27.4904 6.03318C27.2377 6.03164 27.2293 6.13906 27.482 6.14061C27.7347 6.14216 27.7431 6.03473 27.4904 6.03318ZM40.521 6.32687L40.5378 6.11279L39.5467 6.32146L38.7774 6.20939L37.396 6.41574L40.1223 6.43197L40.1055 6.64605L42.0737 6.39024L40.521 6.32687ZM45.5777 6.46521L45.019 6.13984C44.7635 6.19007 44.011 6.33305 43.8341 6.34696C42.9076 6.41884 42.2112 6.15297 42.4443 6.65996L43.0451 6.44898L45.5777 6.46521ZM78.5206 6.34387C78.2679 6.34232 78.2594 6.44975 78.5121 6.45129C78.7648 6.45284 78.7733 6.34541 78.5206 6.34387ZM85.1439 6.38406C84.8913 6.38251 84.8828 6.48994 85.1355 6.49148C85.3882 6.49303 85.3966 6.3856 85.1439 6.38406ZM182.703 7.29988L181.367 6.96988L181.541 7.23883L180.741 7.50237L182.493 7.51319L182.703 7.29988ZM236.294 7.30452C236.042 7.30297 236.033 7.4104 236.286 7.41195C236.539 7.41349 236.547 7.30607 236.294 7.30452ZM288.105 7.61984C287.852 7.6183 287.844 7.72572 288.096 7.72727C288.349 7.72881 288.358 7.62139 288.105 7.61984ZM296.674 7.67162C296.421 7.67008 296.413 7.7775 296.666 7.77905C296.918 7.7806 296.927 7.67317 296.674 7.67162ZM10.136 6.14216L9.1701 6.02932L8.97076 6.08187L10.1275 6.24958L10.136 6.14216ZM55.9185 6.31373C55.6658 6.31218 55.6574 6.41961 55.9101 6.42115C56.1628 6.4227 56.1712 6.31527 55.9185 6.31373ZM61.9579 6.35005L60.7899 6.3431L60.7814 6.45052L61.9495 6.45748L61.9579 6.35005ZM100.912 6.58732L99.3538 6.57804L99.3453 6.68547L100.904 6.69474L100.912 6.58732ZM109.846 6.96369C109.734 6.83617 109.307 6.80062 109.481 6.63987L109.091 6.63755L109.066 6.95906L109.846 6.96369ZM114.743 6.67156C114.49 6.67001 114.482 6.77744 114.734 6.77898C114.987 6.78053 114.996 6.6731 114.743 6.67156ZM186.227 7.10667L185.059 7.09971L185.042 7.31379L186.21 7.32075L186.227 7.10667ZM241.915 7.66003L241.348 7.44209L239.975 7.54101L239.967 7.64844C240.554 7.71104 240.868 7.54642 240.949 7.54719C241.031 7.54797 241.32 7.71568 241.915 7.66003ZM5.26739 6.11279C5.01469 6.11124 5.00627 6.21867 5.25896 6.22021C5.51166 6.22099 5.52008 6.11433 5.26739 6.11279ZM11.5005 6.15066C11.2478 6.14911 11.2394 6.25654 11.4921 6.25808C11.7448 6.25886 11.7532 6.1522 11.5005 6.15066ZM24.5507 6.23026L23.773 6.22562L24.3402 6.44357L24.5339 6.44511L24.5507 6.23026ZM25.7019 6.45129L25.7188 6.23722L25.3285 6.2349L25.3116 6.44898L25.7019 6.45129ZM27.4708 6.24804C27.2181 6.24649 27.2096 6.35392 27.4623 6.35546C27.715 6.35623 27.7263 6.24958 27.4708 6.24804ZM33.3164 6.28359L33.1171 6.33614L33.6898 6.50076L33.8892 6.4482L33.3164 6.28359ZM35.2622 6.29518C35.0095 6.29363 35.001 6.40106 35.2537 6.40261C35.5064 6.40415 35.5149 6.29672 35.2622 6.29518ZM36.8204 6.30445C36.5677 6.30291 36.5593 6.41033 36.812 6.41188C37.0647 6.41343 37.0731 6.306 36.8204 6.30445ZM48.5089 6.37556C48.2562 6.37401 48.2478 6.48144 48.5005 6.48298C48.7532 6.48453 48.7616 6.3771 48.5089 6.37556ZM50.0672 6.3856C49.8145 6.38406 49.8061 6.49148 50.0588 6.49303C50.3115 6.4938 50.3199 6.38715 50.0672 6.3856ZM52.013 6.3972C51.7603 6.39565 51.7518 6.50308 52.0045 6.50462C52.2572 6.50617 52.2685 6.39874 52.013 6.3972ZM71.8831 6.51776C71.6304 6.51621 71.622 6.62364 71.8747 6.62519C72.1274 6.62673 72.1358 6.51931 71.8831 6.51776ZM151.156 7.00079L150.378 6.99615L150.945 7.2141L151.139 7.21564L151.156 7.00079ZM164.987 7.08503C164.734 7.08349 164.726 7.19091 164.978 7.19246C165.231 7.19323 165.24 7.08658 164.987 7.08503ZM179.789 7.17468C179.536 7.17314 179.528 7.28056 179.781 7.28211C180.033 7.28365 180.042 7.17623 179.789 7.17468ZM191.087 7.24346C190.835 7.24192 190.826 7.34935 191.079 7.35089C191.332 7.35244 191.34 7.24501 191.087 7.24346ZM202.773 7.31457C202.52 7.31302 202.512 7.42045 202.765 7.42199C203.017 7.42354 203.026 7.31611 202.773 7.31457ZM212.903 7.37639C212.651 7.37485 212.642 7.48228 212.895 7.48382C213.147 7.48537 213.156 7.37794 212.903 7.37639ZM18.5029 6.30059C18.2502 6.29904 18.2418 6.40647 18.4945 6.40802C18.7472 6.40879 18.7556 6.30213 18.5029 6.30059ZM19.8675 6.30832L19.0897 6.30368L19.0813 6.41111L19.8591 6.41574L19.8675 6.30832ZM32.7212 6.38715L31.1629 6.37787L31.1461 6.59195L31.7385 6.48839L32.7043 6.60123L32.7212 6.38715ZM36.0343 6.40724C35.7816 6.4057 35.7732 6.51312 36.0259 6.51467C36.2786 6.51544 36.287 6.40879 36.0343 6.40724ZM114.513 7.09894L113.752 6.88023L113.735 7.09431L114.513 7.09894ZM183.074 7.51628L184.256 7.36248L184.065 7.30761L183.083 7.40885L183.074 7.51628ZM4.86027 6.32455C4.60757 6.323 4.59915 6.43043 4.85184 6.43197C5.10454 6.43352 5.11296 6.32609 4.86027 6.32455ZM20.2381 6.52549L20.8053 6.74343C21.2264 6.64528 21.5268 6.58732 21.4145 6.42579C20.9541 6.45593 20.8249 6.5734 20.2381 6.52549ZM72.644 6.73725C72.3913 6.7357 72.3829 6.84313 72.6356 6.84467C72.8883 6.84545 72.8967 6.73879 72.644 6.73725ZM92.6883 7.07344L91.7308 6.85318L90.7481 6.95442L90.7397 7.06185L92.6883 7.07344ZM102.251 6.91732C101.999 6.91578 101.99 7.0232 102.243 7.02475C102.496 7.02629 102.504 6.91887 102.251 6.91732ZM121.338 7.03325C121.085 7.0317 121.077 7.13913 121.33 7.14068C121.582 7.14222 121.591 7.0348 121.338 7.03325ZM174.707 7.35862C174.454 7.35707 174.446 7.4645 174.699 7.46605C174.951 7.46682 174.96 7.36017 174.707 7.35862ZM162.429 7.39108L160.871 7.3818L160.862 7.48923L161.643 7.49387L161.82 7.70949L162.429 7.39108ZM35.2285 6.72411C34.9758 6.72256 34.9674 6.82999 35.22 6.83154C35.4727 6.83231 35.4812 6.72566 35.2285 6.72411ZM85.6521 7.35244L86.0621 7.08658L85.8711 7.0317L85.2619 7.34935L85.6521 7.35244ZM109.245 7.17468C108.993 7.17314 108.984 7.28056 109.237 7.28211C109.49 7.28288 109.498 7.17623 109.245 7.17468ZM140.198 7.57734L140.214 7.36326L139.824 7.36017L139.807 7.57424L140.198 7.57734ZM5.419 6.64992L4.64127 6.64528L5.20562 6.86245L5.39935 6.864L5.419 6.64992ZM6.00301 6.65301C5.75031 6.65146 5.74189 6.75889 5.99458 6.76043C6.24728 6.76198 6.2557 6.65455 6.00301 6.65301ZM7.95156 6.6646C7.69886 6.66306 7.69044 6.77048 7.94313 6.77203C8.19583 6.77357 8.20425 6.66615 7.95156 6.6646ZM59.7622 6.9807C59.5096 6.97915 59.5011 7.08658 59.7538 7.08812C60.0065 7.0889 60.0149 6.98224 59.7622 6.9807ZM153.256 7.54951C153.004 7.54797 152.995 7.65539 153.248 7.65694C153.5 7.65848 153.509 7.55106 153.256 7.54951ZM166.503 7.62989C166.25 7.62834 166.242 7.73577 166.495 7.73732C166.747 7.73886 166.756 7.63144 166.503 7.62989ZM23.1357 6.86477C22.883 6.86322 22.8745 6.97065 23.1272 6.97219C23.3799 6.97297 23.3884 6.86631 23.1357 6.86477ZM27.4202 6.89105L27.2209 6.9436L28.1727 7.21719L28.372 7.16463L27.4202 6.89105ZM35.7704 7.26356L35.4054 6.93974C34.6192 6.99229 34.5125 7.16232 34.5911 7.36403L35.7704 7.26356ZM35.9894 6.94283L35.79 6.99538L37.1321 7.27129L37.1574 6.94978L36.3684 7.05257L35.9894 6.94283ZM44.171 6.99306C43.9183 6.99152 43.9099 7.09894 44.1626 7.10049C44.4153 7.10126 44.4237 6.99383 44.171 6.99306ZM45.339 7.00002C45.0863 6.99847 45.0779 7.1059 45.3306 7.10744C45.5833 7.10822 45.5917 7.00156 45.339 7.00002ZM48.6521 7.02011L47.8744 7.01547L47.866 7.1229L48.6437 7.12754L48.6521 7.02011ZM91.6971 7.28211C91.4445 7.28056 91.436 7.38799 91.6887 7.38953C91.9414 7.39031 91.9498 7.28365 91.6971 7.28211ZM31.3061 7.02166C31.0534 7.02011 31.045 7.12754 31.2977 7.12908C31.5504 7.13063 31.5616 7.0232 31.3061 7.02166ZM91.1047 7.38567L90.327 7.38103L90.3186 7.48846L91.0963 7.4931L91.1047 7.38567ZM10.8463 7.00388L10.0686 6.99924L10.0601 7.10667L10.8379 7.11131L10.8463 7.00388ZM12.0143 7.01161L11.2366 7.00697L11.2282 7.1144L12.0059 7.11904L12.0143 7.01161ZM30.1297 7.12135C29.877 7.11981 29.8685 7.22724 30.1212 7.22878C30.3739 7.23033 30.3824 7.1229 30.1297 7.12135ZM19.6036 7.16463C19.3509 7.16309 19.3424 7.27051 19.5951 7.27206C19.8478 7.27361 19.8563 7.16618 19.6036 7.16463ZM28.9448 7.32848C28.6921 7.32693 28.6837 7.43436 28.9364 7.4359C29.1891 7.43745 29.1975 7.33002 28.9448 7.32848Z" fill="url(#paint9_linear_1580_4909)"/>
<path d="M1.92923 6.41402C1.92923 6.44957 1.91799 6.48512 1.9208 6.52145C1.63442 6.55313 1.21326 6.65129 1.13184 6.62424L1.14868 6.41016L1.92923 6.41402Z" fill="url(#paint10_linear_1580_4909)"/>
<path d="M497.962 7.71291L497.953 7.82031L498.734 7.82506L498.742 7.71766L497.962 7.71291Z" fill="url(#paint11_linear_1580_4909)"/>
<path d="M475.992 7.26174C476.244 7.26328 476.236 7.37071 475.983 7.36916C475.731 7.36684 475.739 7.26019 475.992 7.26174Z" fill="url(#paint12_linear_1580_4909)"/>
<path d="M0.193785 6.18752C0.446479 6.18906 0.438056 6.29649 0.185362 6.29494C-0.0673324 6.2934 -0.0589093 6.18597 0.193785 6.18752Z" fill="url(#paint13_linear_1580_4909)"/>
</g>
<defs>
<linearGradient id="paint0_linear_1580_4909" x1="488.622" y1="3.5414" x2="491.025" y2="3.5414" gradientUnits="userSpaceOnUse">
<stop stop-color="white" stop-opacity="0"/>
<stop offset="0.15" stop-color="white"/>
<stop offset="0.85" stop-color="white"/>
<stop offset="1" stop-color="white" stop-opacity="0"/>
</linearGradient>
<linearGradient id="paint1_linear_1580_4909" x1="492.923" y1="3.57807" x2="493.319" y2="3.57807" gradientUnits="userSpaceOnUse">
<stop stop-color="white" stop-opacity="0"/>
<stop offset="0.15" stop-color="white"/>
<stop offset="0.85" stop-color="white"/>
<stop offset="1" stop-color="white" stop-opacity="0"/>
</linearGradient>
<linearGradient id="paint2_linear_1580_4909" x1="-1.95196" y1="4.00573" x2="505" y2="4.00573" gradientUnits="userSpaceOnUse">
<stop stop-color="white" stop-opacity="0"/>
<stop offset="0.15" stop-color="white"/>
<stop offset="0.85" stop-color="white"/>
<stop offset="1" stop-color="white" stop-opacity="0"/>
</linearGradient>
<linearGradient id="paint3_linear_1580_4909" x1="1.12865" y1="2.16317" x2="1.9372" y2="2.16317" gradientUnits="userSpaceOnUse">
<stop stop-color="white" stop-opacity="0"/>
<stop offset="0.15" stop-color="white"/>
<stop offset="0.85" stop-color="white"/>
<stop offset="1" stop-color="white" stop-opacity="0"/>
</linearGradient>
<linearGradient id="paint4_linear_1580_4909" x1="498.736" y1="3.76082" x2="498.738" y2="3.61533" gradientUnits="userSpaceOnUse">
<stop stop-color="white" stop-opacity="0"/>
<stop offset="0.15" stop-color="white"/>
<stop offset="0.85" stop-color="white"/>
<stop offset="1" stop-color="white" stop-opacity="0"/>
</linearGradient>
<linearGradient id="paint5_linear_1580_4909" x1="475.798" y1="3.1552" x2="476.183" y2="3.1552" gradientUnits="userSpaceOnUse">
<stop stop-color="white" stop-opacity="0"/>
<stop offset="0.15" stop-color="white"/>
<stop offset="0.85" stop-color="white"/>
<stop offset="1" stop-color="white" stop-opacity="0"/>
</linearGradient>
<linearGradient id="paint6_linear_1580_4909" x1="-0.00151658" y1="1.72161" x2="0.382938" y2="1.72161" gradientUnits="userSpaceOnUse">
<stop stop-color="white" stop-opacity="0"/>
<stop offset="0.15" stop-color="white"/>
<stop offset="0.85" stop-color="white"/>
<stop offset="1" stop-color="white" stop-opacity="0"/>
</linearGradient>
<linearGradient id="paint7_linear_1580_4909" x1="488.619" y1="7.66032" x2="491.022" y2="7.66032" gradientUnits="userSpaceOnUse">
<stop stop-color="white" stop-opacity="0"/>
<stop offset="0.15" stop-color="white"/>
<stop offset="0.85" stop-color="white"/>
<stop offset="1" stop-color="white" stop-opacity="0"/>
</linearGradient>
<linearGradient id="paint8_linear_1580_4909" x1="492.92" y1="7.68632" x2="493.316" y2="7.68632" gradientUnits="userSpaceOnUse">
<stop stop-color="white" stop-opacity="0"/>
<stop offset="0.15" stop-color="white"/>
<stop offset="0.85" stop-color="white"/>
<stop offset="1" stop-color="white" stop-opacity="0"/>
</linearGradient>
<linearGradient id="paint9_linear_1580_4909" x1="-1.95195" y1="8.00767" x2="504.997" y2="8.00767" gradientUnits="userSpaceOnUse">
<stop stop-color="white" stop-opacity="0"/>
<stop offset="0.15" stop-color="white"/>
<stop offset="0.85" stop-color="white"/>
<stop offset="1" stop-color="white" stop-opacity="0"/>
</linearGradient>
<linearGradient id="paint10_linear_1580_4909" x1="1.12865" y1="6.62889" x2="1.9372" y2="6.62889" gradientUnits="userSpaceOnUse">
<stop stop-color="white" stop-opacity="0"/>
<stop offset="0.15" stop-color="white"/>
<stop offset="0.85" stop-color="white"/>
<stop offset="1" stop-color="white" stop-opacity="0"/>
</linearGradient>
<linearGradient id="paint11_linear_1580_4909" x1="498.733" y1="7.82549" x2="498.734" y2="7.71653" gradientUnits="userSpaceOnUse">
<stop stop-color="white" stop-opacity="0"/>
<stop offset="0.15" stop-color="white"/>
<stop offset="0.85" stop-color="white"/>
<stop offset="1" stop-color="white" stop-opacity="0"/>
</linearGradient>
<linearGradient id="paint12_linear_1580_4909" x1="475.796" y1="7.36917" x2="476.181" y2="7.36917" gradientUnits="userSpaceOnUse">
<stop stop-color="white" stop-opacity="0"/>
<stop offset="0.15" stop-color="white"/>
<stop offset="0.85" stop-color="white"/>
<stop offset="1" stop-color="white" stop-opacity="0"/>
</linearGradient>
<linearGradient id="paint13_linear_1580_4909" x1="-0.00151658" y1="6.29495" x2="0.382936" y2="6.29495" gradientUnits="userSpaceOnUse">
<stop stop-color="white" stop-opacity="0"/>
<stop offset="0.15" stop-color="white"/>
<stop offset="0.85" stop-color="white"/>
<stop offset="1" stop-color="white" stop-opacity="0"/>
</linearGradient>
</defs>
</svg>
