<svg width="500" height="7" viewBox="0 0 500 7" fill="none" xmlns="http://www.w3.org/2000/svg">
<g opacity="0.8">
<path d="M491.002 5.98828L490.783 6.41553L488.632 6.54143L489.045 6.11522L491.002 5.98828Z" fill="url(#paint0_linear_1580_4735)"/>
<path d="M492.925 6.43359L493.315 6.43669L493.113 6.57807C492.86 6.57704 492.944 6.43669 492.925 6.43359Z" fill="url(#paint1_linear_1580_4735)"/>
<path d="M30.4443 3.8212L31.2192 3.8986L30.4696 3.39189C32.3002 3.48993 34.7794 3.31346 36.509 3.44143C37.7247 3.53121 39.6873 3.53431 40.7936 3.47651C41.9588 3.41459 42.5961 3.58797 43.5199 3.49819C44.4886 3.40427 44.9013 3.7954 45.0613 3.79746C45.359 3.71903 45.9795 3.55804 46.2462 3.52089C47.7202 3.31759 49.4891 3.6664 51.3113 3.56217C54.3324 3.38983 58.9877 3.67878 62.2278 3.50747C65.1534 3.35267 68.1521 3.4889 70.797 3.57765L71.9818 3.30108L72.3637 3.44762L72.9561 3.30933L72.9392 3.59519C73.5598 3.67878 73.7675 3.46929 73.922 3.46C74.433 3.43007 75.7722 3.33203 75.8789 3.33307C76.0081 3.3341 76.112 3.46929 76.2608 3.47961C77.6759 3.57765 79.0489 3.47755 80.1383 3.79746C80.829 3.3857 81.6179 3.59519 82.4939 3.53018C83.6086 3.44762 84.114 3.44968 85.2202 3.55185C86.2479 3.64782 88.7383 3.36403 89.9035 3.44659C93.3402 3.6922 98.0291 2.98219 101.971 3.68807C103.041 3.15453 105.29 3.54772 106.646 3.72626L107.036 3.72935C108.853 3.15247 112.388 3.6179 114.845 3.50644C117.495 3.3857 120.075 3.41563 122.246 3.5663C123.411 3.64679 124.152 3.45587 124.593 3.44246C126.749 3.37538 129.215 3.54153 131.41 3.49819L131.587 3.78611C132.486 3.35474 135.133 3.44246 136.27 3.68085C152.943 3.65711 170.387 3.56217 188.098 3.81604C189.946 3.45175 192.043 3.78714 194.34 3.72316L196.457 4.17001L195.499 3.87589C195.117 3.80056 195.803 3.60242 195.906 3.59313C196.297 3.55804 198.164 3.58281 198.633 3.6148C199.54 3.67775 200.286 3.56217 201.359 3.63647C205.085 3.8955 209.611 3.50954 213.825 3.73761C214.951 3.7985 218.116 3.69323 218.899 3.63544C220.207 3.53843 222.338 3.7407 223.768 3.67466L224.141 3.96361L224.354 3.67878C225.396 3.64163 225.817 3.83358 225.904 3.83461C227.606 3.84803 233.182 3.85319 234.872 3.76444C238.517 3.57249 245.109 3.77063 248.897 3.87796L249.287 3.88105C250.135 3.2598 253.122 3.81501 253.58 3.7727C256.273 3.52399 259.28 3.9213 260.203 3.82636C261.764 3.66537 270.174 3.65092 271.898 3.77786C273.697 3.91098 276.676 3.58074 277.749 3.68188C278.723 3.77373 284.577 3.96258 285.922 3.89137C286.854 3.84184 288.132 3.82223 289.047 3.77373C290.131 3.71697 291.554 3.73038 292.147 4.08539L292.944 3.80572C293.671 4.18756 295.165 3.8439 295.671 3.82739C300.604 3.67259 306.27 3.9729 310.481 3.80469L310.863 3.95123L311.456 3.81294L312.208 4.24844L312.04 3.81707C313.062 3.90685 313.766 3.60138 314.774 3.69633C315.886 3.80159 318.301 3.96155 319.831 3.88105C319.98 3.8728 320.101 3.73967 320.23 3.7407C320.311 3.74174 320.6 3.96568 321.196 3.89137L321.179 4.17724C321.364 4.17001 321.594 4.2051 321.763 4.1824C322.001 4.14937 322.886 3.7985 323.346 3.76547C323.826 3.73142 325.556 3.75206 326.073 3.78714C326.221 3.79746 326.32 3.93059 326.454 3.93369C326.519 3.93472 326.864 3.7149 327.437 3.7985L327.614 4.08642C328.268 3.68394 329.271 3.92749 329.978 3.67569L331.918 3.83461L332.511 3.69633L332.884 3.98529L333.286 3.77373L333.477 3.847C333.628 3.83771 333.732 3.71181 333.875 3.70665C336.874 3.60138 339.735 3.66743 342.843 3.63647C345.039 3.61377 348.287 3.37538 350.253 3.55391C351.367 3.65505 352.14 3.44865 352.6 3.43007C353.271 3.40221 354.049 3.46413 354.742 3.44762L354.529 3.73245C355.335 3.3052 356.57 3.4889 357.856 3.47342L357.449 3.75618C357.763 3.74277 358.165 3.78921 358.423 3.76444C358.569 3.74999 359.572 3.37847 360.007 3.34751C361.604 3.23503 364.171 3.49096 365.85 3.39499C370.294 3.14112 375.534 3.64266 380.66 3.37228C382.233 3.28972 384.162 3.32687 386.124 3.27321L387.275 3.56939L388.073 3.28972L389.423 3.51573L389.047 3.29798C390.134 3.2825 391.277 3.34958 392.357 3.32481C397.288 3.21026 408.322 3.04721 412.624 3.34648C413.573 3.41253 415.187 3.42182 415.74 3.37228C417.644 3.202 424.149 3.16795 426.266 3.31449C429.459 3.53637 434.19 3.17208 437.565 3.40634C440.1 3.58281 443.259 3.14524 445.755 3.32997C446.395 3.37744 447.925 3.49096 448.473 3.49509C448.54 3.49612 448.77 3.31449 449.649 3.36196L449.826 3.64989L450.233 3.36712C450.668 3.38983 451.202 3.34442 451.598 3.37847C453.386 3.52915 454.714 3.42801 456.654 3.5632C457.895 3.64886 464.027 3.72006 465.614 3.63647C466.987 3.56423 468.851 3.61067 469.882 3.95742L470.095 3.67259L472.813 3.83771L472.796 4.12357L473.77 4.13183C474.556 3.80469 475.812 3.95536 476.522 3.72419L477.283 4.01625C478.308 3.62409 479.658 4.12667 480.79 4.04514C480.961 4.03276 481.146 3.82636 481.772 3.90995L480.95 4.61893L481.542 4.48064L482.101 4.91511L482.884 4.85009L483.308 4.28044L482.151 4.05649L484.285 4.21748C485.908 3.93162 487.635 4.34958 489.35 4.25876C490.707 4.18756 491.627 4.59106 492.467 4.28456L493.04 4.50438L492.248 4.71284C492.995 4.8181 493.306 4.46723 493.629 4.4373C494.491 4.35887 495.008 4.5859 495.763 4.59829L494.564 5.08952L494.941 5.30727L492.998 5.21955L493.57 5.43936L495.314 5.59623C495.193 4.97497 495.996 4.4084 497.906 4.6148C498.425 4.67053 498.742 5.00799 498.071 5.11738L498.644 5.33719L499.441 5.05753L500.003 5.41975L499.225 5.41356L499.59 5.84597L499.18 6.20097L498.4 6.19478L499.206 5.77166L498.038 5.76238L498.054 5.47651L497.277 5.47032L498.021 6.04927L496.081 5.89034L496.85 6.03998L497.018 6.47135L497.585 6.76238L495.435 6.88828L494.079 6.73451L494.104 6.3052L493.315 6.44246L493.13 6.29798L492.927 6.43936C492.779 6.41666 492.506 6.47032 492.343 6.4342C491.841 6.32378 491.408 5.92233 491.411 5.71078L490.819 5.84906C490.021 5.43523 488.938 5.42698 488.093 5.82739L486.933 5.67466L486.324 6.0988L487.876 6.18343C488.598 6.05237 487.879 6.37847 487.669 6.39602C486.604 6.48683 486.363 6.03276 485.737 6.09364L484.153 6.51057L484.375 6.08332C483.763 6.03792 483.609 6.19478 483.002 6.21542C481.904 6.2536 481.214 6.28044 480.267 6.33616C478.737 6.42595 478.1 6.05753 476.777 6.02141L475.059 5.43523L475.228 5.86661L475.014 6.15144C474.576 6.16692 474.054 6.11428 473.65 6.14008C473.501 6.14937 473.405 6.26805 473.251 6.28044C472.282 6.35474 471.763 6.06681 470.915 6.26186C470.404 5.92027 469.562 6.03689 468.992 5.81707L469.168 6.105C468.73 6.11944 468.208 6.06785 467.804 6.09364C467.652 6.10293 467.548 6.2278 467.405 6.234C465.982 6.28766 464.356 6.08229 463.511 6.202L462.75 5.90995L461.953 6.18962L461.183 6.03998C460.293 6.40015 459.322 5.97084 458.26 6.01625L457.887 5.72729L457.665 6.15453L457.488 5.86661L456.711 5.86041L456.694 6.14628C456.508 6.13492 456.273 6.16795 456.11 6.14112C455.896 6.10603 455.849 5.94504 455.34 5.99148C452.712 6.23503 449.818 6.22471 447.159 5.92543L445.974 6.202L445.592 6.05546L444.219 6.18756L444.432 5.90273L443.248 6.1793C442.995 6.15969 442.697 6.19891 442.47 6.17311C441.498 6.06165 440.299 6.23709 438.963 6.14421C437.806 6.06372 436.394 6.01831 434.678 6.10912C433.081 6.19375 430.301 6.10293 428.437 6.202C427.673 6.24225 426.707 6.15556 425.904 6.18136L426.118 5.89653C425.727 6.02553 425.059 6.14834 424.542 6.17001C422.861 6.24019 421.499 6.18549 420.249 6.27837C418.764 6.38776 417.776 5.82842 416.734 6.39292C415.81 6.09468 414.334 6.34648 413.244 6.07817L412.059 6.35474C410.153 6.00386 407.429 6.5116 405.048 6.29798C404.007 6.20407 401.457 6.1793 399.983 6.2567C399.725 6.27012 399.688 6.53018 399.206 6.25051L398.613 6.38879L398.436 6.10087C398.04 6.33513 397.431 6.19168 396.869 6.2309C396.715 6.24122 396.617 6.36403 396.471 6.37125C394.011 6.48271 392.282 6.28044 389.847 6.31759C389.224 6.32688 389.019 6.32172 388.474 6.44968L389.272 6.17001C389.314 6.01728 389.508 5.60861 388.713 5.73554C387.882 5.86867 388.3 6.31346 387.5 6.44143L386.731 6.29179C385.981 6.69014 383.14 6.23193 382.836 6.2598C381.082 6.42182 379.557 6.36506 377.754 6.50438C376.744 6.58281 376.087 6.27424 375.427 6.34236C372.877 6.60448 370.3 6.21129 367.627 6.42182C367.324 6.44555 367.074 6.62409 366.06 6.55185C364.954 6.47239 363.418 6.49199 362.174 6.37744C360.745 6.24535 360.392 6.75722 359.431 6.64163C357.505 6.40943 355.767 6.41253 353.967 6.7407L353.577 6.73761C352.468 6.32894 350.969 6.44143 349.503 6.41769L349.486 6.70355C348.672 6.82533 347.212 6.51676 346.962 6.53947C345.227 6.70046 343.843 6.76547 342.296 6.35887L341.111 6.63544C340.732 6.61686 340.297 6.65092 339.943 6.62615C339.314 6.58075 337.472 6.54256 336.436 6.59726C334.911 6.67775 333.224 6.57352 331.362 6.69942L330.602 6.40737L329.026 6.68085L327.477 6.52502C324.958 6.84081 322.145 6.56423 320.059 6.75102C318.233 6.91408 316.832 6.55288 314.985 6.85319L313.834 6.55701L313.045 6.69426L312.104 6.11428L312.874 6.26392C313.003 5.99251 312.475 5.79024 311.731 5.82533L312.104 6.11428C311.633 6.06269 311.037 6.10397 311.312 6.32275C311.647 6.58797 312.545 6.45278 312.461 6.69014L310.7 6.81914L309.159 6.51986L307.974 6.79643L307.415 6.36196L307.025 6.35887L307.008 6.64473L305.441 6.77476L305.088 6.19891L303.743 5.90169L304.877 6.48374L304.47 6.7665L302.319 6.89241L302.336 6.60654L300.955 6.88209L300.573 6.73554C300.447 6.73451 300.337 6.85938 300.174 6.8759C299.425 6.94813 298.984 6.64473 298.234 6.71697C296.987 6.83771 295.03 6.98838 293.16 6.81914C291.094 6.63131 287.924 6.95536 285.759 6.75928C284.35 6.63131 282.365 6.95639 281.076 6.86454C279.349 6.74174 277.791 6.75206 275.623 6.82017C274.262 6.86248 272.911 6.86145 271.94 6.50438L271.923 6.79024L268.424 6.61893L268.441 6.33307L268.051 6.32997L268.034 6.61583L265.094 6.87796C264.084 6.43214 260.265 6.90892 259.642 6.83358C259.482 6.81398 259.403 6.69839 259.26 6.68704C258.404 6.62409 257.247 6.70974 256.337 6.6633L256.744 6.38054L255.77 6.37228C255.545 6.4342 254.683 6.64163 254.585 6.64886C253.249 6.7438 250.688 6.3341 249.52 6.60758L248.551 6.52811L248.928 6.74586L247.192 6.44555C247.041 6.46 246.954 6.56836 246.794 6.58591C244.969 6.78611 242.546 6.53534 240.544 6.8212L239.393 6.52502C237.683 6.6953 235.071 6.90066 233.55 6.47755C233.421 6.47651 233.303 6.60964 233.151 6.6179C228.841 6.85319 223.234 6.58694 219.126 6.50438L217.551 6.77786C216.908 6.54566 215.106 6.53018 214.435 6.75206L213.674 6.46C213.418 6.47548 213.129 6.43111 212.896 6.45381C212.733 6.46929 212.624 6.59519 212.497 6.59416C212.416 6.59313 212.127 6.36919 211.531 6.44349L211.708 6.73142C211.06 6.37125 210.375 6.70562 210.15 6.71903C208.336 6.8212 205.753 6.57146 203.917 6.66846C202.516 6.74277 200.236 6.53018 198.464 6.62409C197.746 6.66227 197.47 6.60035 197.296 6.6148C197.08 6.63234 196.628 6.86145 195.923 6.7469L195.94 6.46103L194.949 6.73967L194.567 6.59313L193.778 6.73038L193.396 6.58384C192.189 6.87177 191.206 6.60035 189.881 6.69839C188.87 6.7727 187.284 6.6179 186.18 6.66846L186.588 6.3857L185.206 6.66124C185.077 6.66021 184.973 6.52605 184.824 6.5147C183.465 6.41769 181.11 7.04514 179.759 6.47342C178.602 6.86557 176.025 6.44349 175.084 6.43523C175.003 6.4342 174.688 6.65402 174.102 6.57043C174.304 6.19788 173.372 6.19272 172.774 5.98735L172.173 6.26908L173.706 6.71078L172.35 6.55701C170.516 6.82326 168.688 6.31656 166.869 6.94194L165.701 6.93265L164.55 6.63647L163.575 6.62822L163.559 6.91408C163.123 6.89137 162.59 6.93678 162.194 6.90273C161.467 6.84184 160.821 6.78302 160.254 6.7438C159.26 6.67466 158.207 6.84287 157.34 6.57662L157.314 7.00593L156.146 6.99664L156.171 6.56733C155.551 6.48374 155.34 6.69426 155.189 6.70252C153.701 6.78302 151.688 6.60345 150.124 6.66124C148.849 6.70871 149.343 6.7727 147.788 6.64266C147.226 6.59519 146.606 6.72626 146.238 6.48683L146.415 6.77476C145.87 6.7438 145.154 6.80572 144.663 6.76031C143.301 6.63647 142.054 6.90479 140.777 6.58591L138.811 6.85629C138.444 6.62099 137.845 6.74174 137.261 6.70046C136.175 6.62306 135.237 6.75102 134.145 6.67466C130.343 6.41047 124.874 6.8955 121.288 6.57043C119.924 6.44659 118.52 6.57249 117.383 6.68188C116.633 6.75412 116.324 6.48787 115.639 6.52502L115.816 6.81294L114.275 6.51367L112.893 6.78921L112.91 6.50335C112.469 6.51676 111.961 6.46929 111.545 6.49199C111.394 6.50025 111.276 6.63338 111.147 6.63234C111.018 6.63131 110.914 6.49612 110.765 6.4858C109.678 6.41047 108.465 6.47342 107.632 6.7469L107.657 6.31759L106.859 6.59726C105.832 6.6922 105.026 6.43936 104.919 6.43833C104.79 6.4373 104.669 6.57043 104.521 6.57868C103.027 6.65711 99.3094 6.62099 98.2874 6.52811C96.4118 6.35783 94.3622 6.74277 92.8236 6.62718C88.9264 6.33307 84.8637 6.75722 80.3573 6.52605C79.8238 6.49819 79.7901 6.42182 79.3914 6.37538L79.178 6.66021L78.7962 6.51367C77.9567 6.42904 77.1368 6.86867 76.4601 6.49509L76.637 6.78302L75.8593 6.77682L75.8761 6.49096L74.7081 6.48167L74.6913 6.76754C73.7619 6.82017 73.585 6.35887 72.5658 6.46413C72.4058 6.48064 72.3131 6.59623 72.1671 6.60448C70.3084 6.71078 67.6495 6.63441 65.934 6.55391L64.7491 6.83049L63.1992 6.67466C62.4384 6.95433 61.0373 6.75102 60.0827 6.64886C58.7658 6.50851 58.8557 6.55804 57.3564 6.62718C55.8598 6.6953 53.8551 6.43214 52.6731 6.73245L52.1143 6.29798L50.7582 6.14421L50.3427 6.57043L49.1915 6.27424L49.1746 6.56011C48.7956 6.65298 48.5373 6.4115 48.4053 6.41047C48.1021 6.4084 46.0019 6.51367 45.6706 6.53121C44.1629 6.61067 42.6326 6.55907 41.7763 6.49922C41.0182 6.44659 40.0439 6.51779 39.2437 6.47858L39.6677 5.90892L38.101 6.03895L38.466 6.47135L37.5001 6.32068L36.9077 6.45897L36.9245 6.17311L36.1468 6.16692L36.1299 6.45278C35.0462 6.34751 34.1926 6.66537 33.1987 6.57249C33.0443 6.55804 32.96 6.43523 32.8168 6.42595C31.7078 6.35577 30.5342 6.40943 29.6834 6.68704L29.8968 6.40221C29.456 6.41563 28.9478 6.36816 28.5322 6.39086C28.3806 6.39911 28.2627 6.53224 28.1335 6.53121C28.0044 6.53018 27.9005 6.39499 27.7517 6.38467C27.1059 6.33926 24.579 6.4115 24.4414 6.35784L24.4582 6.07197L23.1133 5.77476L23.2734 6.34855L22.5125 6.05649L22.4872 6.4858C21.8583 6.56011 21.673 6.34545 21.5213 6.33513C21.0468 6.30108 20.4516 6.35267 19.9631 6.32275C19.5503 6.29798 19.2274 6.2278 18.8035 6.17001C18.343 6.10809 19.2752 5.92853 19.0253 5.74277L17.627 6.30417L16.8577 6.15453C16.4281 6.34855 15.2292 6.32378 14.5105 6.27837C14.3645 6.26908 14.2718 6.13905 14.1286 6.13183C11.5258 6.00902 8.90061 6.10603 6.55055 5.78405L6.56739 5.49819L5.78965 5.49199L6.16308 5.78095L3.05493 5.61274C2.94543 5.57455 3.7007 5.40221 3.0802 5.18343C3.56032 5.2794 4.45598 4.96568 4.26506 4.90685L3.09985 4.82533L2.16488 4.17311L2.33053 4.67569L3.09143 4.96774L2.07784 5.60345C1.18217 5.37125 1.92903 5.32481 1.9178 5.02966C2.02449 5.01418 2.23226 5.05856 2.31088 4.96155C2.31649 4.86764 1.97114 4.89963 1.92622 4.88725C1.80549 4.85422 2.36984 4.44349 0.775053 4.59106L1.56683 4.3826L0.0478516 3.78818L1.22148 3.72626L1.24394 3.36815L1.84199 3.15866C2.55515 3.28353 3.29078 3.03379 3.4087 3.02863C4.97541 2.95742 7.94037 3.01831 9.24316 3.21955L9.83559 3.08126L9.81874 3.36712L10.5965 3.37331L10.6133 3.08745C11.3714 3.09984 11.8291 3.31862 12.7472 3.24844C14.2044 3.13596 17.2704 3.17208 18.5901 3.29592C20.3618 3.46207 22.5939 3.41666 24.0427 3.34029C24.8345 3.29901 27.5411 3.32068 28.3273 3.37538C28.5828 3.39292 28.5884 3.65402 29.105 3.38157L30.4443 3.8212L28.8776 3.95123L30.4275 4.10706L30.8009 4.39602L30.4443 3.8212ZM459.763 3.73142C459.51 3.72935 459.501 3.8728 459.754 3.87486C460.007 3.87589 460.015 3.73348 459.763 3.73142ZM466.765 3.93162C466.512 3.92956 466.504 4.073 466.757 4.07507C467.012 4.0761 467.021 3.93369 466.765 3.93162ZM431.84 4.64989L430.919 3.78302C429.939 4.05856 430.543 3.99251 430.894 4.21232C431.152 4.37538 431.18 4.60654 431.84 4.64989ZM450.166 4.51263L450.396 3.94194L449.787 4.36609L449.012 4.28869L450.166 4.51263ZM455.646 4.1277L453.903 3.97084C453.136 4.16795 451.73 4.1308 451.718 4.66846L453.479 4.53947L455.646 4.1277ZM457.41 3.9987C457.157 3.99664 457.149 4.14008 457.401 4.14215C457.654 4.14318 457.662 4.00077 457.41 3.9987ZM465.589 4.06475C465.336 4.06269 465.327 4.20613 465.58 4.2082C465.833 4.21026 465.841 4.06681 465.589 4.06475ZM470.44 4.39086L471.406 4.54153L471.606 4.47135L471.238 4.11016L470.44 4.39086ZM480.394 4.18549C480.141 4.18343 480.133 4.32687 480.385 4.32894C480.638 4.32997 480.646 4.18756 480.394 4.18549ZM447.838 4.34958L446.881 4.05546L445.867 4.69117L447.838 4.34958ZM462.27 4.18136L461.489 4.17517L462.056 4.46619L462.25 4.46826L462.27 4.18136ZM468.697 4.23296C468.444 4.2309 468.436 4.37435 468.688 4.37641C468.941 4.37847 468.949 4.23503 468.697 4.23296ZM472.594 4.26496C472.341 4.26289 472.333 4.40634 472.585 4.4084C472.838 4.41047 472.847 4.26702 472.594 4.26496ZM480.18 4.46929C479.588 4.52399 479.478 4.36506 479.021 4.31656L479.004 4.60242L480.172 4.6117L480.18 4.46929ZM487.573 4.67259L487.59 4.38673C487.045 4.49612 486.686 4.56733 486.023 4.51676L486.015 4.66021L487.573 4.67259ZM445.511 4.18756L443.554 4.31449L443.545 4.45794L445.502 4.331L445.511 4.18756ZM459.128 4.58487L457.003 4.28147L455.222 4.69633L456.786 4.6375L456.8 4.42285L457.578 4.42904L457.561 4.7149L459.128 4.58487ZM461.074 4.60035L461.091 4.31449C460.627 4.35577 460.498 4.51263 459.914 4.44762L459.906 4.59106L461.074 4.60035ZM478.215 4.73967L476.09 4.43627L474.708 4.71181L475.475 4.93265L474.683 5.14112L476.842 4.8728L478.215 4.73967ZM360.17 3.92337L359.409 3.63131L359.389 3.91717L360.17 3.92337ZM379.08 3.79127C378.827 3.78921 378.819 3.93265 379.071 3.93472C379.324 3.93678 379.332 3.79334 379.08 3.79127ZM389.013 3.87177L388.236 3.86557L388.227 4.00902L389.005 4.01521L389.013 3.87177ZM463.792 4.7665L463.031 4.47445L463.014 4.76031L463.792 4.7665ZM466.139 4.64163L466.706 4.93265L467.692 4.72626L467.119 4.50644L466.139 4.64163ZM490.673 4.98425L489.522 4.68807L489.505 4.97393L488.707 5.2536L490.673 4.98425ZM496.906 5.03482L496.923 4.74896L496.533 4.74586L496.516 5.03173L496.906 5.03482ZM376.735 3.91511C376.483 3.91305 376.474 4.05649 376.727 4.05856C376.98 4.06062 376.988 3.91717 376.735 3.91511ZM465.555 4.6375C465.302 4.63544 465.294 4.77889 465.546 4.78095C465.799 4.78198 465.808 4.63957 465.555 4.6375ZM467.248 5.65298C467.728 5.81191 469.031 5.20923 469.424 5.09777L471.563 5.18652L468.478 4.66021C468.767 5.18549 467.922 5.2825 467.248 5.65298ZM494.188 4.8697L492.24 4.85422L492.223 5.14008C492.877 4.98322 493.394 4.98529 494.18 5.01315L494.188 4.8697ZM361.922 3.93781C361.669 3.93575 361.661 4.0792 361.913 4.08126C362.166 4.08332 362.174 3.93988 361.922 3.93781ZM377.895 4.06785C377.642 4.06578 377.634 4.20923 377.886 4.21129C378.139 4.21336 378.148 4.06991 377.895 4.06785ZM378.673 4.07404C378.42 4.07197 378.411 4.21542 378.664 4.21748C378.917 4.21955 378.928 4.0761 378.673 4.07404ZM408.07 4.59932L408.086 4.31346L407.696 4.31036L407.679 4.59622L408.07 4.59932ZM414.707 4.36712L413.929 4.36093L413.921 4.50438L414.699 4.51057L414.707 4.36712ZM421.721 4.42388L420.943 4.41769L420.935 4.56114L421.712 4.56733L421.721 4.42388ZM473.141 4.84184L471.973 4.83255L471.965 4.976L473.133 4.98529L473.141 4.84184ZM484.423 5.22058L484.44 4.93472L484.049 4.93162L484.033 5.21748L484.423 5.22058ZM485.024 4.93885C484.771 4.93678 484.763 5.08023 485.015 5.08229C485.268 5.08333 485.276 4.94091 485.024 4.93885ZM485.99 5.08952L486.955 5.24019L487.155 5.17001L485.998 4.94607L485.99 5.08952ZM488.337 4.96568L487.559 4.95949L487.542 5.24535L488.337 4.96568ZM334.254 3.85629C334.002 3.85422 333.993 3.99767 334.246 3.99973C334.499 4.0018 334.507 3.85835 334.254 3.85629ZM386.456 4.28044C386.203 4.27837 386.195 4.42182 386.447 4.42388C386.7 4.42595 386.708 4.2825 386.456 4.28044ZM412.556 4.49303C412.304 4.49096 412.295 4.63441 412.548 4.63647C412.801 4.6375 412.809 4.49509 412.556 4.49303ZM436.099 5.11325L436.891 4.90479L436.318 4.68498L436.124 4.68291L436.099 5.11325ZM463.783 4.90892C463.415 4.79334 462.332 5.12976 462.2 5.32584L463.758 5.33823L463.382 5.12048L463.783 4.90892ZM474.304 4.99457L473.526 4.98838L473.509 5.27424L474.304 4.99457ZM478.198 5.02657C477.715 4.93059 476.822 5.24432 477.013 5.30314C477.493 5.39911 478.389 5.08539 478.198 5.02657ZM491.248 5.13286C490.996 5.1308 490.987 5.27424 491.24 5.27631C491.493 5.27734 491.501 5.13492 491.248 5.13286ZM361.694 4.50851L361.711 4.22264L361.321 4.21955L361.304 4.50541L361.694 4.50851ZM460.465 5.02553C460.212 5.02347 460.203 5.16692 460.456 5.16898C460.709 5.17104 460.717 5.0276 460.465 5.02553ZM467.475 5.08229C467.223 5.08023 467.214 5.22368 467.467 5.22574C467.72 5.2278 467.731 5.08436 467.475 5.08229ZM322.942 4.0503C322.689 4.04824 322.681 4.19168 322.934 4.19375C323.186 4.19581 323.195 4.05237 322.942 4.0503ZM339.887 4.18859L339.109 4.1824L339.1 4.32584L339.878 4.33203L339.887 4.18859ZM370.078 4.4342C369.825 4.43214 369.817 4.57559 370.07 4.57765C370.322 4.57868 370.331 4.43627 370.078 4.4342ZM380.596 4.51986C380.343 4.51779 380.335 4.66124 380.587 4.6633C380.84 4.66434 380.849 4.52192 380.596 4.51986ZM393.062 4.62099C392.81 4.61893 392.801 4.76238 393.054 4.76444C393.306 4.76547 393.315 4.62306 393.062 4.62099ZM435.133 4.96258L434.535 5.17208L434.726 5.24535L435.324 5.03585L435.133 4.96258ZM480.11 5.6148L480.703 5.47651L481.284 5.55288L480.127 5.32894L480.11 5.6148ZM326.828 4.22574C326.575 4.22368 326.567 4.36712 326.82 4.36919C327.072 4.37022 327.081 4.2278 326.828 4.22574ZM334.813 4.29076L334.035 4.28456C334.485 4.55288 334.513 4.58694 334.002 4.85732L334.984 4.72213L336.326 5.09055L337.483 5.31449L334.805 4.50541L334.813 4.29076ZM342.801 4.35577C342.548 4.35371 342.54 4.49715 342.793 4.49922C343.045 4.50025 343.054 4.35783 342.801 4.35577ZM349.228 4.40737L347.67 4.39499L348.237 4.68601L348.636 4.54566L349.396 4.83771L349.228 4.40737ZM356.435 4.46619C356.183 4.46413 356.174 4.60758 356.427 4.60964C356.68 4.6117 356.688 4.46826 356.435 4.46619ZM366.953 4.55185C366.7 4.54979 366.692 4.69323 366.945 4.6953C367.197 4.69633 367.206 4.55391 366.953 4.55185ZM368.121 4.56114C367.868 4.55907 367.86 4.70252 368.113 4.70458C368.365 4.70665 368.374 4.5632 368.121 4.56114ZM370.848 4.58281C370.595 4.58074 370.586 4.72419 370.839 4.72626C371.092 4.72832 371.1 4.58487 370.848 4.58281ZM433.179 5.08952C432.926 5.08745 432.918 5.2309 433.171 5.23296C433.423 5.23503 433.432 5.09158 433.179 5.08952ZM453.24 5.25257L452.462 5.24638L452.454 5.38983L453.232 5.39602L453.24 5.25257ZM457.721 5.28972C457.469 5.28766 457.46 5.43111 457.713 5.43317C457.966 5.4342 457.974 5.29179 457.721 5.28972ZM471.159 5.39911L471.718 5.83358L471.917 5.76341L471.549 5.40221L471.159 5.39911ZM484.406 5.50644C483.923 5.41047 483.03 5.72419 483.221 5.78302C483.701 5.87899 484.594 5.56527 484.406 5.50644ZM456.155 5.41975C455.902 5.41769 455.894 5.56114 456.146 5.5632C456.399 5.56527 456.407 5.42182 456.155 5.41975ZM459.659 5.44865C459.406 5.44659 459.398 5.59003 459.65 5.5921C459.903 5.59313 459.911 5.45071 459.659 5.44865ZM477.757 5.88209L477.774 5.59623L477.384 5.59313L477.367 5.87899L477.757 5.88209ZM323.695 4.48683C323.442 4.48477 323.433 4.62822 323.686 4.63028C323.939 4.63131 323.947 4.4889 323.695 4.48683ZM343.952 4.65092C343.7 4.64886 343.691 4.7923 343.944 4.79437C344.197 4.79643 344.205 4.65298 343.952 4.65092ZM348.422 4.83049L345.699 4.73658C346.196 5.04101 346.738 4.92543 347.439 4.96568C347.762 4.98425 348.043 5.26083 348.422 4.83049ZM355.638 4.74586C355.385 4.7438 355.377 4.88725 355.63 4.88931C355.882 4.89137 355.891 4.74793 355.638 4.74586ZM389.92 5.0245C389.668 5.02244 389.659 5.16588 389.912 5.16795C390.165 5.17001 390.173 5.02657 389.92 5.0245ZM464.909 5.63441L464.129 5.62822L464.112 5.91408L464.889 5.92027L464.909 5.63441ZM485.557 5.80159L484.779 5.7954L484.771 5.93885L485.549 5.94504L485.557 5.80159ZM317.063 4.57559C316.81 4.57352 316.802 4.71697 317.054 4.71903C317.307 4.7211 317.315 4.57765 317.063 4.57559ZM325.244 4.64163C324.992 4.63957 324.983 4.78302 325.236 4.78508C325.489 4.78714 325.497 4.6437 325.244 4.64163ZM364.979 4.96465C364.727 4.96258 364.718 5.10603 364.971 5.10809C365.224 5.11016 365.232 4.96671 364.979 4.96465ZM466.459 5.79024L465.678 5.78405L465.67 5.92749L466.448 5.93369L466.459 5.79024ZM473.276 5.84493C473.023 5.84287 473.015 5.98632 473.268 5.98838C473.52 5.99045 473.529 5.847 473.276 5.84493ZM215.962 3.89653L215.184 3.89034L215.176 4.03379L215.954 4.03998L215.962 3.89653ZM227.844 3.99354C227.592 3.99148 227.583 4.13492 227.836 4.13699C228.089 4.13905 228.097 3.99561 227.844 3.99354ZM329.324 4.8181L328.35 4.80985L327.943 5.09261L329.316 4.96052L329.324 4.8181ZM356.789 5.04205C356.536 5.03998 356.528 5.18343 356.781 5.18549C357.033 5.18652 357.042 5.04411 356.789 5.04205ZM408.6 5.4631C408.347 5.46103 408.339 5.60448 408.592 5.60654C408.844 5.60758 408.853 5.46516 408.6 5.4631ZM453.791 5.83049C453.538 5.82842 453.529 5.97187 453.782 5.97393C454.035 5.97497 454.043 5.83255 453.791 5.83049ZM242.818 4.54463L242.835 4.25876L242.445 4.25567L242.428 4.54153L242.818 4.54463ZM245.544 4.56733L245.561 4.28147L244.769 4.48993L244.764 4.56114L245.544 4.56733ZM306.705 5.06372L305.944 4.77166L305.927 5.05753L306.705 5.06372ZM317.436 4.86454C317.183 4.86248 317.175 5.00593 317.428 5.00799C317.68 5.01005 317.689 4.86661 317.436 4.86454ZM322.305 4.90479L320.348 5.03173L320.339 5.17517L322.296 5.04824L322.305 4.90479ZM341.198 5.05856C340.945 5.05649 340.937 5.19994 341.189 5.202C341.442 5.20304 341.451 5.06062 341.198 5.05856ZM367.105 5.26908L366.327 5.26289L366.319 5.40634L367.096 5.41253L367.105 5.26908ZM170.561 3.81398C170.308 3.81191 170.3 3.95536 170.553 3.95742C170.805 3.95949 170.814 3.81604 170.561 3.81398ZM180.495 3.8955L179.717 3.88931L179.709 4.03173L180.489 4.03792L180.495 3.8955ZM202.895 4.07713C202.642 4.07507 202.634 4.21852 202.886 4.22058C203.139 4.22264 203.148 4.0792 202.895 4.07713ZM229.58 4.29385L228.021 4.28147L228.016 4.35267L228.588 4.57249L228.979 4.57559L229.58 4.29385ZM246.721 4.43317L245.923 4.71284C247.097 4.75309 247.515 5.32275 248.647 4.80675L247.695 4.44143L247.482 4.72626L246.898 4.7211L246.721 4.43317ZM308.662 4.93678L307.494 4.92749L307.486 5.07094L308.654 5.08023L308.662 4.93678ZM311.582 4.96052C311.329 4.95845 311.321 5.1019 311.574 5.10396C311.826 5.10603 311.835 4.96258 311.582 4.96052ZM314.115 4.98116L313.337 4.97497L313.328 5.11841L314.106 5.1246L314.115 4.98116ZM370.6 5.44039L369.042 5.42801L369.025 5.71387C369.755 5.75412 370.376 5.72626 370.6 5.44039ZM383.651 5.54669C383.398 5.54463 383.39 5.68807 383.642 5.69014C383.895 5.69117 383.906 5.54875 383.651 5.54669ZM387.742 5.57971L385.793 5.56423L385.785 5.70768C386.635 5.6375 386.998 5.87693 387.725 5.86661L387.742 5.57971ZM147.375 3.76857L146.207 3.75928L146.182 4.18859L146.572 4.19168L146.589 3.90582L147.369 3.91201L147.375 3.76857ZM153.583 4.24948L153.218 3.81707L152.827 3.81398L152.412 4.24019L153.583 4.24948ZM194.901 4.15556L194.124 4.14937L194.115 4.29282L194.893 4.29901L194.901 4.15556ZM273.203 4.7923L272.425 4.78611L272.417 4.92956L273.198 4.93575L273.203 4.7923ZM284.889 4.88725L284.111 4.88105L284.103 5.0245L284.881 5.03069L284.889 4.88725ZM288.396 4.91511L287.228 4.90582L287.203 5.33513C287.666 5.29385 287.795 5.13699 288.379 5.202L288.396 4.91511ZM294.629 4.96568L293.461 4.95639L293.436 5.3857L294.604 5.39499L294.227 5.17724L294.629 4.96568ZM322.482 5.19272C322.229 5.19065 322.22 5.3341 322.473 5.33616C322.726 5.33719 322.734 5.19478 322.482 5.19272ZM335.728 5.30004C335.476 5.29798 335.467 5.44143 335.72 5.44349C335.973 5.44555 335.981 5.30211 335.728 5.30004ZM203.462 4.36815L202.684 4.36196L202.659 4.79127L203.049 4.79437C202.898 4.57662 203.33 4.53637 203.462 4.36815ZM219.02 4.9244L221.76 4.73142L219.233 4.63957L219.02 4.9244ZM232.662 4.89137L232.679 4.60551L231.887 4.81398L231.882 4.88518L232.662 4.89137ZM276.895 4.96465C276.643 4.96258 276.634 5.10603 276.887 5.10809C277.14 5.11016 277.148 4.96671 276.895 4.96465ZM362.377 6.08952L362.402 5.66021L362.012 5.65711C362.16 5.87486 361.728 5.91511 361.596 6.08332L362.377 6.08952ZM150.278 4.0792C150.025 4.07713 150.017 4.22058 150.27 4.22264C150.522 4.22368 150.531 4.08126 150.278 4.0792ZM182.222 4.33823C181.969 4.33616 181.96 4.47961 182.213 4.48167C182.466 4.48374 182.477 4.34029 182.222 4.33823ZM190.597 4.40634L189.415 4.6117L189.606 4.68498L190.589 4.54979L190.597 4.40634ZM191.571 4.41459C191.319 4.41253 191.31 4.55598 191.563 4.55804C191.816 4.56011 191.824 4.41666 191.571 4.41459ZM243.385 4.83565C243.132 4.83358 243.124 4.97703 243.377 4.97909C243.629 4.98116 243.638 4.83771 243.385 4.83565ZM280.004 5.13389C279.751 5.13183 279.742 5.27528 279.995 5.27734C280.248 5.27837 280.256 5.13596 280.004 5.13389ZM291.299 5.22574C291.046 5.22368 291.038 5.36712 291.291 5.36919C291.543 5.37022 291.552 5.2278 291.299 5.22574ZM323.245 5.48477C322.993 5.48271 322.984 5.62615 323.237 5.62822C323.49 5.63028 323.498 5.48683 323.245 5.48477ZM326.539 5.7985L326.556 5.51263C326.092 5.55391 325.963 5.71078 325.379 5.64576L325.371 5.78921L326.539 5.7985ZM331.621 5.55288C331.138 5.45691 330.245 5.77063 330.436 5.82946C330.916 5.92646 331.809 5.6117 331.621 5.55288ZM332.595 5.56114C332.342 5.55907 332.334 5.70252 332.587 5.70458C332.839 5.70562 332.848 5.5632 332.595 5.56114ZM344.474 5.65711L343.697 5.65092L343.68 5.93678L344.474 5.65711ZM350.317 5.70458L349.54 5.69839L349.531 5.84184L350.309 5.84803L350.317 5.70458ZM162.736 4.32378C162.483 4.32171 162.475 4.46516 162.728 4.46723C162.98 4.46826 162.989 4.32584 162.736 4.32378ZM185.136 4.50541L184.358 4.49922L184.35 4.64266L185.128 4.64886L185.136 4.50541ZM194.292 4.57971C194.039 4.57765 194.031 4.7211 194.284 4.72316C194.536 4.72522 194.545 4.58178 194.292 4.57971ZM335.49 6.01418L335.507 5.72832L335.116 5.72522L335.099 6.01109L335.49 6.01418ZM360.829 5.93369L360.052 5.92749L360.043 6.07094L360.821 6.07713L360.829 5.93369ZM105.851 4.00386C105.599 4.0018 105.59 4.14524 105.843 4.14731C106.096 4.14937 106.104 4.00593 105.851 4.00386ZM113.449 4.06578L112.671 4.05959L112.655 4.34545L113.449 4.06578ZM162.144 4.46207L161.366 4.45587L161.357 4.59932L162.135 4.60551L162.144 4.46207ZM187.076 4.66434L185.712 4.65298L185.111 4.93472L186.475 4.94607L187.076 4.66434ZM246.872 5.1504C246.62 5.14834 246.611 5.29179 246.864 5.29385C247.117 5.29592 247.125 5.15247 246.872 5.1504ZM254.453 5.49819L253.692 5.20613L253.675 5.49199L254.453 5.49819ZM302.971 5.60654C302.718 5.60448 302.71 5.74793 302.962 5.74999C303.215 5.75206 303.223 5.60861 302.971 5.60654ZM171.872 4.68394L170.704 4.67466L169.907 4.95433L171.625 5.5405L171.066 5.10603L172.625 5.11841L171.855 4.96877L171.872 4.68394ZM178.302 4.73658C178.049 4.73451 178.041 4.87796 178.294 4.88002C178.546 4.88105 178.555 4.73864 178.302 4.73658ZM218.037 5.05959C217.784 5.05753 217.776 5.20097 218.029 5.20304C218.281 5.20407 218.29 5.06165 218.037 5.05959ZM261.666 5.41356C261.414 5.4115 261.405 5.55495 261.658 5.55701C261.913 5.55907 261.922 5.41563 261.666 5.41356ZM302.182 5.74277C301.929 5.7407 301.921 5.88415 302.173 5.88621C302.426 5.88828 302.434 5.74483 302.182 5.74277ZM327.698 5.9502L326.921 5.94401L326.912 6.08745L327.69 6.09364L327.698 5.9502ZM7.27494 3.4889C7.02224 3.48683 7.01382 3.63028 7.26652 3.63234C7.51921 3.63441 7.52764 3.49096 7.27494 3.4889ZM10.3915 3.5147C10.1388 3.51263 10.1304 3.65608 10.3831 3.65814C10.6358 3.66021 10.6442 3.51676 10.3915 3.5147ZM11.7561 3.52605L10.9755 3.51986L10.9671 3.6633L11.7448 3.6695L11.7561 3.52605ZM24.6098 3.63028L23.6271 3.76547L23.0459 3.6891L23.6187 3.90892L24.593 3.91717L24.6098 3.63028ZM34.5436 3.71078C34.2909 3.70871 34.2825 3.85216 34.5352 3.85422C34.7879 3.85629 34.7963 3.71284 34.5436 3.71078ZM42.7253 3.77786C42.4726 3.77579 42.4642 3.91924 42.7169 3.9213C42.9696 3.92233 42.978 3.77992 42.7253 3.77786ZM122.976 4.43007C122.723 4.42801 122.715 4.57146 122.967 4.57352C123.22 4.57455 123.228 4.43214 122.976 4.43007ZM152.387 4.66846L151.219 4.65918L151.21 4.80262L152.378 4.81191L152.387 4.66846ZM164.039 5.33616C164.235 4.95433 163.272 4.95433 162.711 4.75309L162.511 4.82326L164.039 5.33616ZM164.269 4.76547C164.016 4.76341 164.008 4.90685 164.261 4.90892C164.513 4.91098 164.522 4.76754 164.269 4.76547ZM165.614 5.06269L165.631 4.77682L164.839 4.98529L164.833 5.05649L165.614 5.06269ZM176.151 4.86145L175.374 4.85525L175.357 5.14112L176.151 4.86145ZM181.977 5.19581L181.994 4.90995L181.604 4.90685L181.587 5.19272L181.977 5.19581ZM183.746 4.92337C183.493 4.9213 183.485 5.06475 183.738 5.06681C183.99 5.06888 183.999 4.92543 183.746 4.92337ZM191.538 4.98735C191.285 4.98529 191.277 5.12873 191.529 5.1308C191.782 5.13183 191.79 4.98941 191.538 4.98735ZM220.755 5.22471C220.502 5.22264 220.494 5.36609 220.746 5.36815C220.999 5.36919 221.008 5.22677 220.755 5.22471ZM293.017 5.81191L292.24 5.80572L292.231 5.94917L293.009 5.95536L293.017 5.81191ZM317.172 6.00799L316.394 6.0018L316.378 6.28766L317.172 6.00799ZM324.767 6.06991C324.514 6.06785 324.506 6.21129 324.759 6.21336C325.011 6.21542 325.02 6.07197 324.767 6.06991ZM3.15881 3.88518L3.17566 3.59932L2.78539 3.59622L2.76854 3.88209L3.15881 3.88518ZM23.0179 4.18962C23.147 3.91821 22.6192 3.71594 21.8751 3.75102L23.0179 4.18962ZM48.7563 3.96981L47.9786 3.96361L47.9617 4.24948L48.7394 4.25567L48.7563 3.96981ZM93.927 4.62306L93.9438 4.33719L93.5536 4.3341L93.5367 4.61996L93.927 4.62306ZM115.37 4.5116L114.592 4.50541L114.575 4.79127L115.37 4.5116ZM189.971 5.11738L189.373 5.32687L189.564 5.40015L190.162 5.19065L189.971 5.11738ZM256.197 5.65608L255.599 5.86557L255.79 5.93885L256.388 5.72935L256.197 5.65608ZM306.646 6.06578L305.868 6.05959L305.86 6.20304L306.638 6.20923L306.646 6.06578ZM27.9061 3.94297C27.6534 3.94091 27.645 4.08436 27.8977 4.08642C28.1504 4.08848 28.1588 3.94504 27.9061 3.94297ZM97.4423 4.50851L96.6645 4.50231L96.6477 4.78818L97.4254 4.79437L97.4423 4.50851ZM143.994 4.88725C143.742 4.88518 143.733 5.02863 143.986 5.03069C144.239 5.03173 144.247 4.88931 143.994 4.88725ZM147.678 5.20304L147.695 4.91717L147.305 4.91408L147.288 5.19994L147.678 5.20304ZM156.461 4.98838C156.208 4.98632 156.2 5.12976 156.452 5.13183C156.705 5.13389 156.713 4.99045 156.461 4.98838ZM169.511 5.09468L168.733 5.08849L168.725 5.23193L169.503 5.23812L169.511 5.09468ZM234.763 5.62512C234.51 5.62306 234.501 5.7665 234.754 5.76857C235.007 5.7696 235.015 5.62718 234.763 5.62512ZM238.446 5.94091L238.463 5.65505L237.671 5.86351L237.666 5.93472L238.446 5.94091ZM297.482 6.13492C297.229 6.13286 297.22 6.27631 297.473 6.27837C297.726 6.2794 297.734 6.13699 297.482 6.13492ZM309.948 6.23606C309.695 6.234 309.687 6.37744 309.939 6.37951C310.192 6.38054 310.201 6.23812 309.948 6.23606ZM314.232 6.27115C313.98 6.26908 313.971 6.41253 314.224 6.41459C314.477 6.41563 314.485 6.27321 314.232 6.27115ZM6.25012 4.34029L6.66005 3.98529L6.46912 3.91201L5.85985 4.33616L6.25012 4.34029ZM9.5857 3.93781C9.333 3.93575 9.32458 4.0792 9.57728 4.08126C9.82997 4.08229 9.8384 3.93988 9.5857 3.93781ZM58.2829 4.33307C58.0302 4.331 58.0218 4.47445 58.2745 4.47651C58.5272 4.47858 58.5356 4.33513 58.2829 4.33307ZM87.3036 4.56939L87.8623 5.00386L88.8478 4.79746L88.275 4.57765L87.3036 4.56939ZM125.854 5.16898L125.093 4.87693L125.076 5.16279L125.854 5.16898ZM150.609 5.08436C150.357 5.08229 150.348 5.22574 150.601 5.2278C150.854 5.22884 150.862 5.08642 150.609 5.08436ZM166.189 5.21026C165.937 5.2082 165.928 5.35164 166.181 5.35371C166.434 5.35577 166.442 5.21232 166.189 5.21026ZM288.514 6.2051C288.261 6.20304 288.253 6.34648 288.505 6.34855C288.758 6.35061 288.766 6.20716 288.514 6.2051ZM49.1185 4.40221L48.3408 4.39602L48.3323 4.53947L49.1101 4.54566L49.1185 4.40221ZM59.8328 4.4889C59.5801 4.48683 59.5717 4.63028 59.8244 4.63234C60.0771 4.63441 60.0855 4.49096 59.8328 4.4889ZM60.6105 4.49509C60.3578 4.49303 60.3494 4.63647 60.6021 4.63854C60.8548 4.6406 60.8632 4.49715 60.6105 4.49509ZM121.381 4.98941C121.128 4.98735 121.12 5.1308 121.373 5.13286C121.628 5.13492 121.636 4.99148 121.381 4.98941ZM189.946 5.54669C189.693 5.54463 189.685 5.68807 189.937 5.69014C190.19 5.6922 190.198 5.54875 189.946 5.54669ZM200.854 5.63544C200.601 5.63338 200.593 5.77682 200.845 5.77889C201.098 5.78095 201.106 5.6375 200.854 5.63544ZM229.487 5.86867L228.709 5.86248L228.692 6.14834L229.487 5.86867ZM262.582 6.42388L262.598 6.13802L262.208 6.13492L262.191 6.42079L262.582 6.42388ZM266.883 6.17208L266.105 6.16588L266.097 6.30933L266.875 6.31552L266.883 6.17208ZM5.28426 4.18859C5.03157 4.18652 5.02314 4.32997 5.27584 4.33203C5.52853 4.3341 5.53696 4.19065 5.28426 4.18859ZM27.4906 4.36919C27.2379 4.36712 27.2295 4.51057 27.4822 4.51263C27.7348 4.5147 27.7433 4.37125 27.4906 4.36919ZM40.5212 4.76134L40.5381 4.47548L39.547 4.75412L38.7776 4.60448L37.3962 4.88002L40.1225 4.90169L40.1057 5.18756L42.0739 4.84597L40.5212 4.76134ZM45.5779 4.94607L45.0192 4.5116C44.7637 4.57868 44.0112 4.7696 43.8344 4.78818C42.9078 4.88415 42.2115 4.52915 42.4445 5.20613L43.0454 4.9244L45.5779 4.94607ZM78.521 4.78405C78.2683 4.78198 78.2599 4.92543 78.5126 4.92749C78.7653 4.92956 78.7737 4.78611 78.521 4.78405ZM85.1444 4.83771C84.8917 4.83565 84.8833 4.97909 85.136 4.98116C85.3887 4.98322 85.3971 4.83977 85.1444 4.83771ZM182.705 6.06062L181.368 5.61996L181.542 5.97909L180.742 6.331L182.494 6.34545L182.705 6.06062ZM236.296 6.06681C236.043 6.06475 236.034 6.2082 236.287 6.21026C236.54 6.21232 236.548 6.06888 236.296 6.06681ZM288.107 6.48787C287.854 6.4858 287.845 6.62925 288.098 6.63131C288.351 6.63338 288.359 6.48993 288.107 6.48787ZM296.676 6.55701C296.423 6.55495 296.415 6.69839 296.667 6.70046C296.92 6.70252 296.928 6.55907 296.676 6.55701ZM10.136 4.5147L9.17016 4.36403L8.97081 4.4342L10.1276 4.65814L10.136 4.5147ZM55.9188 4.7438C55.6661 4.74174 55.6577 4.88518 55.9104 4.88725C56.1631 4.88931 56.1715 4.74586 55.9188 4.7438ZM61.9582 4.7923L60.7902 4.78302L60.7818 4.92646L61.9498 4.93575L61.9582 4.7923ZM100.913 5.10912L99.3543 5.09674L99.3459 5.24019L100.904 5.25257L100.913 5.10912ZM109.847 5.6117C109.735 5.44143 109.308 5.39395 109.482 5.1793L109.092 5.1762L109.066 5.60551L109.847 5.6117ZM114.743 5.22161C114.491 5.21955 114.482 5.36299 114.735 5.36506C114.988 5.36712 114.996 5.22368 114.743 5.22161ZM186.228 5.80262L185.06 5.79334L185.043 6.0792L186.211 6.08849L186.228 5.80262ZM241.917 6.54153L241.35 6.25051L239.977 6.3826L239.968 6.52605C240.555 6.60964 240.869 6.38983 240.951 6.39086C241.032 6.39189 241.321 6.61583 241.917 6.54153ZM5.26742 4.47548C5.01472 4.47342 5.0063 4.61686 5.25899 4.61893C5.51169 4.61996 5.52011 4.47755 5.26742 4.47548ZM11.5006 4.52605C11.2479 4.52399 11.2395 4.66743 11.4921 4.6695C11.7448 4.67053 11.7533 4.52811 11.5006 4.52605ZM24.5509 4.63234L23.7731 4.62615L24.3403 4.91717L24.534 4.91924L24.5509 4.63234ZM25.7021 4.92749L25.7189 4.64163L25.3286 4.63854L25.3118 4.9244L25.7021 4.92749ZM27.4709 4.65608C27.2182 4.65402 27.2098 4.79746 27.4625 4.79953C27.7152 4.80056 27.7264 4.65814 27.4709 4.65608ZM33.3166 4.70355L33.1173 4.77373L33.69 4.99354L33.8894 4.92337L33.3166 4.70355ZM35.2624 4.71903C35.0097 4.71697 35.0012 4.86041 35.2539 4.86248C35.5066 4.86454 35.5151 4.7211 35.2624 4.71903ZM36.8207 4.73142C36.568 4.72935 36.5595 4.8728 36.8122 4.87486C37.0649 4.87693 37.0733 4.73348 36.8207 4.73142ZM48.5092 4.82636C48.2565 4.8243 48.2481 4.96774 48.5008 4.96981C48.7535 4.97187 48.7619 4.82842 48.5092 4.82636ZM50.0675 4.83977C49.8148 4.83771 49.8064 4.98116 50.0591 4.98322C50.3118 4.98425 50.3202 4.84184 50.0675 4.83977ZM52.0133 4.85525C51.7606 4.85319 51.7521 4.99664 52.0048 4.9987C52.2575 5.00077 52.2688 4.85732 52.0133 4.85525ZM71.8835 5.01625C71.6308 5.01418 71.6224 5.15763 71.8751 5.15969C72.1278 5.16176 72.1362 5.01831 71.8835 5.01625ZM151.157 5.66124L150.379 5.65505L150.946 5.94607L151.14 5.94813L151.157 5.66124ZM164.988 5.77373C164.735 5.77166 164.727 5.91511 164.979 5.91717C165.232 5.91821 165.24 5.77579 164.988 5.77373ZM179.79 5.89344C179.537 5.89137 179.529 6.03482 179.782 6.03689C180.034 6.03895 180.043 5.8955 179.79 5.89344ZM191.088 5.98529C190.836 5.98322 190.827 6.12667 191.08 6.12873C191.333 6.1308 191.341 5.98735 191.088 5.98529ZM202.774 6.08023C202.521 6.07817 202.513 6.22161 202.766 6.22368C203.018 6.22574 203.027 6.08229 202.774 6.08023ZM212.904 6.16279C212.652 6.16072 212.643 6.30417 212.896 6.30624C213.149 6.3083 213.157 6.16485 212.904 6.16279ZM18.503 4.72626C18.2503 4.72419 18.2419 4.86764 18.4946 4.8697C18.7473 4.87073 18.7557 4.72832 18.503 4.72626ZM19.8676 4.73658L19.0899 4.73038L19.0814 4.87383L19.8592 4.88002L19.8676 4.73658ZM32.7214 4.84184L31.1631 4.82946L31.1462 5.11532L31.7387 4.97703L32.7045 5.1277L32.7214 4.84184ZM36.0345 4.86867C35.7818 4.86661 35.7734 5.01005 36.0261 5.01212C36.2788 5.01315 36.2872 4.87073 36.0345 4.86867ZM114.513 5.7923L113.752 5.50025L113.736 5.78611L114.513 5.7923ZM183.075 6.34958L184.257 6.14421L184.066 6.07094L183.084 6.20613L183.075 6.34958ZM4.8603 4.75825C4.6076 4.75618 4.59918 4.89963 4.85187 4.90169C5.10457 4.90376 5.11299 4.76031 4.8603 4.75825ZM20.2382 5.02657L20.8054 5.31759C21.2265 5.18652 21.527 5.10912 21.4147 4.89344C20.9542 4.93369 20.825 5.09055 20.2382 5.02657ZM72.6444 5.30933C72.3917 5.30727 72.3833 5.45071 72.636 5.45278C72.8887 5.45381 72.8971 5.3114 72.6444 5.30933ZM92.6888 5.75825L91.7314 5.46413L90.7487 5.59932L90.7402 5.74277L92.6888 5.75825ZM102.252 5.54979C101.999 5.54772 101.991 5.69117 102.243 5.69323C102.496 5.6953 102.505 5.55185 102.252 5.54979ZM121.339 5.70458C121.086 5.70252 121.078 5.84597 121.33 5.84803C121.583 5.8501 121.592 5.70665 121.339 5.70458ZM174.708 6.13905C174.455 6.13699 174.447 6.28044 174.7 6.2825C174.952 6.28353 174.961 6.14112 174.708 6.13905ZM162.43 6.1824L160.872 6.17001L160.863 6.31346L161.644 6.31965L161.821 6.60758L162.43 6.1824ZM35.2287 5.29179C34.976 5.28972 34.9676 5.43317 35.2202 5.43523C35.4729 5.43627 35.4814 5.29385 35.2287 5.29179ZM85.6526 6.1308L86.0626 5.77579L85.8716 5.70252L85.2624 6.12667L85.6526 6.1308ZM109.246 5.89344C108.993 5.89137 108.985 6.03482 109.238 6.03689C109.49 6.03792 109.499 5.8955 109.246 5.89344ZM140.198 6.43111L140.215 6.14524L139.825 6.14112L139.808 6.42698L140.198 6.43111ZM5.41903 5.19272L4.64129 5.18652L5.20565 5.47651L5.39938 5.47858L5.41903 5.19272ZM6.00304 5.19684C5.75034 5.19478 5.74192 5.33823 5.99462 5.34029C6.24731 5.34236 6.25574 5.19891 6.00304 5.19684ZM7.9516 5.21232C7.69891 5.21026 7.69048 5.35371 7.94318 5.35577C8.19588 5.35783 8.2043 5.21439 7.9516 5.21232ZM59.7626 5.63441C59.5099 5.63234 59.5015 5.77579 59.7542 5.77786C60.0069 5.77889 60.0153 5.63647 59.7626 5.63441ZM153.257 6.39395C153.004 6.39189 152.996 6.53534 153.249 6.5374C153.501 6.53947 153.51 6.39602 153.257 6.39395ZM166.504 6.50128C166.251 6.49922 166.243 6.64266 166.496 6.64473C166.748 6.64679 166.757 6.50335 166.504 6.50128ZM23.1358 5.47961C22.8831 5.47755 22.8747 5.62099 23.1274 5.62306C23.3801 5.62409 23.3885 5.48167 23.1358 5.47961ZM27.4204 5.5147L27.221 5.58487L28.1729 5.9502L28.3722 5.88002L27.4204 5.5147ZM35.7706 6.01212L35.4056 5.57971C34.6194 5.64989 34.5127 5.87693 34.5913 6.14628L35.7706 6.01212ZM35.9896 5.58384L35.7902 5.65402L37.1323 6.02244L37.1576 5.59313L36.3686 5.73038L35.9896 5.58384ZM44.1713 5.65092C43.9186 5.64886 43.9102 5.7923 44.1629 5.79437C44.4156 5.7954 44.424 5.65195 44.1713 5.65092ZM45.3393 5.66021C45.0866 5.65814 45.0782 5.80159 45.3309 5.80366C45.5836 5.80469 45.592 5.66227 45.3393 5.66021ZM48.6524 5.68704L47.8747 5.68085L47.8662 5.8243L48.644 5.83049L48.6524 5.68704ZM91.6977 6.03689C91.445 6.03482 91.4365 6.17827 91.6892 6.18033C91.9419 6.18136 91.9504 6.03895 91.6977 6.03689ZM31.3063 5.6891C31.0536 5.68704 31.0452 5.83049 31.2979 5.83255C31.5505 5.83462 31.5618 5.69117 31.3063 5.6891ZM91.1052 6.17517L90.3275 6.16898L90.3191 6.31243L91.0968 6.31862L91.1052 6.17517ZM10.8464 5.66537L10.0686 5.65918L10.0602 5.80262L10.8379 5.80882L10.8464 5.66537ZM12.0144 5.67569L11.2366 5.6695L11.2282 5.81294L12.006 5.81914L12.0144 5.67569ZM30.1298 5.82223C29.8771 5.82017 29.8687 5.96361 30.1214 5.96568C30.3741 5.96774 30.3825 5.8243 30.1298 5.82223ZM19.6037 5.88002C19.351 5.87796 19.3426 6.02141 19.5952 6.02347C19.8479 6.02553 19.8564 5.88209 19.6037 5.88002ZM28.945 6.0988C28.6923 6.09674 28.6839 6.24019 28.9366 6.24225C29.1892 6.24432 29.1977 6.10087 28.945 6.0988Z" fill="url(#paint2_linear_1580_4735)"/>
<path d="M1.92923 4.87625C1.92923 4.92373 1.918 4.9712 1.92081 5.0197C1.63442 5.06201 1.21326 5.19308 1.13184 5.15696L1.14868 4.87109L1.92923 4.87625Z" fill="url(#paint3_linear_1580_4735)"/>
<path d="M497.965 6.61049L497.956 6.75391L498.736 6.76025L498.745 6.61683L497.965 6.61049Z" fill="url(#paint4_linear_1580_4735)"/>
<path d="M475.994 6.01174C476.246 6.0138 476.238 6.15725 475.985 6.15519C475.732 6.15209 475.741 6.00968 475.994 6.01174Z" fill="url(#paint5_linear_1580_4735)"/>
<path d="M0.193786 4.57815C0.446481 4.58021 0.438058 4.72366 0.185363 4.72159C-0.0673328 4.71953 -0.0589096 4.57608 0.193786 4.57815Z" fill="url(#paint6_linear_1580_4735)"/>
</g>
<g opacity="0.5">
<path d="M490.999 1.49219L490.78 1.70549L488.629 1.76835L489.042 1.55556L490.999 1.49219Z" fill="url(#paint7_linear_1580_4735)"/>
<path d="M492.922 1.71484L493.312 1.71639L493.11 1.78698C492.857 1.78646 492.942 1.71639 492.922 1.71484Z" fill="url(#paint8_linear_1580_4735)"/>
<path d="M30.4441 0.409992L31.2191 0.448635L30.4694 0.195655C32.3 0.244602 34.7792 0.156498 36.5088 0.220387C37.7245 0.265212 39.6871 0.266757 40.7934 0.237904C41.9585 0.20699 42.5959 0.29355 43.5196 0.248724C44.4883 0.201838 44.901 0.397111 45.0611 0.398142C45.3587 0.358984 45.9792 0.278608 46.2459 0.260059C47.72 0.158559 49.4888 0.332707 51.311 0.280669C54.3321 0.194625 58.9873 0.33889 62.2274 0.253361C65.1531 0.176077 68.1517 0.244087 70.7965 0.288397L71.9814 0.150315L72.3633 0.223478L72.9557 0.154437L72.9388 0.297156C73.5593 0.33889 73.7671 0.234298 73.9215 0.229661C74.4325 0.214719 75.7718 0.165772 75.8785 0.166287C76.0077 0.166802 76.1115 0.234298 76.2603 0.23945C77.6754 0.288397 79.0484 0.23842 80.1378 0.398142C80.8285 0.192564 81.6175 0.297156 82.4935 0.264697C83.6081 0.223478 84.1135 0.224508 85.2197 0.275516C86.2474 0.323433 88.7378 0.181744 89.903 0.222963C93.3397 0.345588 98.0285 -0.008892 101.971 0.343527C103.04 0.0771519 105.289 0.273456 106.645 0.362591L107.036 0.364136C108.852 0.0761214 112.387 0.308491 114.844 0.252846C117.494 0.192564 120.075 0.207506 122.245 0.28273C123.41 0.322918 124.151 0.2276 124.592 0.220902C126.749 0.187412 129.214 0.270364 131.409 0.248724L131.586 0.392474C132.485 0.177107 135.132 0.220902 136.27 0.33992C152.942 0.32807 170.386 0.280669 188.097 0.407416C189.945 0.225539 192.042 0.392989 194.339 0.361045L196.456 0.584141L195.498 0.437299C195.116 0.399687 195.801 0.300763 195.905 0.296126C196.296 0.278608 198.163 0.290973 198.632 0.306946C199.539 0.338375 200.285 0.280669 201.358 0.317766C205.084 0.447089 209.61 0.254392 213.824 0.368258C214.95 0.398657 218.114 0.346103 218.898 0.31725C220.206 0.268818 222.337 0.369804 223.766 0.336829L224.14 0.481094L224.353 0.33889C225.395 0.320342 225.816 0.416175 225.903 0.41669C227.604 0.423388 233.181 0.425964 234.871 0.381654C238.515 0.285821 245.108 0.384746 248.895 0.43833L249.286 0.439876C250.133 0.129706 253.121 0.406901 253.579 0.385776C256.271 0.261605 259.278 0.45997 260.202 0.412568C261.763 0.332192 270.172 0.324979 271.896 0.388352C273.696 0.454817 276.675 0.289943 277.747 0.340436C278.722 0.386291 284.576 0.480579 285.921 0.445028C286.853 0.420297 288.13 0.410507 289.046 0.386291C290.129 0.357954 291.553 0.364652 292.145 0.541892L292.943 0.402264C293.67 0.5929 295.164 0.421327 295.669 0.413084C300.602 0.335799 306.268 0.485731 310.48 0.401748L310.861 0.474911L311.454 0.40587L312.206 0.623298L312.038 0.407931C313.06 0.452756 313.765 0.300248 314.773 0.347649C315.884 0.400203 318.299 0.480064 319.829 0.439876C319.978 0.435754 320.099 0.369289 320.228 0.369804C320.309 0.370319 320.599 0.482125 321.194 0.445028L321.177 0.587747C321.362 0.584141 321.592 0.601659 321.761 0.590324C322 0.573836 322.884 0.398657 323.345 0.38217C323.825 0.365167 325.554 0.375472 326.071 0.392989C326.22 0.398142 326.318 0.464607 326.453 0.466152C326.517 0.466668 326.863 0.356923 327.435 0.398657L327.612 0.542407C328.266 0.341466 329.269 0.463061 329.976 0.337344L331.916 0.41669L332.509 0.347649L332.882 0.491914L333.284 0.386291L333.475 0.422873C333.626 0.418236 333.73 0.355377 333.873 0.352801C336.872 0.300248 339.733 0.333222 342.841 0.317766C345.037 0.30643 348.285 0.187412 350.251 0.276547C351.365 0.32704 352.138 0.223993 352.598 0.214719C353.269 0.200808 354.047 0.231722 354.74 0.223478L354.527 0.365682C355.333 0.152376 356.568 0.244087 357.854 0.236359L357.447 0.377532C357.761 0.370834 358.163 0.39402 358.421 0.381654C358.567 0.374441 359.57 0.188957 360.005 0.1735C361.602 0.11734 364.169 0.245118 365.848 0.197201C370.292 0.0704538 375.531 0.320857 380.658 0.185866C382.231 0.144647 384.16 0.163196 386.122 0.136404L387.273 0.284275L388.071 0.144647L389.421 0.257483L389.045 0.148769C390.132 0.141041 391.274 0.174531 392.355 0.162165C397.286 0.104974 408.32 0.0235677 412.621 0.172985C413.57 0.20596 415.185 0.210597 415.738 0.185866C417.641 0.100853 424.147 0.0838499 426.264 0.157013C429.456 0.267788 434.187 0.0859108 437.562 0.202869C440.098 0.290973 443.256 0.0725148 445.752 0.164741C446.392 0.188442 447.923 0.245118 448.47 0.247179C448.538 0.247694 448.768 0.157013 449.647 0.180714L449.823 0.324464L450.231 0.18329C450.666 0.194625 451.199 0.171955 451.595 0.188957C453.384 0.264181 454.712 0.213689 456.652 0.281184C457.893 0.323948 464.025 0.359499 465.611 0.317766C466.984 0.281699 468.849 0.304885 469.879 0.478003L470.092 0.335799L472.81 0.418236L472.793 0.560955L473.768 0.565077C474.554 0.401748 475.809 0.476972 476.519 0.36156L477.28 0.507371C478.305 0.311583 479.655 0.562501 480.787 0.521798C480.958 0.515615 481.143 0.412568 481.77 0.454302L480.947 0.808267L481.539 0.739226L482.098 0.956139L482.881 0.923679L483.305 0.639271L482.149 0.527465L484.282 0.607841C485.905 0.465122 487.632 0.673791 489.348 0.628451C490.704 0.5929 491.625 0.794356 492.464 0.641332L493.037 0.751076L492.245 0.855153C492.992 0.907707 493.304 0.732528 493.627 0.717586C494.488 0.678428 495.005 0.79178 495.76 0.797962L494.561 1.04321L494.938 1.15193L492.995 1.10813L493.568 1.21788L495.311 1.29619C495.19 0.986022 495.993 0.703159 497.903 0.806206C498.422 0.834029 498.739 1.00251 498.068 1.05712L498.641 1.16687L499.439 1.02724L500 1.20809L499.222 1.205L499.587 1.42088L499.177 1.59812L498.397 1.59503L499.203 1.38378L498.035 1.37914L498.051 1.23643L497.274 1.23333L498.018 1.52238L496.078 1.44303L496.847 1.51774L497.015 1.73311L497.583 1.87841L495.432 1.94126L494.076 1.86449L494.101 1.65016L493.312 1.71868L493.127 1.64655L492.925 1.71714C492.776 1.7058 492.503 1.73259 492.341 1.71456C491.838 1.65943 491.406 1.45901 491.408 1.35338L490.816 1.42242C490.019 1.21582 488.935 1.21169 488.09 1.4116L486.93 1.33535L486.321 1.54711L487.874 1.58936C488.595 1.52393 487.876 1.68674 487.666 1.6955C486.602 1.74084 486.36 1.51414 485.734 1.54453L484.151 1.75269L484.372 1.53938C483.76 1.51671 483.606 1.59503 482.999 1.60533C481.902 1.6244 481.211 1.63779 480.265 1.66561C478.734 1.71044 478.097 1.5265 476.775 1.50847L475.056 1.21582L475.225 1.43118L475.011 1.57339C474.573 1.58112 474.051 1.55484 473.647 1.56772C473.498 1.57236 473.403 1.63161 473.248 1.63779C472.28 1.67489 471.76 1.53114 470.912 1.62852C470.401 1.45798 469.559 1.5162 468.989 1.40645L469.166 1.5502C468.728 1.55742 468.206 1.53165 467.801 1.54453C467.65 1.54917 467.546 1.61151 467.403 1.61461C465.979 1.6414 464.353 1.53887 463.508 1.59863L462.747 1.45282L461.95 1.59245L461.181 1.51774C460.291 1.69756 459.319 1.48322 458.258 1.50589L457.884 1.36163L457.663 1.57493L457.486 1.43118L456.708 1.42809L456.691 1.57081C456.506 1.56514 456.27 1.58163 456.107 1.56824C455.894 1.55072 455.846 1.47034 455.338 1.49353C452.71 1.61512 449.815 1.60997 447.156 1.46055L445.971 1.59863L445.589 1.52547L444.216 1.59142L444.43 1.44922L443.245 1.5873C442.992 1.57751 442.695 1.59709 442.467 1.58421C441.496 1.52856 440.297 1.61615 438.96 1.56978C437.804 1.52959 436.391 1.50692 434.676 1.55226C433.078 1.59451 430.299 1.54917 428.434 1.59863C427.671 1.61873 426.705 1.57545 425.902 1.58833L426.115 1.44612C425.725 1.51053 425.057 1.57184 424.54 1.58266C422.858 1.6177 421.496 1.59039 420.247 1.63676C418.762 1.69138 417.773 1.41212 416.732 1.69395C415.808 1.54505 414.331 1.67077 413.242 1.53681L412.057 1.67489C410.15 1.49971 407.427 1.7532 405.046 1.64655C404.004 1.59966 401.455 1.5873 399.981 1.62594C399.723 1.63264 399.686 1.76248 399.203 1.62285L398.611 1.69189L398.434 1.54814C398.038 1.6651 397.429 1.59348 396.867 1.61306C396.713 1.61821 396.615 1.67953 396.469 1.68313C394.009 1.73878 392.279 1.63779 389.845 1.65634C389.222 1.66098 389.017 1.6584 388.472 1.72229L389.27 1.58266C389.312 1.50641 389.505 1.30238 388.711 1.36575C387.88 1.43221 388.298 1.65428 387.498 1.71817L386.729 1.64346C385.979 1.84234 383.138 1.61358 382.834 1.62749C381.079 1.70838 379.555 1.68004 377.752 1.7496C376.742 1.78875 376.085 1.6347 375.425 1.66871C372.875 1.79957 370.298 1.60327 367.625 1.70838C367.322 1.72023 367.072 1.80936 366.058 1.7733C364.952 1.73362 363.416 1.74341 362.172 1.68622C360.743 1.62027 360.389 1.87583 359.429 1.81812C357.503 1.7022 355.765 1.70374 353.965 1.86759L353.575 1.86604C352.466 1.66201 350.967 1.71817 349.501 1.70632L349.484 1.84904C348.67 1.90983 347.21 1.75578 346.96 1.76711C345.225 1.84749 343.841 1.87995 342.294 1.67695L341.109 1.81503C340.73 1.80576 340.295 1.82276 339.941 1.81039C339.312 1.78772 337.47 1.76866 336.434 1.79597C334.909 1.83616 333.222 1.78412 331.361 1.84698L330.6 1.70117L329.025 1.8377L327.475 1.7599C324.956 1.91756 322.143 1.77948 320.057 1.87274C318.232 1.95414 316.831 1.77381 314.983 1.92375L313.832 1.77587L313.043 1.8444L312.102 1.55484L312.872 1.62955C313.001 1.49404 312.473 1.39306 311.729 1.41057L312.102 1.55484C311.631 1.52908 311.035 1.54969 311.311 1.65892C311.645 1.79133 312.543 1.72384 312.459 1.84234L310.699 1.90674L309.157 1.75733L307.972 1.89541L307.414 1.6785L307.023 1.67695L307.006 1.81967L305.44 1.88459L305.086 1.59709L303.741 1.4487L304.875 1.73929L304.468 1.88047L302.318 1.94332L302.334 1.80061L300.953 1.93817L300.571 1.86501C300.445 1.86449 300.335 1.92684 300.172 1.93508C299.423 1.97115 298.982 1.81967 298.232 1.85573C296.986 1.91602 295.029 1.99124 293.159 1.90674C291.092 1.81297 287.922 1.97475 285.758 1.87686C284.348 1.81297 282.363 1.97527 281.074 1.92941C279.348 1.8681 277.789 1.87325 275.622 1.90726C274.26 1.92838 272.91 1.92787 271.938 1.7496L271.921 1.89232L268.423 1.80679L268.44 1.66407L268.049 1.66252L268.033 1.80524L265.093 1.93611C264.082 1.71353 260.264 1.95157 259.64 1.91396C259.48 1.90417 259.402 1.84646 259.259 1.84079C258.402 1.80936 257.245 1.85213 256.336 1.82894L256.743 1.68777L255.769 1.68365C255.544 1.71456 254.682 1.81812 254.584 1.82173C253.247 1.86913 250.687 1.66458 249.519 1.80112L248.55 1.76145L248.926 1.87016L247.191 1.72023C247.039 1.72744 246.952 1.78154 246.792 1.7903C244.967 1.89026 242.544 1.76505 240.542 1.90777L239.391 1.7599C237.681 1.84492 235.07 1.94745 233.548 1.7362C233.419 1.73569 233.301 1.80215 233.15 1.80627C228.84 1.92375 223.233 1.79082 219.125 1.7496L217.55 1.88613C216.907 1.77021 215.104 1.76248 214.433 1.87325L213.673 1.72744C213.417 1.73517 213.128 1.71302 212.895 1.72435C212.732 1.73208 212.622 1.79494 212.496 1.79442C212.415 1.79391 212.125 1.6821 211.53 1.7192L211.707 1.86295C211.059 1.68313 210.373 1.85007 210.149 1.85677C208.335 1.90777 205.752 1.78309 203.916 1.83152C202.515 1.86862 200.235 1.76248 198.463 1.80936C197.744 1.82843 197.469 1.79751 197.295 1.80473C197.079 1.81349 196.627 1.92787 195.922 1.87068L195.939 1.72796L194.948 1.86707L194.566 1.79391L193.777 1.86243L193.395 1.78927C192.188 1.93302 191.205 1.79751 189.88 1.84646C188.869 1.88356 187.283 1.80627 186.179 1.83152L186.587 1.69035L185.205 1.82791C185.076 1.8274 184.972 1.76042 184.823 1.75475C183.464 1.70632 181.109 2.01958 179.758 1.73414C178.601 1.92993 176.024 1.7192 175.083 1.71508C175.002 1.71456 174.687 1.82431 174.101 1.78257C174.303 1.59657 173.371 1.594 172.773 1.49147L172.172 1.63212L173.705 1.85264L172.349 1.77587C170.515 1.9088 168.687 1.65582 166.868 1.96806L165.7 1.96342L164.549 1.81555L163.575 1.81142L163.558 1.95414C163.123 1.94281 162.589 1.96548 162.193 1.94848C161.466 1.91808 160.82 1.88871 160.253 1.86913C159.259 1.83461 158.206 1.91859 157.339 1.78566L157.313 2L156.145 1.99536L156.171 1.78103C155.55 1.73929 155.34 1.8444 155.188 1.84852C153.7 1.88871 151.687 1.79906 150.123 1.82791C148.848 1.85161 149.342 1.88356 147.787 1.81864C147.225 1.79494 146.605 1.86037 146.237 1.74084L146.414 1.88459C145.869 1.86913 145.153 1.90004 144.662 1.87737C143.3 1.81555 142.053 1.94951 140.776 1.7903L138.811 1.92529C138.443 1.80782 137.845 1.8681 137.261 1.84749C136.174 1.80885 135.236 1.87274 134.144 1.83461C130.342 1.70271 124.873 1.94487 121.288 1.78257C119.923 1.72074 118.519 1.7836 117.382 1.83822C116.632 1.87428 116.324 1.74135 115.638 1.7599L115.815 1.90365L114.274 1.75423L112.893 1.8918L112.909 1.74908C112.469 1.75578 111.96 1.73208 111.545 1.74341C111.393 1.74754 111.275 1.814 111.146 1.81349C111.017 1.81297 110.913 1.74548 110.764 1.74032C109.678 1.70271 108.465 1.73414 107.631 1.87068L107.656 1.65634L106.859 1.79597C105.831 1.84337 105.025 1.71714 104.919 1.71662C104.789 1.71611 104.669 1.78257 104.52 1.78669C103.026 1.82585 99.3088 1.80782 98.2868 1.76145C96.4113 1.67643 94.3617 1.86862 92.823 1.81091C88.9259 1.66407 84.8632 1.87583 80.3568 1.76042C79.8233 1.74651 79.7896 1.70838 79.3909 1.68519L79.1776 1.8274L78.7957 1.75423C77.9562 1.71198 77.1364 1.93147 76.4597 1.74496L76.6366 1.88871L75.8588 1.88562L75.8757 1.7429L74.7077 1.73826L74.6908 1.88098C73.7615 1.90726 73.5846 1.67695 72.5654 1.7295C72.4054 1.73775 72.3127 1.79545 72.1667 1.79957C70.308 1.85264 67.6491 1.81452 65.9336 1.77433L64.7487 1.91241L63.1989 1.83461C62.438 1.97424 61.0369 1.87274 60.0823 1.82173C58.7655 1.75166 58.8554 1.77639 57.356 1.81091C55.8595 1.84492 53.8548 1.71353 52.6728 1.86346L52.114 1.64655L50.7579 1.56978L50.3424 1.78257L49.1912 1.6347L49.1744 1.77742C48.7953 1.82379 48.537 1.70323 48.4051 1.70271C48.1018 1.70168 46.0017 1.75423 45.6703 1.76299C44.1626 1.80267 42.6324 1.7769 41.776 1.74702C41.018 1.72074 40.0437 1.75629 39.2435 1.73672L39.6675 1.45231L38.1008 1.51723L38.4658 1.73311L37.4999 1.65789L36.9075 1.72693L36.9243 1.58421L36.1466 1.58112L36.1297 1.72384C35.046 1.67128 34.1924 1.82997 33.1985 1.7836C33.0441 1.77639 32.9598 1.71508 32.8166 1.71044C31.7076 1.6754 30.534 1.7022 29.6832 1.84079L29.8966 1.69859C29.4558 1.70529 28.9476 1.68159 28.5321 1.69292C28.3805 1.69704 28.2625 1.76351 28.1334 1.76299C28.0042 1.76248 27.9003 1.69498 27.7515 1.68983C27.1058 1.66716 24.5788 1.70323 24.4412 1.67643L24.4581 1.53371L23.1132 1.38533L23.2732 1.6718L22.5123 1.52599L22.4871 1.74032C21.8581 1.77742 21.6728 1.67025 21.5212 1.6651C21.0467 1.6481 20.4515 1.67386 19.9629 1.65892C19.5502 1.64655 19.2273 1.61151 18.8034 1.58266C18.3429 1.55175 19.2751 1.4621 19.0252 1.36936L17.6269 1.64964L16.8576 1.57493C16.428 1.6718 15.2291 1.65943 14.5104 1.63676C14.3644 1.63212 14.2717 1.5672 14.1285 1.5636C11.5258 1.50229 8.90056 1.55072 6.55051 1.38996L6.56736 1.24725L5.78962 1.24415L6.16305 1.38842L3.05491 1.30444C2.94541 1.28537 3.70068 1.19933 3.08018 1.0901C3.5603 1.13802 4.45596 0.981385 4.26503 0.952017L3.09983 0.911314L2.16487 0.585686L2.33052 0.836605L3.09141 0.982416L2.07783 1.2998C1.18217 1.18387 1.92902 1.16069 1.91779 1.01333C2.02448 1.0056 2.23225 1.02776 2.31087 0.979324C2.31648 0.932438 1.97113 0.94841 1.92621 0.942227C1.80548 0.92574 2.36983 0.720677 0.775049 0.794356L1.56682 0.690279L0.0478516 0.393505L1.22147 0.362591L1.24394 0.183805L1.84198 0.0792128C2.55514 0.141556 3.29076 0.0168696 3.40868 0.0142935C4.97538 -0.0212576 7.94033 0.00914115 9.2431 0.109612L9.83553 0.0405703L9.81869 0.18329L10.5964 0.186381L10.6133 0.0436617C11.3713 0.0498445 11.829 0.159074 12.7471 0.124038C14.2043 0.0678777 17.2703 0.0859108 18.59 0.147739C20.3616 0.230691 22.5938 0.208021 24.0425 0.169894C24.8343 0.149284 27.541 0.160104 28.3271 0.187412C28.5826 0.196171 28.5882 0.326524 29.1049 0.190503L30.4441 0.409992L28.8774 0.474911L30.4273 0.552712L30.8007 0.696977L30.4441 0.409992ZM459.76 0.365167C459.507 0.364136 459.499 0.435754 459.751 0.436784C460.004 0.437299 460.013 0.366197 459.76 0.365167ZM466.762 0.465122C466.51 0.464092 466.501 0.535709 466.754 0.536739C467.009 0.537255 467.018 0.466152 466.762 0.465122ZM431.837 0.823724L430.916 0.390929C429.936 0.528496 430.54 0.495521 430.891 0.605265C431.149 0.686672 431.177 0.802084 431.837 0.823724ZM450.163 0.755198L450.393 0.470274L449.784 0.682035L449.009 0.643393L450.163 0.755198ZM455.644 0.563016L453.9 0.484701C453.134 0.58311 451.727 0.564562 451.716 0.832998L453.476 0.768594L455.644 0.563016ZM457.407 0.498612C457.154 0.497582 457.146 0.569199 457.399 0.570229C457.651 0.570745 457.66 0.499643 457.407 0.498612ZM465.586 0.531587C465.333 0.530557 465.325 0.602174 465.578 0.603204C465.83 0.604235 465.839 0.532617 465.586 0.531587ZM470.438 0.694401L471.404 0.769624L471.603 0.734589L471.235 0.554257L470.438 0.694401ZM480.391 0.591869C480.138 0.590839 480.13 0.662456 480.383 0.663487C480.635 0.664002 480.644 0.5929 480.391 0.591869ZM447.836 0.673791L446.878 0.52695L445.865 0.844333L447.836 0.673791ZM462.267 0.589808L461.487 0.586717L462.054 0.732013L462.248 0.733043L462.267 0.589808ZM468.694 0.61557C468.441 0.614539 468.433 0.686157 468.686 0.687187C468.938 0.688218 468.947 0.6166 468.694 0.61557ZM472.591 0.631542C472.338 0.630512 472.33 0.702129 472.583 0.703159C472.835 0.70419 472.844 0.632573 472.591 0.631542ZM480.178 0.733558C479.585 0.760866 479.476 0.68152 479.018 0.657304L479.001 0.800023L480.169 0.80466L480.178 0.733558ZM487.57 0.835059L487.587 0.69234C487.042 0.746954 486.683 0.782505 486.02 0.757259L486.012 0.828876L487.57 0.835059ZM445.508 0.5929L443.551 0.656273L443.543 0.727891L445.5 0.664517L445.508 0.5929ZM459.125 0.791264L457 0.639786L455.22 0.846909L456.784 0.817541L456.798 0.710373L457.576 0.713464L457.559 0.856184L459.125 0.791264ZM461.071 0.798993L461.088 0.656273C460.625 0.676883 460.496 0.755198 459.912 0.722738L459.903 0.794356L461.071 0.798993ZM478.212 0.868549L476.087 0.717071L474.705 0.854638L475.472 0.964898L474.68 1.06897L476.839 0.935014L478.212 0.868549ZM360.168 0.461L359.407 0.315189L359.387 0.457909L360.168 0.461ZM379.078 0.39505C378.825 0.39402 378.816 0.465637 379.069 0.466668C379.322 0.467698 379.33 0.396081 379.078 0.39505ZM389.011 0.435239L388.233 0.432147L388.225 0.503764L389.003 0.506856L389.011 0.435239ZM463.789 0.881945L463.028 0.736134L463.011 0.878854L463.789 0.881945ZM466.136 0.819602L466.703 0.964898L467.689 0.861851L467.116 0.752107L466.136 0.819602ZM490.67 0.990659L489.519 0.842788L489.502 0.985507L488.705 1.12514L490.67 0.990659ZM496.903 1.01591L496.92 0.873186L496.53 0.871641L496.513 1.01436L496.903 1.01591ZM376.733 0.456878C376.48 0.455848 376.472 0.527465 376.725 0.528496C376.977 0.529526 376.986 0.457909 376.733 0.456878ZM465.552 0.817541C465.3 0.816511 465.291 0.888128 465.544 0.889158C465.797 0.889674 465.805 0.818572 465.552 0.817541ZM467.245 1.32453C467.725 1.40388 469.028 1.10298 469.421 1.04733L471.561 1.09164L468.475 0.828876C468.764 1.09113 467.919 1.13956 467.245 1.32453ZM494.185 0.933469L492.237 0.92574L492.22 1.06846C492.874 0.990144 493.391 0.991175 494.177 1.00509L494.185 0.933469ZM361.92 0.468213C361.667 0.467183 361.659 0.5388 361.911 0.539831C362.164 0.540861 362.172 0.469244 361.92 0.468213ZM377.893 0.533133C377.64 0.532102 377.632 0.60372 377.884 0.60475C378.137 0.605781 378.145 0.534163 377.893 0.533133ZM378.67 0.536224C378.418 0.535194 378.409 0.606811 378.662 0.607841C378.915 0.608872 378.926 0.537255 378.67 0.536224ZM408.067 0.798478L408.084 0.655758L407.694 0.654212L407.677 0.796932L408.067 0.798478ZM414.705 0.68255L413.927 0.679459L413.918 0.751076L414.696 0.754168L414.705 0.68255ZM421.718 0.710888L420.941 0.707797L420.932 0.779414L421.71 0.782505L421.718 0.710888ZM473.139 0.919557L471.971 0.91492L471.962 0.986537L473.13 0.991175L473.139 0.919557ZM484.42 1.10865L484.437 0.965928L484.047 0.964382L484.03 1.1071L484.42 1.10865ZM485.021 0.967989C484.768 0.966959 484.76 1.03858 485.013 1.03961C485.265 1.04012 485.274 0.96902 485.021 0.967989ZM485.987 1.04321L486.953 1.11844L487.152 1.0834L485.995 0.971596L485.987 1.04321ZM488.334 0.981385L487.556 0.978294L487.539 1.12101L488.334 0.981385ZM334.252 0.42751C334 0.42648 333.991 0.498097 334.244 0.499127C334.497 0.500158 334.505 0.42854 334.252 0.42751ZM386.453 0.639271C386.201 0.63824 386.192 0.709858 386.445 0.710888C386.698 0.711918 386.706 0.640301 386.453 0.639271ZM412.554 0.745409C412.301 0.744378 412.293 0.815995 412.545 0.817026C412.798 0.817541 412.807 0.746439 412.554 0.745409ZM436.097 1.05506L436.888 0.950986L436.316 0.841242L436.122 0.840211L436.097 1.05506ZM463.781 0.953047C463.413 0.895341 462.329 1.06331 462.197 1.1612L463.755 1.16738L463.379 1.05867L463.781 0.953047ZM474.301 0.995812L473.523 0.99272L473.506 1.13544L474.301 0.995812ZM478.195 1.01178C477.712 0.963867 476.82 1.1205 477.011 1.14987C477.491 1.19778 478.386 1.04115 478.195 1.01178ZM491.246 1.06485C490.993 1.06382 490.984 1.13544 491.237 1.13647C491.49 1.13699 491.498 1.06588 491.246 1.06485ZM361.692 0.753137L361.709 0.610418L361.319 0.608872L361.302 0.751591L361.692 0.753137ZM460.462 1.01127C460.209 1.01024 460.201 1.08186 460.453 1.08289C460.706 1.08392 460.715 1.0123 460.462 1.01127ZM467.473 1.03961C467.22 1.03858 467.212 1.11019 467.464 1.11122C467.717 1.11225 467.728 1.04064 467.473 1.03961ZM322.94 0.524374C322.687 0.523343 322.679 0.594961 322.932 0.595991C323.184 0.597022 323.193 0.525404 322.94 0.524374ZM339.885 0.593415L339.107 0.590324L339.099 0.661941L339.876 0.665032L339.885 0.593415ZM370.076 0.71604C369.823 0.71501 369.815 0.786627 370.068 0.787658C370.32 0.788173 370.329 0.717071 370.076 0.71604ZM380.594 0.758805C380.341 0.757774 380.333 0.829392 380.585 0.830422C380.838 0.830937 380.846 0.759835 380.594 0.758805ZM393.06 0.809297C392.807 0.808267 392.799 0.879884 393.052 0.880915C393.304 0.88143 393.313 0.810328 393.06 0.809297ZM435.131 0.979839L434.533 1.08443L434.724 1.12101L435.322 1.01642L435.131 0.979839ZM480.107 1.30547L480.7 1.23643L481.281 1.27455L480.124 1.16275L480.107 1.30547ZM326.826 0.611963C326.573 0.610933 326.565 0.68255 326.818 0.683581C327.07 0.684096 327.079 0.612994 326.826 0.611963ZM334.811 0.644423L334.033 0.641332C334.483 0.775292 334.511 0.792295 334 0.927286L334.982 0.85979L336.325 1.04373L337.481 1.15553L334.803 0.751591L334.811 0.644423ZM342.799 0.676883C342.546 0.675852 342.538 0.747469 342.791 0.7485C343.043 0.749015 343.052 0.677913 342.799 0.676883ZM349.226 0.702644L347.668 0.696461L348.235 0.841757L348.634 0.771685L349.394 0.917496L349.226 0.702644ZM356.433 0.732013C356.181 0.730982 356.172 0.802599 356.425 0.80363C356.678 0.80466 356.686 0.733043 356.433 0.732013ZM366.951 0.774777C366.698 0.773746 366.69 0.845364 366.943 0.846394C367.195 0.846909 367.204 0.775807 366.951 0.774777ZM368.119 0.779414C367.866 0.778383 367.858 0.850001 368.111 0.851031C368.363 0.852062 368.372 0.780444 368.119 0.779414ZM370.845 0.790234C370.593 0.789203 370.584 0.860821 370.837 0.861851C371.09 0.862882 371.098 0.791264 370.845 0.790234ZM433.177 1.04321C432.924 1.04218 432.915 1.1138 433.168 1.11483C433.421 1.11586 433.429 1.04424 433.177 1.04321ZM453.238 1.12462L452.46 1.12153L452.451 1.19315L453.229 1.19624L453.238 1.12462ZM457.719 1.14317C457.466 1.14214 457.458 1.21376 457.71 1.21479C457.963 1.2153 457.971 1.1442 457.719 1.14317ZM471.156 1.19778L471.715 1.4147L471.915 1.37966L471.547 1.19933L471.156 1.19778ZM484.403 1.25137C483.92 1.20345 483.027 1.36008 483.218 1.38945C483.698 1.43737 484.591 1.28074 484.403 1.25137ZM456.152 1.20809C455.899 1.20706 455.891 1.27867 456.144 1.2797C456.396 1.28074 456.405 1.20912 456.152 1.20809ZM459.656 1.22251C459.403 1.22148 459.395 1.2931 459.648 1.29413C459.9 1.29465 459.909 1.22354 459.656 1.22251ZM477.755 1.43891L477.771 1.29619L477.381 1.29465L477.364 1.43737L477.755 1.43891ZM323.693 0.742317C323.44 0.741287 323.432 0.812904 323.684 0.813935C323.937 0.81445 323.945 0.743348 323.693 0.742317ZM343.95 0.824239C343.698 0.823209 343.689 0.894826 343.942 0.895856C344.195 0.896887 344.203 0.82527 343.95 0.824239ZM348.42 0.91389L345.697 0.867004C346.194 1.019 346.736 0.961291 347.437 0.981385C347.76 0.990659 348.041 1.12874 348.42 0.91389ZM355.636 0.871641C355.383 0.87061 355.375 0.942227 355.628 0.943258C355.88 0.944288 355.889 0.872671 355.636 0.871641ZM389.918 1.01075C389.665 1.00972 389.657 1.08134 389.91 1.08237C390.162 1.0834 390.171 1.01178 389.918 1.01075ZM464.906 1.31526L464.126 1.31216L464.109 1.45488L464.887 1.45798L464.906 1.31526ZM485.554 1.39872L484.777 1.39563L484.768 1.46725L485.546 1.47034L485.554 1.39872ZM317.061 0.786627C316.808 0.785597 316.8 0.857214 317.052 0.858245C317.305 0.859275 317.314 0.787658 317.061 0.786627ZM325.243 0.819602C324.99 0.818572 324.981 0.890189 325.234 0.891219C325.487 0.89225 325.495 0.820633 325.243 0.819602ZM364.977 0.98087C364.725 0.97984 364.716 1.05146 364.969 1.05249C365.221 1.05352 365.23 0.9819 364.977 0.98087ZM466.456 1.39306L465.676 1.38996L465.667 1.46158L466.445 1.46467L466.456 1.39306ZM473.273 1.42036C473.021 1.41933 473.012 1.49095 473.265 1.49198C473.518 1.49301 473.526 1.42139 473.273 1.42036ZM215.961 0.447604L215.183 0.444513L215.175 0.51613L215.952 0.519221L215.961 0.447604ZM227.843 0.496036C227.59 0.495006 227.582 0.566623 227.835 0.567653C228.087 0.568684 228.096 0.497066 227.843 0.496036ZM329.322 0.907707L328.348 0.903585L327.941 1.04476L329.314 0.978809L329.322 0.907707ZM356.787 1.01951C356.534 1.01848 356.526 1.0901 356.779 1.09113C357.031 1.09164 357.04 1.02054 356.787 1.01951ZM408.598 1.22973C408.345 1.2287 408.337 1.30031 408.589 1.30134C408.842 1.30186 408.851 1.23076 408.598 1.22973ZM453.788 1.41315C453.535 1.41212 453.527 1.48374 453.78 1.48477C454.032 1.48528 454.041 1.41418 453.788 1.41315ZM242.817 0.77117L242.833 0.628451L242.443 0.626905L242.426 0.769624L242.817 0.77117ZM245.543 0.782505L245.56 0.639786L244.768 0.743863L244.762 0.779414L245.543 0.782505ZM306.703 1.03033L305.942 0.884521L305.925 1.02724L306.703 1.03033ZM317.434 0.930892C317.182 0.929862 317.173 1.00148 317.426 1.00251C317.679 1.00354 317.687 0.931923 317.434 0.930892ZM322.303 0.950986L320.346 1.01436L320.337 1.08598L322.294 1.0226L322.303 0.950986ZM341.196 1.02776C340.943 1.02673 340.935 1.09834 341.188 1.09937C341.44 1.09989 341.449 1.02879 341.196 1.02776ZM367.103 1.13286L366.325 1.12977L366.317 1.20139L367.094 1.20448L367.103 1.13286ZM170.56 0.406386C170.307 0.405355 170.299 0.476972 170.552 0.478003C170.804 0.479033 170.813 0.407416 170.56 0.406386ZM180.494 0.447089L179.716 0.443997L179.708 0.5151L180.488 0.518191L180.494 0.447089ZM202.894 0.53777C202.641 0.536739 202.633 0.608357 202.885 0.609387C203.138 0.610418 203.146 0.5388 202.894 0.53777ZM229.578 0.645969L228.02 0.639786L228.014 0.675337L228.587 0.785082L228.977 0.786627L229.578 0.645969ZM246.719 0.715525L245.922 0.855153C247.096 0.875247 247.514 1.15966 248.645 0.902039L247.694 0.719647L247.48 0.861851L246.896 0.859275L246.719 0.715525ZM308.66 0.966959L307.492 0.962322L307.484 1.03394L308.652 1.03858L308.66 0.966959ZM311.58 0.978809C311.327 0.977778 311.319 1.0494 311.572 1.05043C311.824 1.05146 311.833 0.979839 311.58 0.978809ZM314.113 0.989114L313.335 0.986022L313.327 1.05764L314.104 1.06073L314.113 0.989114ZM370.598 1.21839L369.04 1.21221L369.023 1.35493C369.753 1.37502 370.374 1.36111 370.598 1.21839ZM383.649 1.27146C383.396 1.27043 383.387 1.34205 383.64 1.34308C383.893 1.34359 383.904 1.27249 383.649 1.27146ZM387.739 1.28795L385.791 1.28022L385.782 1.35184C386.633 1.3168 386.995 1.43634 387.723 1.43118L387.739 1.28795ZM147.374 0.383715L146.206 0.379078L146.181 0.593415L146.571 0.594961L146.588 0.452241L147.368 0.455333L147.374 0.383715ZM153.582 0.623814L153.217 0.407931L152.827 0.406386L152.411 0.619177L153.582 0.623814ZM194.9 0.576927L194.122 0.573836L194.114 0.645453L194.892 0.648545L194.9 0.576927ZM273.202 0.894826L272.424 0.891735L272.415 0.963352L273.196 0.966443L273.202 0.894826ZM284.887 0.942227L284.11 0.939136L284.101 1.01075L284.879 1.01384L284.887 0.942227ZM288.394 0.956139L287.226 0.951502L287.201 1.16584C287.664 1.14523 287.793 1.06691 288.377 1.09937L288.394 0.956139ZM294.627 0.981385L293.459 0.976748L293.434 1.19108L294.602 1.19572L294.226 1.08701L294.627 0.981385ZM322.48 1.09474C322.227 1.09371 322.219 1.16532 322.471 1.16635C322.724 1.16687 322.732 1.09577 322.48 1.09474ZM335.727 1.14832C335.474 1.14729 335.465 1.21891 335.718 1.21994C335.971 1.22097 335.979 1.14935 335.727 1.14832ZM203.461 0.683065L202.683 0.679974L202.658 0.894311L203.048 0.895856C202.897 0.787142 203.329 0.767048 203.461 0.683065ZM219.018 0.960776L221.759 0.864427L219.232 0.818572L219.018 0.960776ZM232.661 0.944288L232.678 0.801569L231.886 0.905646L231.881 0.941197L232.661 0.944288ZM276.894 0.98087C276.641 0.97984 276.633 1.05146 276.885 1.05249C277.138 1.05352 277.146 0.9819 276.894 0.98087ZM362.374 1.54247L362.4 1.32814L362.009 1.32659C362.158 1.43531 361.726 1.4554 361.594 1.53938L362.374 1.54247ZM150.277 0.5388C150.025 0.53777 150.016 0.609387 150.269 0.610418C150.521 0.610933 150.53 0.539831 150.277 0.5388ZM182.221 0.668124C181.968 0.667093 181.959 0.738711 182.212 0.739741C182.465 0.740771 182.476 0.669154 182.221 0.668124ZM190.596 0.702129L189.414 0.80466L189.605 0.841242L190.588 0.773746L190.596 0.702129ZM191.57 0.706251C191.318 0.70522 191.309 0.776838 191.562 0.777868C191.815 0.778899 191.823 0.707281 191.57 0.706251ZM243.384 0.916466C243.131 0.915435 243.123 0.987053 243.375 0.988083C243.628 0.989114 243.636 0.917496 243.384 0.916466ZM280.002 1.06537C279.749 1.06434 279.741 1.13595 279.993 1.13699C280.246 1.1375 280.255 1.0664 280.002 1.06537ZM291.297 1.11122C291.045 1.11019 291.036 1.18181 291.289 1.18284C291.542 1.18336 291.55 1.11225 291.297 1.11122ZM323.243 1.24055C322.991 1.23952 322.982 1.31113 323.235 1.31216C323.488 1.31319 323.496 1.24158 323.243 1.24055ZM326.537 1.39718L326.554 1.25446C326.09 1.27507 325.961 1.35338 325.377 1.32092L325.369 1.39254L326.537 1.39718ZM331.619 1.27455C331.136 1.22664 330.243 1.38327 330.434 1.41263C330.914 1.46107 331.807 1.30392 331.619 1.27455ZM332.593 1.27867C332.34 1.27764 332.332 1.34926 332.585 1.35029C332.837 1.35081 332.846 1.2797 332.593 1.27867ZM344.473 1.32659L343.695 1.3235L343.678 1.46622L344.473 1.32659ZM350.315 1.35029L349.538 1.3472L349.529 1.41882L350.307 1.42191L350.315 1.35029ZM162.735 0.66091C162.482 0.65988 162.474 0.731497 162.727 0.732528C162.979 0.733043 162.988 0.661941 162.735 0.66091ZM185.135 0.751591L184.357 0.7485L184.349 0.820117L185.127 0.823209L185.135 0.751591ZM194.291 0.788688C194.038 0.787658 194.03 0.859275 194.282 0.860305C194.535 0.861336 194.544 0.789719 194.291 0.788688ZM335.488 1.50486L335.505 1.36214L335.114 1.3606L335.098 1.50332L335.488 1.50486ZM360.827 1.46467L360.05 1.46158L360.041 1.5332L360.819 1.53629L360.827 1.46467ZM105.851 0.501188C105.598 0.500158 105.59 0.571775 105.842 0.572806C106.095 0.573836 106.104 0.502219 105.851 0.501188ZM113.448 0.532102L112.671 0.529011L112.654 0.67173L113.448 0.532102ZM162.143 0.729952L161.365 0.72686L161.356 0.798478L162.134 0.801569L162.143 0.729952ZM187.075 0.830937L185.711 0.82527L185.11 0.965928L186.474 0.971596L187.075 0.830937ZM246.871 1.07361C246.618 1.07258 246.61 1.1442 246.862 1.14523C247.115 1.14626 247.124 1.07464 246.871 1.07361ZM254.452 1.24725L253.691 1.10143L253.674 1.24415L254.452 1.24725ZM302.969 1.30134C302.716 1.30031 302.708 1.37193 302.961 1.37296C303.213 1.37399 303.222 1.30238 302.969 1.30134ZM171.871 0.840727L170.703 0.836089L169.906 0.975718L171.624 1.26837L171.066 1.05146L172.624 1.05764L171.854 0.982931L171.871 0.840727ZM178.301 0.867004C178.048 0.865973 178.04 0.93759 178.293 0.938621C178.545 0.939136 178.554 0.868034 178.301 0.867004ZM218.036 1.02827C217.783 1.02724 217.775 1.09886 218.027 1.09989C218.28 1.1004 218.288 1.0293 218.036 1.02827ZM261.665 1.205C261.412 1.20397 261.404 1.27558 261.656 1.27661C261.912 1.27764 261.92 1.20603 261.665 1.205ZM302.18 1.36936C301.927 1.36832 301.919 1.43994 302.172 1.44097C302.424 1.442 302.433 1.37039 302.18 1.36936ZM327.696 1.47292L326.919 1.46983L326.91 1.54144L327.688 1.54453L327.696 1.47292ZM7.2749 0.244087C7.0222 0.243057 7.01378 0.314674 7.26648 0.315705C7.51917 0.316735 7.52759 0.245118 7.2749 0.244087ZM10.3915 0.256968C10.1388 0.255938 10.1303 0.327555 10.383 0.328585C10.6357 0.329616 10.6442 0.257998 10.3915 0.256968ZM11.756 0.262636L10.9755 0.259544L10.967 0.331162L11.7448 0.334253L11.756 0.262636ZM24.6097 0.314674L23.627 0.38217L23.0458 0.344042L23.6186 0.453787L24.5929 0.457909L24.6097 0.314674ZM34.5434 0.354862C34.2907 0.353832 34.2823 0.425449 34.535 0.42648C34.7877 0.42751 34.7961 0.355893 34.5434 0.354862ZM42.7251 0.388352C42.4724 0.387322 42.4639 0.458939 42.7166 0.45997C42.9693 0.460485 42.9777 0.389383 42.7251 0.388352ZM122.975 0.713979C122.722 0.712949 122.714 0.784566 122.967 0.785597C123.219 0.786112 123.228 0.71501 122.975 0.713979ZM152.386 0.832998L151.218 0.828361L151.209 0.899978L152.377 0.904615L152.386 0.832998ZM164.038 1.16635C164.234 0.975718 163.271 0.975718 162.71 0.875247L162.51 0.910283L164.038 1.16635ZM164.268 0.88143C164.015 0.8804 164.007 0.952017 164.26 0.953047C164.512 0.954078 164.521 0.88246 164.268 0.88143ZM165.613 1.02982L165.63 0.887098L164.838 0.991175L164.832 1.02673L165.613 1.02982ZM176.15 0.929347L175.373 0.926255L175.356 1.06897L176.15 0.929347ZM181.976 1.09628L181.993 0.953563L181.603 0.952017L181.586 1.09474L181.976 1.09628ZM183.745 0.960261C183.492 0.95923 183.484 1.03085 183.737 1.03188C183.989 1.03291 183.998 0.961291 183.745 0.960261ZM191.537 0.992205C191.284 0.991175 191.275 1.06279 191.528 1.06382C191.781 1.06434 191.789 0.993235 191.537 0.992205ZM220.754 1.11071C220.501 1.10968 220.492 1.1813 220.745 1.18233C220.998 1.18284 221.006 1.11174 220.754 1.11071ZM293.016 1.40388L292.238 1.40078L292.229 1.4724L293.007 1.47549L293.016 1.40388ZM317.17 1.50177L316.393 1.49868L316.376 1.6414L317.17 1.50177ZM324.765 1.53268C324.512 1.53165 324.504 1.60327 324.757 1.6043C325.009 1.60533 325.018 1.53371 324.765 1.53268ZM3.1588 0.441937L3.17564 0.299217L2.78537 0.297671L2.76852 0.440391L3.1588 0.441937ZM23.0177 0.59393C23.1469 0.458424 22.619 0.357438 21.875 0.374956L23.0177 0.59393ZM48.756 0.484186L47.9783 0.481094L47.9614 0.623814L48.7392 0.626905L48.756 0.484186ZM93.9265 0.810328L93.9433 0.667608L93.553 0.666063L93.5362 0.808782L93.9265 0.810328ZM115.369 0.754683L114.591 0.751591L114.574 0.894311L115.369 0.754683ZM189.97 1.05712L189.372 1.16172L189.563 1.1983L190.161 1.09371L189.97 1.05712ZM256.195 1.32608L255.597 1.43067L255.788 1.46725L256.386 1.36266L256.195 1.32608ZM306.644 1.53062L305.867 1.52753L305.858 1.59915L306.636 1.60224L306.644 1.53062ZM27.906 0.47079C27.6533 0.469759 27.6448 0.541376 27.8975 0.542407C28.1502 0.543437 28.1587 0.47182 27.906 0.47079ZM97.4417 0.753137L96.664 0.750046L96.6471 0.892765L97.4249 0.895856L97.4417 0.753137ZM143.994 0.942227C143.741 0.941197 143.732 1.01281 143.985 1.01384C144.238 1.01436 144.246 0.943258 143.994 0.942227ZM147.677 1.09989L147.694 0.957169L147.304 0.955623L147.287 1.09834L147.677 1.09989ZM156.46 0.99272C156.207 0.99169 156.199 1.06331 156.451 1.06434C156.704 1.06537 156.713 0.993751 156.46 0.99272ZM169.51 1.04579L168.732 1.0427L168.724 1.11432L169.502 1.11741L169.51 1.04579ZM234.761 1.31062C234.509 1.30959 234.5 1.38121 234.753 1.38224C235.006 1.38275 235.014 1.31165 234.761 1.31062ZM238.445 1.46828L238.462 1.32556L237.67 1.42964L237.664 1.46519L238.445 1.46828ZM297.48 1.56514C297.227 1.56411 297.219 1.63573 297.471 1.63676C297.724 1.63728 297.733 1.56617 297.48 1.56514ZM309.946 1.61564C309.693 1.61461 309.685 1.68622 309.938 1.68725C310.19 1.68777 310.199 1.61667 309.946 1.61564ZM314.231 1.63315C313.978 1.63212 313.97 1.70374 314.222 1.70477C314.475 1.70529 314.483 1.63418 314.231 1.63315ZM6.25008 0.669154L6.66001 0.491914L6.46909 0.455333L5.85981 0.667093L6.25008 0.669154ZM9.58565 0.468213C9.33295 0.467183 9.32453 0.5388 9.57722 0.539831C9.82992 0.540346 9.83834 0.469244 9.58565 0.468213ZM58.2826 0.665547C58.0299 0.664517 58.0215 0.736134 58.2742 0.737165C58.5269 0.738195 58.5353 0.666578 58.2826 0.665547ZM87.3031 0.783536L87.8618 1.00045L88.8473 0.897402L88.2745 0.787658L87.3031 0.783536ZM125.853 1.08289L125.092 0.937075L125.075 1.07979L125.853 1.08289ZM150.609 1.04064C150.356 1.03961 150.347 1.11122 150.6 1.11225C150.853 1.11277 150.861 1.04167 150.609 1.04064ZM166.189 1.1035C165.936 1.10246 165.927 1.17408 166.18 1.17511C166.433 1.17614 166.441 1.10453 166.189 1.1035ZM288.512 1.60018C288.259 1.59915 288.251 1.67077 288.504 1.6718C288.756 1.67283 288.765 1.60121 288.512 1.60018ZM49.1182 0.700068L48.3405 0.696977L48.3321 0.768594L49.1098 0.771685L49.1182 0.700068ZM59.8324 0.743348C59.5797 0.742317 59.5713 0.813935 59.824 0.814965C60.0767 0.815995 60.0851 0.744378 59.8324 0.743348ZM60.6102 0.746439C60.3575 0.745409 60.3491 0.817026 60.6017 0.818056C60.8544 0.819087 60.8629 0.747469 60.6102 0.746439ZM121.38 0.993236C121.128 0.992205 121.119 1.06382 121.372 1.06485C121.627 1.06588 121.636 0.994266 121.38 0.993236ZM189.945 1.27146C189.692 1.27043 189.683 1.34205 189.936 1.34308C190.189 1.34411 190.197 1.27249 189.945 1.27146ZM200.853 1.31577C200.6 1.31474 200.591 1.38636 200.844 1.38739C201.097 1.38842 201.105 1.3168 200.853 1.31577ZM229.486 1.43221L228.708 1.42912L228.691 1.57184L229.486 1.43221ZM262.58 1.70941L262.597 1.56669L262.207 1.56514L262.19 1.70786L262.58 1.70941ZM266.881 1.58369L266.104 1.5806L266.095 1.65222L266.873 1.65531L266.881 1.58369ZM5.28423 0.593415C5.03154 0.592385 5.02312 0.664002 5.27581 0.665032C5.5285 0.666063 5.53693 0.594445 5.28423 0.593415ZM27.4904 0.683581C27.2377 0.68255 27.2293 0.754167 27.482 0.755198C27.7347 0.756228 27.7431 0.684611 27.4904 0.683581ZM40.521 0.879369L40.5378 0.73665L39.5467 0.875762L38.7774 0.801054L37.396 0.938621L40.1223 0.949441L40.1055 1.09216L42.0737 0.921618L40.521 0.879369ZM45.5777 0.971596L45.019 0.754683C44.7635 0.788173 44.011 0.883491 43.8341 0.892765C42.9076 0.940682 42.2112 0.763442 42.4443 1.10143L43.0451 0.960776L45.5777 0.971596ZM78.5206 0.890704C78.2679 0.889674 78.2594 0.961291 78.5121 0.962322C78.7648 0.963352 78.7733 0.891735 78.5206 0.890704ZM85.1439 0.917496C84.8913 0.916466 84.8828 0.988083 85.1355 0.989114C85.3882 0.990144 85.3966 0.918527 85.1439 0.917496ZM182.703 1.52805L181.367 1.30804L181.541 1.48734L180.741 1.66304L182.493 1.67025L182.703 1.52805ZM236.294 1.53114C236.042 1.53011 236.033 1.60173 236.286 1.60276C236.539 1.60379 236.547 1.53217 236.294 1.53114ZM288.105 1.74135C287.852 1.74032 287.844 1.81194 288.096 1.81297C288.349 1.814 288.358 1.74238 288.105 1.74135ZM296.674 1.77587C296.421 1.77484 296.413 1.84646 296.666 1.84749C296.918 1.84852 296.927 1.7769 296.674 1.77587ZM10.136 0.756229L9.1701 0.681005L8.97076 0.71604L10.1275 0.827846L10.136 0.756229ZM55.9185 0.87061C55.6658 0.86958 55.6574 0.941197 55.9101 0.942227C56.1628 0.943258 56.1712 0.871641 55.9185 0.87061ZM61.9579 0.894826L60.7899 0.890189L60.7814 0.961806L61.9495 0.966443L61.9579 0.894826ZM100.912 1.053L99.3538 1.04682L99.3453 1.11844L100.904 1.12462L100.912 1.053ZM109.846 1.30392C109.734 1.21891 109.307 1.19521 109.481 1.08804L109.091 1.08649L109.066 1.30083L109.846 1.30392ZM114.743 1.10916C114.49 1.10813 114.482 1.17975 114.734 1.18078C114.987 1.18181 114.996 1.11019 114.743 1.10916ZM186.227 1.39924L185.059 1.3946L185.042 1.53732L186.21 1.54196L186.227 1.39924ZM241.915 1.76815L241.348 1.62285L239.975 1.6888L239.967 1.76042C240.554 1.80215 240.868 1.69241 240.949 1.69292C241.031 1.69344 241.32 1.80524 241.915 1.76815ZM5.26739 0.73665C5.01469 0.735619 5.00627 0.807236 5.25896 0.808267C5.51166 0.808782 5.52008 0.73768 5.26739 0.73665ZM11.5005 0.761896C11.2478 0.760866 11.2394 0.832483 11.4921 0.833513C11.7448 0.834029 11.7532 0.762926 11.5005 0.761896ZM24.5507 0.814965L23.773 0.811874L24.3402 0.957169L24.5339 0.9582L24.5507 0.814965ZM25.7019 0.962322L25.7188 0.819602L25.3285 0.818056L25.3116 0.960776L25.7019 0.962322ZM27.4708 0.826815C27.2181 0.825785 27.2096 0.897402 27.4623 0.898433C27.715 0.898948 27.7263 0.827846 27.4708 0.826815ZM33.3164 0.850516L33.1171 0.885552L33.6898 0.995296L33.8892 0.960261L33.3164 0.850516ZM35.2622 0.858245C35.0095 0.857214 35.001 0.928831 35.2537 0.929862C35.5064 0.930892 35.5149 0.859275 35.2622 0.858245ZM36.8204 0.864427C36.5677 0.863397 36.5593 0.935014 36.812 0.936045C37.0647 0.937075 37.0731 0.865458 36.8204 0.864427ZM48.5089 0.911829C48.2562 0.910798 48.2478 0.982416 48.5005 0.983446C48.7532 0.984477 48.7616 0.912859 48.5089 0.911829ZM50.0672 0.918527C49.8145 0.917496 49.8061 0.989114 50.0588 0.990144C50.3115 0.990659 50.3199 0.919557 50.0672 0.918527ZM52.013 0.926255C51.7603 0.925225 51.7518 0.996842 52.0045 0.997873C52.2572 0.998903 52.2685 0.927286 52.013 0.926255ZM71.8831 1.00663C71.6304 1.0056 71.622 1.07722 71.8747 1.07825C72.1274 1.07928 72.1358 1.00766 71.8831 1.00663ZM151.156 1.32865L150.378 1.32556L150.945 1.47086L151.139 1.47189L151.156 1.32865ZM164.987 1.38481C164.734 1.38378 164.726 1.4554 164.978 1.45643C165.231 1.45694 165.24 1.38584 164.987 1.38481ZM179.789 1.44458C179.536 1.44355 179.528 1.51517 179.781 1.5162C180.033 1.51723 180.042 1.44561 179.789 1.44458ZM191.087 1.49044C190.835 1.4894 190.826 1.56102 191.079 1.56205C191.332 1.56308 191.34 1.49147 191.087 1.49044ZM202.773 1.53784C202.52 1.53681 202.512 1.60842 202.765 1.60945C203.017 1.61048 203.026 1.53887 202.773 1.53784ZM212.903 1.57905C212.651 1.57802 212.642 1.64964 212.895 1.65067C213.147 1.6517 213.156 1.58009 212.903 1.57905ZM18.5029 0.861851C18.2502 0.860821 18.2418 0.932438 18.4945 0.933469C18.7472 0.933984 18.7556 0.862882 18.5029 0.861851ZM19.8675 0.867004L19.0897 0.863912L19.0813 0.935529L19.8591 0.938621L19.8675 0.867004ZM32.7212 0.919557L31.1629 0.913374L31.1461 1.05609L31.7385 0.987053L32.7043 1.06228L32.7212 0.919557ZM36.0343 0.932953C35.7816 0.931923 35.7732 1.00354 36.0259 1.00457C36.2786 1.00509 36.287 0.933984 36.0343 0.932953ZM114.513 1.39409L113.752 1.24828L113.735 1.391L114.513 1.39409ZM183.074 1.67231L184.256 1.56978L184.065 1.5332L183.083 1.60069L183.074 1.67231ZM4.86027 0.877823C4.60757 0.876793 4.59915 0.94841 4.85184 0.949441C5.10454 0.950471 5.11296 0.878854 4.86027 0.877823ZM20.2381 1.01178L20.8053 1.15708C21.2264 1.09164 21.5268 1.053 21.4145 0.945319C20.9541 0.965413 20.8249 1.04373 20.2381 1.01178ZM72.644 1.15296C72.3913 1.15193 72.3829 1.22354 72.6356 1.22457C72.8883 1.22509 72.8967 1.15399 72.644 1.15296ZM92.6883 1.37708L91.7308 1.23024L90.7481 1.29774L90.7397 1.36936L92.6883 1.37708ZM102.251 1.27301C101.999 1.27198 101.99 1.34359 102.243 1.34462C102.496 1.34565 102.504 1.27404 102.251 1.27301ZM121.338 1.35029C121.085 1.34926 121.077 1.42088 121.33 1.42191C121.582 1.42294 121.591 1.35132 121.338 1.35029ZM174.707 1.5672C174.454 1.56617 174.446 1.63779 174.699 1.63882C174.951 1.63934 174.96 1.56824 174.707 1.5672ZM162.429 1.58884L160.871 1.58266L160.862 1.65428L161.643 1.65737L161.82 1.80112L162.429 1.58884ZM35.2285 1.1442C34.9758 1.14317 34.9674 1.21479 35.22 1.21582C35.4727 1.21633 35.4812 1.14523 35.2285 1.1442ZM85.6521 1.56308L86.0621 1.38584L85.8711 1.34926L85.2619 1.56102L85.6521 1.56308ZM109.245 1.44458C108.993 1.44355 108.984 1.51517 109.237 1.5162C109.49 1.51671 109.498 1.44561 109.245 1.44458ZM140.198 1.71302L140.214 1.5703L139.824 1.56824L139.807 1.71095L140.198 1.71302ZM5.419 1.09474L4.64127 1.09164L5.20562 1.23643L5.39935 1.23746L5.419 1.09474ZM6.00301 1.0968C5.75031 1.09577 5.74189 1.16738 5.99458 1.16841C6.24728 1.16945 6.2557 1.09783 6.00301 1.0968ZM7.95156 1.10453C7.69886 1.1035 7.69044 1.17511 7.94313 1.17614C8.19583 1.17717 8.20425 1.10556 7.95156 1.10453ZM59.7622 1.31526C59.5096 1.31423 59.5011 1.38584 59.7538 1.38687C60.0065 1.38739 60.0149 1.31629 59.7622 1.31526ZM153.256 1.69447C153.004 1.69344 152.995 1.76505 153.248 1.76608C153.5 1.76711 153.509 1.6955 153.256 1.69447ZM166.503 1.74805C166.25 1.74702 166.242 1.81864 166.495 1.81967C166.747 1.8207 166.756 1.74908 166.503 1.74805ZM23.1357 1.23797C22.883 1.23694 22.8745 1.30856 23.1272 1.30959C23.3799 1.3101 23.3884 1.239 23.1357 1.23797ZM27.4202 1.25549L27.2209 1.29052L28.1727 1.47292L28.372 1.43788L27.4202 1.25549ZM35.7704 1.50383L35.4054 1.28795C34.6192 1.32298 34.5125 1.43634 34.5911 1.57081L35.7704 1.50383ZM35.9894 1.29001L35.79 1.32505L37.1321 1.50898L37.1574 1.29465L36.3684 1.36317L35.9894 1.29001ZM44.171 1.3235C43.9183 1.32247 43.9099 1.39409 44.1626 1.39512C44.4153 1.39563 44.4237 1.32401 44.171 1.3235ZM45.339 1.32814C45.0863 1.32711 45.0779 1.39872 45.3306 1.39975C45.5833 1.40027 45.5917 1.32917 45.339 1.32814ZM48.6521 1.34153L47.8744 1.33844L47.866 1.41006L48.6437 1.41315L48.6521 1.34153ZM91.6971 1.5162C91.4445 1.51517 91.436 1.58678 91.6887 1.58781C91.9414 1.58833 91.9498 1.51723 91.6971 1.5162ZM31.3061 1.34256C31.0534 1.34153 31.045 1.41315 31.2977 1.41418C31.5504 1.41521 31.5616 1.34359 31.3061 1.34256ZM91.1047 1.58524L90.327 1.58215L90.3186 1.65376L91.0963 1.65686L91.1047 1.58524ZM10.8463 1.33071L10.0686 1.32762L10.0601 1.39924L10.8379 1.40233L10.8463 1.33071ZM12.0143 1.33587L11.2366 1.33277L11.2282 1.40439L12.0059 1.40748L12.0143 1.33587ZM30.1297 1.40903C29.877 1.408 29.8685 1.47962 30.1212 1.48065C30.3739 1.48168 30.3824 1.41006 30.1297 1.40903ZM19.6036 1.43788C19.3509 1.43685 19.3424 1.50847 19.5951 1.5095C19.8478 1.51053 19.8563 1.43891 19.6036 1.43788ZM28.9448 1.54711C28.6921 1.54608 28.6837 1.6177 28.9364 1.61873C29.1891 1.61976 29.1975 1.54814 28.9448 1.54711Z" fill="url(#paint9_linear_1580_4735)"/>
<path d="M1.92923 0.93617C1.92923 0.959871 1.91799 0.983571 1.9208 1.00779C1.63442 1.02891 1.21326 1.09435 1.13184 1.07631L1.14868 0.933594L1.92923 0.93617Z" fill="url(#paint10_linear_1580_4735)"/>
<path d="M497.962 1.8034L497.953 1.875L498.734 1.87817L498.742 1.80656L497.962 1.8034Z" fill="url(#paint11_linear_1580_4735)"/>
<path d="M475.992 1.50392C476.244 1.50495 476.236 1.57657 475.983 1.57553C475.731 1.57399 475.739 1.50289 475.992 1.50392Z" fill="url(#paint12_linear_1580_4735)"/>
<path d="M0.193785 0.785167C0.446479 0.786198 0.438056 0.857815 0.185362 0.856785C-0.0673324 0.855754 -0.0589093 0.784137 0.193785 0.785167Z" fill="url(#paint13_linear_1580_4735)"/>
</g>
<defs>
<linearGradient id="paint0_linear_1580_4735" x1="488.622" y1="6.5414" x2="491.025" y2="6.5414" gradientUnits="userSpaceOnUse">
<stop stop-color="white" stop-opacity="0"/>
<stop offset="0.15" stop-color="white"/>
<stop offset="0.85" stop-color="white"/>
<stop offset="1" stop-color="white" stop-opacity="0"/>
</linearGradient>
<linearGradient id="paint1_linear_1580_4735" x1="492.923" y1="6.57807" x2="493.319" y2="6.57807" gradientUnits="userSpaceOnUse">
<stop stop-color="white" stop-opacity="0"/>
<stop offset="0.15" stop-color="white"/>
<stop offset="0.85" stop-color="white"/>
<stop offset="1" stop-color="white" stop-opacity="0"/>
</linearGradient>
<linearGradient id="paint2_linear_1580_4735" x1="-1.95196" y1="7.00573" x2="505" y2="7.00573" gradientUnits="userSpaceOnUse">
<stop stop-color="white" stop-opacity="0"/>
<stop offset="0.15" stop-color="white"/>
<stop offset="0.85" stop-color="white"/>
<stop offset="1" stop-color="white" stop-opacity="0"/>
</linearGradient>
<linearGradient id="paint3_linear_1580_4735" x1="1.12865" y1="5.16317" x2="1.9372" y2="5.16317" gradientUnits="userSpaceOnUse">
<stop stop-color="white" stop-opacity="0"/>
<stop offset="0.15" stop-color="white"/>
<stop offset="0.85" stop-color="white"/>
<stop offset="1" stop-color="white" stop-opacity="0"/>
</linearGradient>
<linearGradient id="paint4_linear_1580_4735" x1="498.736" y1="6.76082" x2="498.738" y2="6.61533" gradientUnits="userSpaceOnUse">
<stop stop-color="white" stop-opacity="0"/>
<stop offset="0.15" stop-color="white"/>
<stop offset="0.85" stop-color="white"/>
<stop offset="1" stop-color="white" stop-opacity="0"/>
</linearGradient>
<linearGradient id="paint5_linear_1580_4735" x1="475.798" y1="6.1552" x2="476.183" y2="6.1552" gradientUnits="userSpaceOnUse">
<stop stop-color="white" stop-opacity="0"/>
<stop offset="0.15" stop-color="white"/>
<stop offset="0.85" stop-color="white"/>
<stop offset="1" stop-color="white" stop-opacity="0"/>
</linearGradient>
<linearGradient id="paint6_linear_1580_4735" x1="-0.00151658" y1="4.72161" x2="0.382938" y2="4.72161" gradientUnits="userSpaceOnUse">
<stop stop-color="white" stop-opacity="0"/>
<stop offset="0.15" stop-color="white"/>
<stop offset="0.85" stop-color="white"/>
<stop offset="1" stop-color="white" stop-opacity="0"/>
</linearGradient>
<linearGradient id="paint7_linear_1580_4735" x1="488.619" y1="1.76834" x2="491.022" y2="1.76834" gradientUnits="userSpaceOnUse">
<stop stop-color="white" stop-opacity="0"/>
<stop offset="0.15" stop-color="white"/>
<stop offset="0.85" stop-color="white"/>
<stop offset="1" stop-color="white" stop-opacity="0"/>
</linearGradient>
<linearGradient id="paint8_linear_1580_4735" x1="492.92" y1="1.78697" x2="493.316" y2="1.78697" gradientUnits="userSpaceOnUse">
<stop stop-color="white" stop-opacity="0"/>
<stop offset="0.15" stop-color="white"/>
<stop offset="0.85" stop-color="white"/>
<stop offset="1" stop-color="white" stop-opacity="0"/>
</linearGradient>
<linearGradient id="paint9_linear_1580_4735" x1="-1.95195" y1="1.9999" x2="504.997" y2="1.9999" gradientUnits="userSpaceOnUse">
<stop stop-color="white" stop-opacity="0"/>
<stop offset="0.15" stop-color="white"/>
<stop offset="0.85" stop-color="white"/>
<stop offset="1" stop-color="white" stop-opacity="0"/>
</linearGradient>
<linearGradient id="paint10_linear_1580_4735" x1="1.12865" y1="1.07941" x2="1.9372" y2="1.07941" gradientUnits="userSpaceOnUse">
<stop stop-color="white" stop-opacity="0"/>
<stop offset="0.15" stop-color="white"/>
<stop offset="0.85" stop-color="white"/>
<stop offset="1" stop-color="white" stop-opacity="0"/>
</linearGradient>
<linearGradient id="paint11_linear_1580_4735" x1="498.733" y1="1.87845" x2="498.734" y2="1.80581" gradientUnits="userSpaceOnUse">
<stop stop-color="white" stop-opacity="0"/>
<stop offset="0.15" stop-color="white"/>
<stop offset="0.85" stop-color="white"/>
<stop offset="1" stop-color="white" stop-opacity="0"/>
</linearGradient>
<linearGradient id="paint12_linear_1580_4735" x1="475.796" y1="1.57554" x2="476.181" y2="1.57554" gradientUnits="userSpaceOnUse">
<stop stop-color="white" stop-opacity="0"/>
<stop offset="0.15" stop-color="white"/>
<stop offset="0.85" stop-color="white"/>
<stop offset="1" stop-color="white" stop-opacity="0"/>
</linearGradient>
<linearGradient id="paint13_linear_1580_4735" x1="-0.00151658" y1="0.856792" x2="0.382936" y2="0.856792" gradientUnits="userSpaceOnUse">
<stop stop-color="white" stop-opacity="0"/>
<stop offset="0.15" stop-color="white"/>
<stop offset="0.85" stop-color="white"/>
<stop offset="1" stop-color="white" stop-opacity="0"/>
</linearGradient>
</defs>
</svg>
