<svg width="420" height="81" viewBox="0 0 420 81" fill="none" xmlns="http://www.w3.org/2000/svg">
<g filter="url(#filter0_ii_1560_5754)">
<rect width="386" height="81" fill="url(#paint0_linear_1560_5754)" fill-opacity="0.25"/>
<g filter="url(#filter1_d_1560_5754)">
<path d="M109.053 40.6V28.0333H112.653V40.6H109.053ZM98.2533 35.8C97.2977 37.0889 96.1088 38.1444 94.6866 38.9667C93.2644 39.7667 91.6866 40.2667 89.9533 40.4667V37.1C92.1088 36.7444 93.831 35.7556 95.1199 34.1333C96.4088 32.4889 97.0755 30.5111 97.1199 28.2L100.753 28.4333C100.753 30.0778 100.453 31.6222 99.8533 33.0667L107.153 37.2333L105.487 40.0333L98.2533 35.8ZM113.12 53.4333H91.5866V46.4H109.087V44.5333H91.5199V41.8H112.653V48.8333H95.1533V50.7333H113.12V53.4333ZM138.616 53.6333H134.983V41.6667H130.316V52.2333H116.55V28.7333H120.083V37.0333H126.783V28.7333H130.316V38.1H134.983V28.0333H138.616V53.6333ZM126.783 40.5H120.083V48.7667H126.783V40.5ZM155.48 41V28.1667H158.78V32.6667H161.613V28.0333H164.913V41.2667H161.613V36.0333H158.78V41H155.48ZM154.28 39.6333C152.791 40.3 150.657 40.6333 147.88 40.6333H141.046V37.7333H142.813V31.4H141.146V28.5333H153.746V31.4H152.046V37.4333C152.957 37.2556 153.702 37.0333 154.28 36.7667V39.6333ZM147.38 37.7333C148.046 37.7333 148.546 37.7222 148.88 37.7V31.4H145.98V37.7333H147.38ZM165.38 53.4333H143.213V46.8H161.38V45.1H143.146V42.4667H164.913V49.0667H146.746V50.7667H165.38V53.4333ZM186.443 53.6333V28.0333H190.043V53.6333H186.443ZM171.876 42.1V48.8333H178.276C179.409 48.8333 180.543 48.7222 181.676 48.5C182.832 48.2556 183.798 47.9556 184.576 47.6V51C183.843 51.4 182.887 51.7111 181.709 51.9333C180.554 52.1333 179.365 52.2333 178.143 52.2333H168.243V38.7H178.543V32.2667H168.209V28.8333H182.109V42.1H171.876ZM204.739 37.0333C203.317 39.2556 201.595 41.0111 199.573 42.3C197.573 43.5667 195.473 44.2111 193.273 44.2333V40.6333C194.939 40.6333 196.539 40.0778 198.073 38.9667C199.628 37.8556 200.95 36.3444 202.039 34.4333C203.128 32.5222 203.85 30.4 204.206 28.0667L207.906 28.7C207.55 30.7222 207.028 32.5 206.339 34.0333L216.906 41.3L214.973 44.3333L204.739 37.0333ZM217.206 49V52.5333H192.773V49H217.206ZM246.927 41.6667V53.6333H243.327V28.0333H246.927V38H250.127V41.6667H246.927ZM235.327 48.8C236.483 48.8 237.627 48.6889 238.761 48.4667C239.916 48.2444 240.872 47.9556 241.627 47.6V51.0333C240.894 51.4111 239.916 51.7111 238.694 51.9333C237.472 52.1333 236.261 52.2333 235.061 52.2333H225.594V28.8333H239.727V32.2667H229.261V48.8H235.327ZM262.591 39.0667C259.368 39.0667 256.735 38.5889 254.691 37.6333C252.668 36.6778 251.657 35.2778 251.657 33.4333C251.657 31.5667 252.668 30.1556 254.691 29.2C256.735 28.2444 259.368 27.7667 262.591 27.7667C265.813 27.7667 268.435 28.2444 270.457 29.2C272.502 30.1556 273.524 31.5667 273.524 33.4333C273.524 35.2778 272.502 36.6778 270.457 37.6333C268.435 38.5889 265.813 39.0667 262.591 39.0667ZM262.591 30.7333C260.502 30.7333 258.791 30.9778 257.457 31.4667C256.124 31.9333 255.457 32.5889 255.457 33.4333C255.457 34.2778 256.124 34.9333 257.457 35.4C258.791 35.8444 260.502 36.0667 262.591 36.0667C264.68 36.0667 266.38 35.8444 267.691 35.4C269.024 34.9333 269.691 34.2778 269.691 33.4333C269.691 32.5889 269.024 31.9333 267.691 31.4667C266.38 30.9778 264.68 30.7333 262.591 30.7333ZM274.791 44.0333H264.391V48.0667H260.757V44.0333H250.357V40.8667H274.791V44.0333ZM273.591 50.2667V53.4333H251.957V46.0667H255.624V50.2667H273.591ZM300.587 52.5333H276.154V49.0667H286.52V45H277.687V35.3H295.554V32.1667H277.687V28.8333H299.12V38.5H281.287V41.6333H299.42V45H290.187V49.0667H300.587V52.5333ZM307.15 32.3667V40.7333H325.184V44.2333H303.45V28.8333H324.917V32.3667H307.15ZM301.95 52.5333V49H326.384V52.5333H301.95Z" fill="white"/>
</g>
<path d="M420 0H386V81H397.5L420 47.7321V0Z" fill="url(#paint1_linear_1560_5754)" fill-opacity="0.25"/>
</g>
<defs>
<filter id="filter0_ii_1560_5754" x="-20" y="-20" width="460" height="121" filterUnits="userSpaceOnUse" color-interpolation-filters="sRGB">
<feFlood flood-opacity="0" result="BackgroundImageFix"/>
<feBlend mode="normal" in="SourceGraphic" in2="BackgroundImageFix" result="shape"/>
<feColorMatrix in="SourceAlpha" type="matrix" values="0 0 0 0 0 0 0 0 0 0 0 0 0 0 0 0 0 0 127 0" result="hardAlpha"/>
<feOffset dx="2" dy="2"/>
<feGaussianBlur stdDeviation="1"/>
<feComposite in2="hardAlpha" operator="arithmetic" k2="-1" k3="1"/>
<feColorMatrix type="matrix" values="0 0 0 0 1 0 0 0 0 1 0 0 0 0 1 0 0 0 0.4 0"/>
<feBlend mode="normal" in2="shape" result="effect1_innerShadow_1560_5754"/>
<feColorMatrix in="SourceAlpha" type="matrix" values="0 0 0 0 0 0 0 0 0 0 0 0 0 0 0 0 0 0 127 0" result="hardAlpha"/>
<feOffset dx="-1.5" dy="-1.5"/>
<feGaussianBlur stdDeviation="0.75"/>
<feComposite in2="hardAlpha" operator="arithmetic" k2="-1" k3="1"/>
<feColorMatrix type="matrix" values="0 0 0 0 1 0 0 0 0 1 0 0 0 0 1 0 0 0 0.2 0"/>
<feBlend mode="normal" in2="effect1_innerShadow_1560_5754" result="effect2_innerShadow_1560_5754"/>
</filter>
<filter id="filter1_d_1560_5754" x="89.9531" y="27.7656" width="238.431" height="27.8672" filterUnits="userSpaceOnUse" color-interpolation-filters="sRGB">
<feFlood flood-opacity="0" result="BackgroundImageFix"/>
<feColorMatrix in="SourceAlpha" type="matrix" values="0 0 0 0 0 0 0 0 0 0 0 0 0 0 0 0 0 0 127 0" result="hardAlpha"/>
<feOffset dx="1" dy="1"/>
<feGaussianBlur stdDeviation="0.5"/>
<feComposite in2="hardAlpha" operator="out"/>
<feColorMatrix type="matrix" values="0 0 0 0 0.123526 0 0 0 0 0.0761372 0 0 0 0 0.259615 0 0 0 0.2 0"/>
<feBlend mode="normal" in2="BackgroundImageFix" result="effect1_dropShadow_1560_5754"/>
<feBlend mode="normal" in="SourceGraphic" in2="effect1_dropShadow_1560_5754" result="shape"/>
</filter>
<linearGradient id="paint0_linear_1560_5754" x1="-30.0222" y1="72" x2="248.209" y2="-203.291" gradientUnits="userSpaceOnUse">
<stop stop-color="#FAFA44" stop-opacity="0.8"/>
<stop offset="1" stop-color="#FFAE68"/>
</linearGradient>
<linearGradient id="paint1_linear_1560_5754" x1="213" y1="225" x2="460.805" y2="62.0576" gradientUnits="userSpaceOnUse">
<stop stop-color="#FAFA44" stop-opacity="0.8"/>
<stop offset="1" stop-color="#FFAE68"/>
</linearGradient>
</defs>
</svg>
