<svg width="445" height="127" viewBox="0 0 445 127" fill="none" xmlns="http://www.w3.org/2000/svg">
<g opacity="0.9" filter="url(#filter0_f_1560_5696)">
<path d="M279.443 94.3547C280.872 94.2455 282.418 94.2045 283.78 94.0681C283.595 94.0135 283.427 93.9589 283.275 93.8906C282.267 93.9179 281.292 93.9725 280.385 94.0408C280.065 94.1499 279.746 94.2455 279.443 94.3547Z" fill="url(#paint0_linear_1560_5696)"/>
<path d="M394.844 72.8559C400.811 72.4738 408.744 73.552 414.24 72.7604C413.5 72.3509 412.71 71.9688 411.836 71.6549C409.332 71.7504 406.945 71.9278 405.382 71.8869C404.693 72.037 406.155 72.2417 405.382 72.5284C401.012 72.6512 397.18 72.4192 393.583 72.037C398.693 71.1226 404.138 71.3682 409.618 70.795C409.719 70.7541 409.836 70.7268 409.988 70.7268C407.971 70.3855 403.651 71.2863 401.869 70.4265C404.239 70.4265 406.273 70.331 407.836 70.0853C406.693 70.1126 405.668 70.0443 405.046 69.6485C400.995 69.9351 396.743 70.3037 393.583 69.785C394.306 68.2018 400.374 70.0716 401.113 68.4884C399.046 68.6658 394.76 68.5157 393.079 69.1299C393.667 68.4748 392.676 68.7341 392.575 68.1608C395.415 67.7377 399.063 67.8196 402.122 67.5194C394.003 66.3047 384.541 66.8915 376.507 65.5813C377.095 64.7351 378.473 65.9771 380.02 65.5813C378.793 64.9262 376.624 64.8579 374.994 64.4485C376.591 64.0254 379.784 64.6259 380.524 63.6432C378.423 62.7288 374.372 63.07 371.733 62.5104C373.666 61.9372 375.582 62.3193 377.767 61.8689C375.986 61.2957 372.658 61.7188 371.246 60.8999C371.061 60.4631 371.75 60.5723 371.75 60.2584C370.691 59.4804 366.826 59.6442 364.977 59.2894C363.481 59.0027 364.523 58.6479 366.237 58.8117C366.288 58.1292 364.926 58.3613 364.472 58.0064C365.985 57.4059 368.506 58.0337 370.506 57.5287C371.044 57.556 370.624 56.9555 370.759 56.7235C374.07 56.7917 376.692 56.1639 378.793 55.9182C376.372 54.6216 370.876 55.304 368.237 54.1439C368.792 53.4342 370.406 54.2804 371.498 53.8163C372.305 53.2431 369.616 53.1339 370.49 52.5197C373.095 52.2604 376.574 52.7927 379.532 52.8473C379.767 52.547 378.776 52.3014 379.532 52.2058C379.398 51.5371 377.28 52.1512 376.776 51.7145C376.927 51.1276 377.33 51.6326 378.288 51.5507C376.524 50.6363 373.095 50.8 371.263 49.9402C371.616 49.831 372.002 49.7491 372.389 49.6672C362.943 49.1895 354.136 48.5753 346.505 48.0294C358.405 47.7974 369.935 48.4525 380.961 48.7937C382.692 48.6845 384.373 48.5753 385.835 48.3297C386.003 47.8793 385.314 47.9885 385.314 47.6472C384.44 47.5654 383.583 47.4698 382.742 47.3333C384.793 47.1968 387.785 47.1559 391.062 47.1695C393.449 46.8693 395.651 46.4462 397.953 46.0913C362.926 45.3407 334.051 43.7165 300.805 45.2315C297.78 43.4026 292.032 46.2005 290.015 43.8257C311.175 43.4572 337.463 42.6929 361.615 44.1805C365.985 42.7065 379.549 45.9139 384.911 43.4845C345.581 41.4509 309.041 43.1433 267.156 42.7884C287.897 42.2425 306.974 41.7238 327.109 42.0923C326.991 40.0178 324.79 41.5737 323.663 40.6865C325.462 39.7448 328.033 41.4236 328.84 39.9905C321.378 38.6939 316.15 41.6556 311.159 39.9905C310.469 41.369 313.024 40.1133 312.89 41.0414C309.831 41.9013 307.495 41.2052 305.982 39.2944C320.403 39.4855 339.866 38.9395 352.136 39.2944C351.346 38.1752 348.69 38.5847 347.816 37.5474C346.942 37.6429 346.976 38.4891 346.085 38.5983C343.95 36.633 339.95 38.0524 335.731 37.5474C335.815 38.5847 331.059 39.581 331.412 37.5474C329.227 37.3563 331.412 38.7894 329.681 38.5983C329.008 38.0933 328.773 37.2335 328.823 36.1416C339.244 35.3636 353.43 37.1379 362.035 35.4455C346.942 33.5757 328.202 36.8104 314.554 33.6303C310.755 36.2644 305.242 33.7668 301.612 33.2754C300.906 33.2754 301.377 34.2445 300.755 34.3264C294.654 32.7431 285.359 33.7531 279.627 31.8696C279.392 32.8387 277.964 32.8523 277.039 33.2754C276.316 34.3673 279.19 34.2581 277.896 34.6812C271.341 32.129 264.904 32.361 257.626 30.8324C256.282 31.6376 255.374 32.8796 253.307 32.2382C253.408 31.6922 254.903 32.4429 255.458 31.5421C254.786 31.5011 253.962 31.583 254.164 30.846C254.735 31.351 256.601 31.351 257.189 30.846C248.954 29.3447 237.272 30.0817 229.154 31.2009C216.801 29.1536 210.43 31.6376 199.388 30.1499C197.102 31.6103 195.152 30.4093 191.623 30.1499C180.311 31.2964 169.79 30.2045 155.822 30.5048C155.117 30.5185 155.587 31.4738 154.965 31.5557C153.167 29.9725 148.242 30.9552 145.469 30.1499C144.41 30.614 145.94 31.4465 145.032 31.5557C139.25 28.7169 129.619 30.9143 121.737 30.1499C121.064 31.624 123.972 30.2045 123.888 31.2009C122.93 31.4738 122.207 31.9379 120.863 31.8969C117.35 29.1946 109.77 30.4229 104.475 30.4912C103.618 30.7368 104.744 32.5794 103.181 32.2382C97.4831 28.7987 85.0623 31.4875 77.2971 30.4912C77.6333 31.9788 81.852 32.1426 81.1797 33.2891C75.213 32.7159 67.7336 32.9342 60.5063 32.9342C54.5732 32.9342 47.9342 32.1153 45.413 33.9852C60.8929 34.7222 78.356 33.8487 93.7182 34.6812C85.1967 34.2172 76.3895 34.7222 67.8344 34.7904C59.9853 34.8587 50.0015 33.9169 43.2113 37.8204C44.4382 38.2162 45.5811 38.8986 46.7913 39.3763C46.0517 41.5327 42.3541 41.7238 40.1186 42.57C40.5052 44.5218 40.9254 45.1223 39.5304 46.8556C38.4211 48.2341 33.9334 48.7391 37.7488 50.295C38.2866 52.8609 34.7738 55.7408 34.1855 58.293C33.7317 60.2721 35.0932 63.029 34.2024 65.2674C33.4964 67.028 29.5971 67.9015 30.0341 69.7304C30.303 70.8905 33.1099 70.9042 33.7654 71.7504C34.4545 72.6512 34.1183 73.1698 34.4209 74.1525C34.7234 75.1488 34.8747 76.9914 35.0595 77.8785C35.3621 79.3116 37.4126 79.6801 34.8915 81.6728C36.2865 82.0823 37.7824 82.3689 39.2278 82.7101C39.2783 83.1195 39.3959 83.5972 39.4127 83.993C40.2195 84.0613 41.2784 84.6209 41.7658 84.6891C41.0599 84.9211 40.3035 85.5763 39.4968 85.8083C41.1943 86.1495 41.4296 86.7364 42.1356 87.4461C40.8582 87.5826 39.7825 88.1149 38.6396 88.4424C46.8921 91.3495 58.4726 90.8309 67.2798 90.7081C76.8938 90.5716 87.2473 91.3768 96.7436 90.7217C81.1461 91.7863 62.5232 89.9301 45.85 91.7726C66.9268 92.2503 87.0792 91.8409 109.248 91.4178C110.425 91.1039 107.937 90.6398 109.248 90.012C115.837 89.2204 122.476 89.6571 129.081 89.6571C140.544 89.6571 152.326 88.265 163.151 90.012C145.351 90.79 135.149 89.6844 118.728 90.3669C119.804 91.2404 121.098 91.9364 122.174 92.8236C116.19 91.9091 101.601 91.2404 93.2812 93.1784C81.6503 92.9328 66.8764 92.032 54.8926 93.5333C50.6234 92.7144 45.85 92.3732 42.8079 94.2294C48.0518 94.789 54.1698 93.2057 56.6069 94.5842C53.6488 94.9391 51.447 94.516 49.2788 94.9391C49.699 96.9318 52.2538 95.6352 53.5984 95.6352C62.8426 95.6625 72.9944 95.6898 79.9023 96.3312C82.1041 94.6252 87.2977 95.3212 90.2558 94.2294C90.155 94.8572 89.4323 95.5942 90.2558 96.3312C92.5753 95.9627 95.5334 96.536 97.1638 94.9254C98.4075 94.9664 97.9201 96.4268 99.3152 96.3312C103.904 96.0173 104.694 95.1984 107.937 95.9764C108.996 95.6215 107.097 94.4341 109.232 94.5706C109.232 95.0346 109.232 95.4987 109.232 95.9764C111.971 95.9764 114.694 95.9764 117.434 95.9764C118.123 94.5979 115.568 95.8535 115.703 94.9254C117.198 95.2121 117.367 94.4068 118.728 94.5706C119.35 98.1738 125.871 95.0073 129.939 95.9764C130.342 94.4887 127.098 95.9491 127.35 94.5706C130.594 94.8981 131.754 94.0519 133.384 93.8745C132.023 94.9664 134.124 95.0619 133.821 96.3312C136.191 96.3858 138.46 96.3722 140.292 95.9764C140.561 94.8435 138.746 95.4987 139.855 94.5706C141.973 94.7207 142.847 95.8672 144.595 96.3176C169.806 95.8945 187.875 96.6997 213.607 96.3176C214.8 95.7989 212.699 94.748 214.464 94.9118C216.548 94.9254 216.414 96.2493 217.91 96.6588C221.776 97.7097 226.7 95.5669 230.852 95.9627C234.802 96.3312 238.365 95.5123 242.062 95.6079C247.122 95.7443 251.458 96.6861 255.861 96.3039C257.408 96.2766 257.055 94.7071 258.887 94.8981C261.005 95.0892 260.063 95.9627 260.618 97C267.896 94.9118 275.241 96.3722 283.056 95.2666C282.922 95.253 282.771 95.253 282.636 95.2393C282.989 95.2121 283.342 95.1984 283.695 95.1848C283.964 95.1438 284.233 95.0892 284.502 95.0346C283.577 95.021 282.317 95.1438 281.863 94.9527C282.317 94.8708 284.434 94.7071 284.804 94.98C284.939 94.9527 285.073 94.9391 285.191 94.9118C285.174 94.8572 285.14 94.8299 285.124 94.789C284.703 94.7753 284.283 94.7753 283.88 94.7617C282.434 94.7071 280.602 94.5296 278.838 94.5433C278.501 94.6525 278.182 94.7753 277.879 94.9118C278.014 94.8026 278.081 94.6934 278.132 94.5706C277.711 94.5842 277.274 94.5979 276.854 94.6525C277.241 94.5706 277.695 94.5023 278.165 94.4477C278.182 94.3386 278.182 94.243 278.115 94.1475C277.695 94.1611 277.258 94.1748 276.854 94.1611C277.09 94.0519 277.426 93.9973 277.779 93.9427C277.577 93.8745 277.342 93.8336 277.006 93.8472C273.409 94.7344 267.139 95.1302 262.769 93.4923C259.509 93.9564 258.5 94.1611 256.298 95.2393C254.332 93.1375 249.626 95.3349 248.096 93.1375C252.197 93.8336 252.887 92.1958 255.424 93.1375C255.055 90.7217 250.197 91.7999 248.517 91.3905C248.382 90.9128 247.895 90.7217 248.08 89.9847C251.054 89.9438 254.349 90.1758 256.702 89.6298C256.03 90.5579 254.265 90.5852 255.408 92.0866C256.836 92.1957 255.878 90.3669 257.996 91.0356C257.761 91.8955 256.332 91.7863 256.702 93.1375C262.198 92.6461 265.711 92.9328 270.501 92.4414C267.358 90.1758 262.03 91.9228 259.71 89.6435C266.349 89.1658 275.476 90.0393 281.712 88.5926C264.988 87.8828 245.642 90.4078 229.961 88.9474C239.054 88.4288 249.475 86.4361 258.433 87.5416C263.593 88.1831 268.803 87.023 273.526 87.5416C275.241 85.9448 279.224 88.1831 279.997 86.1358C278.821 85.9175 276.568 86.5726 276.115 85.781C305.461 84.5936 336.538 85.3169 366.691 85.0849C366.338 83.4334 369.901 83.4198 371.868 82.6418C359.329 81.3862 346.925 82.4235 334.773 82.287C329.798 82.2324 324.958 80.6765 320.974 82.6418C314.285 80.5263 305.057 82.2187 296.822 81.9458C290.031 81.7137 283.14 82.1232 276.115 82.3006C275.426 82.0413 276.216 80.5809 274.82 80.8948C273.14 80.813 272.299 81.4135 271.812 82.3006C262.265 81.7956 254.265 83.1059 244.634 82.6555C244.231 81.2633 247.743 80.813 248.517 82.3006C248.147 81.1815 249.189 81.2088 249.811 80.8948C267.728 80.4717 294.183 80.6492 306.738 79.1478C309.192 80.3216 319.041 80.2261 323.563 79.8439C326.134 79.6255 328.202 78.6428 329.597 78.4381C332.437 78.0287 335.748 78.7111 339.076 78.793C345.766 78.9568 352.993 78.4108 360.64 78.793C363.245 78.9295 366.725 78.9158 369.263 78.793C378.238 78.3562 388.356 79.1205 397.768 79.2024C396.34 79.1342 394.861 79.066 393.264 78.9841C396.861 78.7247 402.458 79.0523 406.626 79.0387C407.08 78.9977 407.534 78.9158 407.954 78.8203C407.013 78.752 405.937 78.7793 405.063 78.6565C405.886 77.9604 407.483 78.5883 408.929 78.4927C408.945 78.4927 408.962 78.4791 408.979 78.4791C399.937 77.1552 387.902 77.7693 381.465 74.7803C385.247 74.5347 389.314 75.4218 393.768 75.258C392.81 74.0979 389.012 74.7667 387.751 73.8113C390.054 73.6202 392.827 74.521 396.037 74.289C393.684 73.5929 389.936 73.7977 387.751 72.9924C390.104 73.5247 392.844 72.9787 394.844 72.8559ZM412.408 72.3782C411.567 72.3782 410.727 72.3782 409.903 72.3782C409.87 71.9415 412.492 71.7913 412.408 72.3782ZM376.255 51.3596C376.423 51.9738 374.49 51.6599 374.238 51.5234C374.423 50.9365 375.246 51.5643 376.255 51.3596ZM370.221 52.3287C370.053 52.9155 368.758 52.588 368.473 52.3287C368.691 51.7145 369.784 52.1649 370.221 52.3287ZM384.793 47.9748C384.037 47.8247 382.255 48.316 382.289 47.6472C383.045 47.7974 384.826 47.2924 384.793 47.9748ZM362.859 46.9375C364.153 46.9375 365.447 46.9375 366.741 46.9375C367.027 46.9375 367.313 46.9375 367.599 46.9375C368.221 46.801 372.288 46.842 373.633 47.2924C374.355 47.3333 377.532 47.1013 376.221 47.6472C371.296 47.6745 367.178 47.0467 361.985 47.2924C359.581 47.3743 361.481 46.6782 362.859 46.9375ZM357.682 46.5963C355.514 47.4016 351.497 46.7192 348.623 46.9512C350.791 46.1323 354.808 46.8283 357.682 46.5963ZM322.756 40.6319C322.151 41.4236 319.747 40.7684 318.436 40.9868C319.025 40.1952 321.445 40.8503 322.756 40.6319ZM305.931 37.1379C305.931 37.4928 305.931 37.834 305.931 38.1889C308.016 38.0797 305.948 36.6466 308.957 37.1379C308.469 37.6429 308.486 37.9978 309.394 38.1889C309.663 35.9505 310.201 38.8031 311.982 37.834C310.15 38.3527 311.865 36.0324 311.159 36.1826C310.991 36.2508 310.839 36.3327 310.688 36.4282C310.906 36.2781 311.058 36.2099 311.159 36.1826C312.974 35.3227 315.361 35.8823 318.453 36.0734C317.058 36.6057 317.966 37.329 319.747 37.1243C319.899 36.5238 319.411 36.4692 318.89 36.4282C321.831 35.4865 324.689 35.8686 327.949 36.0734C327.428 36.7012 327.865 38.107 327.092 38.5301C325.109 38.5164 327.731 37.5337 327.092 36.4282C325.109 35.9778 326.386 38.1889 324.067 37.4792C324.168 38.0933 324.806 38.2708 325.798 38.1752C323.092 39.6629 321.445 37.2881 318.89 37.4792C318.386 37.5337 318.52 38.1206 318.453 38.5301C317.159 38.5301 315.865 38.5301 314.571 38.5301C315.747 37.602 314.302 37.2744 312.839 37.4792C313.024 37.9159 313.394 38.2025 314.134 38.1752C309.511 38.8031 301.561 38.7758 298.603 37.8204C300.587 36.6875 302.906 38.1616 305.931 37.1379ZM302.049 40.2907C302.116 39.5264 300.519 40.127 299.897 39.9359C300.738 39.1033 302.755 39.2262 304.637 39.2398C304.251 39.8676 302.889 39.6902 303.343 40.9868C300.956 41.2871 294.149 40.9322 302.049 40.2907ZM293.847 38.5301C292.368 38.6802 291.426 38.3936 290.401 38.1752C291.191 37.7385 294.032 36.7694 293.847 38.5301ZM289.964 39.9359C292.233 39.2262 294.536 39.5537 296.872 39.581C296.149 40.2771 296.906 40.0314 296.872 40.9868C293.847 40.8503 292.2 41.2871 289.964 40.9868C289.141 40.823 294.032 39.9495 289.964 39.9359ZM274.434 39.9359C273.795 40.7002 273.291 41.5737 271.409 41.3417C271.039 41.055 271.156 40.3863 270.551 40.2907C271.324 39.854 272.451 40.0587 274.434 39.9359ZM107.954 34.3264C107.383 34.3264 106.811 34.3264 106.223 34.3264C105.837 32.7022 108.509 32.5384 107.954 34.3264ZM70.8598 38.8849C70.8094 40.0041 69.885 40.4272 68.2714 40.2907C68.3219 39.6629 67.7504 39.5537 67.8344 38.8849C68.8429 38.8849 69.8514 38.8849 70.8598 38.8849ZM99.332 90.7217C96.4242 90.3942 103.265 90.5579 104.946 90.0257C106.576 89.7527 107.013 90.4487 108.391 90.3805C104.963 90.8309 101.769 90.9947 99.332 90.7217ZM60.9433 89.3159C81.5831 88.9338 109.4 87.8283 131.25 88.265C108.778 89.4115 84.7093 89.2477 60.9433 89.3159ZM135.989 39.9359C137.048 39.8949 138.074 39.8813 138.578 40.2907C138.561 40.823 135.384 41.055 135.989 39.9359ZM59.6491 94.2294C63.33 94.6934 66.6915 93.2603 69.5656 94.2294C67.263 94.8026 61.9518 94.8026 59.6491 94.2294ZM76.4736 93.8745C78.3728 94.8299 80.7259 93.5742 82.5075 94.2294C81.5495 94.6388 76.7425 95.1848 76.4736 93.8745ZM124.342 91.0766C127.249 91.5952 129.081 90.9128 131.67 91.4314C130.308 91.8136 125.014 92.4005 124.342 91.0766ZM151.52 95.6215C150.696 95.4714 149.671 95.4987 149.788 94.5706C151.789 94.8299 151.553 94.1748 151.083 93.1648C152.696 92.8918 151.889 95.3349 151.52 95.6215ZM150.646 93.1784C149.335 92.8509 148.914 91.7863 146.763 92.1275C146.797 91.5679 150.948 91.3359 153.234 91.4314C152.394 92.0183 150.662 91.8955 150.646 93.1784ZM159.705 94.5706C155.234 94.5979 157.318 96.2903 159.705 94.5706V94.5706ZM160.142 94.2294C160.327 93.4514 162.428 93.9564 162.73 94.2294C162.545 95.0073 160.445 94.5023 160.142 94.2294ZM281.14 95.0619C280.098 94.98 279.846 95.2121 278.871 95.1575C278.552 94.789 281.88 94.98 281.14 95.0619ZM358.119 83.7201C357.901 84.9348 355.295 84.2387 353.8 84.4161C354.052 83.2697 357.514 83.488 358.119 83.7201ZM344.74 83.7201C344.286 84.5117 342.034 83.8566 340.858 84.0749C341.883 83.4335 343.48 83.2424 344.74 83.7201ZM340.001 83.7201C339.547 84.5117 337.294 83.8566 336.118 84.0749C336.958 83.5699 339.009 83.024 340.001 83.7201ZM333.967 83.7201C331.681 84.539 326.168 84.2387 324.907 83.7201C326.975 83.6518 331.832 83.4607 333.967 83.7201ZM321.025 83.3652C320.151 84.1705 317.445 83.488 315.848 83.7201C316.722 82.9148 319.428 83.5836 321.025 83.3652ZM303.763 83.7201C307.797 83.488 309.595 83.3516 313.68 83.7201C314.537 82.8875 314.537 83.7474 313.68 84.0749C310.234 84.0749 306.789 84.0749 303.326 84.0749C300.385 84.266 301.393 83.4471 303.763 83.7201ZM294.284 83.7201C294.922 83.1195 301.276 83.8566 299.461 84.0749C297.881 84.0749 296.301 84.0749 294.721 84.0749C293.948 84.1705 293.83 83.7337 294.284 83.7201ZM283.93 84.0613C282.199 84.8665 278.619 84.1841 276.165 84.4161C277.896 83.6109 281.476 84.2933 283.93 84.0613ZM231.306 32.2245C230.953 32.9615 229.524 33.5894 228.717 32.9206C229.121 32.32 230.062 32.1563 231.306 32.2245ZM215.355 81.9731C216.616 82.4644 217.204 81.782 217.943 83.024C219.809 83.024 221.692 83.024 223.557 83.024C224.129 82.9831 226.683 82.9694 225.288 83.3789C224.431 83.3789 223.557 83.3789 222.7 83.3789C219.691 84.034 217.91 83.0786 213.641 83.3789C214.145 82.8602 215.355 82.9012 215.355 81.9731ZM211.036 32.9342C209.725 33.0707 208.834 32.0198 208.447 33.2891C207.859 33.1799 208.094 32.4156 208.01 31.8833C209.876 31.9515 210.884 30.7914 211.036 32.9342ZM214.918 88.6199C216.532 87.8282 217.238 86.2996 220.532 86.8729C218.044 89.507 224.751 89.3978 228.297 89.3296C220.145 91.3359 209.203 88.1695 200.699 89.3296C202.43 90.1348 206.01 89.4524 208.464 89.6844C204.598 90.2304 195.925 90.7217 192.934 89.3296C198.867 88.1831 208.968 88.5926 214.918 88.6199ZM201.556 83.3652C202.01 82.3552 198.547 82.5872 197.236 82.6691C197.052 81.9321 202.195 82.4917 204.144 82.3143C203.354 82.9831 203.354 82.5872 203.707 83.7201C201.405 83.7201 199.102 83.7201 196.799 83.7201C194.648 82.7237 201.304 83.8975 201.556 83.3652ZM194.211 31.5284C194.53 32.4838 193.354 32.2382 193.354 32.9342C192.278 32.9888 192.026 32.3883 191.203 32.2382C191.253 31.2282 193.001 31.5967 194.211 31.5284ZM187.32 39.581C188.765 39.3353 188.9 40.1679 189.051 40.9868C188.496 40.4955 186.765 40.9732 187.32 39.581ZM186.026 43.4435C186.127 44.1805 183.421 45.3407 183.437 43.7984C183.942 43.3889 184.95 43.3889 186.026 43.4435ZM177.824 83.7201C179.269 83.7201 180.698 83.7201 182.143 83.7201C183.841 82.7101 185.101 83.5017 187.757 83.3652C187.606 84.6755 176.445 84.0749 177.824 83.7201ZM147.637 40.2907C148.578 39.9905 151.167 39.2125 151.957 39.9359C151.721 41.5464 148.78 40.1679 147.637 40.2907ZM154.108 88.6199C154.915 88.4288 156.327 86.9548 157.133 87.9238C157.47 89.2477 155.083 88.3605 154.108 88.6199ZM154.108 84.4161C151.2 84.0886 158.041 84.2524 159.722 83.7201C161.117 83.6382 161.554 84.3342 163.167 84.0749C159.739 84.5253 156.545 84.6891 154.108 84.4161ZM164.882 88.9747C174.294 89.4115 182.042 88.9747 192.06 88.9747C187.74 91.1994 180.21 89.7663 174.378 89.6708C170.848 89.6162 166.865 91.0629 164.882 88.9747ZM171.353 94.2294C170.781 94.5842 169.739 94.5569 169.622 95.2803C169.353 94.4068 169.437 93.9837 167.033 94.2294C165.991 92.3868 182.984 94.748 171.353 94.2294ZM175.672 95.2803C175.101 94.5569 179.74 95.0892 181.286 94.9254C180.53 96.4131 177.958 94.7207 175.672 95.2803ZM179.975 94.2294C180.815 93.506 182.866 93.779 183.858 93.1784C185.034 93.7517 185.925 94.7617 187.74 93.8745C187.942 94.5433 186.412 95.3895 188.177 95.2803C186.412 95.526 183.757 93.4924 179.975 94.2294ZM191.203 94.2294C190.16 93.5742 194.043 93.9973 195.085 93.8745C193.69 92.4414 194.228 93.4105 195.522 92.1275C186.043 90.79 174.647 92.4414 166.193 91.7726C180.815 90.2713 196.362 91.486 212.347 91.0766C207.691 91.8818 200.665 91.3086 195.959 92.1275C197.539 93.1784 199.371 94.0246 202.43 93.8745C199.69 95.0756 195.455 93.8063 191.203 94.2294ZM206.716 94.2294C208.313 93.4241 211.741 94.1065 214.044 93.8745C212.464 94.6798 209.035 93.9973 206.716 94.2294ZM220.952 95.6215C219.221 95.7443 218.565 94.9937 216.632 95.2666C218.431 94.4887 216.75 93.9564 214.901 94.2157C215.927 93.5333 216.296 92.3049 218.347 92.4687C218.246 93.0829 217.607 93.2603 216.616 93.1648C217.456 94.1202 220.902 92.9464 221.792 93.8609C221.423 94.3795 220.397 94.3659 219.641 94.5569C219.49 95.4168 221.624 94.3795 220.952 95.6215ZM218.801 92.1275C219.339 91.3086 215.876 91.1448 213.187 91.0766C213.691 90.3123 219.607 90.9264 222.246 90.7217C221.187 91.254 220.498 92.1002 218.801 92.1275ZM226.566 93.8745C226.835 93.1238 229.221 93.5469 229.591 93.8745C228.936 94.9391 227.692 93.5879 226.566 93.8745ZM247.273 90.3669C246.802 91.7863 245.222 90.2577 243.39 90.7217C242.331 90.0666 246.231 90.4897 247.273 90.3669ZM238.634 90.3669C237.978 91.3495 238.785 91.7999 238.197 93.1648C239.39 94.4341 243.76 92.728 245.962 93.8609C241.76 95.0619 235.743 94.0246 231.726 94.2157C231.289 93.1648 232.684 93.6015 233.457 93.5196C233.087 92.9055 231.843 92.3049 233.894 92.4687C232.986 91.1039 230.112 91.3359 227.86 91.0629C230.348 89.9438 234.936 90.517 238.634 90.3669ZM228.297 81.9731C228.667 81.2497 231.306 81.6046 231.743 81.9731C230.936 83.0376 229.692 81.5636 228.297 81.9731ZM231.306 44.1396C231.726 43.4299 232.969 43.3889 234.331 43.4435C234.096 44.9449 232.717 44.1942 231.306 44.1396ZM236.919 83.0103C235.928 83.1195 236.449 82.0004 235.625 81.9594C235.676 81.1815 237.457 81.8093 238.213 81.6046C238.079 82.3279 237.037 82.3006 236.919 83.0103ZM241.222 81.9731C240.281 82.014 240.499 82.3962 239.071 82.3279C240.802 80.8675 246.248 81.7683 241.222 81.9731ZM236.482 32.5794C238.096 32.3473 240.533 32.3064 243.39 32.2245C241.525 33.9306 239.659 33.0844 236.482 32.5794ZM295.141 46.9375C298.133 46.3779 302.2 46.4735 303.763 46.5827C309.125 46.9512 298.082 46.9375 295.561 47.2787C294.805 47.3879 294.687 46.9648 295.141 46.9375ZM247.273 31.1736C248.13 31.1736 249.004 31.1736 249.861 31.1736C249.676 31.8287 246.701 33.0571 247.273 31.1736ZM252.013 49.7491C251.744 48.3706 254.382 49.3397 255.458 49.053C254.668 49.558 253.408 49.7082 252.013 49.7491ZM252.87 43.4435C251.172 42.6383 258.635 43.5527 259.778 42.7475C259.089 44.2897 254.971 43.0341 252.87 43.4435ZM283.493 49.0394C279.258 49.2305 272.619 49.5307 266.669 49.3942C266.854 49.0803 267.055 48.7664 267.526 48.6982C271.728 48.1113 278.804 49.0121 285.208 48.6982C285.09 49.1622 284.149 48.9848 283.493 49.0394ZM299.881 48.6982C291.494 48.9029 291.41 49.4352 287.376 48.6982C282.569 47.8247 290.048 48.3706 290.401 48.3433C301.83 47.7428 328.218 47.9748 340.875 47.9885C328.454 49.3396 310.335 48.4389 299.881 48.6982ZM316.705 46.5963C323.714 46.5554 334.538 46.5281 341.715 46.5963C342.858 46.5963 344.018 46.5963 345.16 46.5963C346.539 47.074 343.631 46.9375 343.009 46.9512C333.597 46.7737 323.798 47.3743 316.705 46.5963ZM341.732 48.3433C342.337 47.5517 344.74 48.2068 346.051 47.9885C344.572 48.7937 343.597 48.3843 341.732 48.3433ZM389.818 72.2144C390.793 72.1325 391.045 72.5011 392.087 72.3782C392.81 72.5147 389.482 72.8286 389.818 72.2144ZM395.836 72.3782C395.768 73.006 393.298 72.6921 392.827 72.542C393.331 72.1598 394.911 72.4738 395.836 72.3782ZM394.844 70.7541C394.726 71.0953 392.356 71.3955 392.323 70.7541C393.163 70.7541 394.003 70.7541 394.844 70.7541ZM393.079 69.4575C392.894 70.1535 390.894 69.9761 390.07 69.785C390.289 69.1845 392.087 69.5803 393.079 69.4575ZM381.28 70.4401C382.44 70.29 384.742 69.9761 385.045 70.4401C385.095 70.522 382.289 70.6176 381.28 70.4401ZM390.07 68.1745C389.062 68.543 387.146 68.1199 386.053 68.0107C386.978 67.6832 388.978 68.0517 390.07 68.1745ZM386.541 70.4401C387.633 70.4811 389.146 70.2764 389.297 70.9178C388.255 70.8359 386.843 70.9997 386.541 70.4401Z" fill="url(#paint1_linear_1560_5696)"/>
<path d="M282.301 93.3261C282.032 93.4626 281.746 93.5855 281.443 93.6947C281.981 93.6401 282.418 93.5445 282.721 93.3944C282.704 93.3671 282.704 93.3398 282.687 93.3125C282.553 93.3125 282.435 93.3261 282.301 93.3261Z" fill="url(#paint2_linear_1560_5696)"/>
<path d="M408.139 71.4057C408.912 71.3647 410.055 71.4057 411.147 71.4193C410.626 71.2829 410.072 71.1737 409.433 71.1191C409.433 71.1054 409.45 71.0918 409.45 71.0781C408.945 71.0781 408.492 71.1737 408.139 71.4057Z" fill="url(#paint3_linear_1560_5696)"/>
<path d="M411.164 70.0521C410.374 69.9839 409.45 70.0248 408.525 70.0658C408.458 70.1204 408.391 70.175 408.391 70.2705C409.315 70.2023 410.256 70.175 411.181 70.134C411.181 70.0931 411.181 70.0794 411.164 70.0521Z" fill="url(#paint4_linear_1560_5696)"/>
</g>
<defs>
<filter id="filter0_f_1560_5696" x="0" y="0" width="444.24" height="127" filterUnits="userSpaceOnUse" color-interpolation-filters="sRGB">
<feFlood flood-opacity="0" result="BackgroundImageFix"/>
<feBlend mode="normal" in="SourceGraphic" in2="BackgroundImageFix" result="shape"/>
<feGaussianBlur stdDeviation="15" result="effect1_foregroundBlur_1560_5696"/>
</filter>
<linearGradient id="paint0_linear_1560_5696" x1="279.443" y1="94.1226" x2="283.78" y2="94.1226" gradientUnits="userSpaceOnUse">
<stop stop-color="#911223" stop-opacity="0.4"/>
<stop offset="1" stop-color="#911223" stop-opacity="0.1"/>
</linearGradient>
<linearGradient id="paint1_linear_1560_5696" x1="30" y1="63.5" x2="414.24" y2="63.5" gradientUnits="userSpaceOnUse">
<stop stop-color="#911223" stop-opacity="0.4"/>
<stop offset="1" stop-color="#911223" stop-opacity="0.1"/>
</linearGradient>
<linearGradient id="paint2_linear_1560_5696" x1="281.443" y1="93.5036" x2="282.721" y2="93.5036" gradientUnits="userSpaceOnUse">
<stop stop-color="#911223" stop-opacity="0.4"/>
<stop offset="1" stop-color="#911223" stop-opacity="0.1"/>
</linearGradient>
<linearGradient id="paint3_linear_1560_5696" x1="408.139" y1="71.2487" x2="411.147" y2="71.2487" gradientUnits="userSpaceOnUse">
<stop stop-color="#911223" stop-opacity="0.4"/>
<stop offset="1" stop-color="#911223" stop-opacity="0.1"/>
</linearGradient>
<linearGradient id="paint4_linear_1560_5696" x1="408.391" y1="70.1431" x2="411.181" y2="70.1431" gradientUnits="userSpaceOnUse">
<stop stop-color="#911223" stop-opacity="0.4"/>
<stop offset="1" stop-color="#911223" stop-opacity="0.1"/>
</linearGradient>
</defs>
</svg>
