<?xml version="1.0" encoding="utf-8"?>
<!-- Generator: Adobe Illustrator 16.0.0, SVG Export Plug-In . SVG Version: 6.00 Build 0)  -->
<!DOCTYPE svg PUBLIC "-//W3C//DTD SVG 1.1//EN" "http://www.w3.org/Graphics/SVG/1.1/DTD/svg11.dtd">
<svg version="1.1" id="Layer_1" xmlns="http://www.w3.org/2000/svg" xmlns:xlink="http://www.w3.org/1999/xlink" x="0px" y="0px"
	 width="3852px" height="1264px" viewBox="-963 -316.136 3852 1264" enable-background="new -963 -316.136 3852 1264"
	 xml:space="preserve">
<g>
	<path d="M-219.71-8.372c2.134,0.58,4.06,0.756,5.646,1.583c20.847,10.837,41.645,21.769,62.456,32.677
		c0.854,0.452,1.687,0.944,2.55,1.376c3.344,1.677,4.408,4.18,3.622,7.934c-2.701,12.905-5.195,25.856-7.754,38.79
		c-5.25,26.518-10.497,53.03-15.715,79.552c-0.358,1.817-0.465,3.685-0.859,6.896c7.985-4.662,13.798-10.124,20.364-14.471
		c6.975-4.617,13.831-9.437,20.973-13.783c6.866-4.18,13.965-7.992,21.083-11.734c7.054-3.711,14.295-7.039,21.721-9.52
		c2.47,3.151,0.112,4.784-0.954,6.491c-9.369,15.056-17.865,30.565-24.591,46.999c-4.646,11.357-8.188,22.954-9.289,35.313
		c-0.935,10.486,1.097,19.699,8.051,27.833c7.516,8.784,14.73,17.828,22.266,26.989c2.457-0.608,4.619-0.979,6.676-1.679
		c9.745-3.311,19.504-6.599,29.183-10.102c13.008-4.712,26.03-9.179,39.938-10.659c4.027-0.432,8.104-2.003,11.782-3.811
		c19.639-9.659,39.071-19.738,58.772-29.266c5.796-2.802,8.542-6.51,9.79-12.931c11.125-57.146,22.613-114.223,34.029-171.311
		c1.5-7.501,3.195-14.965,4.858-22.717c1.951,0.09,3.375-0.25,4.358,0.261c22.85,11.86,45.652,23.8,68.445,35.77
		c0.823,0.431,1.44,1.252,2.697,2.379c-0.366,2.878-0.572,6.046-1.185,9.132c-6.58,33.136-13.234,66.251-19.833,99.383
		c-0.682,3.416-1.15,6.875-1.812,10.891c1.837,0.157,3.083,0.542,4.213,0.321c31.257-6.05,62.455-12.364,93.187-20.76
		c18.009-4.921,35.938-10.144,53.055-17.722c6.38-2.823,13.043-3.281,19.835-3.273c3.197,0.004,6.396,0,9.02,0
		c3.557-3.222,3.471-6.993,4.153-10.343c4.744-23.33,9.318-46.697,13.97-70.047c5.716-28.702,11.461-57.397,17.173-86.1
		c0.501-2.518,0.613-5.179,4.131-7.099c2.325,1.089,5.248,2.292,8.016,3.782c21.484,11.562,43.485,22.171,65.17,34.561
		c-0.563,3.569-0.948,6.71-1.563,9.807c-6.65,33.445-13.332,66.884-20.017,100.322c-2.646,13.245-5.377,26.469-7.962,39.727
		c-0.482,2.469-0.443,5.043-0.693,8.155c30.146,17.802,55.054,41.12,75.21,70.036c-2.84,6.69-6.423,12.53-11.61,17.904
		c-4.856-2.331-7.195-6.724-10.401-10.14c-3.34-3.556-5.635-7.436-5.992-12.725c-0.442-6.609-4.215-12.063-8.597-16.919
		c-11.561-12.797-26.579-19.773-42.487-25.873c-2.642,3.445-2.905,7.032-3.571,10.374
		c-19.951,100.011-39.852,200.031-59.748,300.052c-12.425,62.446-24.822,124.903-37.247,187.353
		c-5.083,25.541-10.174,51.086-15.339,76.613c-0.557,2.748-1.651,5.391-2.699,8.729c-3.026-1.191-5.444-1.912-7.644-3.05
		c-20.009-10.354-39.979-20.779-59.958-31.19c-0.856-0.442-1.687-0.94-2.554-1.359c-3.312-1.61-4.697-3.988-3.847-7.812
		c1.187-5.336,1.926-10.766,2.991-16.129c13.763-69.119,27.564-138.23,41.325-207.349c21.228-106.616,42.434-213.239,63.617-319.864
		c0.546-2.752,0.719-5.579,1.046-8.228c-8.815-2.712-21.792-3.965-29.239-2.969c-32.046,4.28-63.062,12.797-93.506,23.368
		c-17.008,5.908-33.617,12.946-50.498,19.226c-6.021,2.241-8.829,5.785-10.133,12.425c-19.665,100.056-39.68,200.039-59.638,300.036
		c-0.743,3.718-1.746,7.381-2.766,11.659c-2.558-0.678-4.458-0.839-6.021-1.649c-15.439-7.98-30.895-15.935-46.185-24.195
		c-5.248-2.832-10.478-4.341-16.505-4.329c-80.155,0.119-160.311,0.074-240.463,0.094c-2.861,0.004-5.719,0.276-8.693,0.428
		c-4.859,9.257-3.816,19.8-7.949,29.509c-1.775-0.403-3.38-0.44-4.662-1.103c-21.722-11.245-43.411-22.554-65.077-33.901
		c-1.671-0.875-3.129-2.154-4.726-3.276c-0.851-4.467,0.542-8.508,1.34-12.527c13.746-69.114,27.592-138.21,41.38-207.317
		c16.234-81.358,32.432-162.725,48.646-244.087C-222.222-0.701-221.762-4.525-219.71-8.372z M-146.385,191.815
		c-2.508,1.555-3.906,2.254-5.114,3.2c-12.026,9.403-21.909,20.813-30.476,33.347c-1.916,2.8-3.013,6.381-3.702,9.763
		c-5.338,26.144-10.457,52.335-15.694,78.5c-8.513,42.534-17.088,85.052-25.542,127.596c-0.463,2.335-0.061,4.838-0.061,7.971
		c4.385,0.139,8.182,0.372,11.977,0.372c56.939,0.023,113.88,0.016,170.819,0.016c15.439,0,30.881,0.051,46.322-0.039
		c3.448-0.02,7.119,0.83,10.693-1.982c0.591-2.358,1.404-5.121,1.973-7.934c2.862-14.172,5.663-28.355,8.483-42.535
		c11.036-55.492,22.078-110.981,33.079-166.481c0.329-1.659,0.202-3.408,0.345-6.249C37.05,237.447,18.11,246.34,1.592,259.306
		c-5.502,4.318-10.397,9.65-14.746,15.168c-14.456,18.335-21.032,39.508-21.355,62.731c-0.031,2.253,0.231,4.533-0.049,6.747
		c-0.617,4.869-4.609,7.126-9.065,5.093c-2.917-1.328-5.724-2.94-8.458-4.625c-19.012-11.726-36.156-25.721-51.004-42.444
		c-22.331-25.146-37.124-53.926-41.525-87.559C-145.519,207.448-145.73,200.387-146.385,191.815z"/>
	<path d="M2025.525,718.987c-2.725-1.003-4.889-1.547-6.814-2.542c-20.297-10.495-40.562-21.062-60.833-31.609
		c-0.568-0.296-1.159-0.563-1.714-0.892c-5.042-2.993-5.393-3.651-4.545-9.269c0.387-2.545,0.925-5.066,1.426-7.593
		c10.997-55.23,22.002-110.462,32.979-165.7c0.427-2.137,0.583-4.329,1.007-7.575c-3.08,0.67-5.478,0.962-7.72,1.719
		c-37.198,12.548-74.29,25.413-111.586,37.652c-24.137,7.919-48.571,14.949-72.872,22.371c-2.894,0.882-5.799,2.394-9.943-0.045
		c2.194-1.62,3.469-3.017,5.044-3.651c40.211-16.168,73.252-42.541,103.679-72.656c1.144-1.132,2.37-2.204,3.377-3.447
		c2.693-3.318,6.121-4.078,10.283-4.004c11.904,0.209,23.815,0.229,35.72-0.047c14.534-0.341,28.751-3.178,42.979-5.92
		c5.407-1.042,8.023-3.567,9.133-9.33c7.297-37.89,15.064-75.679,22.595-113.521c14.628-73.527,29.187-147.072,43.795-220.604
		c11.279-56.789,22.581-113.573,33.907-170.353c0.862-4.323,2.01-8.587,3.152-13.438c2.299,0.49,3.942,0.494,5.233,1.166
		c22.271,11.583,44.493,23.249,66.718,34.916c0.834,0.439,1.537,1.125,2.268,1.669c1.83,3.608,0.276,7.07-0.386,10.436
		c-5.763,29.364-11.661,58.701-17.516,88.046c-11.952,59.917-23.917,119.827-35.847,179.745
		c-11.247,56.485-22.463,112.98-33.672,169.472c-0.543,2.746-0.861,5.543-1.441,9.354c3.021-0.916,5.104-1.359,7.04-2.166
		c35.38-14.773,69.657-31.862,103.335-50.103c21.506-11.647,42.871-23.602,63.744-36.328c42.793-26.088,82.18-56.571,116.24-93.55
		c34.902-37.89,61.889-80.484,77.314-130.033c9.704-31.165,12.607-62.933,10.485-95.355c-0.604-9.235-4.427-15.891-13.007-19.589
		c-4.717-2.038-9.317-4.545-14.232-5.881c-15.619-4.234-31.502-6.31-47.729-4.347c-11.118,1.346-22.254,2.568-33.276,3.837
		c-5.673-10.28-5.183-20.612,1.367-28.619c30.989-37.881,62.72-75.121,97.122-109.976c12.225-12.383,25.539-23.556,40.164-33.108
		c33.292-21.743,69.834-28.591,108.895-24.004c23.02,2.705,44.287,10.993,64.917,21.005c33.721,16.368,64.845,36.956,94.735,59.451
		c11.823,8.902,23.345,18.219,34.863,27.518c2.628,2.123,5.884,3.904,7.396,8.17c-1.615,0.274-2.798,0.819-3.813,0.595
		c-15.705-3.438-31.337-7.231-47.104-10.348c-5.352-1.055-8.382-3.802-11.054-8.177c-12.754-20.914-29.19-38.378-49.768-51.786
		c-19.778-12.892-41.401-20.352-65.004-22.416c-27.777-2.429-54.654,0.923-80.176,12.226
		c-23.744,10.519-40.219,28.189-45.645,53.907c-6.789,32.171-1.422,61.996,21.026,87.502c11.368,12.917,24.708,23.492,38.679,33.316
		c24.035,16.906,49.82,30.746,76.421,43.127c3.136,1.46,6.19,3.089,9.363,4.679c-1.104,5.556-4.614,8.368-8.137,11.848
		c-16.105-1.534-31.851-6.351-48.591-8.308c-15.894,39.932-38.724,75.1-66.368,108.438c4.509,1.053,7.545,1.869,10.624,2.467
		c69.378,13.515,135.434,36.421,197.48,70.402c41.667,22.818,80.616,49.552,114.996,82.533
		c10.902,10.458,21.21,21.541,31.654,32.471c2.609,2.728,4.693,5.955,7.287,9.307c-2.041,1.733-3.326,3.163-4.896,4.113
		c-36.34,21.888-72.519,44.05-109.341,65.284c-4.61-3.828-6.97-8.181-8.591-13.422c7.792-7.472,18.463-10.531,26.572-18.113
		c-1.391-2.405-2.468-4.695-3.921-6.717c-19.021-26.491-40.405-50.918-64.308-73.113c-59.967-55.691-128.937-96.896-204.783-126.992
		c-14.742-5.851-12.713-5.219-22.253,4.541c-36.808,37.652-77.044,71.187-120.671,100.642c-5.846,3.949-12.068,7.447-18.419,10.521
		c-53.581,25.966-107.241,51.766-160.853,77.655c-34.488,16.659-68.941,33.388-103.415,50.085c-1.733,0.838-3.424,1.808-5.218,2.503
		c-4.059,1.565-5.83,4.641-6.598,8.758c-1.881,10.125-3.961,20.207-5.971,30.307c-14.762,74.114-29.52,148.231-44.334,222.338
		C2027.633,713.186,2026.524,715.822,2025.525,718.987z"/>
	<path d="M848.142,210.053c-0.846,5.306-3.963,6.888-5.977,9.292c-6.195,7.39-12.712,14.533-18.476,22.246
		c-3.021,4.047-5.273,8.893-6.905,13.704c-3.273,9.664,0.145,16.578,9.841,19.619c19.51,6.121,37.645,3.466,53.272-10.322
		c4.537-4,8.315-8.936,12.035-13.752c2.5-3.233,5.132-5.253,9.371-5.917c18.417-2.884,36.773-6.169,55.164-9.235
		c28.852-4.81,57.717-9.547,86.58-14.334c28.869-4.789,57.734-9.605,86.603-14.405c0.952-0.157,1.912-0.287,2.872-0.377
		c8.243-0.763,14.966-4.283,21.634-9.372c12.509-9.543,25.656-18.334,39.068-26.585c6.509-4.005,10.225-8.343,11.747-16.15
		c15.263-78.32,30.945-156.559,46.553-234.81c0.613-3.073,0.658-6.467,4.074-9.095c2.045,0.81,4.458,1.528,6.652,2.672
		c19.976,10.412,39.915,20.9,59.865,31.369c0.572,0.299,1.145,0.6,1.696,0.925c5.254,3.082,5.857,4.138,4.725,10.141
		c-1.853,9.795-3.864,19.557-5.829,29.33c-8.623,42.867-17.269,85.729-25.849,128.604c-0.613,3.055-0.77,6.206-1.223,10.033
		c3.283-0.892,5.717-1.514,8.126-2.214c15.134-4.401,30.264-8.824,45.397-13.235c1.237-0.361,2.472-0.762,3.733-0.993
		c3.996-0.739,5.845-3.024,6.585-7.118c2.288-12.655,4.987-25.233,7.503-37.845c9.681-48.559,19.345-97.122,29.059-145.673
		c0.366-1.829,1.227-3.561,2.064-5.931c1.731,0.383,3.346,0.411,4.633,1.077c22.294,11.531,44.56,23.133,66.804,34.767
		c1.097,0.572,1.963,1.581,3.361,2.736c-0.378,3.049-0.58,6.226-1.195,9.323c-15.769,79.21-31.584,158.417-47.384,237.622
		c-6.604,33.106-13.21,66.215-19.796,99.328c-0.682,3.443-0.916,7.028-3.847,10.217c-1.916-0.63-4.117-1.044-6.018-2.033
		c-20.842-10.84-41.664-21.728-62.428-32.714c-5.872-3.107-6.115-3.799-4.721-10.864c5.108-25.887,10.304-51.76,15.475-77.636
		c2.643-13.249,5.326-26.495,7.953-39.748c0.3-1.533,0.325-3.123,0.513-5.051c-1.367-0.595-2.456-1.46-3.572-1.5
		c-19.146-0.722-37.785,2.125-56.72,7.877c-1.457,6.977-2.95,13.848-4.319,20.746c-8.678,43.561-17.3,87.129-26.036,130.675
		c-0.674,3.357-0.776,7.054-3.749,10.306c-9.013-2.439-16.67-7.849-24.924-11.869c-8.099-3.945-15.965-8.366-23.938-12.564
		c-8.229-4.328-16.462-8.642-24.473-12.847c-1.137-4.547-0.034-8.272,0.723-12.021c4.078-20.166,8.152-40.331,12.18-60.508
		c0.238-1.206,0.033-2.499,0.033-4.653c-2.331,1.217-4.366,1.904-5.941,3.161c-11.561,9.237-23.206,18.382-34.436,28.015
		c-4.327,3.717-8.771,6.104-14.364,7.131c-54.167,9.919-104.423,29.847-150.821,59.471c-25.049,15.996-48.239,34.316-68.952,55.695
		c-1.34,1.387-2.699,2.758-4.109,4.074c-0.451,0.423-1.097,0.639-2.202,1.254c-1.066-0.272-2.666-0.443-4.057-1.073
		c-29.554-13.365-59.865-13.191-90.632-5.174c-20.783,5.416-39.537,15.24-57.701,26.419c-23.911,14.725-46.616,31.066-67.131,50.272
		c-7.504,7.024-14.55,14.578-21.386,22.265c-19.047,21.415-22.792,46.11-14.859,73.056c2.74,9.307,6.785,18.074,12.035,26.244
		c1.992,3.104,3.671,6.027,1.191,9.722c-2.836,4.222-4.746,9.43-11.357,8.795c-4.713-0.454-9.679,1.093-14.243-1.876
		c-3.307-6.725-4.11-14.198-4.607-21.477c-2.404-35.181,2.642-69.351,15.802-102.109c7.769-19.34,19.905-35.999,33.866-51.325
		c15.006-16.474,31.406-31.46,49.901-43.929c6.039-4.07,9.303-9.049,11.165-15.989c5.336-19.884,11.461-39.557,16.917-59.405
		c3.301-12.015,10.014-21.364,19.741-28.928c15.239-11.847,32.567-19.361,50.812-25.019
		C843.193,209.963,845.366,210.227,848.142,210.053z"/>
	<path d="M-711.971,140.766c-2.632,2.977-5.591,6.276-8.497,9.616c-28.655,32.92-60.472,62.379-96.085,87.659
		c-37.491,26.617-77.679,48.07-121.302,62.85c-6.092,2.064-12.309,3.774-18.51,5.49c-1.314,0.365-2.815,0.053-6.636,0.053
		c3.879-2.729,5.747-4.276,7.82-5.467c29.963-17.159,58.36-36.6,84.806-58.796c55.961-46.966,101.363-102.332,132.875-168.558
		c5.386-11.315,9.698-23.137,14.643-34.667c1.492-3.482,1.409-6.675,0.172-10.24c-6.155-17.697-17.471-29.75-36.252-33.9
		c-2.198-0.488-4.44-0.903-6.539-1.687c-6.252-2.339-7.566-9.586-2.262-13.514c14.483-10.73,29.125-21.25,43.704-31.849
		c3.906-2.84,7.925-5.534,11.711-8.524c26.382-20.828,55.836-36.837,84.565-53.985c6.082-3.627,12.222-7.156,18.27-10.839
		c3.394-2.069,6.885-3.167,10.95-3.001c12.858,0.526,25.728,1.192,38.589,1.122c25.741-0.145,51.482-1.066,77.221-0.971
		c8.588,0.034,17.202,2.002,25.749,3.407c9.197,1.512,18.29,3.687,27.507,5.035c6.007,0.878,11.025,3.137,15.382,7.273
		c2.797,2.657,6.021,4.884,8.701,7.645c4.046,4.17,8.657,4.906,14.121,3.723c9.638-2.088,18.188-6.593,26.084-12.121
		c25.04-17.543,50.035-35.165,74.687-53.25c24.133-17.699,47.902-35.88,70.979-54.983c27.104-22.441,56.544-41.539,87.781-57.759
		c17.167-8.914,35.016-16.259,53.55-21.891c13.369-4.066,27.208-4.642,40.969-5.837c2.237-0.195,4.517,0.107,6.756-0.074
		c12.141-0.975,23.573,0.974,34.45,6.859c4.139,2.241,9.071,3.468,13.782,4.111c29.688,4.031,59.464,6.812,89.487,4.715
		c1.604-0.112,3.3,0.091,4.803-0.366c7.081-2.151,13.169,0.128,19.231,3.604c7.861,4.509,15.395,9.381,21.547,16.129
		c4.386,4.81,7.706,10.196,9.812,16.444c1.863,5.526,1.039,10.039-3.745,14.378c-1.124-0.995-2.531-1.766-3.244-2.953
		c-4.306-7.183-10.756-11.847-17.955-15.671c-13.31-7.072-27.807-9.786-42.559-11.618c-6.689-0.833-13.333-2.03-20.021-2.882
		c-13.062-1.663-26.1-4.01-39.216-4.655c-55.993-2.763-109.329,8.91-160.688,30.721c-10.366,4.398-20.959,8.28-31.23,12.885
		c-42.863,19.216-81.634,45.089-118.675,73.686c-28.83,22.261-55.896,46.553-81.824,72.108c-7.33,7.221-14.057,15.051-21.202,22.468
		c-27.99,29.043-57.83,55.96-91.365,78.547c-20.379,13.729-41.797,25.426-65.53,32.388c-3.085,0.907-6.21,1.713-9.361,2.333
		c-1.033,0.205-2.213-0.329-5.22-0.867c3.666-2.134,5.681-3.47,7.829-4.532c18.508-9.127,36.312-19.438,53.271-31.213
		c14.879-10.328,28.463-22.129,40.371-35.78c9.626-11.036,17.178-23.287,20.929-37.632c1.394-5.335,2.124-10.677,0.952-16.077
		c-3.856-3.6-8.743-4.398-13.31-5.73c-22.738-6.632-45.952-9.074-69.632-8.35c-33.642,1.029-64.389,10.936-93.104,28.224
		c-10.986,6.615-14.668,16.655-15.453,28.291c-0.461,6.831,2.605,12.745,8.535,16.339c4.063,2.465,8.688,4.071,13.183,5.732
		c2.986,1.103,6.19,1.621,9.415,2.429c2.201,6.477-0.042,11.514-4.102,16.017c-10.347,11.477-20.529,23.108-31.179,34.293
		c-15.094,15.853-30.338,31.574-45.927,46.934c-9.269,9.131-16.381,19.748-23.832,30.435c0.75,4.035,3.286,7.006,5.46,10.116
		c10.229,14.636,22.828,26.992,36.744,38.086c17.192,13.708,35.875,25.104,55.424,35.018c29.63,15.026,60.514,26.948,92.308,36.616
		c5.81,1.768,9.609,0.88,13.483-3.666c5.211-6.121,10.97-11.774,16.564-17.56c1.74-1.797,3.718-3.369,5.694-5.141
		c4.816,2.447,7.859,6.094,10.757,9.462c0.436,3.881-2.318,5.518-4.208,7.564c-16.608,17.958-33.29,35.854-49.913,53.802
		c-6.123,6.612-12.268,13.213-18.169,20.022c-3.123,3.603-6.44,4.425-11.094,3.402c-16.584-3.639-31.701-10.671-46.024-19.478
		c-20.704-12.728-38.758-28.682-55.381-46.337c-25.277-26.849-46.521-56.695-65.767-88.04c-1.504-2.454-3.199-4.792-4.848-7.153
		C-710.344,141-710.79,141.034-711.971,140.766z"/>
	<path d="M-861.399,680.219c-4.806,6.214-2.587,13.391-7.18,18.526c-2.175-0.85-4.317-1.477-6.265-2.483
		c-20.309-10.479-40.584-21.026-60.869-31.553c-0.857-0.446-1.685-0.952-2.557-1.363c-3.374-1.583-4.676-4.053-3.885-7.817
		c1.323-6.302,2.364-12.66,3.618-18.97c10.149-51.129,20.301-102.262,30.533-153.371c0.605-3.034,0.618-6.462,4.063-9.18
		c2.616,1.176,5.544,2.323,8.318,3.77c17.706,9.202,35.479,18.287,53.004,27.822c6.166,3.357,12.332,4.743,19.299,4.731
		c92.396-0.126,184.79-0.083,277.185-0.083c14.809,0,29.619,0.029,44.427-0.023c3.161-0.012,6.32-0.3,9.654-0.474
		c0.841-2.239,1.757-3.953,2.123-5.771c7.936-39.709,15.812-79.431,23.785-119.594c-2.303-0.488-3.792-1.011-5.302-1.083
		c-3.213-0.149-6.437-0.075-9.654-0.075c-131.671-0.006-263.342,0.002-395.012-0.021c-4.449,0-8.898-0.258-13.542-0.397
		c-2.704-7.05-2.109-13.508-0.627-20.479c2.399-0.405,4.538-0.962,6.699-1.083c3.21-0.183,6.435-0.063,9.654-0.063
		c132.958-0.002,265.917,0,398.876-0.012c4.14,0,8.282-0.147,13.076-0.237c1.723-6.921,3.327-13.359,5.066-20.34
		c2.238,0.491,4.199,0.519,5.756,1.325c21.991,11.43,43.93,22.96,65.864,34.497c1.108,0.586,2.056,1.478,2.959,2.135
		c1.298,3.85,0.018,7.313-0.654,10.686c-11.247,56.451-22.592,112.875-33.959,169.301c-0.423,2.1-1.294,4.109-2.162,6.811
		c-2.582-0.962-4.69-1.508-6.573-2.483c-17.14-8.899-34.287-17.782-51.325-26.871c-4.98-2.654-10.018-3.796-15.673-3.792
		c-110.102,0.098-220.203,0.07-330.304,0.09c-3.171,0-6.34,0.239-10.157,0.396c-4.25,13.506-5.805,27.247-8.75,40.646
		c-3.036,13.813-5.539,27.749-8.205,41.641c-2.588,13.49-6.263,26.797-7.546,41.033c2.857,0.478,4.991,0.976,7.149,1.151
		c2.241,0.185,4.505,0.056,6.758,0.056c124.587,0.004,249.176,0.008,373.764-0.016c4.112,0,8.224-0.276,12.661-0.438
		c2.844-12.63-0.339-24.953,1.954-36.741c3.739-1.763,5.745,0.94,7.962,2.511c18.388,13.022,36.717,26.131,55.063,39.216
		c5.504,3.926,11.032,7.819,16.483,11.812c1.495,1.1,2.756,2.512,4.819,4.419c-2.207,0.872-3.539,1.771-4.925,1.867
		c-3.526,0.241-7.076,0.146-10.617,0.146c-153.883,0.004-307.766,0-461.649,0.014C-852.686,680.003-857.154,680.145-861.399,680.219
		z"/>
	<path d="M1276.719,509.829c8.545-40.813,16.227-80.86,24.213-120.843c0.292-1.454-0.18-3.061-0.356-5.384
		c-4.135-0.133-7.917-0.36-11.706-0.362c-93.035-0.021-186.073-0.018-279.107-0.018c-40.242,0-80.48,0.012-120.722-0.006
		c-13.085-0.004-13.292-0.252-12.768-13.693c0.049-1.287,0.075-2.58,0.247-3.854c0.347-2.56,1.884-4.098,4.442-4.24
		c3.532-0.206,7.075-0.239,10.613-0.239c133.6-0.012,267.198-0.01,400.798-0.01c4.164,0,8.327,0,12.339,0
		c4.961-6.204,2.779-14.306,7.157-20.678c9.112,2.6,16.857,7.772,25.068,11.873c8.349,4.168,16.59,8.569,24.795,13.014
		c8.129,4.405,16.787,7.936,24.846,13.624c-11.694,60.856-23.714,121.086-36.011,181.265c-0.296,1.458-1.309,2.77-2.312,4.819
		c-2.962-1.223-5.634-2.101-8.1-3.376c-16.302-8.413-32.608-16.822-48.798-25.444c-5.258-2.802-10.568-4.094-16.57-4.086
		c-110.101,0.109-220.196,0.078-330.292,0.098c-3.158,0-6.311,0.263-10.096,0.431c-4.958,20.758-8.554,41.296-12.599,61.73
		c-4.039,20.411-8.301,40.79-12.035,61.694c2.617,0.471,4.152,0.987,5.69,0.987c131.635,0.039,263.271,0.035,395.478,0.035
		c0.341-2.642,0.822-4.76,0.85-6.883c0.087-7.083-0.063-14.168,0.042-21.245c0.045-3.125,0.472-6.233,0.809-10.321
		c2.372,0.88,3.93,1.114,5.077,1.928c25.214,17.868,50.385,35.793,75.536,53.746c0.991,0.711,1.696,1.813,3.106,3.359
		c-1.774,0.877-2.993,1.931-4.29,2.033c-3.523,0.286-7.075,0.199-10.612,0.199c-154.202,0.008-308.41,0.004-462.608,0.029
		c-4.427,0-8.854,0.321-13.212,0.494c-3.056,6.057-2.354,12.634-5.708,18.248c-1.98-0.583-3.573-0.789-4.915-1.48
		c-23.126-11.953-46.22-23.962-69.708-36.162c0.435-3.708,0.588-6.885,1.201-9.972c10.967-55.196,21.96-110.388,33.057-165.56
		c0.738-3.663,0.734-7.702,3.745-11.533c2.709,1.101,5.381,1.948,7.833,3.22c18.286,9.473,36.588,18.926,54.761,28.624
		c5.547,2.964,11.122,4.436,17.457,4.432c107.518-0.114,215.041-0.079,322.564-0.099
		C1269.105,510.229,1272.288,510.002,1276.719,509.829z"/>
	<path d="M1862.709-3.554c4.505-9.383,3.091-19.075,8.113-27.469c2.229,0.693,4.435,1.049,6.323,2.025
		c20.867,10.77,41.719,21.589,62.514,32.512c5.681,2.985,5.872,3.629,4.622,9.935c-6.381,32.164-12.828,64.315-19.22,96.477
		c-12.046,60.59-24.054,121.184-36.128,181.764c-0.796,3.986-0.864,8.295-3.663,11.602c-3.839,0.521-6.425-1.673-9.19-3.103
		c-16.298-8.413-32.604-16.811-48.77-25.46c-4.986-2.666-9.989-3.898-15.648-3.889c-73.057,0.102-146.108,0.062-219.16,0.088
		c-2.853,0-5.7,0.278-9.258,0.463c-1.564,7.13-3.192,13.938-4.552,20.8c-10.574,53.317-21.079,106.648-31.683,159.958
		c-0.725,3.659-0.654,7.702-3.925,11.178c-1.743-0.658-3.565-1.133-5.193-1.982c-20.814-10.876-41.625-21.763-62.384-32.748
		c-6.629-3.506-6.884-4.203-5.45-11.422c12.915-64.981,25.845-129.956,38.813-194.924c0.556-2.777,1.5-5.474,2.162-7.851
		c3.91-1.4,6.202,0.878,8.65,2.144c17.72,9.158,35.469,18.276,53.008,27.773c5.872,3.181,11.751,4.542,18.397,4.529
		c70.481-0.13,140.958-0.082,211.438-0.082c3.185,0,6.37,0,9.819,0c1.026-2.586,2.166-4.533,2.582-6.625
		c11.623-57.993,23.176-115.997,34.729-174.001c2.384-11.989,4.795-23.97,7.06-35.98c0.701-3.708,2.021-7.404,1.151-12.12
		c-3.862-0.106-7.649-0.3-11.432-0.303c-92.036-0.016-184.075-0.012-276.122-0.016c-3.217,0-6.441,0.054-9.649-0.115
		c-1.538-0.083-3.05-0.634-4.838-1.03c-2.183-6.523-1.352-12.804-0.639-19.66c2.182-0.64,4.203-1.564,6.298-1.771
		c3.188-0.317,6.426-0.165,9.645-0.165c93.009-0.006,186.014,0.002,279.02-0.028C1854.274-3.049,1858.396-3.373,1862.709-3.554z"/>
	<path d="M-375.246,342.591c-4.167-1.847-6.832-2.867-9.352-4.172c-19.149-9.909-38.271-19.878-57.398-29.831
		c-1.142-0.596-2.307-1.15-3.408-1.816c-4.882-2.954-5.369-3.808-4.276-9.387c3.592-18.296,7.279-36.573,10.929-54.861
		c10.132-50.766,20.285-101.525,30.386-152.299c6.094-30.616,12.088-61.251,18.186-91.869c0.553-2.773,1.54-5.466,2.477-8.729
		c2.298,0.568,4.222,0.672,5.778,1.481c21.128,10.992,42.233,22.021,63.271,33.183c6.349,3.365,6.54,4.151,5.055,11.631
		c-6.887,34.688-13.788,69.377-20.702,104.06c-12.773,64.062-25.557,128.123-38.361,192.175
		C-373.275,335.229-374.161,338.243-375.246,342.591z"/>
	<path d="M1441.496,598.642c-2.059-4.325-0.877-8.842-0.39-13.198c2.983-26.848,6.144-53.672,9.24-80.507
		c1.328-11.499,2.622-23.001,4-34.495c0.23-1.9,0.509-3.93,1.377-5.579c0.641-1.22,2.31-2.729,3.451-2.672
		c1.661,0.087,3.381,1.297,4.822,2.372c0.588,0.439,0.57,1.768,0.72,2.707c2.754,17.191,14.393,26.77,29.203,33.14
		c5.532,2.382,11.685,3.638,17.687,4.545c19.451,2.918,38.99,4.003,58.663,2.119c48.021-4.607,94.176-17.34,139.852-32.05
		c52.477-16.901,103.202-38.201,152.903-61.981c4.012-1.916,7.948-4.368,11.241-7.324c6.22-5.574,12.195-11.473,17.815-17.652
		c7.044-7.751,12.014-16.826,13.612-27.272c0.717-4.678,2.984-6.639,7.263-7.554c14.156-3.03,28.275-6.227,42.411-9.355
		c10.988-2.433,21.97-4.916,32.977-7.247c2.409-0.51,4.936-0.465,8.764-0.794c-3.867,6.762-8.529,11.034-13.552,14.841
		c-4.349,3.3-8.985,6.252-13.645,9.116c-47.167,28.986-94.181,58.22-141.613,86.768c-27.292,16.425-55.04,32.106-84.182,45.186
		c-38.483,17.277-77.554,33.085-117.106,47.705c-57.371,21.21-115.421,40.395-174.15,57.499
		C1449.273,598.003,1445.743,600.123,1441.496,598.642z"/>
	<path d="M2113.138,594.928c-1.583-6.248-1.254-12.562-0.157-19.463c2.138-0.485,4.22-1.233,6.339-1.381
		c3.526-0.234,7.077-0.098,10.621-0.098c210.192-0.004,420.386,0,630.581-0.016c4.447,0,8.896-0.206,13.928-0.325
		c0.427-3.036,1.025-5.477,1.073-7.93c0.133-7.398-0.032-14.809,0.109-22.209c0.043-2.433,0.646-4.85,1.104-8.068
		c2.257,0.937,3.805,1.273,4.991,2.116c25.202,17.88,50.369,35.809,75.512,53.766c0.976,0.703,1.646,1.829,3.001,3.371
		c-1.939,0.809-3.24,1.729-4.619,1.856c-3.197,0.29-6.429,0.251-9.645,0.251c-239.483,0.008-478.973,0.012-718.457-0.031
		C2122.781,596.766,2117.856,597.635,2113.138,594.928z"/>
	<path d="M1004.771,36.512c3.106-6.724,6.921-11,10.797-15.16c0.966-1.041,2.825-1.534,4.341-1.713
		c2.539-0.303,5.132-0.186,7.702-0.188c36.642-0.006,73.287-0.014,109.929,0.012c3.471,0.004,6.942,0.235,10.848,0.375
		c-0.148,6.875-5.261,9.97-8.164,14.272c-3.51,5.205-9.745,1.799-15.231,4.588c-12.489,42.747-33.79,81.618-63.752,115.623
		c-16.207,18.398-34.217,34.843-54.342,48.909c-1.998,1.396-4.294,2.372-8.195,4.488c1.266-3.723,1.696-5.759,2.609-7.552
		c10.063-19.81,18.941-40.078,24.585-61.645c4.244-16.225,7.015-32.679,6.546-49.498c-0.388-13.901-2.773-27.473-8.394-40.315
		c-1.026-2.351-2.305-4.589-3.51-6.86c-1.651-3.117-4.15-4.686-7.792-4.605C1010.572,37.293,1008.391,36.865,1004.771,36.512z"/>
	<path d="M845.613,14.435c2.758,2.035,4.399,2.858,5.524,4.134c28.126,31.898,54.39,65.199,75.749,102.11
		c10.648,18.402,20.066,37.401,26.372,57.794c1.23,3.981,2.447,8.008,3.162,12.104c1.755,10.016-2.868,14.923-12.75,13.467
		c-10.174-1.498-20.35-3.079-30.424-5.125c-20.463-4.154-40.865-8.636-61.285-13.014c-1.881-0.403-3.708-1.053-5.569-1.558
		c-2.555-0.698-3.722-2.385-3.493-4.987c0.206-2.347,0.87-4.527,3.469-5.219c3.415-0.911,6.976-1.364,10.29-2.532
		c4.823-1.699,9.581-3.654,14.184-5.877c4.102-1.981,6.225-5.592,6.035-10.189c-0.331-8.015-0.172-16.137-1.44-24.015
		c-5.128-31.817-14.123-62.707-23.392-93.506c-1.759-5.849-3.616-11.666-5.352-17.522C846.275,19.082,846.159,17.576,845.613,14.435
		z"/>
	<path d="M1089.93-22.795c2.447-13.331-0.258-25.591,1.863-37.327c4.031-1.322,6.041,1.214,8.27,2.797
		c18.362,13.022,36.66,26.127,54.996,39.192c5.232,3.733,10.543,7.372,15.745,11.151c1.473,1.069,2.701,2.475,4.979,4.61
		c-2.397,0.729-3.722,1.388-5.093,1.498c-2.559,0.205-5.143,0.103-7.714,0.103c-111.919,0.004-223.836,0.006-335.757-0.01
		c-4.131,0-8.26-0.176-12.209-0.266c-3.385-6.121-2.184-11.938-1.63-17.563c0.133-1.376,2.26-3.359,3.737-3.636
		c3.434-0.645,7.03-0.532,10.562-0.532c73.647-0.022,147.293-0.016,220.939-0.016c10.293,0,20.585,0,30.876,0
		C1082.681-22.795,1085.865-22.795,1089.93-22.795z"/>
	<path d="M1050.057,924.177c-1.193,5.614-2.167,10.221-3.117,14.712c2.578,1.685,4.576,2.985,6.886,4.489
		c-1.201,1.116-1.875,2.284-2.541,2.28c-7.611-0.039-15.228-0.247-22.836-0.506c-0.25-0.008-0.466-1.038-0.961-2.225
		c2.552-1.026,5.101-2.045,8.63-3.46c3.556-10.171,5.011-21.634,7.534-32.814c2.534-11.236,4.721-22.554,7.126-34.166
		c-2.308-1.527-4.255-2.809-7.393-4.881c2.896-0.933,4.544-1.889,6.205-1.924c8.023-0.157,16.055-0.247,24.07,0.039
		c3.482,0.121,7.032,0.866,10.378,1.885c11.772,3.596,17.919,14.079,15.631,26.217c-3.455,18.346-21.645,32.093-40.909,30.918
		C1056.238,924.588,1053.718,924.416,1050.057,924.177z M1070.716,869.988c-7.7,0.074-9.508,0.246-10.93,8.595
		c-1.669,9.782-4.149,19.424-6.224,29.14c-0.333,1.56-0.566,3.173-0.555,4.76c0.024,3.776,1.842,6.021,5.521,6.793
		c4.584,0.96,8.948-0.004,13.101-1.963c10.666-5.025,18.791-20.484,16.961-32.151
		C1087.061,875.367,1080.851,870.098,1070.716,869.988z"/>
	<path d="M293.628,889.251c-1.109-1.735-2.221-3.13-2.956-4.701c-1.352-2.899-2.146-6.1-3.774-8.814
		c-2.92-4.866-7.504-7.083-13.14-5.975c-6.386,1.254-11.201,4.725-13.371,11.161c-1.898,5.634,0.077,10.194,4.421,13.692
		c2.727,2.206,5.896,3.87,8.919,5.685c3.851,2.323,7.958,4.274,11.59,6.895c7.876,5.681,9.432,12.247,5.467,21.089
		c-5.011,11.17-16.615,18.293-29.708,17.513c-4.717-0.282-9.502-1.602-13.974-3.22c-3.976-1.446-7.017-4.518-8.63-8.64
		c-1.465-3.741-0.466-7.299,2.556-9.43c2.576-1.822,5.925-1.48,7.681,1.077c1.067,1.552,1.869,3.381,2.397,5.199
		c3.35,11.538,12.254,11.515,19.847,9.642c4.515-1.116,7.908-4.191,10.343-8.185c3.028-4.96,2.948-9.986-0.993-14.213
		c-2.578-2.767-5.88-4.925-9.069-7.036c-4.28-2.833-9.036-5.003-13.11-8.086c-10.476-7.926-11.228-18.468-2.31-28.246
		c5.761-6.315,13.146-9.113,21.533-9.133c3.167-0.008,6.394,0.6,9.497,1.34C299.191,869.808,301.671,877.385,293.628,889.251z"/>
	<path d="M878.58,914.163c0.027,0.294-0.055,0.768,0.096,0.858c7.383,4.411,9.612,11.008,7.426,18.969
		c-0.999,3.641,0.44,6.626,1.963,10.242c-7.377,0.822-13.787,1.379-20.311-0.302c0.386-1.348,0.407-2.304,0.73-2.421
		c8.247-2.927,7.914-10.086,8.076-16.769c0.09-3.546-2.231-5.932-6.008-6.362c-3.745-0.428-7.573-0.095-11.567-0.095
		c-3.671,6.68-4.039,13.681-5.202,20.264c1.923,1.598,3.341,2.781,4.717,3.925c-0.402,0.792-0.598,1.752-0.964,1.822
		c-7.242,1.406-14.495,1.258-21.726-0.138c-0.152-0.027-0.213-0.536-0.456-1.202c0.427-0.486,0.942-1.622,1.542-1.669
		c5.16-0.415,7.019-3.871,7.929-8.26c2.602-12.56,5.193-25.128,7.743-37.699c0.12-0.58-0.188-1.246-0.376-2.347
		c-1.591-0.897-3.443-1.947-5.575-3.146c0.721-0.999,1.16-2.237,1.739-2.308c3.475-0.419,6.981-0.693,10.48-0.775
		c5.138-0.118,10.28-0.126,15.416,0.012c2.55,0.07,5.162,0.277,7.612,0.92c9.463,2.492,12.286,10.829,5.996,18.425
		C885.283,909.219,881.702,911.503,878.58,914.163z M859.943,910.86c8.866,2.229,13.275,1.211,17.079-3.733
		c2.206-2.863,3.757-6.088,2.374-9.774c-1.522-4.051-4.885-5.747-9.003-5.931c-1.853-0.087-3.726,0.277-5.735,0.454
		C861.24,897.76,860.613,904.009,859.943,910.86z"/>
	<path d="M1435.279,895.742c-1.133-1.586-2.208-3.087-3.199-4.47c0.498-0.843,0.699-1.688,1.152-1.86
		c4.164-1.595,8.454-2.594,12.928-2.739c2.766,13.363,5.414,26.15,8.059,38.934c0.13,0.627,0.235,1.262,0.366,1.893
		c1.943,9.427,1.947,9.427,7.44,15.565c-5.575,2.37-16.59,2.625-24.018,0.431c0.968-3.905,6.111-1.786,7.772-6.338
		c-0.575-2.484-1.426-6.129-2.284-9.819c-6.072-2.327-11.854-1.398-17.5-1.097c-1.645,0.09-3.629,1.449-4.703,2.813
		c-2.123,2.712-3.718,5.827-5.823,9.251c2.654,1.708,4.689,3.013,6.699,4.306c-0.333,0.709-0.497,1.657-0.86,1.735
		c-6.612,1.465-13.188,0.098-19.516,0.501c-1.003-3.114,0.604-3.623,2.151-4.019c3.687-0.952,6.041-3.468,7.96-6.544
		c7.481-11.965,14.974-23.925,22.421-35.913C1434.809,897.592,1434.974,896.612,1435.279,895.742z M1441.708,919.55
		c-0.396-3.083-0.684-6.213-1.227-9.296c-0.435-2.465-1.179-4.874-2.123-8.662c-4.337,6.495-8.397,11.564-11.091,18.781
		C1432.611,921.047,1436.843,921.947,1441.708,919.55z"/>
	<path d="M1164.755,938.34c2.789,1.889,4.592,3.083,6.351,4.333c0.121,0.086-0.037,0.568-0.133,1.599
		c-6.849,1.187-13.739,1.237-22.631-0.658c5.517-3.326,10.28-4.549,12.619-9.073c2.055-3.981,4.746-7.637,7.13-11.452
		c5.61-8.972,11.2-17.955,16.768-26.883c-1.456-1.893-2.594-3.385-3.729-4.866c4.407-3.647,5.332-3.905,14.444-3.973
		c0.386,1.297,0.948,2.728,1.237,4.216c2.721,13.86,5.491,27.713,8.035,41.609c0.792,4.314,2.781,7.554,7.373,9.575
		c-8.807,2.981-16.791,2.351-25.233,1.779c0.619-5.145,6.029-2.7,7.271-5.85c1.5-4.404-1.258-7.898-1.939-12.533
		c-6.061-0.039-11.48-0.356-16.842,0.063c-1.912,0.145-4.121,1.743-5.414,3.318C1168.062,931.973,1166.735,934.955,1164.755,938.34z
		 M1176.28,919.742c5.427,1.979,9.622,1.535,14.082,0.435c1.184-6.053-1.265-11.142-2.296-17.712
		C1182.408,907.715,1179.967,913.438,1176.28,919.742z"/>
	<path d="M721.25,887.582c1.475-0.298,2.713-0.764,3.949-0.771c11.242-0.059,22.487-0.243,33.721,0.02
		c9.347,0.223,11.933,6.354,6.07,15.325c-1.616-2.186-3.228-4.059-4.492-6.146c-2.047-3.389-4.926-4.861-8.818-4.689
		c-4.746,0.208-9.497,0.337-14.131,0.494c-3.461,6.057-3.644,12.137-4.976,18.162c4.678,2.773,9.259,1.194,13.569,1.605
		c4.117,0.389,6.254,1.509,5.708,3.456c-0.776,2.754-3.138,2.906-5.402,3.024c-3.526,0.176-7.063,0.215-10.589,0.368
		c-3.303,0.145-5.395,1.778-6.027,5.108c-0.18,0.948-0.431,1.881-0.613,2.824c-0.944,4.89-1.567,10.069,3.268,13.086
		c4.601,2.876,10.08,2.633,14.71-0.063c3.216-1.872,5.747-4.984,8.419-7.699c1.724-1.755,2.717-4.356,5.692-4.717
		c1.134,10.015-2.01,15.386-10.397,17.427c-3.722,0.909-7.596,1.548-11.42,1.649c-13.142,0.356-21.799-9.324-19.808-22.398
		c1.301-8.552,3.199-17.029,5.126-25.472c0.815-3.569,0.872-6.304-3.104-7.844C721.294,890.172,721.408,888.683,721.25,887.582z"/>
	<path d="M1653.162,887.684c3.058-0.431,4.917-0.9,6.777-0.92c10.28-0.067,20.568-0.177,30.844,0.016
		c10.617,0.199,13.112,5.007,7.938,14.801c-3.326-0.066-3.891-3.017-5.065-5.125c-2.134-3.823-5.262-5.315-9.528-5.167
		c-4.458,0.149-8.928,0.031-13.312,0.031c-4.231,6.104-4.222,12.489-5.172,18.785c4.607,2.563,9.199,1.003,13.548,1.505
		c2.162,0.25,4.686-0.204,5.566,2.612c0.619,1.99-1.512,3.55-5.475,3.828c-3.521,0.246-7.062,0.227-10.592,0.376
		c-3.342,0.137-5.286,1.986-6.133,5.132c-0.168,0.619-0.45,1.219-0.532,1.85c-0.65,5.112-1.967,10.778,3.353,14.025
		c4.956,3.024,10.668,2.602,15.565-0.493c2.899-1.834,5.112-4.757,7.593-7.237c1.699-1.704,3.329-3.482,5.363-5.621
		c1.645,7.808-0.98,14.884-6.153,16.972c-6.018,2.425-12.405,3.569-18.871,2.73c-10.585-1.371-16.577-8.454-16.364-19.064
		c0.059-2.871,0.479-5.763,1.015-8.587c1.081-5.677,2.347-11.314,3.554-16.964C1658.6,894.046,1658.607,894.05,1653.162,887.684z"/>
	<path d="M1584.882,891.465c1.299,5.3,1.841,10.119-0.538,16.567c-1.583-2.809-2.778-4.204-3.201-5.802
		c-1.959-7.334-6.582-11.585-14.072-12.619c-7.823-1.077-13.905,2.053-18.123,8.454c-6.041,9.176-8.454,19.373-6.922,30.279
		c0.678,4.831,2.401,9.38,7,12.075c5.651,3.318,12.074,2.492,17.747-2.499c2.394-2.111,4.364-4.702,6.719-6.861
		c1.505-1.379,3.446-1.845,5.201-0.262c1.696,1.531,1.63,3.494,0.513,5.227c-1.022,1.587-2.236,3.248-3.769,4.278
		c-8.652,5.829-18.127,8.176-28.37,5.395c-11.705-3.182-18.667-13.478-17.226-25.556c1.137-9.484,4.711-18.045,11.745-24.744
		c9.924-9.445,21.439-12.442,34.56-7.702C1579.131,888.766,1581.982,890.199,1584.882,891.465z"/>
	<path d="M590.898,887.609c9.146-1.136,16.981-1.266,25.083-0.423c-0.466,4.869-5.698,2.911-7.67,7.149
		c0.979,10.531,3.761,21.942,6.46,34.256c4.633-2.981,6.096-7.385,8.531-10.934c2.721-3.965,5.207-8.099,7.681-12.224
		c2.278-3.788,5.232-7.267,6.239-12.285c-2.067-1.485-4.035-2.899-5.98-4.298c0.347-0.701,0.539-1.622,0.872-1.677
		c6.885-1.148,13.696-0.016,20.863-0.411c-0.515,1.782-0.546,2.77-0.866,2.867c-5.896,1.857-9.406,6.202-12.526,11.236
		c-7.771,12.548-15.708,24.99-23.715,37.391c-1.64,2.538-2.598,6.096-7.444,6.213c-0.727-2.135-1.751-4.403-2.276-6.781
		c-2.486-11.279-4.84-22.59-7.234-33.889C597.016,894.83,597.02,894.83,590.898,887.609z"/>
	<path d="M521.191,927.472c0.102,6.17-2.115,10.395-4.613,14.441c-1.726,2.801-4.76,3.017-7.718,3.024
		c-10.621,0.039-21.242,0.098-31.86,0.035c-2.131-0.016-4.256-0.529-7.972-1.015c1.939-1.646,2.68-2.825,3.532-2.907
		c4.407-0.442,5.921-3.502,6.719-7.131c2.956-13.469,5.817-26.957,8.73-40.517c-2.356-1.566-4.278-2.848-6.556-4.364
		c6.675-3.075,18.979-3.083,25.731-0.074c-1.271,0.854-2.174,1.959-3.142,2.021c-4.27,0.274-6.247,2.727-7.067,6.598
		c-2.601,12.262-5.261,24.513-7.802,36.786c-0.313,1.521-0.043,3.163-0.043,5.098c8.114,2.66,15.138,1.971,21.385-4.148
		C513.372,932.514,515.438,928.502,521.191,927.472z"/>
	<path d="M1279.103,942.708c2.265-0.987,3.283-1.728,4.372-1.845c2.956-0.321,4.86-1.939,5.526-4.639
		c3.469-14.019,6.403-28.153,9.062-42.438c-2.025-1.684-3.655-3.039-5.238-4.355c0.396-0.792,0.58-1.736,0.95-1.814
		c7.808-1.638,15.576-1.175,23.345-0.199c-0.041,3.521-2.178,3.58-4.016,3.858c-2.425,0.372-4.363,1.359-4.969,3.875
		c-3.53,14.632-6.658,29.347-9.453,44.509c9.434,2.46,17.177,1.556,23.497-5.545c1.714-1.915,3.466-3.823,5.403-5.496
		c0.822-0.709,2.182-0.803,4.102-1.441c0.23,6.499-2.206,11.327-5.634,15.394c-1.359,1.609-4.596,2.193-7.009,2.268
		c-8.682,0.271-17.375,0.138-26.064,0.13c-3.218,0-6.444,0.039-9.645-0.192C1282.272,944.698,1281.273,943.809,1279.103,942.708z"/>
	<path d="M378.933,887.547c7.741-1.042,14.53-1.56,21.384,0.208c-0.267,1.187-0.263,2.186-0.542,2.271
		c-5.234,1.638-7.332,5.446-8.31,10.594c-1.914,10.08-4.307,20.066-6.386,30.118c-1.283,6.207-1.183,6.227,2.421,13.086
		c-7.248,1.799-14.157,1.76-21.236,0.157c0.276-1.188,0.302-2.198,0.555-2.257c5.081-1.194,7.058-4.643,7.998-9.54
		c1.992-10.382,4.519-20.662,6.678-31.013C382.734,895.206,382.568,894.975,378.933,887.547z"/>
</g>
</svg>
