<svg width="24" height="24" viewBox="0 0 24 24" fill="none" xmlns="http://www.w3.org/2000/svg">
<path d="M17.8336 8.02762C19.5825 8.02762 21.0003 6.60987 21.0003 4.86098C21.0003 3.11209 19.5825 1.69434 17.8336 1.69434C16.0847 1.69434 14.667 3.11209 14.667 4.86098C14.667 6.60987 16.0847 8.02762 17.8336 8.02762Z" stroke="white" stroke-width="2" stroke-linecap="round" stroke-linejoin="round"/>
<path d="M5.16664 15.4163C6.91553 15.4163 8.33329 13.9985 8.33329 12.2497C8.33329 10.5008 6.91553 9.08301 5.16664 9.08301C3.41775 9.08301 2 10.5008 2 12.2497C2 13.9985 3.41775 15.4163 5.16664 15.4163Z" stroke="white" stroke-width="2" stroke-linecap="round" stroke-linejoin="round"/>
<path d="M17.8336 22.805C19.5825 22.805 21.0003 21.3872 21.0003 19.6383C21.0003 17.8894 19.5825 16.4717 17.8336 16.4717C16.0847 16.4717 14.667 17.8894 14.667 19.6383C14.667 21.3872 16.0847 22.805 17.8336 22.805Z" stroke="white" stroke-width="2" stroke-linecap="round" stroke-linejoin="round"/>
<path d="M7.89746 13.8467L15.1148 18.0425" stroke="white" stroke-width="2" stroke-linecap="round" stroke-linejoin="round"/>
<path d="M15.1016 6.45801L7.89746 10.6538" stroke="white" stroke-width="2" stroke-linecap="round" stroke-linejoin="round"/>
</svg>
