<svg width="850" height="903" viewBox="0 0 850 903" fill="none" xmlns="http://www.w3.org/2000/svg">
<g style="mix-blend-mode:luminosity" opacity="0.3">
<mask id="mask0_567_4225" style="mask-type:luminance" maskUnits="userSpaceOnUse" x="205" y="438" width="316" height="465">
<path d="M205.767 902.415H356.09L520.437 438.859H369.676L205.767 902.415Z" fill="white"/>
</mask>
<g mask="url(#mask0_567_4225)">
<path d="M6.34869 786.415L284.205 301.688L719.397 554.857L441.54 1039.14L6.34869 786.415Z" fill="url(#paint0_linear_567_4225)"/>
</g>
<path d="M523.058 16.7578L448.992 221.411L696.609 902.41H849.999L523.058 16.7578Z" fill="white"/>
<mask id="mask1_567_4225" style="mask-type:luminance" maskUnits="userSpaceOnUse" x="0" y="0" width="471" height="903">
<path d="M320.368 0L0 902.412H150.761L470.691 0H320.368Z" fill="white"/>
</mask>
<g mask="url(#mask1_567_4225)">
<path d="M-388.309 676.589L117.881 -205.094L858.978 225.383L353.227 1107.51L-388.309 676.589Z" fill="url(#paint1_linear_567_4225)"/>
</g>
</g>
<defs>
<linearGradient id="paint0_linear_567_4225" x1="106.526" y1="1116.62" x2="622.05" y2="229.383" gradientUnits="userSpaceOnUse">
<stop stop-color="#00C8EB"/>
<stop offset="0.2088" stop-color="#00C8EB"/>
<stop offset="0.7372" stop-color="#734BD7"/>
<stop offset="1" stop-color="#734BD7"/>
</linearGradient>
<linearGradient id="paint1_linear_567_4225" x1="-47.8178" y1="945.051" x2="768.564" y2="-459.98" gradientUnits="userSpaceOnUse">
<stop stop-color="#00C8EB"/>
<stop offset="0.042" stop-color="#00C8EB"/>
<stop offset="0.0484" stop-color="#02C6EB"/>
<stop offset="0.2631" stop-color="#3292E2"/>
<stop offset="0.4494" stop-color="#556BDC"/>
<stop offset="0.5981" stop-color="#6B54D8"/>
<stop offset="0.6907" stop-color="#734BD7"/>
<stop offset="1" stop-color="#734BD7"/>
</linearGradient>
</defs>
</svg>
