<svg width="72" height="76" viewBox="0 0 72 76" fill="none" xmlns="http://www.w3.org/2000/svg">
<g style="mix-blend-mode:luminosity" opacity="0.3">
<mask id="mask0_406_3455" style="mask-type:luminance" maskUnits="userSpaceOnUse" x="17" y="36" width="27" height="40">
<path d="M17.3291 75.998H29.9891L43.8302 36.958H31.1333L17.3291 75.998Z" fill="white"/>
</mask>
<g mask="url(#mask0_406_3455)">
<path d="M0.535156 66.2293L23.9359 25.4062L60.5871 46.7278L37.1864 87.5137L0.535156 66.2293Z" fill="url(#paint0_linear_406_3455)"/>
</g>
<path d="M44.0512 1.41211L37.8135 18.6477L58.6674 76.0005H71.5857L44.0512 1.41211Z" fill="white"/>
<mask id="mask1_406_3455" style="mask-type:luminance" maskUnits="userSpaceOnUse" x="0" y="0" width="40" height="76">
<path d="M26.9809 0L0 75.9999H12.6969L39.6409 0H26.9809Z" fill="white"/>
</mask>
<g mask="url(#mask1_406_3455)">
<path d="M-32.7031 56.9816L9.92746 -17.2725L72.3416 18.9816L29.7479 93.2728L-32.7031 56.9816Z" fill="url(#paint1_linear_406_3455)"/>
</g>
</g>
<defs>
<linearGradient id="paint0_linear_406_3455" x1="8.97192" y1="94.039" x2="52.3887" y2="19.3168" gradientUnits="userSpaceOnUse">
<stop stop-color="#00C8EB"/>
<stop offset="0.2088" stop-color="#00C8EB"/>
<stop offset="0.7372" stop-color="#734BD7"/>
<stop offset="1" stop-color="#734BD7"/>
</linearGradient>
<linearGradient id="paint1_linear_406_3455" x1="-4.02749" y1="79.591" x2="64.727" y2="-38.7386" gradientUnits="userSpaceOnUse">
<stop stop-color="#00C8EB"/>
<stop offset="0.042" stop-color="#00C8EB"/>
<stop offset="0.0484" stop-color="#02C6EB"/>
<stop offset="0.2631" stop-color="#3292E2"/>
<stop offset="0.4494" stop-color="#556BDC"/>
<stop offset="0.5981" stop-color="#6B54D8"/>
<stop offset="0.6907" stop-color="#734BD7"/>
<stop offset="1" stop-color="#734BD7"/>
</linearGradient>
</defs>
</svg>
