<svg width="24" height="24" viewBox="0 0 24 24" fill="none" xmlns="http://www.w3.org/2000/svg">
<path d="M19.2369 5.96875H4.76305C4.42998 5.96875 4.15997 6.23876 4.15997 6.57182V16.8241C4.15997 17.4903 4.69997 18.0303 5.36613 18.0303H18.6338C19.2999 18.0303 19.84 17.4902 19.84 16.8241V6.57182C19.84 6.23876 19.57 5.96875 19.2369 5.96875ZM12 12.3878L6.31371 7.17491H17.6862L12 12.3878ZM9.79196 11.9995L5.36613 16.056V7.94308L9.79196 11.9995ZM10.6845 12.8174L11.5891 13.6504C11.8198 13.8622 12.1741 13.8622 12.4048 13.6504L13.3094 12.8174L17.6817 16.8241H6.31371L10.6845 12.8174ZM14.208 11.9995L18.6338 7.94232V16.0567L14.208 11.9995Z" fill="#AAAAAA"/>
</svg>
