<svg width="24" height="24" viewBox="0 0 24 24" fill="none" xmlns="http://www.w3.org/2000/svg">
<path d="M15.3333 4.5H8.66667C8.22464 4.5 7.80072 4.66932 7.48816 4.97072C7.17559 5.27212 7 5.6809 7 6.10714V17.8929C7 18.3191 7.17559 18.7279 7.48816 19.0293C7.80072 19.3307 8.22464 19.5 8.66667 19.5H15.3333C15.7754 19.5 16.1993 19.3307 16.5118 19.0293C16.8244 18.7279 17 18.3191 17 17.8929V6.10714C17 5.6809 16.8244 5.27212 16.5118 4.97072C16.1993 4.66932 15.7754 4.5 15.3333 4.5ZM15.8889 17.8929C15.8889 18.0349 15.8304 18.1712 15.7262 18.2717C15.622 18.3721 15.4807 18.4286 15.3333 18.4286H8.66667C8.51932 18.4286 8.37802 18.3721 8.27383 18.2717C8.16964 18.1712 8.11111 18.0349 8.11111 17.8929V6.10714C8.11111 5.96506 8.16964 5.8288 8.27383 5.72834C8.37802 5.62787 8.51932 5.57143 8.66667 5.57143H15.3333C15.4807 5.57143 15.622 5.62787 15.7262 5.72834C15.8304 5.8288 15.8889 5.96506 15.8889 6.10714V17.8929ZM14.7778 7.17857C14.7778 7.32065 14.7192 7.45691 14.6151 7.55738C14.5109 7.65784 14.3696 7.71429 14.2222 7.71429H9.77778C9.63044 7.71429 9.48913 7.65784 9.38494 7.55738C9.28075 7.45691 9.22222 7.32065 9.22222 7.17857C9.22222 7.03649 9.28075 6.90023 9.38494 6.79976C9.48913 6.6993 9.63044 6.64286 9.77778 6.64286H14.2222C14.3696 6.64286 14.5109 6.6993 14.6151 6.79976C14.7192 6.90023 14.7778 7.03649 14.7778 7.17857Z" fill="#AAAAAA"/>
</svg>
