<svg width="1818" height="334" viewBox="0 0 1818 334" fill="none" xmlns="http://www.w3.org/2000/svg">
<path opacity="0.5" d="M97.2004 333.2C72.9337 333.2 53.7337 328.934 39.6004 320.4C25.4671 311.867 15.3337 299.6 9.20039 283.6C3.06706 267.6 0.000391603 248.534 0.000391603 226.4V106C0.000391603 83.6004 3.06706 64.5337 9.20039 48.8004C15.3337 33.067 25.4671 21.067 39.6004 12.8004C53.7337 4.26704 72.9337 0.000374794 97.2004 0.000374794C121.734 0.000374794 141.067 4.26704 155.2 12.8004C169.6 21.067 179.867 33.067 186 48.8004C192.134 64.5337 195.2 83.6004 195.2 106V226.4C195.2 248.534 192.134 267.6 186 283.6C179.867 299.6 169.6 311.867 155.2 320.4C141.067 328.934 121.734 333.2 97.2004 333.2ZM97.2004 282.4C104.667 282.4 110.134 280.534 113.6 276.8C117.067 273.067 119.334 268.267 120.4 262.4C121.467 256.534 122 250.534 122 244.4V88.4004C122 82.0004 121.467 76.0004 120.4 70.4004C119.334 64.5337 117.067 59.7337 113.6 56.0004C110.134 52.267 104.667 50.4004 97.2004 50.4004C90.2671 50.4004 85.0671 52.267 81.6004 56.0004C78.1337 59.7337 75.8671 64.5337 74.8004 70.4004C73.7337 76.0004 73.2004 82.0004 73.2004 88.4004V244.4C73.2004 250.534 73.6004 256.534 74.4004 262.4C75.4671 268.267 77.6004 273.067 80.8004 276.8C84.2671 280.534 89.7337 282.4 97.2004 282.4ZM324.375 333.2C299.575 333.2 280.109 329.2 265.975 321.2C252.109 312.934 242.375 301.067 236.775 285.6C231.175 269.867 228.375 250.667 228.375 228V4.40037H299.175V238.8C299.175 245.467 299.709 252.134 300.775 258.8C301.842 265.467 304.109 270.934 307.575 275.2C311.309 279.467 316.909 281.6 324.375 281.6C332.109 281.6 337.709 279.467 341.175 275.2C344.642 270.934 346.775 265.467 347.575 258.8C348.642 252.134 349.175 245.467 349.175 238.8V4.40037H420.375V228C420.375 250.667 417.442 269.867 411.575 285.6C405.975 301.067 396.242 312.934 382.375 321.2C368.509 329.2 349.175 333.2 324.375 333.2ZM457.932 328.4V4.40037H547.132C568.998 4.40037 587.932 6.80037 603.932 11.6004C619.932 16.4004 632.332 25.067 641.132 37.6004C650.198 49.867 654.732 67.3337 654.732 90.0004C654.732 103.334 653.665 115.2 651.532 125.6C649.398 136 645.398 145.067 639.532 152.8C633.932 160.267 625.798 166.534 615.132 171.6L659.532 328.4H585.532L549.932 183.2H529.532V328.4H457.932ZM529.532 142H549.532C559.665 142 567.532 140.267 573.132 136.8C578.732 133.067 582.598 127.867 584.732 121.2C587.132 114.267 588.332 106 588.332 96.4004C588.332 82.5337 585.798 71.7337 580.732 64.0004C575.665 56.267 566.332 52.4004 552.732 52.4004H529.532V142ZM876.919 333.2C852.652 333.2 833.452 328.934 819.319 320.4C805.186 311.867 795.052 299.6 788.919 283.6C782.786 267.6 779.719 248.534 779.719 226.4V106C779.719 83.6004 782.786 64.5337 788.919 48.8004C795.052 33.067 805.186 21.067 819.319 12.8004C833.452 4.26704 852.652 0.000374794 876.919 0.000374794C901.452 0.000374794 920.786 4.26704 934.919 12.8004C949.319 21.067 959.586 33.067 965.719 48.8004C971.852 64.5337 974.919 83.6004 974.919 106V226.4C974.919 248.534 971.852 267.6 965.719 283.6C959.586 299.6 949.319 311.867 934.919 320.4C920.786 328.934 901.452 333.2 876.919 333.2ZM876.919 282.4C884.386 282.4 889.852 280.534 893.319 276.8C896.786 273.067 899.052 268.267 900.119 262.4C901.186 256.534 901.719 250.534 901.719 244.4V88.4004C901.719 82.0004 901.186 76.0004 900.119 70.4004C899.052 64.5337 896.786 59.7337 893.319 56.0004C889.852 52.267 884.386 50.4004 876.919 50.4004C869.986 50.4004 864.786 52.267 861.319 56.0004C857.852 59.7337 855.586 64.5337 854.519 70.4004C853.452 76.0004 852.919 82.0004 852.919 88.4004V244.4C852.919 250.534 853.319 256.534 854.119 262.4C855.186 268.267 857.319 273.067 860.519 276.8C863.986 280.534 869.452 282.4 876.919 282.4ZM1010.49 328.4V4.40037H1150.49V52.8004H1082.09V134.4H1141.69V184.4H1082.09V328.4H1010.49ZM1175.93 328.4V4.40037H1315.93V52.8004H1247.53V134.4H1307.13V184.4H1247.53V328.4H1175.93ZM1341.77 328.4V4.40037H1413.37V328.4H1341.77ZM1546.48 333.2C1521.95 333.2 1502.48 328.8 1488.08 320C1473.95 310.934 1463.95 298.4 1458.08 282.4C1452.21 266.134 1449.28 247.067 1449.28 225.2V108.4C1449.28 86.0004 1452.21 66.8004 1458.08 50.8004C1463.95 34.5337 1473.95 22.0004 1488.08 13.2004C1502.48 4.40037 1521.95 0.000374794 1546.48 0.000374794C1570.48 0.000374794 1589.15 4.00038 1602.48 12.0004C1616.08 19.7337 1625.68 30.667 1631.28 44.8004C1636.88 58.9337 1639.68 75.2004 1639.68 93.6004V121.6H1569.68V89.2004C1569.68 82.8004 1569.28 76.667 1568.48 70.8004C1567.95 64.9337 1566.08 60.1337 1562.88 56.4004C1559.68 52.4004 1554.21 50.4004 1546.48 50.4004C1539.01 50.4004 1533.41 52.4004 1529.68 56.4004C1526.21 60.4004 1523.95 65.467 1522.88 71.6004C1522.08 77.4671 1521.68 83.7337 1521.68 90.4004V242.8C1521.68 250 1522.21 256.667 1523.28 262.8C1524.61 268.667 1527.01 273.467 1530.48 277.2C1534.21 280.667 1539.55 282.4 1546.48 282.4C1553.95 282.4 1559.28 280.534 1562.48 276.8C1565.68 272.8 1567.68 267.734 1568.48 261.6C1569.28 255.467 1569.68 249.2 1569.68 242.8V208.8H1639.68V236.8C1639.68 255.2 1636.88 271.734 1631.28 286.4C1625.95 300.8 1616.48 312.267 1602.88 320.8C1589.55 329.067 1570.75 333.2 1546.48 333.2ZM1671.07 328.4V4.40037H1816.67V53.2004H1742.67V133.6H1799.07V183.2H1742.67V280H1817.47V328.4H1671.07Z" fill="url(#paint0_linear_406_3410)"/>
<defs>
<linearGradient id="paint0_linear_406_3410" x1="12.5847" y1="164.792" x2="1790.61" y2="164.792" gradientUnits="userSpaceOnUse">
<stop stop-color="#9AB1BC" stop-opacity="0.3"/>
<stop offset="1" stop-color="#9AB1BC" stop-opacity="0.1"/>
</linearGradient>
</defs>
</svg>
