<svg width="340" height="1013" viewBox="0 0 340 1013" fill="none" xmlns="http://www.w3.org/2000/svg">
<path d="M330.5 2.51943C330.5 2.76325 330.879 4.8086 331.637 8.65548C332.455 12.6649 332.925 15.076 333.046 15.8887H333.637C333.637 15.8345 334.182 13.3422 335.273 8.41166C336.091 4.70024 336.5 2.70907 336.5 2.43816C336.5 1.70671 336.228 1.12426 335.682 0.690813C335.107 0.230271 334.394 0 333.546 0C332.758 0 332.061 0.243816 331.455 0.731449C330.819 1.21908 330.5 1.81508 330.5 2.51943ZM330.591 19.5866C330.591 20.2638 330.879 20.8598 331.455 21.3746C331.455 21.3746 331.834 21.5236 332.591 21.8216C333.107 22.0112 333.41 22.404 333.5 23C333.591 22.404 333.849 22.0247 334.273 21.8622C334.667 21.6996 335.031 21.5506 335.364 21.4152C335.94 20.9276 336.228 20.3722 336.228 19.7491C336.228 19.0718 335.955 18.4759 335.41 17.9611C334.834 17.4193 334.167 17.1484 333.41 17.1484C332.622 17.1484 331.955 17.3787 331.41 17.8392C330.864 18.2998 330.591 18.8822 330.591 19.5866Z" fill="#A8935F"/>
<rect width="7" height="958" transform="matrix(-1 0 0 1 337 28)" fill="#A8935F" fill-opacity="0.1"/>
<rect x="-0.5" y="0.5" width="6" height="957" transform="matrix(-1 0 0 1 336 28)" stroke="#A8935F" stroke-opacity="0.3"/>
<rect width="7" height="139" transform="matrix(-1 0 0 1 337 398)" fill="#A8935F" fill-opacity="0.2"/>
<rect x="-0.5" y="0.5" width="6" height="138" transform="matrix(-1 0 0 1 336 398)" stroke="#A8935F" stroke-opacity="0.5"/>
<path opacity="0.4" d="M330.502 529.178L335.648 534.321L336.001 533.968L330.856 528.824L330.502 529.178ZM330.502 526.037L335.648 531.181L336.001 530.827L330.856 525.684L330.502 526.037ZM330.502 522.604L335.648 527.747L336.001 527.394L330.856 522.25L330.502 522.604ZM330.502 519.174L335.648 524.317L336.001 523.964L330.856 518.82L330.502 519.174ZM330.502 515.752L335.648 520.896L336.001 520.542L330.856 515.398L330.502 515.752ZM330.502 512.318L335.648 517.462L336.001 517.108L330.856 511.965L330.502 512.318ZM330.502 508.885L335.648 514.028L336.001 513.675L330.856 508.531L330.502 508.885ZM330.502 505.463L335.648 510.606L336.001 510.253L330.856 505.109L330.502 505.463ZM330.502 502.033L335.648 507.177L336.001 506.823L330.856 501.68L330.502 502.033ZM330.502 498.604L335.648 503.747L336.001 503.394L330.856 498.25L330.502 498.604ZM330.502 495.174L335.648 500.317L336.001 499.964L330.856 494.82L330.502 495.174ZM330.502 491.752L335.648 496.896L336.001 496.542L330.856 491.398L330.502 491.752ZM330.502 488.314L335.648 493.458L336.001 493.104L330.856 487.961L330.502 488.314ZM330.502 484.885L335.648 490.028L336.001 489.675L330.856 484.531L330.502 484.885ZM330.502 481.455L335.648 486.599L336.001 486.245L330.856 481.102L330.502 481.455ZM330.502 478.033L335.648 483.177L336.001 482.823L330.856 477.68L330.502 478.033ZM330.502 474.604L335.648 479.747L336.001 479.394L330.856 474.25L330.502 474.604ZM330.502 471.174L335.648 476.317L336.001 475.964L330.856 470.82L330.502 471.174ZM330.502 467.744L335.648 472.888L336.001 472.534L330.856 467.391L330.502 467.744ZM330.502 464.314L335.648 469.458L336.001 469.104L330.856 463.961L330.502 464.314ZM330.502 460.885L335.648 466.028L336.001 465.675L330.856 460.531L330.502 460.885ZM330.502 457.455L335.648 462.599L336.001 462.245L330.856 457.102L330.502 457.455ZM330.502 454.025L335.648 459.169L336.001 458.815L330.856 453.672L330.502 454.025ZM330.502 450.604L335.648 455.747L336.001 455.394L330.856 450.25L330.502 450.604ZM330.502 447.174L335.648 452.317L336.001 451.964L330.856 446.82L330.502 447.174ZM330.502 443.736L335.648 448.88L336.001 448.526L330.856 443.383L330.502 443.736ZM330.502 440.307L335.648 445.45L336.001 445.097L330.856 439.953L330.502 440.307ZM330.502 436.885L335.648 442.028L336.001 441.675L330.856 436.531L330.502 436.885ZM330.502 433.455L335.648 438.599L336.001 438.245L330.856 433.102L330.502 433.455ZM330.502 430.025L335.648 435.169L336.001 434.815L330.856 429.672L330.502 430.025ZM330.502 426.596L335.648 431.739L336.001 431.386L330.856 426.242L330.502 426.596ZM330.502 423.174L335.648 428.317L336.001 427.964L330.856 422.82L330.502 423.174ZM330.502 419.74L335.648 424.884L336.001 424.53L330.856 419.387L330.502 419.74ZM330.502 416.307L335.648 421.45L336.001 421.097L330.856 415.953L330.502 416.307ZM330.502 412.885L335.648 418.028L336.001 417.675L330.856 412.531L330.502 412.885ZM330.502 409.455L335.648 414.599L336.001 414.245L330.856 409.102L330.502 409.455ZM330.502 406.025L335.648 411.169L336.001 410.815L330.856 405.672L330.502 406.025ZM330.502 402.596L335.648 407.739L336.001 407.386L330.856 402.242L330.502 402.596ZM330.502 399.174L335.648 404.317L336.001 403.964L330.856 398.82L330.502 399.174Z" fill="#A8935F"/>
<path d="M340 28H327" stroke="#A8935F" stroke-width="1.5"/>
<path d="M340 986H327" stroke="#A8935F" stroke-width="1.5"/>
<path d="M330.5 1010.59C330.5 1010.36 330.879 1008.4 331.637 1004.72C332.455 1000.89 332.925 998.58 333.046 997.802H333.637C333.637 997.854 334.182 1000.24 335.273 1004.95C336.091 1008.5 336.5 1010.41 336.5 1010.67C336.5 1011.37 336.228 1011.92 335.682 1012.34C335.107 1012.78 334.394 1013 333.546 1013C332.758 1013 332.061 1012.77 331.455 1012.3C330.819 1011.83 330.5 1011.26 330.5 1010.59ZM330.591 994.265C330.591 993.617 330.879 993.047 331.455 992.555C331.455 992.555 331.834 992.412 332.591 992.127C333.107 991.946 333.41 991.57 333.5 991C333.591 991.57 333.849 991.933 334.273 992.088C334.667 992.244 335.031 992.386 335.364 992.516C335.94 992.982 336.228 993.514 336.228 994.11C336.228 994.757 335.955 995.327 335.41 995.82C334.834 996.338 334.167 996.597 333.41 996.597C332.622 996.597 331.955 996.377 331.41 995.936C330.864 995.496 330.591 994.939 330.591 994.265Z" fill="#A8935F"/>
<path opacity="0.3" d="M15.0005 466.5L311 466.5" stroke="#CDBC79" stroke-width="2"/>
<path d="M1.25049 458.648V474.352L15.0708 466.5L1.25049 458.648Z" fill="#CDBC79" fill-opacity="0.5" stroke="#A8935F" stroke-width="2.5"/>
<path d="M12.8013 466.5H27.2013" stroke="url(#paint0_linear_1590_4890)" stroke-width="2"/>
<path d="M329.75 458.648V474.352L315.93 466.5L329.75 458.648Z" fill="#CDBC79" fill-opacity="0.5" stroke="#A8935F" stroke-width="2.5"/>
<path d="M318.2 466.5H303.8" stroke="url(#paint1_linear_1590_4890)" stroke-width="2"/>
<defs>
<linearGradient id="paint0_linear_1590_4890" x1="12.8013" y1="466" x2="27.2013" y2="466" gradientUnits="userSpaceOnUse">
<stop offset="0.216346" stop-color="#A8935F"/>
<stop offset="1" stop-color="#A8935F" stop-opacity="0"/>
</linearGradient>
<linearGradient id="paint1_linear_1590_4890" x1="318.2" y1="466" x2="303.8" y2="466" gradientUnits="userSpaceOnUse">
<stop offset="0.216346" stop-color="#A8935F"/>
<stop offset="1" stop-color="#A8935F" stop-opacity="0"/>
</linearGradient>
</defs>
</svg>
