<svg width="13" height="1013" viewBox="0 0 13 1013" fill="none" xmlns="http://www.w3.org/2000/svg">
<path d="M9.5 2.51943C9.5 2.76325 9.12121 4.8086 8.36364 8.65548C7.54545 12.6649 7.07576 15.076 6.95455 15.8887H6.36364C6.36364 15.8345 5.81818 13.3422 4.72727 8.41166C3.90909 4.70024 3.5 2.70907 3.5 2.43816C3.5 1.70671 3.77273 1.12426 4.31818 0.690813C4.89394 0.230271 5.60606 0 6.45455 0C7.24242 0 7.93939 0.243816 8.54545 0.731449C9.18182 1.21908 9.5 1.81508 9.5 2.51943ZM9.40909 19.5866C9.40909 20.2638 9.12121 20.8598 8.54545 21.3746C8.54545 21.3746 8.16667 21.5236 7.40909 21.8216C6.89394 22.0112 6.59091 22.404 6.5 23C6.40909 22.404 6.15152 22.0247 5.72727 21.8622C5.33333 21.6996 4.9697 21.5506 4.63636 21.4152C4.06061 20.9276 3.77273 20.3722 3.77273 19.7491C3.77273 19.0718 4.04545 18.4759 4.59091 17.9611C5.16667 17.4193 5.83333 17.1484 6.59091 17.1484C7.37879 17.1484 8.04545 17.3787 8.59091 17.8392C9.13636 18.2998 9.40909 18.8822 9.40909 19.5866Z" fill="#A8935F"/>
<rect x="3" y="28" width="7" height="958" fill="#A8935F" fill-opacity="0.1"/>
<rect x="3.5" y="28.5" width="6" height="957" stroke="#A8935F" stroke-opacity="0.3"/>
<rect x="3" y="478" width="7" height="139" fill="#A8935F" fill-opacity="0.2"/>
<rect x="3.5" y="478.5" width="6" height="138" stroke="#A8935F" stroke-opacity="0.5"/>
<path opacity="0.4" d="M9.49805 609.178L4.35254 614.321L3.99902 613.968L9.14453 608.824L9.49805 609.178ZM9.49805 606.037L4.35254 611.181L3.99902 610.827L9.14453 605.684L9.49805 606.037ZM9.49805 602.604L4.35254 607.747L3.99902 607.394L9.14453 602.25L9.49805 602.604ZM9.49805 599.174L4.35254 604.317L3.99902 603.964L9.14453 598.82L9.49805 599.174ZM9.49805 595.752L4.35254 600.896L3.99902 600.542L9.14453 595.398L9.49805 595.752ZM9.49805 592.318L4.35254 597.462L3.99902 597.108L9.14453 591.965L9.49805 592.318ZM9.49805 588.885L4.35254 594.028L3.99902 593.675L9.14453 588.531L9.49805 588.885ZM9.49805 585.463L4.35254 590.606L3.99902 590.253L9.14453 585.109L9.49805 585.463ZM9.49805 582.033L4.35254 587.177L3.99902 586.823L9.14453 581.68L9.49805 582.033ZM9.49805 578.604L4.35254 583.747L3.99902 583.394L9.14453 578.25L9.49805 578.604ZM9.49805 575.174L4.35254 580.317L3.99902 579.964L9.14453 574.82L9.49805 575.174ZM9.49805 571.752L4.35254 576.896L3.99902 576.542L9.14453 571.398L9.49805 571.752ZM9.49805 568.314L4.35254 573.458L3.99902 573.104L9.14453 567.961L9.49805 568.314ZM9.49805 564.885L4.35254 570.028L3.99902 569.675L9.14453 564.531L9.49805 564.885ZM9.49805 561.455L4.35254 566.599L3.99902 566.245L9.14453 561.102L9.49805 561.455ZM9.49805 558.033L4.35254 563.177L3.99902 562.823L9.14453 557.68L9.49805 558.033ZM9.49805 554.604L4.35254 559.747L3.99902 559.394L9.14453 554.25L9.49805 554.604ZM9.49805 551.174L4.35254 556.317L3.99902 555.964L9.14453 550.82L9.49805 551.174ZM9.49805 547.744L4.35254 552.888L3.99902 552.534L9.14453 547.391L9.49805 547.744ZM9.49805 544.314L4.35254 549.458L3.99902 549.104L9.14453 543.961L9.49805 544.314ZM9.49805 540.885L4.35254 546.028L3.99902 545.675L9.14453 540.531L9.49805 540.885ZM9.49805 537.455L4.35254 542.599L3.99902 542.245L9.14453 537.102L9.49805 537.455ZM9.49805 534.025L4.35254 539.169L3.99902 538.815L9.14453 533.672L9.49805 534.025ZM9.49805 530.604L4.35254 535.747L3.99902 535.394L9.14453 530.25L9.49805 530.604ZM9.49805 527.174L4.35254 532.317L3.99902 531.964L9.14453 526.82L9.49805 527.174ZM9.49805 523.736L4.35254 528.88L3.99902 528.526L9.14453 523.383L9.49805 523.736ZM9.49805 520.307L4.35254 525.45L3.99902 525.097L9.14453 519.953L9.49805 520.307ZM9.49805 516.885L4.35254 522.028L3.99902 521.675L9.14453 516.531L9.49805 516.885ZM9.49805 513.455L4.35254 518.599L3.99902 518.245L9.14453 513.102L9.49805 513.455ZM9.49805 510.025L4.35254 515.169L3.99902 514.815L9.14453 509.672L9.49805 510.025ZM9.49805 506.596L4.35254 511.739L3.99902 511.386L9.14453 506.242L9.49805 506.596ZM9.49805 503.174L4.35254 508.317L3.99902 507.964L9.14453 502.82L9.49805 503.174ZM9.49805 499.74L4.35254 504.884L3.99902 504.53L9.14453 499.387L9.49805 499.74ZM9.49805 496.307L4.35254 501.45L3.99902 501.097L9.14453 495.953L9.49805 496.307ZM9.49805 492.885L4.35254 498.028L3.99902 497.675L9.14453 492.531L9.49805 492.885ZM9.49805 489.455L4.35254 494.599L3.99902 494.245L9.14453 489.102L9.49805 489.455ZM9.49805 486.025L4.35254 491.169L3.99902 490.815L9.14453 485.672L9.49805 486.025ZM9.49805 482.596L4.35254 487.739L3.99902 487.386L9.14453 482.242L9.49805 482.596ZM9.49805 479.174L4.35254 484.317L3.99902 483.964L9.14453 478.82L9.49805 479.174Z" fill="#A8935F"/>
<path d="M0 28H13" stroke="#A8935F" stroke-width="1.5"/>
<path d="M0 986H13" stroke="#A8935F" stroke-width="1.5"/>
<path d="M9.5 1010.59C9.5 1010.36 9.12121 1008.4 8.36364 1004.72C7.54545 1000.89 7.07576 998.58 6.95455 997.802H6.36364C6.36364 997.854 5.81818 1000.24 4.72727 1004.95C3.90909 1008.5 3.5 1010.41 3.5 1010.67C3.5 1011.37 3.77273 1011.92 4.31818 1012.34C4.89394 1012.78 5.60606 1013 6.45455 1013C7.24242 1013 7.93939 1012.77 8.54545 1012.3C9.18182 1011.83 9.5 1011.26 9.5 1010.59ZM9.40909 994.265C9.40909 993.617 9.12121 993.047 8.54545 992.555C8.54545 992.555 8.16667 992.412 7.40909 992.127C6.89394 991.946 6.59091 991.57 6.5 991C6.40909 991.57 6.15152 991.933 5.72727 992.088C5.33333 992.244 4.9697 992.386 4.63636 992.516C4.06061 992.982 3.77273 993.514 3.77273 994.11C3.77273 994.757 4.04545 995.327 4.59091 995.82C5.16667 996.338 5.83333 996.597 6.59091 996.597C7.37879 996.597 8.04545 996.377 8.59091 995.936C9.13636 995.496 9.40909 994.939 9.40909 994.265Z" fill="#A8935F"/>
</svg>
