<svg width="765" height="878" viewBox="0 0 765 878" fill="none" xmlns="http://www.w3.org/2000/svg">
<mask id="mask0_406_2498" style="mask-type:luminance" maskUnits="userSpaceOnUse" x="199" y="426" width="307" height="452">
<path d="M199.958 877.67H346.036L505.743 426.824H359.239L199.958 877.67Z" fill="white"/>
</mask>
<g mask="url(#mask0_406_2498)">
<path d="M6.1698 764.851L276.181 293.415L699.085 539.643L429.074 1010.65L6.1698 764.851Z" fill="url(#paint0_linear_406_2498)"/>
</g>
<path d="M508.291 16.3008L436.316 215.342L676.941 877.67H826.001L508.291 16.3008Z" fill="url(#paint1_linear_406_2498)"/>
<mask id="mask1_406_2498" style="mask-type:luminance" maskUnits="userSpaceOnUse" x="0" y="0" width="458" height="878">
<path d="M311.322 0L0 877.67H146.505L457.401 0H311.322Z" fill="white"/>
</mask>
<g mask="url(#mask1_406_2498)">
<path d="M-377.345 658.038L114.553 -199.471L834.725 219.203L343.253 1077.14L-377.345 658.038Z" fill="url(#paint2_linear_406_2498)"/>
</g>
<defs>
<linearGradient id="paint0_linear_406_2498" x1="103.518" y1="1086.01" x2="605.116" y2="223.458" gradientUnits="userSpaceOnUse">
<stop stop-color="#00C8EB"/>
<stop offset="0.2088" stop-color="#00C8EB"/>
<stop offset="0.7372" stop-color="#734BD7"/>
<stop offset="1" stop-color="#734BD7"/>
</linearGradient>
<linearGradient id="paint1_linear_406_2498" x1="755.5" y1="863.5" x2="436" y2="2.99999" gradientUnits="userSpaceOnUse">
<stop stop-color="white"/>
<stop offset="1" stop-color="white" stop-opacity="0"/>
</linearGradient>
<linearGradient id="paint2_linear_406_2498" x1="-46.4681" y1="919.138" x2="747.86" y2="-446.789" gradientUnits="userSpaceOnUse">
<stop stop-color="#00C8EB"/>
<stop offset="0.042" stop-color="#00C8EB"/>
<stop offset="0.0484" stop-color="#02C6EB"/>
<stop offset="0.2631" stop-color="#3292E2"/>
<stop offset="0.4494" stop-color="#556BDC" stop-opacity="0.6"/>
<stop offset="0.5981" stop-color="#6B54D8" stop-opacity="0.2"/>
<stop offset="0.6907" stop-color="#734BD7" stop-opacity="0.1"/>
<stop offset="1" stop-color="#734BD7" stop-opacity="0"/>
</linearGradient>
</defs>
</svg>
